<svg width="1207" height="348" viewBox="0 0 1207 348" fill="none" xmlns="http://www.w3.org/2000/svg">
<g clip-path="url(#clip0_169_2)">
<path d="M1207 24H0V333H1207V24Z" fill="#F6851F"/>
<path d="M300.365 316.237C300.365 316.237 289.625 127.399 439.893 79.0778C590.161 30.7564 631.158 127.057 729.348 119.018C827.623 110.978 927.943 172.385 887.031 316.323H300.365V316.237Z" fill="#FFFBEA"/>
<path d="M654.257 82.8408V110.209H596.383V55.3874H586.581V43.0719H544.987V55.3874H534.333V176.747H510.211V93.1037H491.63V83.525H464.611V93.1037H457.963V176.747V194.108V316.066H713.665V201.463V176.747V82.8408H654.257Z" fill="#FCEED9"/>
<path d="M574.188 318.731H577.086V229.358H574.188V318.731Z" fill="#EFD9BB"/>
<path d="M506.252 318.731H509.15V229.358H506.252V318.731Z" fill="#EFD9BB"/>
<path d="M472.117 318.731H475.015V229.358H472.117V318.731Z" fill="#EFD9BB"/>
<path d="M608.408 318.731H611.306V229.358H608.408V318.731Z" fill="#EFD9BB"/>
<path d="M571.836 199.667C571.836 199.667 605.077 224.812 611.299 229.43H507.995L480.55 199.667H571.836Z" fill="#EFD9BB"/>
<path d="M480.55 199.667L472.026 229.344H507.995L480.55 199.667Z" fill="#EFD9BB"/>
<path d="M507.995 229.344C507.995 229.344 508.677 235.16 510.296 238.752L614.793 238.496C614.793 238.496 612.236 232.509 611.299 229.344H507.995Z" fill="#EFD9BB"/>
<path d="M571.836 199.667L570.216 194.792H480.55V199.667H571.836Z" fill="#EFD9BB"/>
<path d="M440.405 160.069C440.49 159.129 440.575 158.102 440.575 157.162C440.575 142.024 428.387 129.794 413.3 129.794C409.038 129.794 405.032 130.82 401.367 132.531C396.679 124.32 387.9 118.847 377.758 118.847C368.978 118.847 361.137 123.037 356.108 129.623C352.272 127.57 347.926 126.458 343.323 126.458C328.236 126.458 316.048 138.688 316.048 153.826C316.048 153.912 316.048 153.912 316.048 153.997C302.411 155.451 291.756 167.083 291.756 181.194C291.756 196.332 303.945 208.562 319.031 208.562C321.333 208.562 323.463 208.22 325.594 207.707C329.856 217.114 339.402 223.7 350.397 223.7C358.239 223.7 365.228 220.364 370.172 215.147C375.2 221.134 382.701 224.983 391.054 224.983C402.049 224.983 411.51 218.483 415.772 209.075C419.437 210.957 423.613 211.983 427.96 211.983C443.047 211.983 455.235 199.753 455.235 184.615C455.406 173.753 449.269 164.517 440.405 160.069Z" fill="#EFD9BB"/>
<path d="M399.151 244.995L395.145 239.778C395.145 239.778 390.031 242.344 383.553 246.962C383.639 233.364 385.343 219.937 389.861 208.904L383.298 206.338C383.298 206.338 371.706 227.121 370.598 242.429C370.598 242.429 366.592 218.739 356.023 206.338L352.017 212.496C352.017 212.496 360.37 227.463 361.478 255.173C362.586 282.883 344.431 316.066 344.431 316.066H393.1C393.1 316.066 385.173 287.843 383.724 257.396C389.008 252.35 394.634 247.475 399.151 244.995Z" fill="#EFD9BB"/>
<path d="M890.867 93.1038C890.952 92.163 891.037 91.2223 891.037 90.2815C891.037 75.8278 879.36 64.111 864.956 64.111C860.864 64.111 857.029 65.0518 853.619 66.7622C849.102 58.9795 840.749 53.677 831.032 53.677C822.594 53.677 815.094 57.6967 810.406 63.9399C806.741 61.9729 802.564 60.8611 798.217 60.8611C783.813 60.8611 772.136 72.5779 772.136 87.0316C772.136 87.1171 772.136 87.1171 772.136 87.2026C759.095 88.6565 748.952 99.6892 748.952 113.202C748.952 127.656 760.629 139.373 775.034 139.373C777.164 139.373 779.295 139.116 781.341 138.603C785.432 147.668 794.467 153.912 805.036 153.912C812.537 153.912 819.185 150.747 823.958 145.701C828.731 151.432 835.891 155.109 843.903 155.109C854.387 155.109 863.421 148.866 867.513 139.886C871.007 141.682 875.013 142.708 879.19 142.708C893.594 142.708 905.271 130.991 905.271 116.538C905.186 106.189 899.39 97.38 890.867 93.1038Z" fill="#EFD9BB"/>
<path d="M871.007 171.273C871.007 171.017 871.093 170.675 871.093 170.332C871.093 165.714 867.342 161.865 862.654 161.865C861.376 161.865 860.097 162.208 858.989 162.721C857.54 160.155 854.813 158.53 851.744 158.53C849.017 158.53 846.63 159.813 845.096 161.865C843.903 161.267 842.539 160.839 841.175 160.839C836.573 160.839 832.737 164.602 832.737 169.306C832.737 169.306 832.737 169.306 832.737 169.392C828.561 169.819 825.237 173.411 825.237 177.773C825.237 182.391 828.987 186.24 833.675 186.24C834.357 186.24 835.038 186.154 835.72 185.983C837.084 188.891 839.982 190.944 843.391 190.944C845.778 190.944 847.994 189.918 849.528 188.293C851.063 190.174 853.364 191.286 856.006 191.286C859.415 191.286 862.313 189.233 863.677 186.411C864.785 187.01 866.064 187.352 867.427 187.352C872.03 187.352 875.866 183.589 875.866 178.885C875.61 175.549 873.735 172.642 871.007 171.273Z" fill="#EFD9BB"/>
<path d="M848.25 164.944L844.926 160.583C844.926 160.583 840.749 162.721 835.379 166.569C835.465 155.28 836.828 144.162 840.664 135.011L835.209 132.873C835.209 132.873 825.578 150.063 824.64 162.806C824.64 162.806 821.316 143.136 812.622 132.873L809.298 138.004C809.298 138.004 816.202 150.405 817.139 173.326C818.077 196.246 798.558 315.981 798.558 315.981H838.874C838.874 315.981 823.361 206.253 835.55 175.122C839.812 171.102 844.414 166.997 848.25 164.944Z" fill="#EFD9BB"/>
<path d="M357.898 64.9663H425.062C425.062 64.9663 419.778 54.5323 409.379 52.9073C398.981 51.2823 396.765 57.4401 391.48 57.1835C386.196 56.927 381.593 48.0324 372.303 49.4863C363.012 50.9402 362.671 62.5716 351.164 57.6967C339.658 52.7363 334.544 65.0518 334.544 65.0518H357.898V64.9663Z" fill="#FCEED9"/>
<path d="M651.444 43.0719H707.443C707.443 43.0719 701.647 31.3551 689.97 29.3025C678.293 27.2499 672.497 39.2233 665.508 36.23C658.519 33.1511 651.274 39.822 651.444 43.0719Z" fill="#FCEED9"/>
<path d="M887.287 316.066H300.621V322.309H887.287V316.066Z" fill="#E0C5A4"/>
<path d="M308.633 316.066C308.633 316.066 308.633 299.474 323.975 294.343C339.317 289.211 347.67 301.441 347.67 301.441C347.67 301.441 352.443 294.514 362.842 295.968C377.417 298.02 377.417 315.895 377.417 315.895L308.633 316.066Z" fill="#A8A856"/>
<path d="M557.09 316.066C557.09 316.066 557.09 299.474 572.432 294.343C587.774 289.211 596.127 301.441 596.127 301.441C596.127 301.441 600.9 294.514 611.299 295.968C625.874 298.02 625.874 315.895 625.874 315.895L557.09 316.066Z" fill="#A8A856"/>
<path d="M790.631 265.35H740.002V316.152H790.631V265.35Z" fill="#9C897A"/>
<path d="M864.785 280.573H813.9V316.066H864.785V280.573Z" fill="#E7B142"/>
<path d="M835.294 280.573H807.764V316.066H835.294V280.573Z" fill="#D69D38"/>
<path d="M835.294 280.573L839.3 286.475H868.706L864.785 280.573H835.294Z" fill="#D69D38"/>
<path d="M835.294 280.573L831.459 286.475H803.928L807.764 280.573H835.294Z" fill="#E7B142"/>
<path d="M850.381 263.297C850.381 260.561 847.483 262.699 847.483 262.699C847.483 262.699 848.079 258.765 847.142 256.969C845.352 253.633 843.391 257.054 843.391 257.054C843.391 257.054 843.05 253.206 840.323 253.719C837.596 254.232 839.982 258.08 839.982 258.08C839.982 258.08 836.658 257.482 837.169 260.133C837.596 262.442 841.09 264.837 841.09 264.837C841.09 264.837 838.789 265.35 839.385 267.232C839.982 269.113 847.312 269.797 847.312 269.797C847.312 269.797 850.381 265.949 850.381 263.297Z" fill="#A8A856"/>
<path d="M839.982 269.028L841.261 280.573H852L853.193 269.028H839.982Z" fill="#9C897A"/>
<path d="M853.449 265.264C852.256 267.916 848.591 269.37 848.335 269.455C848.335 269.455 847.142 265.949 848.676 262.87C850.21 259.791 854.216 259.107 854.216 259.107C854.216 259.107 854.642 262.528 853.449 265.264Z" fill="#A8A856"/>
<path d="M854.216 259.021C851.148 261.33 848.42 269.028 848.335 269.37C848.335 269.37 847.142 265.863 848.676 262.784C850.21 259.705 854.216 259.021 854.216 259.021Z" fill="#A8A856"/>
<path d="M839.385 269.028L839.556 270.909H853.449L853.705 269.028H839.385Z" fill="#AD998C"/>
<path d="M662.865 130.649H656.814V316.066H662.865V130.649Z" fill="#7F6B5D"/>
<path d="M662.013 174.951C662.013 174.951 663.377 179.312 669.599 179.312C675.821 179.312 676.418 174.951 676.418 174.951C676.418 174.951 681.276 176.49 685.538 179.141C689.8 181.793 693.55 190.345 693.55 190.345L688.692 194.878L682.725 190.687V227.377H654.854L655.024 191.457L649.74 195.134L643.517 187.352C643.517 187.352 649.058 180.253 652.467 178.286C655.876 176.319 662.013 174.951 662.013 174.951Z" fill="#4C8291"/>
<path d="M687.924 174.951C687.924 174.951 689.288 179.312 695.51 179.312C701.732 179.312 702.329 174.951 702.329 174.951C702.329 174.951 707.187 176.49 711.449 179.141C715.711 181.793 719.461 190.345 719.461 190.345L714.603 194.878L708.636 190.687L709.659 232.081H678.719L680.85 191.542L675.565 195.22L669.514 187.352C669.514 187.352 675.054 180.253 678.463 178.286C681.788 176.319 687.924 174.951 687.924 174.951Z" fill="#E7B142"/>
<path d="M789.779 219.595L778.699 190.345L778.613 190.089C778.017 188.72 774.607 181.451 770.772 179.056C766.51 176.405 761.652 174.865 761.652 174.865C761.652 174.865 761.055 179.227 754.833 179.227C748.611 179.227 747.247 174.865 747.247 174.865C747.247 174.865 741.11 176.319 737.701 178.286C734.292 180.253 730.456 189.661 730.456 189.661L719.376 219.167L729.178 223.016L740.599 197.615L733.695 252.094H773.329L768.556 197.957L780.062 223.443L789.779 219.595Z" fill="#8A93E2"/>
<path d="M784.75 174.951C784.75 174.951 786.114 179.312 792.336 179.312C798.558 179.312 799.155 174.951 799.155 174.951C799.155 174.951 804.013 176.49 808.275 179.141C812.537 181.793 816.287 190.345 816.287 190.345L811.429 194.878L805.462 190.687V227.377H777.591L777.761 191.457L772.477 195.134L766.255 187.352C766.255 187.352 771.795 180.253 775.204 178.286C778.613 176.319 784.75 174.951 784.75 174.951Z" fill="#A8A856"/>
<path d="M688.095 175.549L695.169 173.411L702.67 175.635" stroke="#5F3E1B" stroke-width="0.5" stroke-miterlimit="10"/>
<path d="M836.061 316.066H834.357V178.543C834.357 173.497 830.265 169.477 825.322 169.477H644.199C639.171 169.477 635.165 173.582 635.165 178.543V316.152H633.46V178.543C633.46 172.556 638.318 167.767 644.199 167.767H825.322C831.288 167.767 836.061 172.642 836.061 178.543V316.066Z" fill="#5E4F45"/>
<path d="M695.169 173.411V171.017C695.169 171.017 697.044 170.332 697.044 168.194C697.044 166.056 693.891 166.313 693.891 168.365" stroke="#5F3E1B" stroke-width="0.5" stroke-miterlimit="10" stroke-linecap="round"/>
<path d="M661.928 175.549L669.002 173.411L676.418 175.635" stroke="#5F3E1B" stroke-width="0.5" stroke-miterlimit="10"/>
<path d="M669.003 173.411V171.017C669.003 171.017 670.878 170.332 670.878 168.194C670.878 166.056 667.724 166.313 667.724 168.365" stroke="#5F3E1B" stroke-width="0.5" stroke-miterlimit="10" stroke-linecap="round"/>
<path d="M747.333 175.549L754.407 173.411L761.822 175.635" stroke="#5F3E1B" stroke-width="0.5" stroke-miterlimit="10"/>
<path d="M754.407 173.411V171.017C754.407 171.017 756.282 170.332 756.282 168.194C756.282 166.056 753.128 166.313 753.128 168.365" stroke="#5F3E1B" stroke-width="0.5" stroke-miterlimit="10" stroke-linecap="round"/>
<path d="M784.75 175.549L791.825 173.411L799.24 175.635" stroke="#5F3E1B" stroke-width="0.5" stroke-miterlimit="10"/>
<path d="M791.825 173.411V171.017C791.825 171.017 793.7 170.332 793.7 168.194C793.7 166.056 790.546 166.313 790.546 168.365" stroke="#5F3E1B" stroke-width="0.5" stroke-miterlimit="10" stroke-linecap="round"/>
<path d="M803.843 130.649H797.791V316.066H803.843V130.649Z" fill="#9C897A"/>
<path d="M874.758 130.649H868.706V316.066H874.758V130.649Z" fill="#7F6B5D"/>
<path d="M591.951 130.649H585.899V316.066H591.951V130.649Z" fill="#9C897A"/>
<path d="M667.809 68.9858C667.809 68.9858 598.855 121.07 585.984 130.649H800.348L857.284 68.9858H667.809Z" fill="#FFF5DD"/>
<path d="M857.199 68.9858L874.928 130.649H800.348L857.199 68.9858Z" fill="#FF9178"/>
<path d="M800.348 130.649C800.348 130.649 798.984 142.708 795.66 150.234L578.74 149.721C578.74 149.721 584.024 137.234 585.899 130.649H800.348Z" fill="#E8D5AF"/>
<path d="M667.809 68.9859L671.133 58.9795H857.199V68.9859H667.809Z" fill="#FF9178"/>
<path d="M577.461 256.798H452.082V261.16H577.461V256.798Z" fill="#9C897A"/>
<path d="M566.04 261.074H461.884V277.495H566.04V261.074Z" fill="#C5BA9F"/>
<path d="M464.696 277.495H461.884V316.066H464.696V277.495Z" fill="#9C897A"/>
<path d="M566.04 277.495H563.227V316.066H566.04V277.495Z" fill="#9C897A"/>
<path d="M468.788 277.495H464.696V281.6V288.442C466.998 288.442 468.788 286.56 468.788 284.337V281.6H471.515C473.816 281.6 475.606 279.719 475.606 277.495H468.788Z" fill="#9C897A"/>
<path d="M559.05 277.495H563.142V281.6V288.442C560.84 288.442 559.05 286.56 559.05 284.337V281.6H556.323C554.022 281.6 552.232 279.719 552.232 277.495H559.05Z" fill="#9C897A"/>
<path d="M505.609 273.646H468.276C467.85 273.646 467.424 273.304 467.424 272.791V265.521C467.424 265.094 467.765 264.666 468.276 264.666H505.609C506.035 264.666 506.461 265.008 506.461 265.521V272.791C506.461 273.304 506.035 273.646 505.609 273.646Z" fill="#9C897A"/>
<path d="M559.391 273.646H522.059C521.633 273.646 521.207 273.304 521.207 272.791V265.521C521.207 265.094 521.547 264.666 522.059 264.666H559.391C559.818 264.666 560.244 265.008 560.244 265.521V272.791C560.244 273.304 559.903 273.646 559.391 273.646Z" fill="#9C897A"/>
<path d="M541.833 252.35H537.912V236.785H536.122V252.35H532.543C530.071 252.35 528.11 254.317 528.11 256.798H529.133H546.265C546.265 254.317 544.22 252.35 541.833 252.35Z" fill="#5E4F45"/>
<path d="M543.794 218.654H541.663H532.713H530.582L523.678 240.634H532.713H541.663H550.698L543.794 218.654Z" fill="#FF9178"/>
<path d="M512.854 256.798H473.987C471.856 256.798 470.237 255.087 470.237 253.035V234.818C470.237 232.68 471.941 231.055 473.987 231.055H512.854C514.984 231.055 516.604 232.765 516.604 234.818V253.035C516.604 255.087 514.899 256.798 512.854 256.798Z" fill="#C5BA9F"/>
<path d="M479.442 250.982C483.019 250.982 485.92 248.072 485.92 244.482C485.92 240.893 483.019 237.982 479.442 237.982C475.864 237.982 472.964 240.893 472.964 244.482C472.964 248.072 475.864 250.982 479.442 250.982Z" fill="#9C897A"/>
<path d="M506.461 250.982C510.039 250.982 512.939 248.072 512.939 244.482C512.939 240.893 510.039 237.982 506.461 237.982C502.884 237.982 499.983 240.893 499.983 244.482C499.983 248.072 502.884 250.982 506.461 250.982Z" fill="#9C897A"/>
<path d="M496.148 241.746H489.329V246.792H496.148V241.746Z" fill="#9C897A"/>
<path d="M455.832 283.567H321.844V289.554H455.832V283.567Z" fill="#9C897A"/>
<path d="M358.836 314.014L351.25 289.468H349.46L355.085 311.619C355.256 312.218 354.83 312.902 354.148 312.902H341.874C341.192 312.902 340.766 312.218 340.936 311.619L346.903 289.468H345.198L337.101 314.014C336.76 314.954 337.527 315.981 338.55 315.981H357.387C358.409 315.981 359.176 315.04 358.836 314.014Z" fill="#C4C29D"/>
<path d="M348.607 314.014L341.022 289.468H339.232L344.857 311.619C345.028 312.218 344.601 312.902 343.92 312.902H331.646C330.964 312.902 330.538 312.218 330.708 311.619L336.675 289.468H334.97L326.873 314.014C326.532 314.954 327.299 315.981 328.322 315.981H347.158C348.181 315.981 348.948 315.04 348.607 314.014Z" fill="#F7F7AF"/>
<path d="M417.306 314.014L424.892 289.468H426.767L421.142 311.619C420.971 312.218 421.397 312.902 422.079 312.902H434.353C435.035 312.902 435.461 312.218 435.29 311.619L429.324 289.468H431.029L439.126 314.014C439.467 314.954 438.7 315.981 437.677 315.981H418.84C417.732 315.981 416.965 315.04 417.306 314.014Z" fill="#C4C29D"/>
<path d="M427.534 314.014L435.12 289.468H436.995L431.37 311.619C431.199 312.218 431.625 312.902 432.307 312.902H444.581C445.263 312.902 445.689 312.218 445.519 311.619L439.552 289.468H441.257L449.354 314.014C449.695 314.954 448.928 315.981 447.905 315.981H429.068C427.96 315.981 427.193 315.04 427.534 314.014Z" fill="#F7F7AF"/>
<path d="M329.43 273.988C329.43 273.988 328.577 271.422 327.64 269.797C326.702 268.172 326.958 267.659 326.02 266.376C325.083 265.094 323.634 265.607 322.782 263.982C321.929 262.357 319.628 263.041 318.69 261.758C317.753 260.39 318.435 260.048 317.582 258.936C316.73 257.824 318.946 257.738 319.969 259.449C320.992 261.159 321.503 260.903 323.037 261.331C324.571 261.758 324.23 263.811 325.253 263.811C326.276 263.896 327.384 263.725 328.492 265.949C329.6 268.172 329.515 271.08 330.112 271.422C330.708 271.765 330.453 273.561 330.453 273.561L329.43 273.988Z" fill="#8D8E3E"/>
<path d="M329.856 272.62C329.856 272.62 328.236 268.857 327.896 266.377C327.555 263.896 327.469 262.614 326.191 261.074C324.912 259.62 324.145 258.337 324.571 256.883C324.912 255.344 322.782 254.831 322.611 253.12C322.441 251.41 322.867 250.726 322.611 249.87C322.355 249.015 322.27 247.903 322.611 247.903C322.952 247.903 324.657 249.785 324.657 251.41C324.742 253.035 324.571 252.864 326.106 254.318C327.64 255.857 326.276 257.739 327.043 259.022C327.896 260.304 328.748 259.278 329.43 262.785C330.112 266.377 330.026 267.831 330.879 269.113C331.731 270.396 331.39 273.732 331.39 273.732L329.856 273.903V272.62Z" fill="#A8A856"/>
<path d="M330.453 270.995C330.453 270.995 330.112 264.666 330.964 262.186C331.816 259.706 331.816 258.594 331.475 256.627C331.134 254.66 331.987 252.436 332.669 251.752C333.351 250.982 333.351 247.903 334.459 247.903C335.567 247.818 334.032 251.752 334.459 252.522C334.885 253.291 333.18 255.771 333.521 257.054C333.862 258.337 334.544 260.048 333.691 262.785C332.839 265.521 331.561 266.12 332.583 267.83C333.692 269.541 332.583 273.646 332.583 273.646L330.879 273.39L330.453 270.995Z" fill="#8D8E3E"/>
<path d="M334.288 273.561C334.288 273.561 336.078 269.627 335.822 266.804C335.567 263.896 337.697 263.041 338.635 260.818C339.573 258.594 338.55 256.627 338.465 254.66C338.379 252.607 338.806 251.068 338.038 250.555C337.271 250.041 336.675 253.719 337.271 255.173C337.868 256.627 336.845 257.568 336.078 259.278C335.311 260.989 335.567 261.331 334.288 263.298C333.01 265.265 332.669 273.561 332.669 273.561H334.288Z" fill="#A8A856"/>
<path d="M325.424 270.14V277.495C325.424 279.547 326.702 281.343 328.492 282.113V283.567H335.226V281.857C336.76 281.001 337.783 279.376 337.783 277.409V270.054H325.424V270.14Z" fill="#ECA742"/>
<path d="M364.12 246.791C364.12 246.791 368.552 252.949 367.87 265.863" stroke="#70702A" stroke-miterlimit="10"/>
<path d="M367.956 270.311C367.956 270.311 370.427 254.831 378.695 255.857" stroke="#70702A" stroke-miterlimit="10"/>
<path d="M392.247 263.64C392.333 262.784 393.526 262.015 394.975 261.502C394.719 260.475 394.378 259.449 393.952 258.508C391.565 259.962 388.156 261.673 387.986 260.219C387.815 258.765 390.713 257.225 392.759 256.199C392.077 255.173 391.31 254.318 390.372 253.633C388.241 255.344 384.15 258.423 383.809 256.798C383.468 255.429 385.94 253.633 387.815 252.436C385.343 251.666 381.849 250.811 377.672 254.061C375.882 255.429 374.092 257.311 374.689 262.613C374.86 263.896 375.2 265.008 375.882 265.949C376.394 263.725 377.417 260.475 378.951 260.304C380.741 260.133 378.695 265.692 377.843 268.001C378.78 268.771 379.888 269.455 381.082 269.969C381.337 267.745 381.934 263.64 383.553 263.298C385.258 262.956 384.065 268.173 383.383 270.824C384.491 271.166 385.684 271.422 386.878 271.679C386.792 269.541 386.963 266.89 388.156 266.462C389.435 265.949 389.52 269.37 389.435 272.107C393.1 272.534 396.083 272.449 396.083 272.449C396.083 272.449 396.424 268.429 395.657 263.982C393.696 264.495 392.247 264.58 392.247 263.64Z" fill="#8D8E3E"/>
<path d="M360.455 254.403C360.455 254.403 364.29 253.719 366.421 259.706C368.552 265.692 367.529 271.936 367.529 271.936" stroke="#70702A" stroke-miterlimit="10"/>
<path d="M368.893 269.541C368.893 269.541 366.08 250.725 375.456 244.824" stroke="#70702A" stroke-miterlimit="10"/>
<path d="M377.502 283.567H358.324C355.852 283.567 353.892 281.6 353.892 279.12V271.936C353.892 269.455 355.852 267.488 358.324 267.488H377.502C379.974 267.488 381.934 269.455 381.934 271.936V279.12C381.934 281.6 379.974 283.567 377.502 283.567Z" fill="#766A5A"/>
<path d="M388.582 242.344C388.156 241.574 388.667 240.291 389.52 239.009C388.753 238.324 387.815 237.64 386.963 237.127C385.769 239.693 383.98 243.114 383.042 242.002C382.104 240.89 383.553 237.982 384.661 236.015C383.553 235.588 382.36 235.331 381.252 235.331C380.485 237.897 378.865 242.772 377.587 241.66C376.564 240.719 377.502 237.811 378.439 235.759C376.053 236.528 372.643 237.811 371.024 242.857C370.342 244.995 369.916 247.561 373.41 251.666C374.263 252.607 375.2 253.291 376.308 253.804C375.456 251.666 374.519 248.416 375.627 247.476C376.99 246.364 378.525 252.008 379.036 254.489C380.229 254.574 381.508 254.489 382.786 254.232C381.678 252.265 379.888 248.587 380.996 247.39C382.19 246.193 384.235 251.153 385.088 253.633C386.196 253.291 387.304 252.864 388.412 252.35C387.133 250.64 385.769 248.331 386.451 247.304C387.218 246.193 389.264 248.929 390.713 251.239C394.037 249.528 396.338 247.732 396.338 247.732C396.338 247.732 394.378 244.311 391.224 241.061C390.287 242.173 389.094 243.199 388.582 242.344Z" fill="#A8A856"/>
<path d="M346.477 258.081C346.647 257.225 345.709 256.199 344.516 255.258C345.028 254.318 345.624 253.462 346.306 252.693C348.181 254.745 350.909 257.311 351.505 256.028C352.017 254.745 349.801 252.436 348.096 250.897C349.034 250.127 349.971 249.528 351.079 249.101C352.613 251.324 355.682 255.344 356.449 253.89C357.131 252.693 355.341 250.298 353.807 248.587C356.364 248.587 359.858 248.758 362.927 252.949C364.29 254.745 365.399 257.054 363.438 261.929C362.927 263.127 362.245 264.067 361.393 264.837C361.478 262.528 361.393 259.192 360.029 258.679C358.409 258.081 358.75 263.896 359.006 266.291C357.898 266.804 356.705 267.061 355.341 267.232C355.767 265.094 356.278 260.988 354.829 260.219C353.381 259.449 352.954 264.752 352.869 267.403C351.676 267.403 350.483 267.403 349.375 267.232C350.056 265.179 350.568 262.699 349.63 261.929C348.522 261.074 347.499 264.324 346.817 266.89C343.152 266.291 340.425 265.35 340.425 265.35C340.425 265.35 341.192 261.502 343.152 257.482C344.857 258.423 346.221 259.021 346.477 258.081Z" fill="#A8A856"/>
<path d="M353.295 235.246C353.892 234.732 353.892 233.535 353.551 232.167C354.403 231.825 355.341 231.568 356.278 231.397C356.449 233.877 356.79 237.213 357.898 236.614C359.006 236.015 358.75 233.193 358.495 231.14C359.517 231.14 360.54 231.311 361.563 231.654C361.393 234.048 361.137 238.581 362.501 238.068C363.609 237.64 363.779 234.903 363.694 232.936C365.399 234.39 367.785 236.528 367.529 241.147C367.444 243.114 366.933 245.337 362.756 247.561C361.733 248.074 360.711 248.331 359.688 248.331C361.052 246.877 362.927 244.482 362.33 243.37C361.563 242.002 358.495 246.193 357.301 247.989C356.278 247.647 355.256 247.219 354.318 246.535C355.852 245.252 358.495 242.857 357.983 241.489C357.387 240.12 354.148 243.541 352.613 245.252C351.761 244.568 350.994 243.884 350.312 243.114C351.932 242.088 353.721 240.719 353.551 239.607C353.295 238.41 350.738 240.035 348.778 241.403C346.647 238.923 345.283 236.699 345.283 236.699C345.283 236.699 348.011 234.476 351.676 232.851C352.017 234.561 352.699 235.759 353.295 235.246Z" fill="#8D8E3E"/>
<path d="M732.246 285.106H701.818C700.369 285.106 699.261 283.994 699.261 282.54V282.455C699.261 281.001 700.369 279.889 701.818 279.889H732.246V285.106Z" fill="#FF9178"/>
<path d="M732.246 283.909H715.626C714.773 283.909 714.177 283.225 714.177 282.455C714.177 281.6 714.858 281.001 715.626 281.001H732.246V283.909Z" fill="#FFF1BF"/>
<path d="M734.888 279.975H704.46C703.011 279.975 701.903 278.863 701.903 277.409V277.324C701.903 275.87 703.011 274.758 704.46 274.758H734.888V279.975Z" fill="#8A93E2"/>
<path d="M734.888 278.777H718.268C717.415 278.777 716.819 278.093 716.819 277.324C716.819 276.468 717.501 275.87 718.268 275.87H734.888V278.777Z" fill="#FFF1BF"/>
<path d="M733.269 274.758H702.84C701.391 274.758 700.283 273.646 700.283 272.192V272.107C700.283 270.653 701.391 269.541 702.84 269.541H733.269V274.758Z" fill="#766A5A"/>
<path d="M733.269 273.56H716.648C715.796 273.56 715.199 272.876 715.199 272.107C715.199 271.251 715.881 270.653 716.648 270.653H733.269V273.56Z" fill="#FFF1BF"/>
<path d="M695.425 285.106V316.066H736.423V285.106H695.425Z" fill="#E7B142"/>
<path d="M719.972 292.718H711.364C710.256 292.718 709.403 291.863 709.403 290.751V290.665C709.403 289.553 710.256 288.698 711.364 288.698H719.972C721.081 288.698 721.933 289.553 721.933 290.665V290.751C721.933 291.777 721.081 292.718 719.972 292.718Z" fill="#D69D38"/>
<path d="M613.345 130.649L688.095 68.9858H667.809L585.899 130.649H613.345Z" fill="#FFB1A4"/>
<path d="M670.963 130.649L736.337 68.9858H713.239L643.517 130.649H670.963Z" fill="#FFB1A4"/>
<path d="M721.336 130.649L786.711 68.9858H763.612L693.891 130.649H721.336Z" fill="#FFB1A4"/>
<path d="M774.693 130.649L840.152 68.9858H817.054L747.333 130.649H774.693Z" fill="#FFB1A4"/>
<path d="M613.345 130.649L607.463 149.807H578.74L585.899 130.649H613.345Z" fill="#FF9178"/>
<path d="M643.517 130.649L638.318 149.892H665.849L670.963 130.649H643.517Z" fill="#FF9178"/>
<path d="M693.294 130.649L688.095 149.892H715.54L720.654 130.649H693.294Z" fill="#FF9178"/>
<path d="M747.333 130.649L742.133 149.892H769.664L774.778 130.649H747.333Z" fill="#FF9178"/>
<path d="M616.754 285.106H606.185L605.503 251.837L604.736 251.923L600.474 285.021H590.076C590.076 285.021 587.689 272.449 588.286 259.107C588.968 245.765 593.655 238.923 593.655 238.923L610.702 237.555L615.22 237.213C615.22 237.213 615.561 237.64 615.987 238.581C616.157 238.923 616.413 239.351 616.583 239.864C617.606 242.088 619.055 245.765 619.908 250.982C621.612 260.304 616.754 285.106 616.754 285.106Z" fill="#353235"/>
<path d="M617.606 239.094L616.583 239.949L614.708 241.489C614.708 241.489 599.025 239.607 594.508 254.745C589.99 269.883 593.911 285.192 593.911 285.192H589.99C589.99 285.192 587.604 272.62 588.2 259.278C588.882 245.936 593.57 239.094 593.57 239.094L610.617 237.726C612.833 238.068 614.623 238.41 615.902 238.666C617.01 238.923 617.606 239.094 617.606 239.094Z" fill="#242426"/>
<path d="M611.043 205.055C611.043 205.055 614.623 208.049 615.902 212.753C617.18 217.371 621.612 233.963 621.612 233.963H614.112C614.112 233.963 610.191 207.279 611.043 205.055Z" fill="#AA6750"/>
<path d="M604.054 202.319C604.054 202.319 609.935 204.799 611.043 205.141C611.043 205.141 615.561 209.759 615.134 220.108C614.708 230.456 613.345 240.976 613.345 240.976L595.36 241.403C595.36 241.403 586.922 212.924 587.86 208.562C588.797 204.115 598.94 202.319 598.94 202.319H604.054Z" fill="#4C8291"/>
<path d="M598.343 196.93L598.94 203.516C598.94 203.516 603.202 207.022 604.565 204.799L603.969 199.753L598.343 196.93Z" fill="#AA6750"/>
<path d="M596.213 193.253C597.321 198.812 602.349 202.062 605.759 200.779C609.168 199.496 609.424 193.167 608.657 189.575C607.975 185.983 604.565 183.931 600.9 184.615C597.406 185.299 595.531 189.661 596.213 193.253Z" fill="#BA785B"/>
<path d="M598.343 182.904C598.343 182.904 594.423 183.76 593.229 189.148C592.036 194.536 594.337 198.726 595.786 199.667C597.235 200.608 598.684 200.608 598.684 200.608C598.684 200.608 599.025 199.154 598.343 197.273C598.343 197.273 596.298 195.819 596.468 193.51C596.639 191.286 597.917 191.542 598.343 191.713C598.77 191.97 598.77 193.424 598.77 193.424C598.77 193.424 599.707 193.681 600.304 192.312C600.815 190.944 600.304 189.233 600.304 189.233C600.304 189.233 604.225 187.437 604.992 185.043C604.992 185.043 606.782 188.036 608.657 189.062C610.532 190.174 610.02 184.444 606.185 182.99C602.264 181.365 599.025 182.306 598.343 182.904Z" fill="#2C2D32"/>
<path d="M598.514 183.247C598.514 183.247 596.894 180.168 593.57 180.852C590.246 181.536 588.201 185.214 588.115 188.806C588.03 192.398 589.735 190.26 589.735 190.26C589.735 190.26 588.03 195.733 590.246 196.075C592.377 196.417 593.911 188.207 595.701 187.01C597.491 185.727 598.514 183.247 598.514 183.247Z" fill="#2C2D32"/>
<path d="M588.115 207.792C588.115 207.792 585.388 208.818 584.28 215.318L580.359 237.897L588.371 238.837L592.974 216.259C592.888 216.259 592.036 210.785 588.115 207.792Z" fill="#BA785B"/>
<path d="M615.22 253.548C615.22 253.548 615.561 240.976 611.81 239.607C608.827 238.495 604.651 238.324 603.202 238.239C602.776 238.239 602.605 238.239 602.605 238.239C602.605 238.239 602.776 237.897 603.116 237.384C603.543 236.785 604.31 235.93 605.503 235.16C606.782 234.305 608.486 233.535 610.958 233.022C617.777 231.739 624.596 233.706 627.067 236.101C628.772 237.726 629.965 244.995 630.562 249.271C630.818 251.153 630.988 252.521 630.988 252.521L615.22 253.548Z" fill="#F7F7AF"/>
<path d="M615.22 253.548C615.22 253.548 615.561 240.976 611.81 239.607C608.827 238.496 604.651 238.324 603.202 238.239L603.116 237.384C603.543 236.785 604.31 235.93 605.503 235.16C608.998 234.561 615.049 234.561 617.606 240.463C620.675 247.39 626.13 250.127 630.562 249.357C630.818 251.239 630.988 252.607 630.988 252.607L615.22 253.548Z" fill="#E5E39C"/>
<path d="M580.359 237.811C580.359 237.811 584.28 236.272 587.774 235.673C591.269 235.074 605.844 237.811 605.844 237.811V242.258C605.844 242.258 598.429 242.772 589.479 242.258C580.785 241.831 580.359 237.811 580.359 237.811Z" fill="#BA785B"/>
<path d="M605.418 238.153C605.418 238.153 607.463 236.528 608.401 236.186C609.339 235.844 611.981 236.186 611.981 236.186C611.981 236.186 612.066 236.956 611.555 237.127C611.043 237.298 609.339 237.298 609.339 237.298L608.742 237.982L611.81 239.522H614.964C614.964 239.522 614.964 240.719 613.6 240.805C613.6 240.805 613.6 241.831 612.492 242.173C612.492 242.173 612.407 243.028 611.384 243.114C611.384 243.114 610.702 243.712 609.765 243.541C608.827 243.37 605.247 241.916 605.247 241.916L605.418 238.153Z" fill="#BA785B"/>
<path d="M590.076 285.106C590.076 285.106 591.439 312.902 591.78 319.915H597.747L600.474 285.106H590.076Z" fill="#BA785B"/>
<path d="M606.185 285.106C606.185 285.106 605.588 291.521 606.185 299.987C606.782 308.454 607.804 319.829 607.804 319.829L613.771 319.744L616.243 285.106H606.185Z" fill="#AA6750"/>
<path d="M604.31 323.592C604.31 323.592 604.054 322.395 601.668 321.198C599.281 320 597.662 319.915 597.662 319.915H591.78C591.78 319.915 591.269 322.908 591.525 324.362H604.31C604.31 324.362 604.48 324.02 604.31 323.592Z" fill="#766A5A"/>
<path d="M620.249 323.421C620.249 323.421 619.993 322.224 617.606 321.027C615.22 319.829 613.6 319.744 613.6 319.744H607.719C607.719 319.744 607.208 322.737 607.463 324.191H620.163C620.249 324.191 620.419 323.849 620.249 323.421Z" fill="#766A5A"/>
<path d="M613.515 218.226L599.878 220.792C599.878 220.792 603.031 222.331 608.316 221.904C613.686 221.39 613.515 218.226 613.515 218.226Z" fill="#2A6777"/>
<path d="M592.888 216.259C592.888 216.259 594.423 233.193 595.275 236.186L593.826 236.015L591.184 226.265L592.888 216.259Z" fill="#2A6777"/>
<path d="M605.503 251.923L610.106 250.127C610.106 250.127 608.486 262.442 608.827 272.791C609.168 283.139 609.339 285.106 609.339 285.106H606.1L605.503 251.923Z" fill="#242426"/>
<path d="M587.774 236.015L582.746 237.897C582.746 237.897 584.195 234.647 587.774 236.015Z" fill="#AA6750"/>
<path d="M656.984 223.358C656.984 223.358 661.161 225.239 661.502 233.278" stroke="#C5BA9F" stroke-miterlimit="10" stroke-linecap="round"/>
<path d="M687.328 219.68C687.328 219.68 688.947 227.719 689.373 232.081C689.8 236.443 684.771 240.719 684.771 240.719L681.958 231.226L684.686 219.68H687.328Z" fill="#FF9B74"/>
<path d="M684.174 205.055C684.174 205.055 686.305 205.141 687.583 208.305C688.862 211.47 690.055 216.943 689.032 218.483C688.01 220.022 684.771 220.108 684.771 220.108L684.174 205.055Z" fill="#CAD2FF"/>
<path d="M676.759 196.931L676.162 203.516C676.162 203.516 671.9 207.023 670.537 204.799L671.133 199.753L676.759 196.931Z" fill="#EAE1B9"/>
<path d="M678.89 193.253C677.782 198.812 672.753 202.062 669.343 200.779C665.934 199.496 665.678 193.167 666.445 189.575C667.127 185.983 670.537 183.931 674.202 184.615C677.696 185.299 679.571 189.661 678.89 193.253Z" fill="#FF9B74"/>
<path d="M688.521 286.646C688.521 286.646 687.243 313.415 686.902 320.086H681.191L678.549 286.646H688.521Z" fill="#E07E61"/>
<path d="M675.054 286.646C675.054 286.646 675.651 292.803 675.054 300.928C674.457 309.053 673.52 320 673.52 320L667.724 319.915L665.337 286.646H675.054Z" fill="#FF9B74"/>
<path d="M674.884 323.592C674.884 323.592 675.139 322.481 677.441 321.283C679.742 320.171 681.276 320.086 681.276 320.086H686.902C686.902 320.086 687.413 322.994 687.157 324.362H674.969C674.884 324.362 674.713 324.02 674.884 323.592Z" fill="#766A5A"/>
<path d="M661.502 323.421C661.502 323.421 661.757 322.309 664.059 321.112C666.36 320 667.894 319.915 667.894 319.915H673.52C673.52 319.915 674.031 322.823 673.775 324.191H661.587C661.502 324.191 661.331 323.849 661.502 323.421Z" fill="#766A5A"/>
<path d="M689.373 289.981H663.462C663.462 289.981 659.968 273.475 659.882 256.798V256.114C659.882 239.864 665.082 232.081 665.082 232.081C664.57 230.285 663.888 226.95 663.633 221.134C663.547 218.654 663.547 216.516 663.547 214.634C663.633 208.476 664.315 205.141 664.315 205.141C665.508 204.799 671.304 202.319 671.304 202.319H676.418C676.418 202.319 685.197 203.345 686.134 207.792C686.902 211.299 684.004 225.496 682.81 231.226C686.049 235.16 687.413 239.864 687.924 244.226C688.01 245.081 688.095 245.936 688.095 246.791C688.095 247.048 688.095 247.219 688.095 247.476C688.18 249.015 688.095 250.469 688.01 251.752C687.924 253.633 687.754 255.344 687.669 256.627C687.413 260.817 688.521 278.606 689.118 286.304C689.118 286.389 689.118 286.475 689.118 286.475C689.288 288.698 689.373 289.981 689.373 289.981Z" fill="#8A93E2"/>
<path d="M669.343 203.088C669.343 203.088 669.684 202.233 671.815 201.549C673.946 200.779 676.503 200.865 677.27 201.121C678.037 201.378 678.122 202.661 678.122 202.661C678.122 202.661 675.821 203.259 669.343 203.088Z" fill="#CAD2FF"/>
<path d="M689.373 289.981H663.462C663.462 289.981 659.968 273.475 659.882 256.798V256.113C659.882 239.864 665.082 232.081 665.082 232.081C664.57 230.285 663.888 226.95 663.633 221.134C663.547 218.654 663.547 216.516 663.547 214.634L666.104 217.2L668.491 233.449C668.491 233.449 665.252 259.107 667.042 273.646C668.406 284.336 682.043 286.389 689.203 286.731C689.288 288.698 689.373 289.981 689.373 289.981Z" fill="#727FCC"/>
<path d="M667.894 186.582C667.894 186.582 667.553 189.148 667.894 190.773C668.235 192.398 669.088 192.569 669.088 192.569C669.088 192.569 668.832 194.45 669.77 194.963C669.77 194.963 669.855 192.825 670.622 192.74C671.389 192.654 672.241 194.792 671.9 196.417C671.559 198.042 670.196 197.871 670.196 197.871C670.196 197.871 670.366 201.463 672.582 204.115C674.798 206.68 671.474 211.897 673.776 213.437C676.077 214.976 680.594 214.891 682.64 213.095C684.771 211.299 684.43 205.397 683.236 202.319C682.043 199.325 680.935 194.963 681.02 191.457C681.106 187.95 678.975 186.839 678.975 186.839C678.975 186.839 678.719 184.187 674.798 183.247C670.878 182.306 665.849 185.128 665.763 187.865C665.678 190.602 666.19 190.858 666.19 190.858C666.19 190.858 666.616 187.523 667.894 186.582Z" fill="#473A33"/>
<path d="M658.86 217.114C658.519 217.285 656.217 223.358 656.217 223.358L642.665 220.45L641.813 223.358C641.813 223.358 654.768 229.686 658.007 229.088C661.246 228.489 664.229 219.252 664.229 219.252L658.86 217.114Z" fill="#FF9B74"/>
<path d="M664.229 205.055C664.229 205.055 662.695 204.97 661.502 205.996C660.308 207.023 656.729 214.378 657.666 216.259C658.604 218.141 663.547 220.877 666.019 218.825C668.576 216.943 665.593 206.253 664.229 205.055Z" fill="#CAD2FF"/>
<path d="M643.262 220.621C643.262 220.621 642.409 219.766 641.728 219.081C640.96 218.397 638.83 218.141 638.83 218.141C638.83 218.141 638.915 218.739 639 218.825C639.085 218.91 640.193 219.338 640.193 219.338C640.193 219.338 637.807 219.595 637.722 219.68C637.551 219.766 636.613 219.167 636.187 219.081C635.761 218.996 635.335 219.338 635.335 219.338C635.335 219.338 636.102 220.108 636.443 220.364C636.699 220.621 637.295 220.706 637.295 220.706C637.295 220.706 637.381 221.22 637.636 221.476C637.892 221.733 638.148 221.818 638.148 221.818C638.148 221.818 638.233 221.989 638.574 222.246C638.915 222.502 639.426 222.502 639.426 222.502C639.426 222.502 639.511 222.759 639.682 222.844C639.938 222.93 642.495 223.272 642.495 223.272L643.262 220.621Z" fill="#FF9B74"/>
<path d="M656.814 255.772C651.103 255.772 646.415 251.153 646.415 245.338V233.279H656.217H667.127V245.338C667.213 251.153 662.525 255.772 656.814 255.772Z" fill="#E7B142"/>
<path d="M651.359 235.417C651.359 235.417 650.933 224.983 655.876 223.016" stroke="#C5BA9F" stroke-miterlimit="10" stroke-linecap="round"/>
<path d="M652.297 235.245C652.297 235.759 651.87 236.186 651.359 236.186C650.848 236.186 650.421 235.759 650.421 235.245C650.421 234.732 650.848 234.305 651.359 234.305C651.87 234.305 652.297 234.732 652.297 235.245Z" fill="#C5BA9F"/>
<path d="M688.095 251.837C687.157 252.949 685.708 253.804 683.578 254.147C676.759 255.258 673.52 250.469 673.52 250.469C677.611 250.383 684.686 248.074 688.18 246.877C688.18 247.134 688.18 247.305 688.18 247.561C688.18 249.101 688.18 250.554 688.095 251.837Z" fill="#727FCC"/>
<path d="M682.043 231.311C682.469 231.654 671.73 231.311 671.73 231.311C671.73 231.311 676.929 227.035 682.043 231.311Z" fill="#727FCC"/>
<path d="M773.073 200.779L773.67 207.364C773.67 207.364 777.932 210.871 779.295 208.647L778.699 203.601L773.073 200.779Z" fill="#AA6750"/>
<path d="M771.028 197.102C772.136 202.661 777.164 205.911 780.574 204.628C783.983 203.345 784.239 197.016 783.472 193.424C782.79 189.832 779.381 187.78 775.715 188.464C772.136 189.233 770.26 193.51 771.028 197.102Z" fill="#BA785B"/>
<path d="M786.625 317.007L788.927 321.625L794.637 320.086L792.592 315.382L786.625 317.007Z" fill="#353235"/>
<path d="M801.627 321.711C801.627 321.711 801.115 320.599 798.473 320.086C795.831 319.573 794.297 319.829 794.297 319.829L788.671 321.283C788.671 321.283 788.927 324.362 789.609 325.645L801.882 322.395C801.797 322.481 801.882 322.053 801.627 321.711Z" fill="#766A5A"/>
<path d="M760.799 311.533L758.839 316.323L763.783 319.487L766.084 314.527L760.799 311.533Z" fill="#353235"/>
<path d="M767.277 325.816C767.277 325.816 767.703 324.704 766.34 322.395C764.976 320.086 763.697 319.145 763.697 319.145L758.839 315.981C758.839 315.981 756.794 318.204 756.197 319.573L766.851 326.586C766.851 326.415 767.277 326.244 767.277 325.816Z" fill="#5E4F45"/>
<path d="M783.216 216.43L789.779 246.193L794.978 258.423L789.779 261.673C789.779 261.673 786.37 257.482 784.665 252.949C782.96 248.416 783.216 216.43 783.216 216.43Z" fill="#F2A7A5"/>
<path d="M785.858 253.548C785.858 253.548 787.478 271.251 787.307 279.889C787.137 288.527 767.618 315.125 767.618 315.125L759.606 311.106C759.606 311.106 766.936 294.086 773.499 289.896L778.443 273.475L775.119 252.008L784.409 249.271L785.858 253.548Z" fill="#473A33"/>
<path d="M764.55 254.232C764.55 254.232 769.323 276.982 776.312 286.475C776.312 286.475 779.381 310.08 784.495 317.948L793.785 315.211C793.785 315.211 785.603 281.685 783.898 277.238C782.279 272.791 777.42 253.548 777.42 253.548L764.55 254.232Z" fill="#5E4F45"/>
<path d="M770.857 191.371C770.857 191.371 769.323 191.799 768.811 194.023C768.3 196.246 769.323 198.812 770.687 200.437C771.965 202.062 773.244 202.746 773.244 202.746L773.755 200.694C773.755 200.694 771.283 199.667 771.454 197.273C771.624 194.963 773.158 195.648 773.585 196.417C774.011 197.187 773.926 197.871 773.926 197.871L774.863 197.615C774.863 197.615 776.397 194.963 775.46 192.398C775.46 192.398 776.568 193.167 778.358 192.996C780.148 192.911 779.807 192.141 779.807 192.141C779.807 192.141 780.574 192.654 781.938 192.569C783.301 192.483 784.068 191.457 784.154 190.26C784.239 188.977 782.534 186.497 778.017 187.01C773.414 187.523 771.283 189.148 770.857 191.371Z" fill="#E7B142"/>
<path d="M778.699 191.286C786.114 187.437 787.393 186.924 787.307 185.983C787.222 185.043 781 186.924 781 186.924C781 186.924 777.505 182.562 774.863 181.878C772.221 181.194 768.556 184.102 767.789 184.872C767.022 185.641 768.641 191.97 768.641 191.97C768.641 191.97 763.357 195.562 763.953 196.674C764.72 197.786 770.175 195.733 778.699 191.286Z" fill="#5E4F45"/>
<path d="M772.391 206.595C772.391 206.595 764.891 211.897 764.038 213.522L766.34 255.173H779.125L780.83 250.383L782.023 255.173L788.33 254.232C788.33 254.232 784.836 216.687 783.813 213.608C782.79 210.529 779.125 209.075 779.125 209.075L772.391 206.595Z" fill="#E57B6A"/>
<path d="M766.681 268.6C766.681 268.6 765.317 269.37 765.743 272.791C766.084 276.212 764.124 282.712 765.658 286.475C767.192 290.238 776.568 290.238 779.21 287.587C781.852 284.935 780.062 278.521 777.761 274.929C775.46 271.337 773.585 267.146 772.391 267.061C771.113 266.89 771.028 267.403 771.028 267.403L771.368 268.173C771.368 268.173 772.136 268.258 773.073 270.225C774.011 272.192 770.26 274.074 768.3 273.732C766.254 273.39 766.936 270.311 766.936 270.311L766.681 268.6Z" fill="#F7F7AF"/>
<path d="M770.942 267.403L772.306 267.061C772.306 267.061 771.795 266.633 771.028 265.778C770.601 265.35 770.175 265.094 769.834 265.008C769.579 264.495 769.493 264.238 769.493 264.238L769.238 263.298L765.402 264.923C765.402 264.923 765.828 268.857 766.936 270.311C767.959 271.765 768.641 271.251 768.641 271.251C769.408 271.422 769.579 271.08 769.579 271.08C770.346 271.251 770.601 270.653 770.601 270.653C771.198 270.824 771.454 270.482 771.454 270.482C771.454 270.482 771.88 269.113 771.454 268.258C771.283 268.001 771.113 267.659 770.942 267.403Z" fill="#BA785B"/>
<path d="M772.391 206.595L773.499 205.141L779.04 208.989L777.335 210.272L772.391 206.595Z" fill="#F2A7A5"/>
<path d="M764.038 213.522L756.367 241.916L764.038 265.35L770.857 263.297L765.573 242.002L771.71 220.193C771.624 220.108 768.726 213.95 764.038 213.522Z" fill="#F2A7A5"/>
<path d="M795.49 262.699L795.575 263.725C795.575 263.725 795.064 264.923 795.405 265.436C795.66 265.949 796.257 264.495 796.342 264.067C796.342 263.64 795.49 262.699 795.49 262.699Z" fill="#CEC49D"/>
<path d="M795.745 263.383L795.831 264.409C795.831 264.409 795.319 265.607 795.66 266.12C795.916 266.633 796.513 265.179 796.598 264.751C796.598 264.324 795.745 263.383 795.745 263.383Z" fill="#E5DCB5"/>
<path d="M790.887 260.988L791.228 261.416C791.228 261.416 791.825 263.212 792.166 263.725C792.507 264.238 793.87 265.436 793.87 265.436C793.87 265.436 794.382 265.179 794.297 264.751C794.126 264.324 793.444 263.469 793.444 263.469C793.444 263.469 793.189 262.442 793.7 262.186C794.297 261.929 795.064 262.528 795.405 263.041C795.746 263.554 796.172 264.238 796.257 264.58C796.342 264.837 796.086 265.863 796.257 266.291C796.427 266.804 796.768 266.804 796.768 266.804C796.768 266.804 797.365 265.008 797.28 264.751C797.109 264.495 797.365 263.982 797.28 263.554C797.28 263.126 797.024 262.955 797.024 262.613C797.024 262.271 796.513 261.502 796.342 261.245C796.172 260.988 794.467 259.278 794.467 259.278L794.211 258.936L790.887 260.988Z" fill="#BA785B"/>
<path d="M779.125 207.022L779.04 208.99L780.83 209.93L780.233 208.049L779.125 207.022Z" fill="#F2A7A5"/>
<path d="M418.499 218.055C417.477 220.108 416.028 221.391 414.579 222.246C412.363 223.614 410.146 223.785 410.146 223.785L409.379 222.417L404.436 213.693L418.84 206.68C418.84 206.595 421.056 212.838 418.499 218.055Z" fill="#727FCC"/>
<path d="M404.436 213.608L399.663 215.917L399.407 223.7L408.697 221.049L404.436 213.608Z" fill="#FF9B74"/>
<path d="M414.579 222.246C412.363 223.614 410.147 223.785 410.147 223.785L409.379 222.417C409.379 222.417 414.067 220.621 415.346 217.285C416.539 214.035 414.834 221.305 414.579 222.246Z" fill="#5F6FB2"/>
<path d="M394.378 215.147C395.742 209.93 402.305 195.135 402.305 195.135L406.055 196.075C406.055 196.075 404.265 214.72 402.22 220.022C400.174 225.325 396.339 223.956 396.339 223.956C396.339 223.956 392.503 222.246 394.378 215.147Z" fill="#FF9B74"/>
<path d="M406.055 196.417C406.055 196.417 408.016 195.134 408.612 193.766C409.209 192.398 407.675 191.286 407.163 191.2C406.652 191.115 404.947 190.345 404.521 191.029C404.095 191.713 406.311 192.654 406.311 192.654C406.311 192.654 404.691 192.911 404.095 193.852C403.498 194.792 403.669 196.845 403.669 196.845L406.055 196.417Z" fill="#FF9B74"/>
<path d="M402.39 195.819C402.39 195.819 400.089 193.339 400.259 192.312C400.43 191.286 401.112 191.372 401.112 191.372C401.112 191.372 400.686 190.516 401.197 190.003C401.708 189.49 402.049 189.661 402.049 189.661C402.049 189.661 401.708 188.806 402.39 188.549C403.072 188.293 403.584 188.549 403.584 188.549C403.584 188.549 403.584 188.122 404.351 188.122C405.118 188.122 406.226 188.891 406.481 189.661C406.737 190.431 406.481 191.286 406.481 191.286V192.911L403.413 196.161L402.39 195.819Z" fill="#FF9B74"/>
<path d="M427.534 205.569C427.534 205.569 420.034 206.253 418.84 206.595C418.84 206.595 414.067 213.095 414.579 223.956C415.09 234.818 413.726 246.022 413.726 246.022L439.382 246.706C439.382 246.706 445.519 213.608 444.496 208.99C443.558 204.371 432.904 205.569 432.904 205.569H427.534Z" fill="#8A93E2"/>
<path d="M433.586 200.01L432.904 206.937C432.904 206.937 428.472 210.615 427.023 208.22L427.619 202.917L433.586 200.01Z" fill="#E07E61"/>
<path d="M435.717 196.075C434.523 201.977 429.239 205.312 425.744 204.029C422.164 202.661 421.909 195.99 422.676 192.227C423.443 188.464 427.023 186.24 430.773 187.01C434.523 187.779 436.484 192.312 435.717 196.075Z" fill="#FF9B74"/>
<path d="M426.597 188.207C426.597 188.207 426.426 189.319 427.875 190.944C429.324 192.569 431.455 192.569 431.455 192.569C431.455 192.569 431.37 195.049 432.734 195.648C432.734 195.648 433.074 194.108 434.182 194.108C435.205 194.108 435.376 196.588 434.438 198.042C433.586 199.582 432.819 199.24 432.819 199.24L433.415 202.148C433.415 202.148 438.615 198.128 437.848 191.714L426.597 188.207Z" fill="#2C2D32"/>
<path d="M426.426 188.549C426.426 188.549 425.915 189.746 424.636 190.773C423.358 191.799 422.761 191.885 422.761 191.885C422.761 191.885 422.42 190.431 423.443 189.148C424.466 187.865 426.597 188.122 426.597 188.122L426.426 188.549Z" fill="#2C2D32"/>
<path d="M424.636 186.582C424.636 186.582 425.915 183.931 428.728 183.418C431.54 182.99 433.245 184.701 434.353 185.385C435.461 186.069 436.74 186.326 437.336 188.036C438.018 189.661 437.762 191.714 437.762 191.714L434.779 191.371C434.864 191.286 427.534 186.497 424.636 186.582Z" fill="#8A93E2"/>
<path d="M435.12 190.944C435.12 190.944 433.16 188.122 429.409 186.753C425.659 185.47 421.056 186.325 420.63 187.095C419.778 188.378 423.273 188.806 425.915 189.319C428.557 190.003 436.143 192.141 435.12 190.944Z" fill="#353235"/>
<path d="M450.206 213.864L459.582 211.897L457.281 204.2L448.928 205.74L450.206 213.864Z" fill="#FF9B74"/>
<path d="M464.781 205.312C466.316 200.18 468.276 184.102 468.276 184.102L464.611 182.905C464.611 182.905 456.514 199.838 455.491 205.397C454.468 210.957 458.474 211.812 458.474 211.812C458.474 211.812 462.736 212.41 464.781 205.312Z" fill="#FF9B74"/>
<path d="M464.015 183.674C464.015 183.674 463.162 181.451 463.503 179.997C463.759 178.543 465.719 178.543 466.145 178.714C466.572 178.885 468.447 179.312 468.361 180.082C468.276 180.852 465.975 180.339 465.975 180.339C465.975 180.339 467.168 181.451 467.168 182.562C467.168 183.674 465.804 185.214 465.804 185.214L464.015 183.674Z" fill="#FF9B74"/>
<path d="M467.339 185.299C467.339 185.299 470.663 184.615 471.089 183.674C471.515 182.733 470.918 182.477 470.918 182.477C470.918 182.477 471.771 181.964 471.686 181.28C471.6 180.595 471.174 180.51 471.174 180.51C471.174 180.51 471.941 179.997 471.515 179.398C471.089 178.799 470.577 178.714 470.577 178.714C470.577 178.714 470.833 178.372 470.151 177.944C469.469 177.517 468.191 177.517 467.509 177.944C466.827 178.372 466.572 179.227 466.572 179.227L465.634 180.51L466.316 184.957L467.339 185.299Z" fill="#FF9B74"/>
<path d="M440.149 205.825C440.149 205.825 447.564 204.799 451.741 204.799L452.508 216.174L443.984 218.996C439.978 216.687 440.149 205.825 440.149 205.825Z" fill="#727FCC"/>
<path d="M454.042 314.527H443.643L433.842 282.626L426.682 258.081L422.676 284.422C423.358 288.784 423.017 296.738 422.505 303.409V303.494C422.079 309.053 421.568 313.843 421.483 314.954V315.211H411.595C411.595 315.211 411.425 291.777 411.595 281.685C411.766 271.594 413.812 252.778 413.812 252.778V246.022L439.467 246.706C439.808 247.39 440.064 248.074 440.319 248.844C443.729 258.508 444.581 277.409 444.581 277.409C444.581 277.409 444.581 277.409 447.82 285.106C451.144 292.975 454.042 314.527 454.042 314.527Z" fill="#353235"/>
<path d="M413.13 315.211V320H418.84L419.181 315.211H413.13Z" fill="#E7B142"/>
<path d="M445.519 314.527L447.394 319.573H453.36L452.508 314.527H445.519Z" fill="#E7B142"/>
<path d="M406.481 321.882C406.481 321.882 406.737 320.685 409.124 319.487C411.51 318.29 413.13 318.204 413.13 318.204H419.011C419.011 318.204 419.522 321.198 419.267 322.652H406.567C406.481 322.652 406.311 322.31 406.481 321.882Z" fill="#766A5A"/>
<path d="M459.668 322.908C459.668 322.908 459.412 321.711 457.025 320.514C454.639 319.316 453.019 319.231 453.019 319.231H447.138C447.138 319.231 446.627 322.224 446.882 323.678H459.582C459.668 323.678 459.838 323.336 459.668 322.908Z" fill="#766A5A"/>
<path d="M409.294 186.497L398.384 173.753L391.821 184.187L409.465 192.483C410.146 192.825 410.914 192.483 411.255 191.885L412.107 190.26C412.448 189.661 412.277 188.977 411.766 188.549L409.294 186.497Z" fill="#E7B142"/>
<path d="M440.66 212.496C440.66 212.496 440.831 217.2 443.814 218.91L452.337 216.088C452.337 216.088 447.905 216.345 444.07 216.943C442.791 217.2 441.086 214.891 440.66 212.496Z" fill="#5F6FB2"/>
<path d="M425.489 208.049C425.489 208.049 424.295 209.674 427.534 210.786C430.773 211.983 434.694 207.279 434.694 207.279C434.694 207.279 431.199 210.101 428.046 209.588C424.807 209.161 425.489 208.049 425.489 208.049Z" fill="#8898DC"/>
<path d="M422.676 284.508C423.358 288.87 423.017 296.823 422.505 303.494V303.58L421.483 315.04V315.297H419.266C419.266 315.297 421.653 294.172 420.63 286.646C419.693 279.034 420.63 279.291 421.824 268.6C423.017 257.824 421.824 255.173 421.824 255.173L426.682 258.252L422.676 284.508Z" fill="#242426"/>
<path d="M440.319 248.929L413.812 247.818V246.107L439.467 246.791C439.723 247.39 439.978 248.16 440.319 248.929Z" fill="#242426"/>
</g>
<path d="M42.68 114L45.488 97.056H48.488L45.656 114H42.68ZM35.84 109.152V106.536H49.256V109.152H35.84ZM37.28 114L40.088 97.056H43.064L40.256 114H37.28ZM36.656 104.136V101.544H50.048V104.136H36.656ZM57.7306 107.688L51.2026 97.056H55.5706L60.5866 105.648H57.7786L62.7946 97.056H67.0666L60.4906 107.688H57.7306ZM57.2746 114V105.96H61.0426V114H57.2746ZM75.7981 114.288C74.5181 114.288 73.3341 114.064 72.2461 113.616C71.1741 113.168 70.2301 112.544 69.4141 111.744C68.5981 110.944 67.9661 110.016 67.5181 108.96C67.0701 107.888 66.8461 106.736 66.8461 105.504C66.8461 104.256 67.0701 103.104 67.5181 102.048C67.9661 100.992 68.5901 100.072 69.3901 99.288C70.1901 98.488 71.1261 97.872 72.1981 97.44C73.2861 96.992 74.4701 96.768 75.7501 96.768C77.0141 96.768 78.1821 96.992 79.2541 97.44C80.3421 97.872 81.2861 98.488 82.0861 99.288C82.9021 100.072 83.5341 101 83.9821 102.072C84.4301 103.128 84.6541 104.28 84.6541 105.528C84.6541 106.76 84.4301 107.912 83.9821 108.984C83.5341 110.04 82.9101 110.968 82.1101 111.768C81.3101 112.552 80.3661 113.168 79.2781 113.616C78.2061 114.064 77.0461 114.288 75.7981 114.288ZM75.7501 110.856C76.7581 110.856 77.6381 110.632 78.3901 110.184C79.1581 109.736 79.7501 109.112 80.1661 108.312C80.5821 107.496 80.7901 106.56 80.7901 105.504C80.7901 104.704 80.6701 103.984 80.4301 103.344C80.1901 102.688 79.8461 102.128 79.3981 101.664C78.9501 101.184 78.4141 100.824 77.7901 100.584C77.1821 100.328 76.5021 100.2 75.7501 100.2C74.7421 100.2 73.8541 100.424 73.0861 100.872C72.3341 101.304 71.7501 101.92 71.3341 102.72C70.9181 103.504 70.7101 104.432 70.7101 105.504C70.7101 106.304 70.8301 107.032 71.0701 107.688C71.3101 108.344 71.6461 108.912 72.0781 109.392C72.5261 109.856 73.0621 110.216 73.6861 110.472C74.3101 110.728 74.9981 110.856 75.7501 110.856ZM95.3204 114.264C94.0564 114.264 92.8804 114.048 91.7924 113.616C90.7204 113.168 89.7764 112.544 88.9604 111.744C88.1604 110.944 87.5364 110.016 87.0884 108.96C86.6404 107.888 86.4164 106.736 86.4164 105.504C86.4164 104.272 86.6404 103.128 87.0884 102.072C87.5364 101 88.1604 100.072 88.9604 99.288C89.7604 98.504 90.6964 97.896 91.7684 97.464C92.8564 97.016 94.0324 96.792 95.2964 96.792C96.6404 96.792 97.8324 97.008 98.8724 97.44C99.9284 97.872 100.848 98.464 101.632 99.216L99.1124 101.76C98.6644 101.28 98.1204 100.904 97.4804 100.632C96.8564 100.36 96.1284 100.224 95.2964 100.224C94.5604 100.224 93.8804 100.352 93.2564 100.608C92.6484 100.848 92.1204 101.2 91.6724 101.664C91.2404 102.128 90.8964 102.688 90.6404 103.344C90.4004 104 90.2804 104.72 90.2804 105.504C90.2804 106.304 90.4004 107.032 90.6404 107.688C90.8964 108.344 91.2404 108.904 91.6724 109.368C92.1204 109.832 92.6484 110.192 93.2564 110.448C93.8804 110.704 94.5604 110.832 95.2964 110.832C96.1604 110.832 96.9124 110.696 97.5524 110.424C98.1924 110.152 98.7444 109.776 99.2084 109.296L101.752 111.84C100.936 112.592 100 113.184 98.9444 113.616C97.9044 114.048 96.6964 114.264 95.3204 114.264ZM111.236 114.288C109.956 114.288 108.772 114.064 107.684 113.616C106.612 113.168 105.668 112.544 104.852 111.744C104.036 110.944 103.404 110.016 102.956 108.96C102.508 107.888 102.284 106.736 102.284 105.504C102.284 104.256 102.508 103.104 102.956 102.048C103.404 100.992 104.028 100.072 104.828 99.288C105.628 98.488 106.564 97.872 107.636 97.44C108.724 96.992 109.908 96.768 111.188 96.768C112.452 96.768 113.62 96.992 114.692 97.44C115.78 97.872 116.724 98.488 117.524 99.288C118.34 100.072 118.972 101 119.42 102.072C119.868 103.128 120.092 104.28 120.092 105.528C120.092 106.76 119.868 107.912 119.42 108.984C118.972 110.04 118.348 110.968 117.548 111.768C116.748 112.552 115.804 113.168 114.716 113.616C113.644 114.064 112.484 114.288 111.236 114.288ZM111.188 110.856C112.196 110.856 113.076 110.632 113.828 110.184C114.596 109.736 115.188 109.112 115.604 108.312C116.02 107.496 116.228 106.56 116.228 105.504C116.228 104.704 116.108 103.984 115.868 103.344C115.628 102.688 115.284 102.128 114.836 101.664C114.388 101.184 113.852 100.824 113.228 100.584C112.62 100.328 111.94 100.2 111.188 100.2C110.18 100.2 109.292 100.424 108.524 100.872C107.772 101.304 107.188 101.92 106.772 102.72C106.356 103.504 106.148 104.432 106.148 105.504C106.148 106.304 106.268 107.032 106.508 107.688C106.748 108.344 107.084 108.912 107.516 109.392C107.964 109.856 108.5 110.216 109.124 110.472C109.748 110.728 110.436 110.856 111.188 110.856ZM122.484 114V97.056H125.172L131.844 107.448H130.476L137.124 97.056H139.836V114H136.068V103.416L136.74 103.584L132.396 110.352H129.9L125.58 103.584L126.228 103.416V114H122.484ZM145.965 107.832V104.904H149.613C150.077 104.904 150.501 104.808 150.885 104.616C151.269 104.424 151.573 104.144 151.797 103.776C152.021 103.408 152.133 102.96 152.133 102.432C152.133 101.92 152.021 101.48 151.797 101.112C151.573 100.744 151.269 100.464 150.885 100.272C150.501 100.08 150.077 99.984 149.613 99.984H145.965V97.056H150.165C151.237 97.056 152.205 97.272 153.069 97.704C153.933 98.136 154.613 98.76 155.109 99.576C155.621 100.376 155.877 101.328 155.877 102.432C155.877 103.536 155.621 104.496 155.109 105.312C154.613 106.112 153.933 106.736 153.069 107.184C152.205 107.616 151.237 107.832 150.165 107.832H145.965ZM143.085 114V97.056H146.853V114H143.085ZM160.871 107.016V104.232H164.447C165.199 104.232 165.775 104.04 166.175 103.656C166.591 103.272 166.799 102.752 166.799 102.096C166.799 101.488 166.599 100.984 166.199 100.584C165.799 100.184 165.223 99.984 164.471 99.984H160.871V97.056H164.903C166.023 97.056 167.007 97.272 167.855 97.704C168.703 98.12 169.367 98.704 169.847 99.456C170.327 100.208 170.567 101.072 170.567 102.048C170.567 103.04 170.327 103.912 169.847 104.664C169.367 105.4 168.695 105.976 167.831 106.392C166.967 106.808 165.951 107.016 164.783 107.016H160.871ZM157.991 114V97.056H161.759V114H157.991ZM167.207 114L161.927 106.704L165.383 105.768L171.671 114H167.207ZM181.314 114.288C180.034 114.288 178.85 114.064 177.762 113.616C176.69 113.168 175.746 112.544 174.93 111.744C174.114 110.944 173.482 110.016 173.034 108.96C172.586 107.888 172.362 106.736 172.362 105.504C172.362 104.256 172.586 103.104 173.034 102.048C173.482 100.992 174.106 100.072 174.906 99.288C175.706 98.488 176.642 97.872 177.714 97.44C178.802 96.992 179.986 96.768 181.266 96.768C182.53 96.768 183.698 96.992 184.77 97.44C185.858 97.872 186.802 98.488 187.602 99.288C188.418 100.072 189.05 101 189.498 102.072C189.946 103.128 190.17 104.28 190.17 105.528C190.17 106.76 189.946 107.912 189.498 108.984C189.05 110.04 188.426 110.968 187.626 111.768C186.826 112.552 185.882 113.168 184.794 113.616C183.722 114.064 182.562 114.288 181.314 114.288ZM181.266 110.856C182.274 110.856 183.154 110.632 183.906 110.184C184.674 109.736 185.266 109.112 185.682 108.312C186.098 107.496 186.306 106.56 186.306 105.504C186.306 104.704 186.186 103.984 185.946 103.344C185.706 102.688 185.362 102.128 184.914 101.664C184.466 101.184 183.93 100.824 183.306 100.584C182.698 100.328 182.018 100.2 181.266 100.2C180.258 100.2 179.37 100.424 178.602 100.872C177.85 101.304 177.266 101.92 176.85 102.72C176.434 103.504 176.226 104.432 176.226 105.504C176.226 106.304 176.346 107.032 176.586 107.688C176.826 108.344 177.162 108.912 177.594 109.392C178.042 109.856 178.578 110.216 179.202 110.472C179.826 110.728 180.514 110.856 181.266 110.856ZM192.562 114V97.056H196.33V114H192.562ZM195.466 114V110.688H203.842V114H195.466ZM213.165 114.288C211.885 114.288 210.701 114.064 209.613 113.616C208.541 113.168 207.597 112.544 206.781 111.744C205.965 110.944 205.333 110.016 204.885 108.96C204.437 107.888 204.213 106.736 204.213 105.504C204.213 104.256 204.437 103.104 204.885 102.048C205.333 100.992 205.957 100.072 206.757 99.288C207.557 98.488 208.493 97.872 209.565 97.44C210.653 96.992 211.837 96.768 213.117 96.768C214.381 96.768 215.549 96.992 216.621 97.44C217.709 97.872 218.653 98.488 219.453 99.288C220.269 100.072 220.901 101 221.349 102.072C221.797 103.128 222.021 104.28 222.021 105.528C222.021 106.76 221.797 107.912 221.349 108.984C220.901 110.04 220.277 110.968 219.477 111.768C218.677 112.552 217.733 113.168 216.645 113.616C215.573 114.064 214.413 114.288 213.165 114.288ZM213.117 110.856C214.125 110.856 215.005 110.632 215.757 110.184C216.525 109.736 217.117 109.112 217.533 108.312C217.949 107.496 218.157 106.56 218.157 105.504C218.157 104.704 218.037 103.984 217.797 103.344C217.557 102.688 217.213 102.128 216.765 101.664C216.317 101.184 215.781 100.824 215.157 100.584C214.549 100.328 213.869 100.2 213.117 100.2C212.109 100.2 211.221 100.424 210.453 100.872C209.701 101.304 209.117 101.92 208.701 102.72C208.285 103.504 208.077 104.432 208.077 105.504C208.077 106.304 208.197 107.032 208.437 107.688C208.677 108.344 209.013 108.912 209.445 109.392C209.893 109.856 210.429 110.216 211.053 110.472C211.677 110.728 212.365 110.856 213.117 110.856ZM232.688 114.264C231.424 114.264 230.248 114.048 229.16 113.616C228.088 113.168 227.144 112.544 226.328 111.744C225.528 110.944 224.904 110.016 224.456 108.96C224.008 107.888 223.784 106.736 223.784 105.504C223.784 104.272 224.008 103.128 224.456 102.072C224.904 101 225.528 100.072 226.328 99.288C227.128 98.504 228.064 97.896 229.136 97.464C230.224 97.016 231.4 96.792 232.664 96.792C234.008 96.792 235.2 97.008 236.24 97.44C237.296 97.872 238.216 98.464 239 99.216L236.48 101.76C236.032 101.28 235.488 100.904 234.848 100.632C234.224 100.36 233.496 100.224 232.664 100.224C231.928 100.224 231.248 100.352 230.624 100.608C230.016 100.848 229.488 101.2 229.04 101.664C228.608 102.128 228.264 102.688 228.008 103.344C227.768 104 227.648 104.72 227.648 105.504C227.648 106.304 227.768 107.032 228.008 107.688C228.264 108.344 228.608 108.904 229.04 109.368C229.488 109.832 230.016 110.192 230.624 110.448C231.248 110.704 231.928 110.832 232.664 110.832C233.528 110.832 234.28 110.696 234.92 110.424C235.56 110.152 236.112 109.776 236.576 109.296L239.12 111.84C238.304 112.592 237.368 113.184 236.312 113.616C235.272 114.048 234.064 114.264 232.688 114.264ZM239.501 114L246.221 97.056H249.629L256.277 114H252.293L247.205 99.936H248.573L243.413 114H239.501ZM243.317 110.928V107.856H252.557V110.928H243.317ZM258.07 114V97.056H261.838V114H258.07ZM260.974 114V110.688H269.35V114H260.974Z" fill="white"/>
<path d="M954.68 265L957.488 248.056H960.488L957.656 265H954.68ZM947.84 260.152V257.536H961.256V260.152H947.84ZM949.28 265L952.088 248.056H955.064L952.256 265H949.28ZM948.656 255.136V252.544H962.048V255.136H948.656ZM969.731 258.688L963.203 248.056H967.571L972.587 256.648H969.779L974.795 248.056H979.067L972.491 258.688H969.731ZM969.275 265V256.96H973.043V265H969.275ZM987.798 265.288C986.518 265.288 985.334 265.064 984.246 264.616C983.174 264.168 982.23 263.544 981.414 262.744C980.598 261.944 979.966 261.016 979.518 259.96C979.07 258.888 978.846 257.736 978.846 256.504C978.846 255.256 979.07 254.104 979.518 253.048C979.966 251.992 980.59 251.072 981.39 250.288C982.19 249.488 983.126 248.872 984.198 248.44C985.286 247.992 986.47 247.768 987.75 247.768C989.014 247.768 990.182 247.992 991.254 248.44C992.342 248.872 993.286 249.488 994.086 250.288C994.902 251.072 995.534 252 995.982 253.072C996.43 254.128 996.654 255.28 996.654 256.528C996.654 257.76 996.43 258.912 995.982 259.984C995.534 261.04 994.91 261.968 994.11 262.768C993.31 263.552 992.366 264.168 991.278 264.616C990.206 265.064 989.046 265.288 987.798 265.288ZM987.75 261.856C988.758 261.856 989.638 261.632 990.39 261.184C991.158 260.736 991.75 260.112 992.166 259.312C992.582 258.496 992.79 257.56 992.79 256.504C992.79 255.704 992.67 254.984 992.43 254.344C992.19 253.688 991.846 253.128 991.398 252.664C990.95 252.184 990.414 251.824 989.79 251.584C989.182 251.328 988.502 251.2 987.75 251.2C986.742 251.2 985.854 251.424 985.086 251.872C984.334 252.304 983.75 252.92 983.334 253.72C982.918 254.504 982.71 255.432 982.71 256.504C982.71 257.304 982.83 258.032 983.07 258.688C983.31 259.344 983.646 259.912 984.078 260.392C984.526 260.856 985.062 261.216 985.686 261.472C986.31 261.728 986.998 261.856 987.75 261.856ZM1003.62 265L997.095 248.056H1001.13L1006.09 261.76H1004.44L1009.48 248.056H1013.46L1006.86 265H1003.62ZM1015.45 265V248.056H1019.22V265H1015.45ZM1018.33 265V261.736H1027.62V265H1018.33ZM1018.33 257.92V254.776H1026.78V257.92H1018.33ZM1018.33 251.296V248.056H1027.5V251.296H1018.33ZM1030.22 265V248.056H1032.86L1033.99 251.44V265H1030.22ZM1041.91 265L1031.92 252.208L1032.86 248.056L1042.84 260.848L1041.91 265ZM1041.91 265L1040.9 261.616V248.056H1044.67V265H1041.91ZM1050.48 265V261.688H1054.68C1055.7 261.688 1056.6 261.488 1057.37 261.088C1058.14 260.672 1058.73 260.072 1059.14 259.288C1059.56 258.504 1059.77 257.576 1059.77 256.504C1059.77 255.432 1059.55 254.512 1059.12 253.744C1058.7 252.976 1058.11 252.384 1057.34 251.968C1056.59 251.552 1055.7 251.344 1054.68 251.344H1050.36V248.056H1054.73C1056.01 248.056 1057.18 248.264 1058.26 248.68C1059.34 249.08 1060.29 249.664 1061.09 250.432C1061.9 251.184 1062.53 252.08 1062.96 253.12C1063.41 254.144 1063.63 255.28 1063.63 256.528C1063.63 257.76 1063.41 258.896 1062.96 259.936C1062.53 260.976 1061.91 261.872 1061.11 262.624C1060.31 263.376 1059.37 263.96 1058.28 264.376C1057.21 264.792 1056.04 265 1054.78 265H1050.48ZM1047.94 265V248.056H1051.7V265H1047.94ZM1074.12 265.288C1072.84 265.288 1071.65 265.064 1070.57 264.616C1069.49 264.168 1068.55 263.544 1067.73 262.744C1066.92 261.944 1066.29 261.016 1065.84 259.96C1065.39 258.888 1065.17 257.736 1065.17 256.504C1065.17 255.256 1065.39 254.104 1065.84 253.048C1066.29 251.992 1066.91 251.072 1067.71 250.288C1068.51 249.488 1069.45 248.872 1070.52 248.44C1071.61 247.992 1072.79 247.768 1074.07 247.768C1075.33 247.768 1076.5 247.992 1077.57 248.44C1078.66 248.872 1079.61 249.488 1080.41 250.288C1081.22 251.072 1081.85 252 1082.3 253.072C1082.75 254.128 1082.97 255.28 1082.97 256.528C1082.97 257.76 1082.75 258.912 1082.3 259.984C1081.85 261.04 1081.23 261.968 1080.43 262.768C1079.63 263.552 1078.69 264.168 1077.6 264.616C1076.53 265.064 1075.37 265.288 1074.12 265.288ZM1074.07 261.856C1075.08 261.856 1075.96 261.632 1076.71 261.184C1077.48 260.736 1078.07 260.112 1078.49 259.312C1078.9 258.496 1079.11 257.56 1079.11 256.504C1079.11 255.704 1078.99 254.984 1078.75 254.344C1078.51 253.688 1078.17 253.128 1077.72 252.664C1077.27 252.184 1076.73 251.824 1076.11 251.584C1075.5 251.328 1074.82 251.2 1074.07 251.2C1073.06 251.2 1072.17 251.424 1071.41 251.872C1070.65 252.304 1070.07 252.92 1069.65 253.72C1069.24 254.504 1069.03 255.432 1069.03 256.504C1069.03 257.304 1069.15 258.032 1069.39 258.688C1069.63 259.344 1069.97 259.912 1070.4 260.392C1070.85 260.856 1071.38 261.216 1072.01 261.472C1072.63 261.728 1073.32 261.856 1074.07 261.856ZM1085.37 265V248.056H1089.13V265H1085.37ZM1088.27 265V261.688H1096.65V265H1088.27ZM1105.97 265.288C1104.69 265.288 1103.51 265.064 1102.42 264.616C1101.35 264.168 1100.4 263.544 1099.59 262.744C1098.77 261.944 1098.14 261.016 1097.69 259.96C1097.24 258.888 1097.02 257.736 1097.02 256.504C1097.02 255.256 1097.24 254.104 1097.69 253.048C1098.14 251.992 1098.76 251.072 1099.56 250.288C1100.36 249.488 1101.3 248.872 1102.37 248.44C1103.46 247.992 1104.64 247.768 1105.92 247.768C1107.19 247.768 1108.35 247.992 1109.43 248.44C1110.51 248.872 1111.46 249.488 1112.26 250.288C1113.07 251.072 1113.71 252 1114.15 253.072C1114.6 254.128 1114.83 255.28 1114.83 256.528C1114.83 257.76 1114.6 258.912 1114.15 259.984C1113.71 261.04 1113.08 261.968 1112.28 262.768C1111.48 263.552 1110.54 264.168 1109.45 264.616C1108.38 265.064 1107.22 265.288 1105.97 265.288ZM1105.92 261.856C1106.93 261.856 1107.81 261.632 1108.56 261.184C1109.33 260.736 1109.92 260.112 1110.34 259.312C1110.75 258.496 1110.96 257.56 1110.96 256.504C1110.96 255.704 1110.84 254.984 1110.6 254.344C1110.36 253.688 1110.02 253.128 1109.57 252.664C1109.12 252.184 1108.59 251.824 1107.96 251.584C1107.35 251.328 1106.67 251.2 1105.92 251.2C1104.91 251.2 1104.03 251.424 1103.26 251.872C1102.51 252.304 1101.92 252.92 1101.51 253.72C1101.09 254.504 1100.88 255.432 1100.88 256.504C1100.88 257.304 1101 258.032 1101.24 258.688C1101.48 259.344 1101.82 259.912 1102.25 260.392C1102.7 260.856 1103.23 261.216 1103.86 261.472C1104.48 261.728 1105.17 261.856 1105.92 261.856ZM1125.49 265.264C1124.23 265.264 1123.05 265.048 1121.96 264.616C1120.89 264.168 1119.95 263.544 1119.13 262.744C1118.33 261.944 1117.71 261.016 1117.26 259.96C1116.81 258.888 1116.59 257.736 1116.59 256.504C1116.59 255.272 1116.81 254.128 1117.26 253.072C1117.71 252 1118.33 251.072 1119.13 250.288C1119.93 249.504 1120.87 248.896 1121.94 248.464C1123.03 248.016 1124.2 247.792 1125.47 247.792C1126.81 247.792 1128 248.008 1129.04 248.44C1130.1 248.872 1131.02 249.464 1131.8 250.216L1129.28 252.76C1128.84 252.28 1128.29 251.904 1127.65 251.632C1127.03 251.36 1126.3 251.224 1125.47 251.224C1124.73 251.224 1124.05 251.352 1123.43 251.608C1122.82 251.848 1122.29 252.2 1121.84 252.664C1121.41 253.128 1121.07 253.688 1120.81 254.344C1120.57 255 1120.45 255.72 1120.45 256.504C1120.45 257.304 1120.57 258.032 1120.81 258.688C1121.07 259.344 1121.41 259.904 1121.84 260.368C1122.29 260.832 1122.82 261.192 1123.43 261.448C1124.05 261.704 1124.73 261.832 1125.47 261.832C1126.33 261.832 1127.08 261.696 1127.72 261.424C1128.36 261.152 1128.92 260.776 1129.38 260.296L1131.92 262.84C1131.11 263.592 1130.17 264.184 1129.12 264.616C1128.08 265.048 1126.87 265.264 1125.49 265.264ZM1132.31 265L1139.03 248.056H1142.43L1149.08 265H1145.1L1140.01 250.936H1141.38L1136.22 265H1132.31ZM1136.12 261.928V258.856H1145.36V261.928H1136.12ZM1150.87 265V248.056H1154.64V265H1150.87ZM1153.78 265V261.688H1162.15V265H1153.78Z" fill="white"/>
<defs>
<clipPath id="clip0_169_2">
<rect width="1207" height="309" fill="white" transform="translate(0 24)"/>
</clipPath>
</defs>
</svg>
