<svg width="1207" height="309" viewBox="0 0 1207 309" fill="none" xmlns="http://www.w3.org/2000/svg">
<g clip-path="url(#clip0_109_13465)">
<path d="M1207 0H0V309H1207V0Z" fill="#F6851F"/>
<path d="M300.365 292.237C300.365 292.237 289.625 103.399 439.893 55.0778C590.161 6.75641 631.158 103.057 729.348 95.0177C827.623 86.9784 927.943 148.385 887.031 292.323H300.365V292.237Z" fill="#FFFBEA"/>
<path d="M654.257 58.8408V86.2086H596.383V31.3874H586.581V19.0719H544.987V31.3874H534.333V152.747H510.211V69.1037H491.63V59.525H464.611V69.1037H457.963V152.747V170.108V292.066H713.665V177.463V152.747V58.8408H654.257Z" fill="#FCEED9"/>
<path d="M574.188 294.731H577.086V205.358H574.188V294.731Z" fill="#EFD9BB"/>
<path d="M506.252 294.731H509.15V205.358H506.252V294.731Z" fill="#EFD9BB"/>
<path d="M472.117 294.731H475.015V205.358H472.117V294.731Z" fill="#EFD9BB"/>
<path d="M608.408 294.731H611.306V205.358H608.408V294.731Z" fill="#EFD9BB"/>
<path d="M571.836 175.667C571.836 175.667 605.077 200.812 611.299 205.43H507.995L480.55 175.667H571.836Z" fill="#EFD9BB"/>
<path d="M480.55 175.667L472.026 205.344H507.995L480.55 175.667Z" fill="#EFD9BB"/>
<path d="M507.995 205.344C507.995 205.344 508.677 211.16 510.296 214.752L614.793 214.496C614.793 214.496 612.236 208.509 611.299 205.344H507.995Z" fill="#EFD9BB"/>
<path d="M571.836 175.667L570.216 170.792H480.55V175.667H571.836Z" fill="#EFD9BB"/>
<path d="M440.405 136.069C440.49 135.129 440.575 134.102 440.575 133.162C440.575 118.024 428.387 105.794 413.3 105.794C409.038 105.794 405.032 106.82 401.367 108.531C396.679 100.32 387.9 94.8467 377.758 94.8467C368.978 94.8467 361.137 99.0374 356.108 105.623C352.272 103.57 347.926 102.458 343.323 102.458C328.236 102.458 316.048 114.688 316.048 129.826C316.048 129.912 316.048 129.912 316.048 129.997C302.411 131.451 291.756 143.083 291.756 157.194C291.756 172.332 303.945 184.562 319.031 184.562C321.333 184.562 323.463 184.22 325.594 183.707C329.856 193.114 339.402 199.7 350.397 199.7C358.239 199.7 365.228 196.364 370.172 191.147C375.2 197.134 382.701 200.983 391.054 200.983C402.049 200.983 411.51 194.483 415.772 185.075C419.437 186.957 423.613 187.983 427.96 187.983C443.047 187.983 455.235 175.753 455.235 160.615C455.406 149.753 449.269 140.517 440.405 136.069Z" fill="#EFD9BB"/>
<path d="M399.151 220.995L395.145 215.778C395.145 215.778 390.031 218.344 383.553 222.962C383.639 209.364 385.343 195.937 389.861 184.904L383.298 182.338C383.298 182.338 371.706 203.121 370.598 218.429C370.598 218.429 366.592 194.739 356.023 182.338L352.017 188.496C352.017 188.496 360.37 203.463 361.478 231.173C362.586 258.883 344.431 292.066 344.431 292.066H393.1C393.1 292.066 385.173 263.843 383.724 233.396C389.008 228.35 394.634 223.475 399.151 220.995Z" fill="#EFD9BB"/>
<path d="M890.867 69.1038C890.952 68.163 891.037 67.2223 891.037 66.2815C891.037 51.8278 879.36 40.111 864.956 40.111C860.864 40.111 857.029 41.0518 853.619 42.7622C849.102 34.9795 840.749 29.677 831.032 29.677C822.594 29.677 815.094 33.6967 810.406 39.9399C806.741 37.9729 802.564 36.8611 798.217 36.8611C783.813 36.8611 772.136 48.5779 772.136 63.0316C772.136 63.1171 772.136 63.1171 772.136 63.2026C759.095 64.6565 748.952 75.6892 748.952 89.2021C748.952 103.656 760.629 115.373 775.034 115.373C777.164 115.373 779.295 115.116 781.341 114.603C785.432 123.668 794.467 129.912 805.036 129.912C812.537 129.912 819.185 126.747 823.958 121.701C828.731 127.432 835.891 131.109 843.903 131.109C854.387 131.109 863.421 124.866 867.513 115.886C871.007 117.682 875.013 118.708 879.19 118.708C893.594 118.708 905.271 106.991 905.271 92.5375C905.186 82.189 899.39 73.38 890.867 69.1038Z" fill="#EFD9BB"/>
<path d="M871.007 147.273C871.007 147.017 871.093 146.675 871.093 146.332C871.093 141.714 867.342 137.865 862.654 137.865C861.376 137.865 860.097 138.208 858.989 138.721C857.54 136.155 854.813 134.53 851.744 134.53C849.017 134.53 846.63 135.813 845.096 137.865C843.903 137.267 842.539 136.839 841.175 136.839C836.573 136.839 832.737 140.602 832.737 145.306C832.737 145.306 832.737 145.306 832.737 145.392C828.561 145.819 825.237 149.411 825.237 153.773C825.237 158.391 828.987 162.24 833.675 162.24C834.357 162.24 835.038 162.154 835.72 161.983C837.084 164.891 839.982 166.944 843.391 166.944C845.778 166.944 847.994 165.918 849.528 164.293C851.063 166.174 853.364 167.286 856.006 167.286C859.415 167.286 862.313 165.233 863.677 162.411C864.785 163.01 866.064 163.352 867.427 163.352C872.03 163.352 875.866 159.589 875.866 154.885C875.61 151.549 873.735 148.642 871.007 147.273Z" fill="#EFD9BB"/>
<path d="M848.25 140.944L844.926 136.583C844.926 136.583 840.749 138.721 835.379 142.569C835.465 131.28 836.828 120.162 840.664 111.011L835.209 108.873C835.209 108.873 825.578 126.063 824.64 138.806C824.64 138.806 821.316 119.136 812.622 108.873L809.298 114.004C809.298 114.004 816.202 126.405 817.139 149.326C818.077 172.246 798.558 291.981 798.558 291.981H838.874C838.874 291.981 823.361 182.253 835.55 151.122C839.812 147.102 844.414 142.997 848.25 140.944Z" fill="#EFD9BB"/>
<path d="M357.898 40.9663H425.062C425.062 40.9663 419.778 30.5323 409.379 28.9073C398.981 27.2823 396.765 33.4401 391.48 33.1835C386.196 32.927 381.593 24.0324 372.303 25.4863C363.012 26.9402 362.671 38.5716 351.164 33.6967C339.658 28.7363 334.544 41.0518 334.544 41.0518H357.898V40.9663Z" fill="#FCEED9"/>
<path d="M651.444 19.0719H707.443C707.443 19.0719 701.647 7.35509 689.97 5.3025C678.293 3.24991 672.497 15.2233 665.508 12.23C658.519 9.1511 651.274 15.822 651.444 19.0719Z" fill="#FCEED9"/>
<path d="M887.287 292.066H300.621V298.309H887.287V292.066Z" fill="#E0C5A4"/>
<path d="M308.633 292.066C308.633 292.066 308.633 275.474 323.975 270.343C339.317 265.211 347.67 277.441 347.67 277.441C347.67 277.441 352.443 270.514 362.842 271.968C377.417 274.02 377.417 291.895 377.417 291.895L308.633 292.066Z" fill="#A8A856"/>
<path d="M557.09 292.066C557.09 292.066 557.09 275.474 572.432 270.343C587.774 265.211 596.127 277.441 596.127 277.441C596.127 277.441 600.9 270.514 611.299 271.968C625.874 274.02 625.874 291.895 625.874 291.895L557.09 292.066Z" fill="#A8A856"/>
<path d="M790.631 241.35H740.002V292.152H790.631V241.35Z" fill="#9C897A"/>
<path d="M864.785 256.573H813.9V292.066H864.785V256.573Z" fill="#E7B142"/>
<path d="M835.294 256.573H807.764V292.066H835.294V256.573Z" fill="#D69D38"/>
<path d="M835.294 256.573L839.3 262.475H868.706L864.785 256.573H835.294Z" fill="#D69D38"/>
<path d="M835.294 256.573L831.459 262.475H803.928L807.764 256.573H835.294Z" fill="#E7B142"/>
<path d="M850.381 239.297C850.381 236.561 847.483 238.699 847.483 238.699C847.483 238.699 848.079 234.765 847.142 232.969C845.352 229.633 843.391 233.054 843.391 233.054C843.391 233.054 843.05 229.206 840.323 229.719C837.596 230.232 839.982 234.08 839.982 234.08C839.982 234.08 836.658 233.482 837.169 236.133C837.596 238.442 841.09 240.837 841.09 240.837C841.09 240.837 838.789 241.35 839.385 243.232C839.982 245.113 847.312 245.797 847.312 245.797C847.312 245.797 850.381 241.949 850.381 239.297Z" fill="#A8A856"/>
<path d="M839.982 245.028L841.261 256.573H852L853.193 245.028H839.982Z" fill="#9C897A"/>
<path d="M853.449 241.264C852.256 243.916 848.591 245.37 848.335 245.455C848.335 245.455 847.142 241.949 848.676 238.87C850.21 235.791 854.216 235.107 854.216 235.107C854.216 235.107 854.642 238.528 853.449 241.264Z" fill="#A8A856"/>
<path d="M854.216 235.021C851.148 237.33 848.42 245.028 848.335 245.37C848.335 245.37 847.142 241.863 848.676 238.784C850.21 235.705 854.216 235.021 854.216 235.021Z" fill="#A8A856"/>
<path d="M839.385 245.028L839.556 246.909H853.449L853.705 245.028H839.385Z" fill="#AD998C"/>
<path d="M662.865 106.649H656.814V292.066H662.865V106.649Z" fill="#7F6B5D"/>
<path d="M662.013 150.951C662.013 150.951 663.377 155.312 669.599 155.312C675.821 155.312 676.418 150.951 676.418 150.951C676.418 150.951 681.276 152.49 685.538 155.141C689.8 157.793 693.55 166.345 693.55 166.345L688.692 170.878L682.725 166.687V203.377H654.854L655.024 167.457L649.74 171.134L643.517 163.352C643.517 163.352 649.058 156.253 652.467 154.286C655.876 152.319 662.013 150.951 662.013 150.951Z" fill="#4C8291"/>
<path d="M687.924 150.951C687.924 150.951 689.288 155.312 695.51 155.312C701.732 155.312 702.329 150.951 702.329 150.951C702.329 150.951 707.187 152.49 711.449 155.141C715.711 157.793 719.461 166.345 719.461 166.345L714.603 170.878L708.636 166.687L709.659 208.081H678.719L680.85 167.542L675.565 171.22L669.514 163.352C669.514 163.352 675.054 156.253 678.463 154.286C681.788 152.319 687.924 150.951 687.924 150.951Z" fill="#E7B142"/>
<path d="M789.779 195.595L778.699 166.345L778.613 166.089C778.017 164.72 774.607 157.451 770.772 155.056C766.51 152.405 761.652 150.865 761.652 150.865C761.652 150.865 761.055 155.227 754.833 155.227C748.611 155.227 747.247 150.865 747.247 150.865C747.247 150.865 741.11 152.319 737.701 154.286C734.292 156.253 730.456 165.661 730.456 165.661L719.376 195.167L729.178 199.016L740.599 173.615L733.695 228.094H773.329L768.556 173.957L780.062 199.443L789.779 195.595Z" fill="#8A93E2"/>
<path d="M784.75 150.951C784.75 150.951 786.114 155.312 792.336 155.312C798.558 155.312 799.155 150.951 799.155 150.951C799.155 150.951 804.013 152.49 808.275 155.141C812.537 157.793 816.287 166.345 816.287 166.345L811.429 170.878L805.462 166.687V203.377H777.591L777.761 167.457L772.477 171.134L766.255 163.352C766.255 163.352 771.795 156.253 775.204 154.286C778.613 152.319 784.75 150.951 784.75 150.951Z" fill="#A8A856"/>
<path d="M688.095 151.549L695.169 149.411L702.67 151.635" stroke="#5F3E1B" stroke-width="0.5" stroke-miterlimit="10"/>
<path d="M836.061 292.066H834.357V154.543C834.357 149.497 830.265 145.477 825.322 145.477H644.199C639.171 145.477 635.165 149.582 635.165 154.543V292.152H633.46V154.543C633.46 148.556 638.318 143.767 644.199 143.767H825.322C831.288 143.767 836.061 148.642 836.061 154.543V292.066Z" fill="#5E4F45"/>
<path d="M695.169 149.411V147.017C695.169 147.017 697.044 146.332 697.044 144.194C697.044 142.056 693.891 142.313 693.891 144.365" stroke="#5F3E1B" stroke-width="0.5" stroke-miterlimit="10" stroke-linecap="round"/>
<path d="M661.928 151.549L669.002 149.411L676.418 151.635" stroke="#5F3E1B" stroke-width="0.5" stroke-miterlimit="10"/>
<path d="M669.003 149.411V147.017C669.003 147.017 670.878 146.332 670.878 144.194C670.878 142.056 667.724 142.313 667.724 144.365" stroke="#5F3E1B" stroke-width="0.5" stroke-miterlimit="10" stroke-linecap="round"/>
<path d="M747.333 151.549L754.407 149.411L761.822 151.635" stroke="#5F3E1B" stroke-width="0.5" stroke-miterlimit="10"/>
<path d="M754.407 149.411V147.017C754.407 147.017 756.282 146.332 756.282 144.194C756.282 142.056 753.128 142.313 753.128 144.365" stroke="#5F3E1B" stroke-width="0.5" stroke-miterlimit="10" stroke-linecap="round"/>
<path d="M784.75 151.549L791.825 149.411L799.24 151.635" stroke="#5F3E1B" stroke-width="0.5" stroke-miterlimit="10"/>
<path d="M791.825 149.411V147.017C791.825 147.017 793.7 146.332 793.7 144.194C793.7 142.056 790.546 142.313 790.546 144.365" stroke="#5F3E1B" stroke-width="0.5" stroke-miterlimit="10" stroke-linecap="round"/>
<path d="M803.843 106.649H797.791V292.066H803.843V106.649Z" fill="#9C897A"/>
<path d="M874.758 106.649H868.706V292.066H874.758V106.649Z" fill="#7F6B5D"/>
<path d="M591.951 106.649H585.899V292.066H591.951V106.649Z" fill="#9C897A"/>
<path d="M667.809 44.9858C667.809 44.9858 598.855 97.0703 585.984 106.649H800.348L857.284 44.9858H667.809Z" fill="#FFF5DD"/>
<path d="M857.199 44.9858L874.928 106.649H800.348L857.199 44.9858Z" fill="#FF9178"/>
<path d="M800.348 106.649C800.348 106.649 798.984 118.708 795.66 126.234L578.74 125.721C578.74 125.721 584.024 113.234 585.899 106.649H800.348Z" fill="#E8D5AF"/>
<path d="M667.809 44.9859L671.133 34.9795H857.199V44.9859H667.809Z" fill="#FF9178"/>
<path d="M577.461 232.798H452.082V237.16H577.461V232.798Z" fill="#9C897A"/>
<path d="M566.04 237.074H461.884V253.495H566.04V237.074Z" fill="#C5BA9F"/>
<path d="M464.696 253.495H461.884V292.066H464.696V253.495Z" fill="#9C897A"/>
<path d="M566.04 253.495H563.227V292.066H566.04V253.495Z" fill="#9C897A"/>
<path d="M468.788 253.495H464.696V257.6V264.442C466.998 264.442 468.788 262.56 468.788 260.337V257.6H471.515C473.816 257.6 475.606 255.719 475.606 253.495H468.788Z" fill="#9C897A"/>
<path d="M559.05 253.495H563.142V257.6V264.442C560.84 264.442 559.05 262.56 559.05 260.337V257.6H556.323C554.022 257.6 552.232 255.719 552.232 253.495H559.05Z" fill="#9C897A"/>
<path d="M505.609 249.646H468.276C467.85 249.646 467.424 249.304 467.424 248.791V241.521C467.424 241.094 467.765 240.666 468.276 240.666H505.609C506.035 240.666 506.461 241.008 506.461 241.521V248.791C506.461 249.304 506.035 249.646 505.609 249.646Z" fill="#9C897A"/>
<path d="M559.391 249.646H522.059C521.633 249.646 521.207 249.304 521.207 248.791V241.521C521.207 241.094 521.547 240.666 522.059 240.666H559.391C559.818 240.666 560.244 241.008 560.244 241.521V248.791C560.244 249.304 559.903 249.646 559.391 249.646Z" fill="#9C897A"/>
<path d="M541.833 228.35H537.912V212.785H536.122V228.35H532.543C530.071 228.35 528.11 230.317 528.11 232.798H529.133H546.265C546.265 230.317 544.22 228.35 541.833 228.35Z" fill="#5E4F45"/>
<path d="M543.794 194.654H541.663H532.713H530.582L523.678 216.634H532.713H541.663H550.698L543.794 194.654Z" fill="#FF9178"/>
<path d="M512.854 232.798H473.987C471.856 232.798 470.237 231.087 470.237 229.035V210.818C470.237 208.68 471.941 207.055 473.987 207.055H512.854C514.984 207.055 516.604 208.765 516.604 210.818V229.035C516.604 231.087 514.899 232.798 512.854 232.798Z" fill="#C5BA9F"/>
<path d="M479.442 226.982C483.019 226.982 485.92 224.072 485.92 220.482C485.92 216.893 483.019 213.982 479.442 213.982C475.864 213.982 472.964 216.893 472.964 220.482C472.964 224.072 475.864 226.982 479.442 226.982Z" fill="#9C897A"/>
<path d="M506.461 226.982C510.039 226.982 512.939 224.072 512.939 220.482C512.939 216.893 510.039 213.982 506.461 213.982C502.884 213.982 499.983 216.893 499.983 220.482C499.983 224.072 502.884 226.982 506.461 226.982Z" fill="#9C897A"/>
<path d="M496.148 217.746H489.329V222.792H496.148V217.746Z" fill="#9C897A"/>
<path d="M455.832 259.567H321.844V265.554H455.832V259.567Z" fill="#9C897A"/>
<path d="M358.836 290.014L351.25 265.468H349.46L355.085 287.619C355.256 288.218 354.83 288.902 354.148 288.902H341.874C341.192 288.902 340.766 288.218 340.936 287.619L346.903 265.468H345.198L337.101 290.014C336.76 290.954 337.527 291.981 338.55 291.981H357.387C358.409 291.981 359.176 291.04 358.836 290.014Z" fill="#C4C29D"/>
<path d="M348.607 290.014L341.022 265.468H339.232L344.857 287.619C345.028 288.218 344.601 288.902 343.92 288.902H331.646C330.964 288.902 330.538 288.218 330.708 287.619L336.675 265.468H334.97L326.873 290.014C326.532 290.954 327.299 291.981 328.322 291.981H347.158C348.181 291.981 348.948 291.04 348.607 290.014Z" fill="#F7F7AF"/>
<path d="M417.306 290.014L424.892 265.468H426.767L421.142 287.619C420.971 288.218 421.397 288.902 422.079 288.902H434.353C435.035 288.902 435.461 288.218 435.29 287.619L429.324 265.468H431.029L439.126 290.014C439.467 290.954 438.7 291.981 437.677 291.981H418.84C417.732 291.981 416.965 291.04 417.306 290.014Z" fill="#C4C29D"/>
<path d="M427.534 290.014L435.12 265.468H436.995L431.37 287.619C431.199 288.218 431.625 288.902 432.307 288.902H444.581C445.263 288.902 445.689 288.218 445.519 287.619L439.552 265.468H441.257L449.354 290.014C449.695 290.954 448.928 291.981 447.905 291.981H429.068C427.96 291.981 427.193 291.04 427.534 290.014Z" fill="#F7F7AF"/>
<path d="M329.43 249.988C329.43 249.988 328.577 247.422 327.64 245.797C326.702 244.172 326.958 243.659 326.02 242.376C325.083 241.094 323.634 241.607 322.782 239.982C321.929 238.357 319.628 239.041 318.69 237.758C317.753 236.39 318.435 236.048 317.582 234.936C316.73 233.824 318.946 233.738 319.969 235.449C320.992 237.159 321.503 236.903 323.037 237.331C324.571 237.758 324.23 239.811 325.253 239.811C326.276 239.896 327.384 239.725 328.492 241.949C329.6 244.172 329.515 247.08 330.112 247.422C330.708 247.765 330.453 249.561 330.453 249.561L329.43 249.988Z" fill="#8D8E3E"/>
<path d="M329.856 248.62C329.856 248.62 328.236 244.857 327.896 242.377C327.555 239.896 327.469 238.614 326.191 237.074C324.912 235.62 324.145 234.337 324.571 232.883C324.912 231.344 322.782 230.831 322.611 229.12C322.441 227.41 322.867 226.726 322.611 225.87C322.355 225.015 322.27 223.903 322.611 223.903C322.952 223.903 324.657 225.785 324.657 227.41C324.742 229.035 324.571 228.864 326.106 230.318C327.64 231.857 326.276 233.739 327.043 235.022C327.896 236.304 328.748 235.278 329.43 238.785C330.112 242.377 330.026 243.831 330.879 245.113C331.731 246.396 331.39 249.732 331.39 249.732L329.856 249.903V248.62Z" fill="#A8A856"/>
<path d="M330.453 246.995C330.453 246.995 330.112 240.666 330.964 238.186C331.816 235.706 331.816 234.594 331.475 232.627C331.134 230.66 331.987 228.436 332.669 227.752C333.351 226.982 333.351 223.903 334.459 223.903C335.567 223.818 334.032 227.752 334.459 228.522C334.885 229.291 333.18 231.771 333.521 233.054C333.862 234.337 334.544 236.048 333.691 238.785C332.839 241.521 331.561 242.12 332.583 243.83C333.692 245.541 332.583 249.646 332.583 249.646L330.879 249.39L330.453 246.995Z" fill="#8D8E3E"/>
<path d="M334.288 249.561C334.288 249.561 336.078 245.627 335.822 242.804C335.567 239.896 337.697 239.041 338.635 236.818C339.573 234.594 338.55 232.627 338.465 230.66C338.379 228.607 338.806 227.068 338.038 226.555C337.271 226.041 336.675 229.719 337.271 231.173C337.868 232.627 336.845 233.568 336.078 235.278C335.311 236.989 335.567 237.331 334.288 239.298C333.01 241.265 332.669 249.561 332.669 249.561H334.288Z" fill="#A8A856"/>
<path d="M325.424 246.14V253.495C325.424 255.547 326.702 257.343 328.492 258.113V259.567H335.226V257.857C336.76 257.001 337.783 255.376 337.783 253.409V246.054H325.424V246.14Z" fill="#ECA742"/>
<path d="M364.12 222.791C364.12 222.791 368.552 228.949 367.87 241.863" stroke="#70702A" stroke-miterlimit="10"/>
<path d="M367.956 246.311C367.956 246.311 370.427 230.831 378.695 231.857" stroke="#70702A" stroke-miterlimit="10"/>
<path d="M392.247 239.64C392.333 238.784 393.526 238.015 394.975 237.502C394.719 236.475 394.378 235.449 393.952 234.508C391.565 235.962 388.156 237.673 387.986 236.219C387.815 234.765 390.713 233.225 392.759 232.199C392.077 231.173 391.31 230.318 390.372 229.633C388.241 231.344 384.15 234.423 383.809 232.798C383.468 231.429 385.94 229.633 387.815 228.436C385.343 227.666 381.849 226.811 377.672 230.061C375.882 231.429 374.092 233.311 374.689 238.613C374.86 239.896 375.2 241.008 375.882 241.949C376.394 239.725 377.417 236.475 378.951 236.304C380.741 236.133 378.695 241.692 377.843 244.001C378.78 244.771 379.888 245.455 381.082 245.969C381.337 243.745 381.934 239.64 383.553 239.298C385.258 238.956 384.065 244.173 383.383 246.824C384.491 247.166 385.684 247.422 386.878 247.679C386.792 245.541 386.963 242.89 388.156 242.462C389.435 241.949 389.52 245.37 389.435 248.107C393.1 248.534 396.083 248.449 396.083 248.449C396.083 248.449 396.424 244.429 395.657 239.982C393.696 240.495 392.247 240.58 392.247 239.64Z" fill="#8D8E3E"/>
<path d="M360.455 230.403C360.455 230.403 364.29 229.719 366.421 235.706C368.552 241.692 367.529 247.936 367.529 247.936" stroke="#70702A" stroke-miterlimit="10"/>
<path d="M368.893 245.541C368.893 245.541 366.08 226.725 375.456 220.824" stroke="#70702A" stroke-miterlimit="10"/>
<path d="M377.502 259.567H358.324C355.852 259.567 353.892 257.6 353.892 255.12V247.936C353.892 245.455 355.852 243.488 358.324 243.488H377.502C379.974 243.488 381.934 245.455 381.934 247.936V255.12C381.934 257.6 379.974 259.567 377.502 259.567Z" fill="#766A5A"/>
<path d="M388.582 218.344C388.156 217.574 388.667 216.291 389.52 215.009C388.753 214.324 387.815 213.64 386.963 213.127C385.769 215.693 383.98 219.114 383.042 218.002C382.104 216.89 383.553 213.982 384.661 212.015C383.553 211.588 382.36 211.331 381.252 211.331C380.485 213.897 378.865 218.772 377.587 217.66C376.564 216.719 377.502 213.811 378.439 211.759C376.053 212.528 372.643 213.811 371.024 218.857C370.342 220.995 369.916 223.561 373.41 227.666C374.263 228.607 375.2 229.291 376.308 229.804C375.456 227.666 374.519 224.416 375.627 223.476C376.99 222.364 378.525 228.008 379.036 230.489C380.229 230.574 381.508 230.489 382.786 230.232C381.678 228.265 379.888 224.587 380.996 223.39C382.19 222.193 384.235 227.153 385.088 229.633C386.196 229.291 387.304 228.864 388.412 228.35C387.133 226.64 385.769 224.331 386.451 223.304C387.218 222.193 389.264 224.929 390.713 227.239C394.037 225.528 396.338 223.732 396.338 223.732C396.338 223.732 394.378 220.311 391.224 217.061C390.287 218.173 389.094 219.199 388.582 218.344Z" fill="#A8A856"/>
<path d="M346.477 234.081C346.647 233.225 345.709 232.199 344.516 231.258C345.028 230.318 345.624 229.462 346.306 228.693C348.181 230.745 350.909 233.311 351.505 232.028C352.017 230.745 349.801 228.436 348.096 226.897C349.034 226.127 349.971 225.528 351.079 225.101C352.613 227.324 355.682 231.344 356.449 229.89C357.131 228.693 355.341 226.298 353.807 224.587C356.364 224.587 359.858 224.758 362.927 228.949C364.29 230.745 365.399 233.054 363.438 237.929C362.927 239.127 362.245 240.067 361.393 240.837C361.478 238.528 361.393 235.192 360.029 234.679C358.409 234.081 358.75 239.896 359.006 242.291C357.898 242.804 356.705 243.061 355.341 243.232C355.767 241.094 356.278 236.988 354.829 236.219C353.381 235.449 352.954 240.752 352.869 243.403C351.676 243.403 350.483 243.403 349.375 243.232C350.056 241.179 350.568 238.699 349.63 237.929C348.522 237.074 347.499 240.324 346.817 242.89C343.152 242.291 340.425 241.35 340.425 241.35C340.425 241.35 341.192 237.502 343.152 233.482C344.857 234.423 346.221 235.021 346.477 234.081Z" fill="#A8A856"/>
<path d="M353.295 211.246C353.892 210.732 353.892 209.535 353.551 208.167C354.403 207.825 355.341 207.568 356.278 207.397C356.449 209.877 356.79 213.213 357.898 212.614C359.006 212.015 358.75 209.193 358.495 207.14C359.517 207.14 360.54 207.311 361.563 207.654C361.393 210.048 361.137 214.581 362.501 214.068C363.609 213.64 363.779 210.903 363.694 208.936C365.399 210.39 367.785 212.528 367.529 217.147C367.444 219.114 366.933 221.337 362.756 223.561C361.733 224.074 360.711 224.331 359.688 224.331C361.052 222.877 362.927 220.482 362.33 219.37C361.563 218.002 358.495 222.193 357.301 223.989C356.278 223.647 355.256 223.219 354.318 222.535C355.852 221.252 358.495 218.857 357.983 217.489C357.387 216.12 354.148 219.541 352.613 221.252C351.761 220.568 350.994 219.884 350.312 219.114C351.932 218.088 353.721 216.719 353.551 215.607C353.295 214.41 350.738 216.035 348.778 217.403C346.647 214.923 345.283 212.699 345.283 212.699C345.283 212.699 348.011 210.476 351.676 208.851C352.017 210.561 352.699 211.759 353.295 211.246Z" fill="#8D8E3E"/>
<path d="M732.246 261.106H701.818C700.369 261.106 699.261 259.994 699.261 258.54V258.455C699.261 257.001 700.369 255.889 701.818 255.889H732.246V261.106Z" fill="#FF9178"/>
<path d="M732.246 259.909H715.626C714.773 259.909 714.177 259.225 714.177 258.455C714.177 257.6 714.858 257.001 715.626 257.001H732.246V259.909Z" fill="#FFF1BF"/>
<path d="M734.888 255.975H704.46C703.011 255.975 701.903 254.863 701.903 253.409V253.324C701.903 251.87 703.011 250.758 704.46 250.758H734.888V255.975Z" fill="#8A93E2"/>
<path d="M734.888 254.777H718.268C717.415 254.777 716.819 254.093 716.819 253.324C716.819 252.468 717.501 251.87 718.268 251.87H734.888V254.777Z" fill="#FFF1BF"/>
<path d="M733.269 250.758H702.84C701.391 250.758 700.283 249.646 700.283 248.192V248.107C700.283 246.653 701.391 245.541 702.84 245.541H733.269V250.758Z" fill="#766A5A"/>
<path d="M733.269 249.56H716.648C715.796 249.56 715.199 248.876 715.199 248.107C715.199 247.251 715.881 246.653 716.648 246.653H733.269V249.56Z" fill="#FFF1BF"/>
<path d="M695.425 261.106V292.066H736.423V261.106H695.425Z" fill="#E7B142"/>
<path d="M719.972 268.718H711.364C710.256 268.718 709.403 267.863 709.403 266.751V266.665C709.403 265.553 710.256 264.698 711.364 264.698H719.972C721.081 264.698 721.933 265.553 721.933 266.665V266.751C721.933 267.777 721.081 268.718 719.972 268.718Z" fill="#D69D38"/>
<path d="M613.345 106.649L688.095 44.9858H667.809L585.899 106.649H613.345Z" fill="#FFB1A4"/>
<path d="M670.963 106.649L736.337 44.9858H713.239L643.517 106.649H670.963Z" fill="#FFB1A4"/>
<path d="M721.336 106.649L786.711 44.9858H763.612L693.891 106.649H721.336Z" fill="#FFB1A4"/>
<path d="M774.693 106.649L840.152 44.9858H817.054L747.333 106.649H774.693Z" fill="#FFB1A4"/>
<path d="M613.345 106.649L607.463 125.807H578.74L585.899 106.649H613.345Z" fill="#FF9178"/>
<path d="M643.517 106.649L638.318 125.892H665.849L670.963 106.649H643.517Z" fill="#FF9178"/>
<path d="M693.294 106.649L688.095 125.892H715.54L720.654 106.649H693.294Z" fill="#FF9178"/>
<path d="M747.333 106.649L742.133 125.892H769.664L774.778 106.649H747.333Z" fill="#FF9178"/>
<path d="M616.754 261.106H606.185L605.503 227.837L604.736 227.923L600.474 261.021H590.076C590.076 261.021 587.689 248.449 588.286 235.107C588.968 221.765 593.655 214.923 593.655 214.923L610.702 213.555L615.22 213.213C615.22 213.213 615.561 213.64 615.987 214.581C616.157 214.923 616.413 215.351 616.583 215.864C617.606 218.088 619.055 221.765 619.908 226.982C621.612 236.304 616.754 261.106 616.754 261.106Z" fill="#353235"/>
<path d="M617.606 215.094L616.583 215.949L614.708 217.489C614.708 217.489 599.025 215.607 594.508 230.745C589.99 245.883 593.911 261.192 593.911 261.192H589.99C589.99 261.192 587.604 248.62 588.2 235.278C588.882 221.936 593.57 215.094 593.57 215.094L610.617 213.726C612.833 214.068 614.623 214.41 615.902 214.666C617.01 214.923 617.606 215.094 617.606 215.094Z" fill="#242426"/>
<path d="M611.043 181.055C611.043 181.055 614.623 184.049 615.902 188.753C617.18 193.371 621.612 209.963 621.612 209.963H614.112C614.112 209.963 610.191 183.279 611.043 181.055Z" fill="#AA6750"/>
<path d="M604.054 178.319C604.054 178.319 609.935 180.799 611.043 181.141C611.043 181.141 615.561 185.759 615.134 196.108C614.708 206.456 613.345 216.976 613.345 216.976L595.36 217.403C595.36 217.403 586.922 188.924 587.86 184.562C588.797 180.115 598.94 178.319 598.94 178.319H604.054Z" fill="#4C8291"/>
<path d="M598.343 172.93L598.94 179.516C598.94 179.516 603.202 183.022 604.565 180.799L603.969 175.753L598.343 172.93Z" fill="#AA6750"/>
<path d="M596.213 169.253C597.321 174.812 602.349 178.062 605.759 176.779C609.168 175.496 609.424 169.167 608.657 165.575C607.975 161.983 604.565 159.931 600.9 160.615C597.406 161.299 595.531 165.661 596.213 169.253Z" fill="#BA785B"/>
<path d="M598.343 158.904C598.343 158.904 594.423 159.76 593.229 165.148C592.036 170.536 594.337 174.726 595.786 175.667C597.235 176.608 598.684 176.608 598.684 176.608C598.684 176.608 599.025 175.154 598.343 173.273C598.343 173.273 596.298 171.819 596.468 169.51C596.639 167.286 597.917 167.542 598.343 167.713C598.77 167.97 598.77 169.424 598.77 169.424C598.77 169.424 599.707 169.681 600.304 168.312C600.815 166.944 600.304 165.233 600.304 165.233C600.304 165.233 604.225 163.437 604.992 161.043C604.992 161.043 606.782 164.036 608.657 165.062C610.532 166.174 610.02 160.444 606.185 158.99C602.264 157.365 599.025 158.306 598.343 158.904Z" fill="#2C2D32"/>
<path d="M598.514 159.247C598.514 159.247 596.894 156.168 593.57 156.852C590.246 157.536 588.201 161.214 588.115 164.806C588.03 168.398 589.735 166.26 589.735 166.26C589.735 166.26 588.03 171.733 590.246 172.075C592.377 172.417 593.911 164.207 595.701 163.01C597.491 161.727 598.514 159.247 598.514 159.247Z" fill="#2C2D32"/>
<path d="M588.115 183.792C588.115 183.792 585.388 184.818 584.28 191.318L580.359 213.897L588.371 214.837L592.974 192.259C592.888 192.259 592.036 186.785 588.115 183.792Z" fill="#BA785B"/>
<path d="M615.22 229.548C615.22 229.548 615.561 216.976 611.81 215.607C608.827 214.495 604.651 214.324 603.202 214.239C602.776 214.239 602.605 214.239 602.605 214.239C602.605 214.239 602.776 213.897 603.116 213.384C603.543 212.785 604.31 211.93 605.503 211.16C606.782 210.305 608.486 209.535 610.958 209.022C617.777 207.739 624.596 209.706 627.067 212.101C628.772 213.726 629.965 220.995 630.562 225.271C630.818 227.153 630.988 228.521 630.988 228.521L615.22 229.548Z" fill="#F7F7AF"/>
<path d="M615.22 229.548C615.22 229.548 615.561 216.976 611.81 215.607C608.827 214.496 604.651 214.324 603.202 214.239L603.116 213.384C603.543 212.785 604.31 211.93 605.503 211.16C608.998 210.561 615.049 210.561 617.606 216.463C620.675 223.39 626.13 226.127 630.562 225.357C630.818 227.239 630.988 228.607 630.988 228.607L615.22 229.548Z" fill="#E5E39C"/>
<path d="M580.359 213.811C580.359 213.811 584.28 212.272 587.774 211.673C591.269 211.074 605.844 213.811 605.844 213.811V218.258C605.844 218.258 598.429 218.772 589.479 218.258C580.785 217.831 580.359 213.811 580.359 213.811Z" fill="#BA785B"/>
<path d="M605.418 214.153C605.418 214.153 607.463 212.528 608.401 212.186C609.339 211.844 611.981 212.186 611.981 212.186C611.981 212.186 612.066 212.956 611.555 213.127C611.043 213.298 609.339 213.298 609.339 213.298L608.742 213.982L611.81 215.522H614.964C614.964 215.522 614.964 216.719 613.6 216.805C613.6 216.805 613.6 217.831 612.492 218.173C612.492 218.173 612.407 219.028 611.384 219.114C611.384 219.114 610.702 219.712 609.765 219.541C608.827 219.37 605.247 217.916 605.247 217.916L605.418 214.153Z" fill="#BA785B"/>
<path d="M590.076 261.106C590.076 261.106 591.439 288.902 591.78 295.915H597.747L600.474 261.106H590.076Z" fill="#BA785B"/>
<path d="M606.185 261.106C606.185 261.106 605.588 267.521 606.185 275.987C606.782 284.454 607.804 295.829 607.804 295.829L613.771 295.744L616.243 261.106H606.185Z" fill="#AA6750"/>
<path d="M604.31 299.592C604.31 299.592 604.054 298.395 601.668 297.198C599.281 296 597.662 295.915 597.662 295.915H591.78C591.78 295.915 591.269 298.908 591.525 300.362H604.31C604.31 300.362 604.48 300.02 604.31 299.592Z" fill="#766A5A"/>
<path d="M620.249 299.421C620.249 299.421 619.993 298.224 617.606 297.027C615.22 295.829 613.6 295.744 613.6 295.744H607.719C607.719 295.744 607.208 298.737 607.463 300.191H620.163C620.249 300.191 620.419 299.849 620.249 299.421Z" fill="#766A5A"/>
<path d="M613.515 194.226L599.878 196.792C599.878 196.792 603.031 198.331 608.316 197.904C613.686 197.39 613.515 194.226 613.515 194.226Z" fill="#2A6777"/>
<path d="M592.888 192.259C592.888 192.259 594.423 209.193 595.275 212.186L593.826 212.015L591.184 202.265L592.888 192.259Z" fill="#2A6777"/>
<path d="M605.503 227.923L610.106 226.127C610.106 226.127 608.486 238.442 608.827 248.791C609.168 259.139 609.339 261.106 609.339 261.106H606.1L605.503 227.923Z" fill="#242426"/>
<path d="M587.774 212.015L582.746 213.897C582.746 213.897 584.195 210.647 587.774 212.015Z" fill="#AA6750"/>
<path d="M656.984 199.358C656.984 199.358 661.161 201.239 661.502 209.278" stroke="#C5BA9F" stroke-miterlimit="10" stroke-linecap="round"/>
<path d="M687.328 195.68C687.328 195.68 688.947 203.719 689.373 208.081C689.8 212.443 684.771 216.719 684.771 216.719L681.958 207.226L684.686 195.68H687.328Z" fill="#FF9B74"/>
<path d="M684.174 181.055C684.174 181.055 686.305 181.141 687.583 184.305C688.862 187.47 690.055 192.943 689.032 194.483C688.01 196.022 684.771 196.108 684.771 196.108L684.174 181.055Z" fill="#CAD2FF"/>
<path d="M676.759 172.931L676.162 179.516C676.162 179.516 671.9 183.023 670.537 180.799L671.133 175.753L676.759 172.931Z" fill="#EAE1B9"/>
<path d="M678.89 169.253C677.782 174.812 672.753 178.062 669.343 176.779C665.934 175.496 665.678 169.167 666.445 165.575C667.127 161.983 670.537 159.931 674.202 160.615C677.696 161.299 679.571 165.661 678.89 169.253Z" fill="#FF9B74"/>
<path d="M688.521 262.646C688.521 262.646 687.243 289.415 686.902 296.086H681.191L678.549 262.646H688.521Z" fill="#E07E61"/>
<path d="M675.054 262.646C675.054 262.646 675.651 268.803 675.054 276.928C674.457 285.053 673.52 296 673.52 296L667.724 295.915L665.337 262.646H675.054Z" fill="#FF9B74"/>
<path d="M674.884 299.592C674.884 299.592 675.139 298.481 677.441 297.283C679.742 296.171 681.276 296.086 681.276 296.086H686.902C686.902 296.086 687.413 298.994 687.157 300.362H674.969C674.884 300.362 674.713 300.02 674.884 299.592Z" fill="#766A5A"/>
<path d="M661.502 299.421C661.502 299.421 661.757 298.309 664.059 297.112C666.36 296 667.894 295.915 667.894 295.915H673.52C673.52 295.915 674.031 298.823 673.775 300.191H661.587C661.502 300.191 661.331 299.849 661.502 299.421Z" fill="#766A5A"/>
<path d="M689.373 265.981H663.462C663.462 265.981 659.968 249.475 659.882 232.798V232.114C659.882 215.864 665.082 208.081 665.082 208.081C664.57 206.285 663.888 202.95 663.633 197.134C663.547 194.654 663.547 192.516 663.547 190.634C663.633 184.476 664.315 181.141 664.315 181.141C665.508 180.799 671.304 178.319 671.304 178.319H676.418C676.418 178.319 685.197 179.345 686.134 183.792C686.902 187.299 684.004 201.496 682.81 207.226C686.049 211.16 687.413 215.864 687.924 220.226C688.01 221.081 688.095 221.936 688.095 222.791C688.095 223.048 688.095 223.219 688.095 223.476C688.18 225.015 688.095 226.469 688.01 227.752C687.924 229.633 687.754 231.344 687.669 232.627C687.413 236.817 688.521 254.606 689.118 262.304C689.118 262.389 689.118 262.475 689.118 262.475C689.288 264.698 689.373 265.981 689.373 265.981Z" fill="#8A93E2"/>
<path d="M669.343 179.088C669.343 179.088 669.684 178.233 671.815 177.549C673.946 176.779 676.503 176.865 677.27 177.121C678.037 177.378 678.122 178.661 678.122 178.661C678.122 178.661 675.821 179.259 669.343 179.088Z" fill="#CAD2FF"/>
<path d="M689.373 265.981H663.462C663.462 265.981 659.968 249.475 659.882 232.798V232.113C659.882 215.864 665.082 208.081 665.082 208.081C664.57 206.285 663.888 202.95 663.633 197.134C663.547 194.654 663.547 192.516 663.547 190.634L666.104 193.2L668.491 209.449C668.491 209.449 665.252 235.107 667.042 249.646C668.406 260.336 682.043 262.389 689.203 262.731C689.288 264.698 689.373 265.981 689.373 265.981Z" fill="#727FCC"/>
<path d="M667.894 162.582C667.894 162.582 667.553 165.148 667.894 166.773C668.235 168.398 669.088 168.569 669.088 168.569C669.088 168.569 668.832 170.45 669.77 170.963C669.77 170.963 669.855 168.825 670.622 168.74C671.389 168.654 672.241 170.792 671.9 172.417C671.559 174.042 670.196 173.871 670.196 173.871C670.196 173.871 670.366 177.463 672.582 180.115C674.798 182.68 671.474 187.897 673.776 189.437C676.077 190.976 680.594 190.891 682.64 189.095C684.771 187.299 684.43 181.397 683.236 178.319C682.043 175.325 680.935 170.963 681.02 167.457C681.106 163.95 678.975 162.839 678.975 162.839C678.975 162.839 678.719 160.187 674.798 159.247C670.878 158.306 665.849 161.128 665.763 163.865C665.678 166.602 666.19 166.858 666.19 166.858C666.19 166.858 666.616 163.523 667.894 162.582Z" fill="#473A33"/>
<path d="M658.86 193.114C658.519 193.285 656.217 199.358 656.217 199.358L642.665 196.45L641.813 199.358C641.813 199.358 654.768 205.686 658.007 205.088C661.246 204.489 664.229 195.252 664.229 195.252L658.86 193.114Z" fill="#FF9B74"/>
<path d="M664.229 181.055C664.229 181.055 662.695 180.97 661.502 181.996C660.308 183.023 656.729 190.378 657.666 192.259C658.604 194.141 663.547 196.877 666.019 194.825C668.576 192.943 665.593 182.253 664.229 181.055Z" fill="#CAD2FF"/>
<path d="M643.262 196.621C643.262 196.621 642.409 195.766 641.728 195.081C640.96 194.397 638.83 194.141 638.83 194.141C638.83 194.141 638.915 194.739 639 194.825C639.085 194.91 640.193 195.338 640.193 195.338C640.193 195.338 637.807 195.595 637.722 195.68C637.551 195.766 636.613 195.167 636.187 195.081C635.761 194.996 635.335 195.338 635.335 195.338C635.335 195.338 636.102 196.108 636.443 196.364C636.699 196.621 637.295 196.706 637.295 196.706C637.295 196.706 637.381 197.22 637.636 197.476C637.892 197.733 638.148 197.818 638.148 197.818C638.148 197.818 638.233 197.989 638.574 198.246C638.915 198.502 639.426 198.502 639.426 198.502C639.426 198.502 639.511 198.759 639.682 198.844C639.938 198.93 642.495 199.272 642.495 199.272L643.262 196.621Z" fill="#FF9B74"/>
<path d="M656.814 231.772C651.103 231.772 646.415 227.153 646.415 221.338V209.279H656.217H667.127V221.338C667.213 227.153 662.525 231.772 656.814 231.772Z" fill="#E7B142"/>
<path d="M651.359 211.417C651.359 211.417 650.933 200.983 655.876 199.016" stroke="#C5BA9F" stroke-miterlimit="10" stroke-linecap="round"/>
<path d="M652.297 211.245C652.297 211.759 651.87 212.186 651.359 212.186C650.848 212.186 650.421 211.759 650.421 211.245C650.421 210.732 650.848 210.305 651.359 210.305C651.87 210.305 652.297 210.732 652.297 211.245Z" fill="#C5BA9F"/>
<path d="M688.095 227.837C687.157 228.949 685.708 229.804 683.578 230.147C676.759 231.258 673.52 226.469 673.52 226.469C677.611 226.383 684.686 224.074 688.18 222.877C688.18 223.134 688.18 223.305 688.18 223.561C688.18 225.101 688.18 226.554 688.095 227.837Z" fill="#727FCC"/>
<path d="M682.043 207.311C682.469 207.654 671.73 207.311 671.73 207.311C671.73 207.311 676.929 203.035 682.043 207.311Z" fill="#727FCC"/>
<path d="M773.073 176.779L773.67 183.364C773.67 183.364 777.932 186.871 779.295 184.647L778.699 179.601L773.073 176.779Z" fill="#AA6750"/>
<path d="M771.028 173.102C772.136 178.661 777.164 181.911 780.574 180.628C783.983 179.345 784.239 173.016 783.472 169.424C782.79 165.832 779.381 163.78 775.715 164.464C772.136 165.233 770.26 169.51 771.028 173.102Z" fill="#BA785B"/>
<path d="M786.625 293.007L788.927 297.625L794.637 296.086L792.592 291.382L786.625 293.007Z" fill="#353235"/>
<path d="M801.627 297.711C801.627 297.711 801.115 296.599 798.473 296.086C795.831 295.573 794.297 295.829 794.297 295.829L788.671 297.283C788.671 297.283 788.927 300.362 789.609 301.645L801.882 298.395C801.797 298.481 801.882 298.053 801.627 297.711Z" fill="#766A5A"/>
<path d="M760.799 287.533L758.839 292.323L763.783 295.487L766.084 290.527L760.799 287.533Z" fill="#353235"/>
<path d="M767.277 301.816C767.277 301.816 767.703 300.704 766.34 298.395C764.976 296.086 763.697 295.145 763.697 295.145L758.839 291.981C758.839 291.981 756.794 294.204 756.197 295.573L766.851 302.586C766.851 302.415 767.277 302.244 767.277 301.816Z" fill="#5E4F45"/>
<path d="M783.216 192.43L789.779 222.193L794.978 234.423L789.779 237.673C789.779 237.673 786.37 233.482 784.665 228.949C782.96 224.416 783.216 192.43 783.216 192.43Z" fill="#F2A7A5"/>
<path d="M785.858 229.548C785.858 229.548 787.478 247.251 787.307 255.889C787.137 264.527 767.618 291.125 767.618 291.125L759.606 287.106C759.606 287.106 766.936 270.086 773.499 265.896L778.443 249.475L775.119 228.008L784.409 225.271L785.858 229.548Z" fill="#473A33"/>
<path d="M764.55 230.232C764.55 230.232 769.323 252.982 776.312 262.475C776.312 262.475 779.381 286.08 784.495 293.948L793.785 291.211C793.785 291.211 785.603 257.685 783.898 253.238C782.279 248.791 777.42 229.548 777.42 229.548L764.55 230.232Z" fill="#5E4F45"/>
<path d="M770.857 167.371C770.857 167.371 769.323 167.799 768.811 170.023C768.3 172.246 769.323 174.812 770.687 176.437C771.965 178.062 773.244 178.746 773.244 178.746L773.755 176.694C773.755 176.694 771.283 175.667 771.454 173.273C771.624 170.963 773.158 171.648 773.585 172.417C774.011 173.187 773.926 173.871 773.926 173.871L774.863 173.615C774.863 173.615 776.397 170.963 775.46 168.398C775.46 168.398 776.568 169.167 778.358 168.996C780.148 168.911 779.807 168.141 779.807 168.141C779.807 168.141 780.574 168.654 781.938 168.569C783.301 168.483 784.068 167.457 784.154 166.26C784.239 164.977 782.534 162.497 778.017 163.01C773.414 163.523 771.283 165.148 770.857 167.371Z" fill="#E7B142"/>
<path d="M778.699 167.286C786.114 163.437 787.393 162.924 787.307 161.983C787.222 161.043 781 162.924 781 162.924C781 162.924 777.505 158.562 774.863 157.878C772.221 157.194 768.556 160.102 767.789 160.872C767.022 161.641 768.641 167.97 768.641 167.97C768.641 167.97 763.357 171.562 763.953 172.674C764.72 173.786 770.175 171.733 778.699 167.286Z" fill="#5E4F45"/>
<path d="M772.391 182.595C772.391 182.595 764.891 187.897 764.038 189.522L766.34 231.173H779.125L780.83 226.383L782.023 231.173L788.33 230.232C788.33 230.232 784.836 192.687 783.813 189.608C782.79 186.529 779.125 185.075 779.125 185.075L772.391 182.595Z" fill="#E57B6A"/>
<path d="M766.681 244.6C766.681 244.6 765.317 245.37 765.743 248.791C766.084 252.212 764.124 258.712 765.658 262.475C767.192 266.238 776.568 266.238 779.21 263.587C781.852 260.935 780.062 254.521 777.761 250.929C775.46 247.337 773.585 243.146 772.391 243.061C771.113 242.89 771.028 243.403 771.028 243.403L771.368 244.173C771.368 244.173 772.136 244.258 773.073 246.225C774.011 248.192 770.26 250.074 768.3 249.732C766.254 249.39 766.936 246.311 766.936 246.311L766.681 244.6Z" fill="#F7F7AF"/>
<path d="M770.942 243.403L772.306 243.061C772.306 243.061 771.795 242.633 771.028 241.778C770.601 241.35 770.175 241.094 769.834 241.008C769.579 240.495 769.493 240.238 769.493 240.238L769.238 239.298L765.402 240.923C765.402 240.923 765.828 244.857 766.936 246.311C767.959 247.765 768.641 247.251 768.641 247.251C769.408 247.422 769.579 247.08 769.579 247.08C770.346 247.251 770.601 246.653 770.601 246.653C771.198 246.824 771.454 246.482 771.454 246.482C771.454 246.482 771.88 245.113 771.454 244.258C771.283 244.001 771.113 243.659 770.942 243.403Z" fill="#BA785B"/>
<path d="M772.391 182.595L773.499 181.141L779.04 184.989L777.335 186.272L772.391 182.595Z" fill="#F2A7A5"/>
<path d="M764.038 189.522L756.367 217.916L764.038 241.35L770.857 239.297L765.573 218.002L771.71 196.193C771.624 196.108 768.726 189.95 764.038 189.522Z" fill="#F2A7A5"/>
<path d="M795.49 238.699L795.575 239.725C795.575 239.725 795.064 240.923 795.405 241.436C795.66 241.949 796.257 240.495 796.342 240.067C796.342 239.64 795.49 238.699 795.49 238.699Z" fill="#CEC49D"/>
<path d="M795.745 239.383L795.831 240.409C795.831 240.409 795.319 241.607 795.66 242.12C795.916 242.633 796.513 241.179 796.598 240.751C796.598 240.324 795.745 239.383 795.745 239.383Z" fill="#E5DCB5"/>
<path d="M790.887 236.988L791.228 237.416C791.228 237.416 791.825 239.212 792.166 239.725C792.507 240.238 793.87 241.436 793.87 241.436C793.87 241.436 794.382 241.179 794.297 240.751C794.126 240.324 793.444 239.469 793.444 239.469C793.444 239.469 793.189 238.442 793.7 238.186C794.297 237.929 795.064 238.528 795.405 239.041C795.746 239.554 796.172 240.238 796.257 240.58C796.342 240.837 796.086 241.863 796.257 242.291C796.427 242.804 796.768 242.804 796.768 242.804C796.768 242.804 797.365 241.008 797.28 240.751C797.109 240.495 797.365 239.982 797.28 239.554C797.28 239.126 797.024 238.955 797.024 238.613C797.024 238.271 796.513 237.502 796.342 237.245C796.172 236.988 794.467 235.278 794.467 235.278L794.211 234.936L790.887 236.988Z" fill="#BA785B"/>
<path d="M779.125 183.022L779.04 184.99L780.83 185.93L780.233 184.049L779.125 183.022Z" fill="#F2A7A5"/>
<path d="M418.499 194.055C417.477 196.108 416.028 197.391 414.579 198.246C412.363 199.614 410.146 199.785 410.146 199.785L409.379 198.417L404.436 189.693L418.84 182.68C418.84 182.595 421.056 188.838 418.499 194.055Z" fill="#727FCC"/>
<path d="M404.436 189.608L399.663 191.917L399.407 199.7L408.697 197.049L404.436 189.608Z" fill="#FF9B74"/>
<path d="M414.579 198.246C412.363 199.614 410.147 199.785 410.147 199.785L409.379 198.417C409.379 198.417 414.067 196.621 415.346 193.285C416.539 190.035 414.834 197.305 414.579 198.246Z" fill="#5F6FB2"/>
<path d="M394.378 191.147C395.742 185.93 402.305 171.135 402.305 171.135L406.055 172.075C406.055 172.075 404.265 190.72 402.22 196.022C400.174 201.325 396.339 199.956 396.339 199.956C396.339 199.956 392.503 198.246 394.378 191.147Z" fill="#FF9B74"/>
<path d="M406.055 172.417C406.055 172.417 408.016 171.134 408.612 169.766C409.209 168.398 407.675 167.286 407.163 167.2C406.652 167.115 404.947 166.345 404.521 167.029C404.095 167.713 406.311 168.654 406.311 168.654C406.311 168.654 404.691 168.911 404.095 169.852C403.498 170.792 403.669 172.845 403.669 172.845L406.055 172.417Z" fill="#FF9B74"/>
<path d="M402.39 171.819C402.39 171.819 400.089 169.339 400.259 168.312C400.43 167.286 401.112 167.372 401.112 167.372C401.112 167.372 400.686 166.516 401.197 166.003C401.708 165.49 402.049 165.661 402.049 165.661C402.049 165.661 401.708 164.806 402.39 164.549C403.072 164.293 403.584 164.549 403.584 164.549C403.584 164.549 403.584 164.122 404.351 164.122C405.118 164.122 406.226 164.891 406.481 165.661C406.737 166.431 406.481 167.286 406.481 167.286V168.911L403.413 172.161L402.39 171.819Z" fill="#FF9B74"/>
<path d="M427.534 181.569C427.534 181.569 420.034 182.253 418.84 182.595C418.84 182.595 414.067 189.095 414.579 199.956C415.09 210.818 413.726 222.022 413.726 222.022L439.382 222.706C439.382 222.706 445.519 189.608 444.496 184.99C443.558 180.371 432.904 181.569 432.904 181.569H427.534Z" fill="#8A93E2"/>
<path d="M433.586 176.01L432.904 182.937C432.904 182.937 428.472 186.615 427.023 184.22L427.619 178.917L433.586 176.01Z" fill="#E07E61"/>
<path d="M435.717 172.075C434.523 177.977 429.239 181.312 425.744 180.029C422.164 178.661 421.909 171.99 422.676 168.227C423.443 164.464 427.023 162.24 430.773 163.01C434.523 163.779 436.484 168.312 435.717 172.075Z" fill="#FF9B74"/>
<path d="M426.597 164.207C426.597 164.207 426.426 165.319 427.875 166.944C429.324 168.569 431.455 168.569 431.455 168.569C431.455 168.569 431.37 171.049 432.734 171.648C432.734 171.648 433.074 170.108 434.182 170.108C435.205 170.108 435.376 172.588 434.438 174.042C433.586 175.582 432.819 175.24 432.819 175.24L433.415 178.148C433.415 178.148 438.615 174.128 437.848 167.714L426.597 164.207Z" fill="#2C2D32"/>
<path d="M426.426 164.549C426.426 164.549 425.915 165.746 424.636 166.773C423.358 167.799 422.761 167.885 422.761 167.885C422.761 167.885 422.42 166.431 423.443 165.148C424.466 163.865 426.597 164.122 426.597 164.122L426.426 164.549Z" fill="#2C2D32"/>
<path d="M424.636 162.582C424.636 162.582 425.915 159.931 428.728 159.418C431.54 158.99 433.245 160.701 434.353 161.385C435.461 162.069 436.74 162.326 437.336 164.036C438.018 165.661 437.762 167.714 437.762 167.714L434.779 167.371C434.864 167.286 427.534 162.497 424.636 162.582Z" fill="#8A93E2"/>
<path d="M435.12 166.944C435.12 166.944 433.16 164.122 429.409 162.753C425.659 161.47 421.056 162.325 420.63 163.095C419.778 164.378 423.273 164.806 425.915 165.319C428.557 166.003 436.143 168.141 435.12 166.944Z" fill="#353235"/>
<path d="M450.206 189.864L459.582 187.897L457.281 180.2L448.928 181.74L450.206 189.864Z" fill="#FF9B74"/>
<path d="M464.781 181.312C466.316 176.18 468.276 160.102 468.276 160.102L464.611 158.905C464.611 158.905 456.514 175.838 455.491 181.397C454.468 186.957 458.474 187.812 458.474 187.812C458.474 187.812 462.736 188.41 464.781 181.312Z" fill="#FF9B74"/>
<path d="M464.015 159.674C464.015 159.674 463.162 157.451 463.503 155.997C463.759 154.543 465.719 154.543 466.145 154.714C466.572 154.885 468.447 155.312 468.361 156.082C468.276 156.852 465.975 156.339 465.975 156.339C465.975 156.339 467.168 157.451 467.168 158.562C467.168 159.674 465.804 161.214 465.804 161.214L464.015 159.674Z" fill="#FF9B74"/>
<path d="M467.339 161.299C467.339 161.299 470.663 160.615 471.089 159.674C471.515 158.733 470.918 158.477 470.918 158.477C470.918 158.477 471.771 157.964 471.686 157.28C471.6 156.595 471.174 156.51 471.174 156.51C471.174 156.51 471.941 155.997 471.515 155.398C471.089 154.799 470.577 154.714 470.577 154.714C470.577 154.714 470.833 154.372 470.151 153.944C469.469 153.517 468.191 153.517 467.509 153.944C466.827 154.372 466.572 155.227 466.572 155.227L465.634 156.51L466.316 160.957L467.339 161.299Z" fill="#FF9B74"/>
<path d="M440.149 181.825C440.149 181.825 447.564 180.799 451.741 180.799L452.508 192.174L443.984 194.996C439.978 192.687 440.149 181.825 440.149 181.825Z" fill="#727FCC"/>
<path d="M454.042 290.527H443.643L433.842 258.626L426.682 234.081L422.676 260.422C423.358 264.784 423.017 272.738 422.505 279.409V279.494C422.079 285.053 421.568 289.843 421.483 290.954V291.211H411.595C411.595 291.211 411.425 267.777 411.595 257.685C411.766 247.594 413.812 228.778 413.812 228.778V222.022L439.467 222.706C439.808 223.39 440.064 224.074 440.319 224.844C443.729 234.508 444.581 253.409 444.581 253.409C444.581 253.409 444.581 253.409 447.82 261.106C451.144 268.975 454.042 290.527 454.042 290.527Z" fill="#353235"/>
<path d="M413.13 291.211V296H418.84L419.181 291.211H413.13Z" fill="#E7B142"/>
<path d="M445.519 290.527L447.394 295.573H453.36L452.508 290.527H445.519Z" fill="#E7B142"/>
<path d="M406.481 297.882C406.481 297.882 406.737 296.685 409.124 295.487C411.51 294.29 413.13 294.204 413.13 294.204H419.011C419.011 294.204 419.522 297.198 419.267 298.652H406.567C406.481 298.652 406.311 298.31 406.481 297.882Z" fill="#766A5A"/>
<path d="M459.668 298.908C459.668 298.908 459.412 297.711 457.025 296.514C454.639 295.316 453.019 295.231 453.019 295.231H447.138C447.138 295.231 446.627 298.224 446.882 299.678H459.582C459.668 299.678 459.838 299.336 459.668 298.908Z" fill="#766A5A"/>
<path d="M409.294 162.497L398.384 149.753L391.821 160.187L409.465 168.483C410.146 168.825 410.914 168.483 411.255 167.885L412.107 166.26C412.448 165.661 412.277 164.977 411.766 164.549L409.294 162.497Z" fill="#E7B142"/>
<path d="M440.66 188.496C440.66 188.496 440.831 193.2 443.814 194.91L452.337 192.088C452.337 192.088 447.905 192.345 444.07 192.943C442.791 193.2 441.086 190.891 440.66 188.496Z" fill="#5F6FB2"/>
<path d="M425.489 184.049C425.489 184.049 424.295 185.674 427.534 186.786C430.773 187.983 434.694 183.279 434.694 183.279C434.694 183.279 431.199 186.101 428.046 185.588C424.807 185.161 425.489 184.049 425.489 184.049Z" fill="#8898DC"/>
<path d="M422.676 260.508C423.358 264.87 423.017 272.823 422.505 279.494V279.58L421.483 291.04V291.297H419.266C419.266 291.297 421.653 270.172 420.63 262.646C419.693 255.034 420.63 255.291 421.824 244.6C423.017 233.824 421.824 231.173 421.824 231.173L426.682 234.252L422.676 260.508Z" fill="#242426"/>
<path d="M440.319 224.929L413.812 223.818V222.107L439.467 222.791C439.723 223.39 439.978 224.16 440.319 224.929Z" fill="#242426"/>
</g>
<defs>
<clipPath id="clip0_109_13465">
<rect width="1207" height="309" fill="white"/>
</clipPath>
</defs>
</svg>
