<?xml version="1.0" encoding="utf-8"?>
<!-- Generator: Adobe Illustrator 26.5.0, SVG Export Plug-In . SVG Version: 6.00 Build 0)  -->
<svg version="1.1" xmlns="http://www.w3.org/2000/svg" xmlns:xlink="http://www.w3.org/1999/xlink" x="0px" y="0px"
	 viewBox="0 0 1416.1 361.3" style="enable-background:new 0 0 1416.1 361.3;" xml:space="preserve">
<style type="text/css">
	.st0{fill:#FFFDFE;}
	.st1{fill:#FFFBEA;}
	.st2{fill:#FCEED9;}
	.st3{fill:#EFD9BB;}
	.st4{fill:#E0C5A4;}
	.st5{fill:#A8A856;}
	.st6{fill:#9C897A;}
	.st7{fill:#E7B142;}
	.st8{fill:#D69D38;}
	.st9{fill:#AD998C;}
	.st10{fill:#7F6B5D;}
	.st11{fill:#4C8291;}
	.st12{fill:#8A93E2;}
	.st13{fill:none;stroke:#5F3E1B;stroke-width:0.5;stroke-miterlimit:10;}
	.st14{fill:#5E4F45;}
	.st15{fill:none;stroke:#5F3E1B;stroke-width:0.5;stroke-linecap:round;stroke-miterlimit:10;}
	.st16{fill:#FFF5DD;}
	.st17{fill:#FF9178;}
	.st18{fill:#E8D5AF;}
	.st19{fill:#C5BA9F;}
	.st20{fill:#C4C29D;}
	.st21{fill:#F7F7AF;}
	.st22{fill:#8D8E3E;}
	.st23{fill:#ECA742;}
	.st24{fill:none;stroke:#70702A;stroke-miterlimit:10;}
	.st25{fill:#766A5A;}
	.st26{fill:#FFF1BF;}
	.st27{fill:#FFB1A4;}
	.st28{fill:#353235;}
	.st29{fill:#242426;}
	.st30{fill:#AA6750;}
	.st31{fill:#BA785B;}
	.st32{fill:#2C2D32;}
	.st33{fill:#E5E39C;}
	.st34{fill:#2A6777;}
	.st35{fill:none;stroke:#C5BA9F;stroke-linecap:round;stroke-miterlimit:10;}
	.st36{fill:#FF9B74;}
	.st37{fill:#CAD2FF;}
	.st38{fill:#EAE1B9;}
	.st39{fill:#E07E61;}
	.st40{fill:#727FCC;}
	.st41{fill:#473A33;}
	.st42{fill:#F2A7A5;}
	.st43{fill:#E57B6A;}
	.st44{fill:#CEC49D;}
	.st45{fill:#E5DCB5;}
	.st46{fill:#5F6FB2;}
	.st47{fill:#8898DC;}
</style>
<g id="BACKGROUND">
	<rect class="st0" width="1416.1" height="361.3"/>
</g>
<g id="OBJECT">
	<g>
		<g>
			<path class="st1" d="M352.4,341.7c0,0-12.6-220.8,163.7-277.3s224.4,56.1,339.6,46.7c115.3-9.4,233,62.4,185,230.7H352.4z"/>
			<polygon class="st2" points="767.6,68.8 767.6,100.8 699.7,100.8 699.7,36.7 688.2,36.7 688.2,22.3 639.4,22.3 639.4,36.7 
				626.9,36.7 626.9,178.6 598.6,178.6 598.6,80.8 576.8,80.8 576.8,69.6 545.1,69.6 545.1,80.8 537.3,80.8 537.3,178.6 
				537.3,198.9 537.3,341.5 837.3,341.5 837.3,207.5 837.3,178.6 837.3,68.8 			"/>
			<g>
				
					<rect x="673.7" y="240.1" transform="matrix(-1 -1.224647e-16 1.224647e-16 -1 1350.7606 584.7162)" class="st3" width="3.4" height="104.5"/>
				
					<rect x="594" y="240.1" transform="matrix(-1 -1.224647e-16 1.224647e-16 -1 1191.3545 584.7162)" class="st3" width="3.4" height="104.5"/>
				
					<rect x="553.9" y="240.1" transform="matrix(-1 -1.224647e-16 1.224647e-16 -1 1111.2064 584.7162)" class="st3" width="3.4" height="104.5"/>
				
					<rect x="713.7" y="240.1" transform="matrix(-1 -1.224647e-16 1.224647e-16 -1 1430.9084 584.7162)" class="st3" width="3.4" height="104.5"/>
				<path class="st3" d="M670.9,205.4c0,0,39,29.4,46.3,34.8H596l-32.2-34.8H670.9z"/>
				<polygon class="st3" points="563.8,205.4 553.8,240.1 596,240.1 				"/>
				<path class="st3" d="M596,240.1c0,0,0.8,6.8,2.7,11l122.6-0.3c0,0-3-7-4.1-10.7H596z"/>
				<polygon class="st3" points="670.9,205.4 669,199.7 563.8,199.7 563.8,205.4 				"/>
			</g>
			<g>
				<path class="st3" d="M516.7,159.1c0.1-1.1,0.2-2.3,0.2-3.4c0-17.7-14.3-32-32-32c-5,0-9.7,1.2-14,3.2c-5.5-9.6-15.8-16-27.7-16
					c-10.3,0-19.5,4.9-25.4,12.6c-4.5-2.4-9.6-3.7-15-3.7c-17.7,0-32,14.3-32,32c0,0.1,0,0.1,0,0.2c-16,1.7-28.5,15.3-28.5,31.8
					c0,17.7,14.3,32,32,32c2.7,0,5.2-0.4,7.7-1c5,11,16.2,18.7,29.1,18.7c9.2,0,17.4-3.9,23.2-10c5.9,7,14.7,11.5,24.5,11.5
					c12.9,0,24-7.6,29-18.6c4.3,2.2,9.2,3.4,14.3,3.4c17.7,0,32-14.3,32-32C534.3,175.1,527.1,164.3,516.7,159.1z"/>
				<path class="st3" d="M468.3,258.4l-4.7-6.1c0,0-6,3-13.6,8.4c0.1-15.9,2.1-31.6,7.4-44.5l-7.7-3c0,0-13.6,24.3-14.9,42.2
					c0,0-4.7-27.7-17.1-42.2l-4.7,7.2c0,0,9.8,17.5,11.1,49.9c1.3,32.4-20,71.2-20,71.2h57.1c0,0-9.3-33-11-68.6
					C456.4,267,463,261.3,468.3,258.4z"/>
			</g>
			<g>
				<path class="st3" d="M1045.2,80.8c0.1-1.1,0.2-2.2,0.2-3.3c0-16.9-13.7-30.6-30.6-30.6c-4.8,0-9.3,1.1-13.3,3.1
					c-5.3-9.1-15.1-15.3-26.5-15.3c-9.9,0-18.7,4.7-24.2,12c-4.3-2.3-9.2-3.6-14.3-3.6c-16.9,0-30.6,13.7-30.6,30.6
					c0,0.1,0,0.1,0,0.2c-15.3,1.7-27.2,14.6-27.2,30.4c0,16.9,13.7,30.6,30.6,30.6c2.5,0,5-0.3,7.4-0.9
					c4.8,10.6,15.4,17.9,27.8,17.9c8.8,0,16.6-3.7,22.2-9.6c5.6,6.7,14,11,23.4,11c12.3,0,22.9-7.3,27.7-17.8
					c4.1,2.1,8.8,3.3,13.7,3.3c16.9,0,30.6-13.7,30.6-30.6C1062,96.1,1055.2,85.8,1045.2,80.8z"/>
				<path class="st3" d="M1021.9,172.2c0-0.3,0.1-0.7,0.1-1.1c0-5.4-4.4-9.9-9.9-9.9c-1.5,0-3,0.4-4.3,1c-1.7-3-4.9-4.9-8.5-4.9
					c-3.2,0-6,1.5-7.8,3.9c-1.4-0.7-3-1.2-4.6-1.2c-5.4,0-9.9,4.4-9.9,9.9c0,0,0,0,0,0.1c-4.9,0.5-8.8,4.7-8.8,9.8
					c0,5.4,4.4,9.9,9.9,9.9c0.8,0,1.6-0.1,2.4-0.3c1.6,3.4,5,5.8,9,5.8c2.8,0,5.4-1.2,7.2-3.1c1.8,2.2,4.5,3.5,7.6,3.5
					c4,0,7.4-2.4,9-5.7c1.3,0.7,2.8,1.1,4.4,1.1c5.4,0,9.9-4.4,9.9-9.9C1027.3,177.2,1025.1,173.8,1021.9,172.2z"/>
				<path class="st3" d="M995.2,164.8l-3.9-5.1c0,0-4.9,2.5-11.2,7c0.1-13.2,1.7-26.2,6.2-36.9l-6.4-2.5c0,0-11.3,20.1-12.4,35
					c0,0-3.9-23-14.1-35l-3.9,6c0,0,8.1,14.5,9.2,41.3c1.1,26.8-21.8,166.8-21.8,166.8h47.3c0,0-18.2-128.3-3.9-164.7
					C985.3,172,990.7,167.2,995.2,164.8z"/>
			</g>
			<path class="st2" d="M419.9,47.9h78.8c0,0-6.2-12.2-18.4-14.1c-12.2-1.9-14.8,5.3-21,5c-6.2-0.3-11.6-10.7-22.5-9
				c-10.9,1.7-11.3,15.3-24.8,9.6c-13.5-5.8-19.5,8.6-19.5,8.6H419.9z"/>
			<path class="st2" d="M764.3,22.3H830c0,0-6.8-13.7-20.5-16.1c-13.7-2.4-20.5,11.6-28.7,8.1C772.6,10.7,764.1,18.5,764.3,22.3z"/>
			<rect x="352.7" y="341.5" class="st4" width="688.3" height="7.3"/>
			<path class="st5" d="M362.1,341.5c0,0,0-19.4,18-25.4c18-6,27.8,8.3,27.8,8.3s5.6-8.1,17.8-6.4c17.1,2.4,17.1,23.3,17.1,23.3
				L362.1,341.5z"/>
			<path class="st5" d="M653.6,341.5c0,0,0-19.4,18-25.4c18-6,27.8,8.3,27.8,8.3s5.6-8.1,17.8-6.4c17.1,2.4,17.1,23.3,17.1,23.3
				L653.6,341.5z"/>
		</g>
		<rect x="868.2" y="282.2" class="st6" width="59.4" height="59.4"/>
	</g>
	<g>
		<g>
			<g>
				<g>
					<rect x="954.9" y="300" class="st7" width="59.7" height="41.5"/>
					<rect x="947.7" y="300" class="st8" width="32.3" height="41.5"/>
					<polygon class="st8" points="980,300 984.7,306.9 1019.2,306.9 1014.6,300 					"/>
					<polygon class="st7" points="980,300 975.5,306.9 943.2,306.9 947.7,300 					"/>
				</g>
				<g>
					<path class="st5" d="M997.7,279.8c0-3.2-3.4-0.7-3.4-0.7s0.7-4.6-0.4-6.7c-2.1-3.9-4.4,0.1-4.4,0.1s-0.4-4.5-3.6-3.9
						c-3.2,0.6-0.4,5.1-0.4,5.1s-3.9-0.7-3.3,2.4c0.5,2.7,4.6,5.5,4.6,5.5s-2.7,0.6-2,2.8c0.7,2.2,9.3,3,9.3,3
						S997.7,282.9,997.7,279.8z"/>
					<polygon class="st6" points="985.5,286.5 987,300 999.6,300 1001,286.5 					"/>
					<path class="st5" d="M1001.3,282.1c-1.4,3.1-5.7,4.8-6,4.9c0,0,0,0,0,0s-1.4-4.1,0.4-7.7c1.8-3.6,6.5-4.4,6.5-4.4
						S1002.7,278.9,1001.3,282.1z"/>
					<path class="st5" d="M1002.2,274.8c-3.6,2.7-6.8,11.7-6.9,12.1c0,0,0,0,0,0s-1.4-4.1,0.4-7.7
						C997.5,275.6,1002.2,274.8,1002.2,274.8z"/>
					<polygon class="st9" points="984.8,286.5 985,288.7 1001.3,288.7 1001.6,286.5 					"/>
				</g>
			</g>
			<rect x="770.6" y="124.7" class="st10" width="7.1" height="216.8"/>
			<g>
				<path class="st11" d="M776.7,176.5c0,0,1.6,5.1,8.9,5.1c7.3,0,8-5.1,8-5.1s5.7,1.8,10.7,4.9c5,3.1,9.4,13.1,9.4,13.1l-5.7,5.3
					l-7-4.9v42.9h-32.7l0.2-42l-6.2,4.3L755,191c0,0,6.5-8.3,10.5-10.6C769.5,178.1,776.7,176.5,776.7,176.5z"/>
				<path class="st7" d="M807.1,176.5c0,0,1.6,5.1,8.9,5.1c7.3,0,8-5.1,8-5.1s5.7,1.8,10.7,4.9c5,3.1,9.4,13.1,9.4,13.1l-5.7,5.3
					l-7-4.9l1.2,48.4h-36.3l2.5-47.4l-6.2,4.3l-7.1-9.2c0,0,6.5-8.3,10.5-10.6C799.9,178.1,807.1,176.5,807.1,176.5z"/>
				<path class="st12" d="M926.6,228.7l-13-34.2l0,0l0,0l-0.1-0.3l0,0c-0.7-1.6-4.7-10.1-9.2-12.9c-5-3.1-10.7-4.9-10.7-4.9
					s-0.7,5.1-8,5.1c-7.3,0-8.9-5.1-8.9-5.1s-7.2,1.7-11.2,4c-4,2.3-8.5,13.3-8.5,13.3L844,228.2l11.5,4.5l13.4-29.7l-8.1,63.7h46.5
					l-5.6-63.3l13.5,29.8L926.6,228.7z"/>
				<path class="st5" d="M920.7,176.5c0,0,1.6,5.1,8.9,5.1c7.3,0,8-5.1,8-5.1s5.7,1.8,10.7,4.9c5,3.1,9.4,13.1,9.4,13.1l-5.7,5.3
					l-7-4.9v42.9h-32.7l0.2-42l-6.2,4.3L899,191c0,0,6.5-8.3,10.5-10.6C913.5,178.1,920.7,176.5,920.7,176.5z"/>
				<polyline class="st13" points="807.3,177.2 815.6,174.7 824.4,177.3 				"/>
				<g>
					<path class="st14" d="M980.9,341.5h-2V180.7c0-5.9-4.8-10.6-10.6-10.6H755.8c-5.9,0-10.6,4.8-10.6,10.6v160.9h-2V180.7
						c0-7,5.7-12.6,12.6-12.6h212.5c7,0,12.6,5.7,12.6,12.6V341.5z"/>
				</g>
				<path class="st15" d="M815.6,174.7v-2.8c0,0,2.2-0.8,2.2-3.3s-3.7-2.2-3.7,0.2"/>
				<polyline class="st13" points="776.6,177.2 784.9,174.7 793.6,177.3 				"/>
				<path class="st15" d="M784.9,174.7v-2.8c0,0,2.2-0.8,2.2-3.3s-3.7-2.2-3.7,0.2"/>
				<polyline class="st13" points="876.8,177.2 885.1,174.7 893.8,177.3 				"/>
				<path class="st15" d="M885.1,174.7v-2.8c0,0,2.2-0.8,2.2-3.3s-3.7-2.2-3.7,0.2"/>
				<polyline class="st13" points="920.7,177.2 929,174.7 937.7,177.3 				"/>
				<path class="st15" d="M929,174.7v-2.8c0,0,2.2-0.8,2.2-3.3s-3.7-2.2-3.7,0.2"/>
			</g>
			<rect x="936" y="124.7" class="st6" width="7.1" height="216.8"/>
			<rect x="1019.2" y="124.7" class="st10" width="7.1" height="216.8"/>
			<rect x="687.4" y="124.7" class="st6" width="7.1" height="216.8"/>
			<path class="st16" d="M783.5,52.6c0,0-80.9,60.9-96,72.1H939l66.8-72.1H783.5z"/>
			<polygon class="st17" points="1005.7,52.6 1026.5,124.7 939,124.7 			"/>
			<path class="st18" d="M939,124.7c0,0-1.6,14.1-5.5,22.9L679,147c0,0,6.2-14.6,8.4-22.3H939z"/>
			<polygon class="st17" points="783.5,52.6 787.4,40.9 1005.7,40.9 1005.7,52.6 			"/>
		</g>
		<g>
			<g>
				<rect x="530.4" y="272.2" class="st6" width="147.1" height="5.1"/>
				<rect x="541.9" y="277.2" class="st19" width="122.2" height="19.2"/>
				<rect x="541.9" y="296.4" class="st6" width="3.3" height="45.1"/>
				<rect x="660.8" y="296.4" class="st6" width="3.3" height="45.1"/>
				<path class="st6" d="M550,296.4h-4.8v4.8v8c2.7,0,4.8-2.2,4.8-4.8v-3.2h3.2c2.7,0,4.8-2.2,4.8-4.8H550z"/>
				<path class="st6" d="M655.9,296.4h4.8v4.8v8c-2.7,0-4.8-2.2-4.8-4.8v-3.2h-3.2c-2.7,0-4.8-2.2-4.8-4.8H655.9z"/>
				<path class="st6" d="M593.2,291.9h-43.8c-0.5,0-1-0.4-1-1v-8.5c0-0.5,0.4-1,1-1h43.8c0.5,0,1,0.4,1,1v8.5
					C594.2,291.5,593.7,291.9,593.2,291.9z"/>
				<path class="st6" d="M656.3,291.9h-43.8c-0.5,0-1-0.4-1-1v-8.5c0-0.5,0.4-1,1-1h43.8c0.5,0,1,0.4,1,1v8.5
					C657.3,291.5,656.9,291.9,656.3,291.9z"/>
			</g>
			<g>
				<path class="st14" d="M635.7,267h-4.6v-18.2H629V267h-4.2c-2.9,0-5.2,2.3-5.2,5.2h1.2h20.1C640.9,269.3,638.5,267,635.7,267z"/>
				<polygon class="st17" points="638,227.6 635.5,227.6 625,227.6 622.5,227.6 614.4,253.3 625,253.3 635.5,253.3 646.1,253.3 				
					"/>
			</g>
			<g>
				<path class="st19" d="M601.7,272.2h-45.6c-2.5,0-4.4-2-4.4-4.4v-21.3c0-2.5,2-4.4,4.4-4.4h45.6c2.5,0,4.4,2,4.4,4.4v21.3
					C606.1,270.2,604.1,272.2,601.7,272.2z"/>
				<circle class="st6" cx="562.5" cy="257.8" r="7.6"/>
				<circle class="st6" cx="594.2" cy="257.8" r="7.6"/>
				<rect x="574.1" y="254.6" class="st6" width="8" height="5.9"/>
			</g>
		</g>
		<g>
			<g>
				<rect x="377.6" y="303.5" class="st6" width="157.2" height="7"/>
				<path class="st20" d="M421,339.1l-8.9-28.7H410l6.6,25.9c0.2,0.7-0.3,1.5-1.1,1.5h-14.4c-0.8,0-1.3-0.8-1.1-1.5l7-25.9h-2
					l-9.5,28.7c-0.4,1.1,0.5,2.3,1.7,2.3h22.1C420.5,341.4,421.4,340.3,421,339.1z"/>
				<path class="st21" d="M409,339.1l-8.9-28.7H398l6.6,25.9c0.2,0.7-0.3,1.5-1.1,1.5h-14.4c-0.8,0-1.3-0.8-1.1-1.5l7-25.9h-2
					l-9.5,28.7c-0.4,1.1,0.5,2.3,1.7,2.3h22.1C408.5,341.4,409.4,340.3,409,339.1z"/>
				<path class="st20" d="M489.6,339.1l8.9-28.7h2.2l-6.6,25.9c-0.2,0.7,0.3,1.5,1.1,1.5h14.4c0.8,0,1.3-0.8,1.1-1.5l-7-25.9h2
					l9.5,28.7c0.4,1.1-0.5,2.3-1.7,2.3h-22.1C490.1,341.4,489.2,340.3,489.6,339.1z"/>
				<path class="st21" d="M501.6,339.1l8.9-28.7h2.2l-6.6,25.9c-0.2,0.7,0.3,1.5,1.1,1.5h14.4c0.8,0,1.3-0.8,1.1-1.5l-7-25.9h2
					l9.5,28.7c0.4,1.1-0.5,2.3-1.7,2.3h-22.1C502.1,341.4,501.2,340.3,501.6,339.1z"/>
			</g>
			<g>
				<path class="st22" d="M386.5,292.3c0,0-1-3-2.1-4.9c-1.1-1.9-0.8-2.5-1.9-4s-2.8-0.9-3.8-2.8c-1-1.9-3.7-1.1-4.8-2.6
					c-1.1-1.6-0.3-2-1.3-3.3c-1-1.3,1.6-1.4,2.8,0.6c1.2,2,1.8,1.7,3.6,2.2c1.8,0.5,1.4,2.9,2.6,2.9c1.2,0.1,2.5-0.1,3.8,2.5
					c1.3,2.6,1.2,6,1.9,6.4c0.7,0.4,0.4,2.5,0.4,2.5L386.5,292.3z"/>
				<path class="st5" d="M387,290.7c0,0-1.9-4.4-2.3-7.3c-0.4-2.9-0.5-4.4-2-6.2c-1.5-1.7-2.4-3.2-1.9-4.9c0.4-1.8-2.1-2.4-2.3-4.4
					s0.3-2.8,0-3.8c-0.3-1-0.4-2.3,0-2.3c0.4,0,2.4,2.2,2.4,4.1c0.1,1.9-0.1,1.7,1.7,3.4c1.8,1.8,0.2,4,1.1,5.5c1,1.5,2,0.3,2.8,4.4
					c0.8,4.2,0.7,5.9,1.7,7.4s0.6,5.4,0.6,5.4l-1.8,0.2L387,290.7z"/>
				<path class="st22" d="M387.7,288.8c0,0-0.4-7.4,0.6-10.3s1-4.2,0.6-6.5c-0.4-2.3,0.6-4.9,1.4-5.7c0.8-0.9,0.8-4.5,2.1-4.5
					c1.3-0.1-0.5,4.5,0,5.4c0.5,0.9-1.5,3.8-1.1,5.3c0.4,1.5,1.2,3.5,0.2,6.7c-1,3.2-2.5,3.9-1.3,5.9c1.3,2,0,6.8,0,6.8l-2-0.3
					L387.7,288.8z"/>
				<path class="st5" d="M392.2,291.8c0,0,2.1-4.6,1.8-7.9c-0.3-3.4,2.2-4.4,3.3-7c1.1-2.6-0.1-4.9-0.2-7.2
					c-0.1-2.4,0.4-4.2-0.5-4.8c-0.9-0.6-1.6,3.7-0.9,5.4c0.7,1.7-0.5,2.8-1.4,4.8s-0.6,2.4-2.1,4.7c-1.5,2.3-1.9,12-1.9,12H392.2z"
					/>
				<path class="st23" d="M381.8,287.8v8.6c0,2.4,1.5,4.5,3.6,5.4v1.7h7.9v-2c1.8-1,3-2.9,3-5.2v-8.6H381.8z"/>
			</g>
			<g>
				<path class="st24" d="M427.2,260.5c0,0,5.2,7.2,4.4,22.3"/>
				<path class="st24" d="M431.7,288c0,0,2.9-18.1,12.6-16.9"/>
				<path class="st22" d="M460.2,280.2c0.1-1,1.5-1.9,3.2-2.5c-0.3-1.2-0.7-2.4-1.2-3.5c-2.8,1.7-6.8,3.7-7,2
					c-0.2-1.7,3.2-3.5,5.6-4.7c-0.8-1.2-1.7-2.2-2.8-3c-2.5,2-7.3,5.6-7.7,3.7c-0.4-1.6,2.5-3.7,4.7-5.1c-2.9-0.9-7-1.9-11.9,1.9
					c-2.1,1.6-4.2,3.8-3.5,10c0.2,1.5,0.6,2.8,1.4,3.9c0.6-2.6,1.8-6.4,3.6-6.6c2.1-0.2-0.3,6.3-1.3,9c1.1,0.9,2.4,1.7,3.8,2.3
					c0.3-2.6,1-7.4,2.9-7.8c2-0.4,0.6,5.7-0.2,8.8c1.3,0.4,2.7,0.7,4.1,1c-0.1-2.5,0.1-5.6,1.5-6.1c1.5-0.6,1.6,3.4,1.5,6.6
					c4.3,0.5,7.8,0.4,7.8,0.4s0.4-4.7-0.5-9.9C461.9,281.2,460.2,281.3,460.2,280.2z"/>
				<path class="st24" d="M422.9,269.4c0,0,4.5-0.8,7,6.2c2.5,7,1.3,14.3,1.3,14.3"/>
				<path class="st24" d="M432.8,287.1c0,0-3.3-22,7.7-28.9"/>
				<path class="st25" d="M442.9,303.5h-22.5c-2.9,0-5.2-2.3-5.2-5.2v-8.4c0-2.9,2.3-5.2,5.2-5.2h22.5c2.9,0,5.2,2.3,5.2,5.2v8.4
					C448.1,301.2,445.8,303.5,442.9,303.5z"/>
				<path class="st5" d="M455.9,255.3c-0.5-0.9,0.1-2.4,1.1-3.9c-0.9-0.8-2-1.6-3-2.2c-1.4,3-3.5,7-4.6,5.7c-1.1-1.3,0.6-4.7,1.9-7
					c-1.3-0.5-2.7-0.8-4-0.8c-0.9,3-2.8,8.7-4.3,7.4c-1.2-1.1-0.1-4.5,1-6.9c-2.8,0.9-6.8,2.4-8.7,8.3c-0.8,2.5-1.3,5.5,2.8,10.3
					c1,1.1,2.1,1.9,3.4,2.5c-1-2.5-2.1-6.3-0.8-7.4c1.6-1.3,3.4,5.3,4,8.2c1.4,0.1,2.9,0,4.4-0.3c-1.3-2.3-3.4-6.6-2.1-8
					c1.4-1.4,3.8,4.4,4.8,7.3c1.3-0.4,2.6-0.9,3.9-1.5c-1.5-2-3.1-4.7-2.3-5.9c0.9-1.3,3.3,1.9,5,4.6c3.9-2,6.6-4.1,6.6-4.1
					s-2.3-4-6-7.8C457.9,255.1,456.5,256.3,455.9,255.3z"/>
				<path class="st5" d="M406.5,273.7c0.2-1-0.9-2.2-2.3-3.3c0.6-1.1,1.3-2.1,2.1-3c2.2,2.4,5.4,5.4,6.1,3.9c0.6-1.5-2-4.2-4-6
					c1.1-0.9,2.2-1.6,3.5-2.1c1.8,2.6,5.4,7.3,6.3,5.6c0.8-1.4-1.3-4.2-3.1-6.2c3,0,7.1,0.2,10.7,5.1c1.6,2.1,2.9,4.8,0.6,10.5
					c-0.6,1.4-1.4,2.5-2.4,3.4c0.1-2.7,0-6.6-1.6-7.2c-1.9-0.7-1.5,6.1-1.2,8.9c-1.3,0.6-2.7,0.9-4.3,1.1c0.5-2.5,1.1-7.3-0.6-8.2
					c-1.7-0.9-2.2,5.3-2.3,8.4c-1.4,0-2.8,0-4.1-0.2c0.8-2.4,1.4-5.3,0.3-6.2c-1.3-1-2.5,2.8-3.3,5.8c-4.3-0.7-7.5-1.8-7.5-1.8
					s0.9-4.5,3.2-9.2C404.6,274.1,406.2,274.8,406.5,273.7z"/>
				<path class="st22" d="M414.5,247c0.7-0.6,0.7-2,0.3-3.6c1-0.4,2.1-0.7,3.2-0.9c0.2,2.9,0.6,6.8,1.9,6.1c1.3-0.7,1-4,0.7-6.4
					c1.2,0,2.4,0.2,3.6,0.6c-0.2,2.8-0.5,8.1,1.1,7.5c1.3-0.5,1.5-3.7,1.4-6c2,1.7,4.8,4.2,4.5,9.6c-0.1,2.3-0.7,4.9-5.6,7.5
					c-1.2,0.6-2.4,0.9-3.6,0.9c1.6-1.7,3.8-4.5,3.1-5.8c-0.9-1.6-4.5,3.3-5.9,5.4c-1.2-0.4-2.4-0.9-3.5-1.7c1.8-1.5,4.9-4.3,4.3-5.9
					c-0.7-1.6-4.5,2.4-6.3,4.4c-1-0.8-1.9-1.6-2.7-2.5c1.9-1.2,4-2.8,3.8-4.1c-0.3-1.4-3.3,0.5-5.6,2.1c-2.5-2.9-4.1-5.5-4.1-5.5
					s3.2-2.6,7.5-4.5C413,246.2,413.8,247.6,414.5,247z"/>
			</g>
		</g>
		<g>
			<g>
				<path class="st17" d="M859.1,305.3h-35.7c-1.7,0-3-1.3-3-3v-0.1c0-1.7,1.3-3,3-3h35.7V305.3z"/>
				<path class="st26" d="M859.1,303.9h-19.5c-1,0-1.7-0.8-1.7-1.7v0c0-1,0.8-1.7,1.7-1.7h19.5V303.9z"/>
			</g>
			<g>
				<path class="st12" d="M862.2,299.3h-35.7c-1.7,0-3-1.3-3-3v-0.1c0-1.7,1.3-3,3-3h35.7V299.3z"/>
				<path class="st26" d="M862.2,297.9h-19.5c-1,0-1.7-0.8-1.7-1.7v0c0-1,0.8-1.7,1.7-1.7h19.5V297.9z"/>
			</g>
			<g>
				<path class="st25" d="M860.3,293.2h-35.7c-1.7,0-3-1.3-3-3v-0.1c0-1.7,1.3-3,3-3h35.7V293.2z"/>
				<path class="st26" d="M860.3,291.8h-19.5c-1,0-1.7-0.8-1.7-1.7v0c0-1,0.8-1.7,1.7-1.7h19.5V291.8z"/>
			</g>
			<g>
				<path class="st7" d="M815.9,305.3v36.2H864v-36.2H815.9z"/>
				<path class="st8" d="M844.7,314.2h-10.1c-1.3,0-2.3-1-2.3-2.3v-0.1c0-1.3,1-2.3,2.3-2.3h10.1c1.3,0,2.3,1,2.3,2.3v0.1
					C847,313.1,846,314.2,844.7,314.2z"/>
			</g>
		</g>
		<polygon class="st27" points="719.6,124.7 807.3,52.6 783.5,52.6 687.4,124.7 		"/>
		<polygon class="st27" points="787.2,124.7 863.9,52.6 836.8,52.6 755,124.7 		"/>
		<polygon class="st27" points="846.3,124.7 923,52.6 895.9,52.6 814.1,124.7 		"/>
		<polygon class="st27" points="908.9,124.7 985.7,52.6 958.6,52.6 876.8,124.7 		"/>
		<polygon class="st17" points="719.6,124.7 712.7,147.1 679,147.1 687.4,124.7 		"/>
		<polygon class="st17" points="755,124.7 748.9,147.2 781.2,147.2 787.2,124.7 		"/>
		<polygon class="st17" points="813.4,124.7 807.3,147.2 839.5,147.2 845.5,124.7 		"/>
		<polygon class="st17" points="876.8,124.7 870.7,147.2 903,147.2 909,124.7 		"/>
	</g>
	<g>
		<g>
			<path class="st28" d="M723.6,305.3h-12.4l-0.8-38.9l-0.9,0.1l-5,38.7h-12.2c0,0-2.8-14.7-2.1-30.3c0.8-15.6,6.3-23.6,6.3-23.6
				l20-1.6l5.3-0.4c0,0,0.4,0.5,0.9,1.6c0.2,0.4,0.5,0.9,0.7,1.5c1.2,2.6,2.9,6.9,3.9,13C729.3,276.3,723.6,305.3,723.6,305.3z"/>
			<path class="st29" d="M724.6,251.5l-1.2,1l-2.2,1.8c0,0-18.4-2.2-23.7,15.5c-5.3,17.7-0.7,35.6-0.7,35.6h-4.6
				c0,0-2.8-14.7-2.1-30.3c0.8-15.6,6.3-23.6,6.3-23.6l20-1.6c2.6,0.4,4.7,0.8,6.2,1.1C723.9,251.3,724.6,251.5,724.6,251.5z"/>
			<path class="st30" d="M716.9,211.7c0,0,4.2,3.5,5.7,9c1.5,5.4,6.7,24.8,6.7,24.8h-8.8C720.5,245.5,715.9,214.3,716.9,211.7z"/>
			<path class="st11" d="M708.7,208.5c0,0,6.9,2.9,8.2,3.3c0,0,5.3,5.4,4.8,17.5c-0.5,12.1-2.1,24.4-2.1,24.4l-21.1,0.5
				c0,0-9.9-33.3-8.8-38.4c1.1-5.2,13-7.3,13-7.3H708.7z"/>
			<path class="st30" d="M702,202.2l0.7,7.7c0,0,5,4.1,6.6,1.5l-0.7-5.9L702,202.2z"/>
			<path class="st31" d="M699.5,197.9c1.3,6.5,7.2,10.3,11.2,8.8c4-1.5,4.3-8.9,3.4-13.1c-0.8-4.2-4.8-6.6-9.1-5.8
				C700.9,188.6,698.7,193.7,699.5,197.9z"/>
			<path class="st32" d="M702,185.8c0,0-4.6,1-6,7.3c-1.4,6.3,1.3,11.2,3,12.3c1.7,1.1,3.4,1.1,3.4,1.1s0.4-1.7-0.4-3.9
				c0,0-2.4-1.7-2.2-4.4c0.2-2.6,1.7-2.3,2.2-2.1c0.5,0.3,0.5,2,0.5,2s1.1,0.3,1.8-1.3c0.6-1.6,0-3.6,0-3.6s4.6-2.1,5.5-4.9
				c0,0,2.1,3.5,4.3,4.7c2.2,1.3,1.6-5.4-2.9-7.1C706.6,184,702.8,185.1,702,185.8z"/>
			<path class="st32" d="M702.2,186.2c0,0-1.9-3.6-5.8-2.8c-3.9,0.8-6.3,5.1-6.4,9.3c-0.1,4.2,1.9,1.7,1.9,1.7s-2,6.4,0.6,6.8
				c2.5,0.4,4.3-9.2,6.4-10.6C701,189.1,702.2,186.2,702.2,186.2z"/>
			<path class="st31" d="M690,214.9c0,0-3.2,1.2-4.5,8.8l-4.6,26.4l9.4,1.1l5.4-26.4C695.6,224.8,694.6,218.4,690,214.9z"/>
			<path class="st21" d="M721.8,268.4c0,0,0.4-14.7-4-16.3c-3.5-1.3-8.4-1.5-10.1-1.6c-0.5,0-0.7,0-0.7,0s0.2-0.4,0.6-1
				c0.5-0.7,1.4-1.7,2.8-2.6c1.5-1,3.5-1.9,6.4-2.5c8-1.5,16,0.8,18.9,3.6c2,1.9,3.4,10.4,4.1,15.4c0.3,2.2,0.5,3.8,0.5,3.8
				L721.8,268.4z"/>
			<path class="st33" d="M721.8,268.4c0,0,0.4-14.7-4-16.3c-3.5-1.3-8.4-1.5-10.1-1.6l-0.1-1c0.5-0.7,1.4-1.7,2.8-2.6
				c4.1-0.7,11.2-0.7,14.2,6.2c3.6,8.1,10,11.3,15.2,10.4c0.3,2.2,0.5,3.8,0.5,3.8L721.8,268.4z"/>
			<path class="st31" d="M680.9,250c0,0,4.6-1.8,8.7-2.5c4.1-0.7,21.2,2.5,21.2,2.5v5.2c0,0-8.7,0.6-19.2,0
				C681.4,254.7,680.9,250,680.9,250z"/>
			<path class="st31" d="M710.3,250.4c0,0,2.4-1.9,3.5-2.3c1.1-0.4,4.2,0,4.2,0s0.1,0.9-0.5,1.1c-0.6,0.2-2.6,0.2-2.6,0.2l-0.7,0.8
				l3.6,1.8h3.7c0,0,0,1.4-1.6,1.5c0,0,0,1.2-1.3,1.6c0,0-0.1,1-1.3,1.1c0,0-0.8,0.7-1.9,0.5c-1.1-0.2-5.3-1.9-5.3-1.9L710.3,250.4z
				"/>
			<path class="st31" d="M692.3,305.3c0,0,1.6,32.5,2,40.7h7l3.2-40.7H692.3z"/>
			<path class="st30" d="M711.2,305.3c0,0-0.7,7.5,0,17.4c0.7,9.9,1.9,23.2,1.9,23.2l7-0.1l2.9-40.5H711.2z"/>
			<path class="st25" d="M709,350.3c0,0-0.3-1.4-3.1-2.8s-4.7-1.5-4.7-1.5h-6.9c0,0-0.6,3.5-0.3,5.2H709
				C709,351.2,709.2,350.8,709,350.3z"/>
			<path class="st25" d="M727.7,350.1c0,0-0.3-1.4-3.1-2.8c-2.8-1.4-4.7-1.5-4.7-1.5H713c0,0-0.6,3.5-0.3,5.2h14.9
				C727.7,351,727.9,350.6,727.7,350.1z"/>
			<path class="st34" d="M719.8,227.1l-16,3c0,0,3.7,1.8,9.9,1.3C720,230.8,719.8,227.1,719.8,227.1z"/>
			<path class="st34" d="M695.6,224.8c0,0,1.8,19.8,2.8,23.3l-1.7-0.2l-3.1-11.4L695.6,224.8z"/>
			<path class="st29" d="M710.4,266.5l5.4-2.1c0,0-1.9,14.4-1.5,26.5c0.4,12.1,0.6,14.4,0.6,14.4h-3.8L710.4,266.5z"/>
			<path class="st30" d="M689.6,247.9l-5.9,2.2C683.7,250.1,685.4,246.3,689.6,247.9z"/>
		</g>
		<g>
			<path class="st35" d="M770.8,233.1c0,0,4.9,2.2,5.3,11.6"/>
			<path class="st36" d="M806.4,228.8c0,0,1.9,9.4,2.4,14.5c0.5,5.1-5.4,10.1-5.4,10.1l-3.3-11.1l3.2-13.5H806.4z"/>
			<path class="st37" d="M802.7,211.7c0,0,2.5,0.1,4,3.8c1.5,3.7,2.9,10.1,1.7,11.9c-1.2,1.8-5,1.9-5,1.9L802.7,211.7z"/>
			<path class="st38" d="M794,202.2l-0.7,7.7c0,0-5,4.1-6.6,1.5l0.7-5.9L794,202.2z"/>
			<path class="st36" d="M796.5,197.9c-1.3,6.5-7.2,10.3-11.2,8.8c-4-1.5-4.3-8.9-3.4-13.1c0.8-4.2,4.8-6.6,9.1-5.8
				C795.1,188.6,797.3,193.7,796.5,197.9z"/>
			<path class="st39" d="M807.8,307.1c0,0-1.5,31.3-1.9,39.1h-6.7l-3.1-39.1H807.8z"/>
			<path class="st36" d="M792,307.1c0,0,0.7,7.2,0,16.7c-0.7,9.5-1.8,22.3-1.8,22.3l-6.8-0.1l-2.8-38.9H792z"/>
			<path class="st25" d="M791.8,350.3c0,0,0.3-1.3,3-2.7c2.7-1.3,4.5-1.4,4.5-1.4h6.6c0,0,0.6,3.4,0.3,5h-14.3
				C791.8,351.2,791.6,350.8,791.8,350.3z"/>
			<path class="st25" d="M776.1,350.1c0,0,0.3-1.3,3-2.7c2.7-1.3,4.5-1.4,4.5-1.4h6.6c0,0,0.6,3.4,0.3,5h-14.3
				C776.1,351,775.9,350.6,776.1,350.1z"/>
			<path class="st12" d="M808.8,311h-30.4c0,0-4.1-19.3-4.2-38.8v-0.8c0-19,6.1-28.1,6.1-28.1c-0.6-2.1-1.4-6-1.7-12.8
				c-0.1-2.9-0.1-5.4-0.1-7.6c0.1-7.2,0.9-11.1,0.9-11.1c1.4-0.4,8.2-3.3,8.2-3.3h6c0,0,10.3,1.2,11.4,6.4
				c0.9,4.1-2.5,20.7-3.9,27.4c3.8,4.6,5.4,10.1,6,15.2c0.1,1,0.2,2,0.2,3c0,0.3,0,0.5,0,0.8c0.1,1.8,0,3.5-0.1,5
				c-0.1,2.2-0.3,4.2-0.4,5.7c-0.3,4.9,1,25.7,1.7,34.7c0,0.1,0,0.2,0,0.2C808.7,309.5,808.8,311,808.8,311z"/>
			<path class="st37" d="M785.3,209.4c0,0,0.4-1,2.9-1.8c2.5-0.9,5.5-0.8,6.4-0.5c0.9,0.3,1,1.8,1,1.8S792.9,209.6,785.3,209.4z"/>
			<path class="st40" d="M808.8,311h-30.4c0,0-4.1-19.3-4.2-38.8v-0.8c0-19,6.1-28.1,6.1-28.1c-0.6-2.1-1.4-6-1.7-12.8
				c-0.1-2.9-0.1-5.4-0.1-7.6l3,3l2.8,19c0,0-3.8,30-1.7,47c1.6,12.5,17.6,14.9,26,15.3C808.7,309.5,808.8,311,808.8,311z"/>
			<path class="st41" d="M783.6,190.1c0,0-0.4,3,0,4.9c0.4,1.9,1.4,2.1,1.4,2.1s-0.3,2.2,0.8,2.8c0,0,0.1-2.5,1-2.6
				c0.9-0.1,1.9,2.4,1.5,4.3s-2,1.7-2,1.7s0.2,4.2,2.8,7.3c2.6,3-1.3,9.1,1.4,10.9c2.7,1.8,8,1.7,10.4-0.4c2.5-2.1,2.1-9,0.7-12.6
				c-1.4-3.5-2.7-8.6-2.6-12.7c0.1-4.1-2.4-5.4-2.4-5.4s-0.3-3.1-4.9-4.2c-4.6-1.1-10.5,2.2-10.6,5.4c-0.1,3.2,0.5,3.5,0.5,3.5
				S782.1,191.2,783.6,190.1z"/>
			<path class="st36" d="M773,225.8c-0.4,0.2-3.1,7.3-3.1,7.3l-15.9-3.4l-1,3.4c0,0,15.2,7.4,19,6.7c3.8-0.7,7.3-11.5,7.3-11.5
				L773,225.8z"/>
			<path class="st37" d="M779.3,211.7c0,0-1.8-0.1-3.2,1.1c-1.4,1.2-5.6,9.8-4.5,12c1.1,2.2,6.9,5.4,9.8,3
				C784.4,225.6,780.9,213.1,779.3,211.7z"/>
			<path class="st36" d="M754.7,229.9c0,0-1-1-1.8-1.8c-0.9-0.8-3.4-1.1-3.4-1.1s0.1,0.7,0.2,0.8c0.1,0.1,1.4,0.6,1.4,0.6
				s-2.8,0.3-2.9,0.4c-0.2,0.1-1.3-0.6-1.8-0.7c-0.5-0.1-1,0.3-1,0.3s0.9,0.9,1.3,1.2c0.3,0.3,1,0.4,1,0.4s0.1,0.6,0.4,0.9
				c0.3,0.3,0.6,0.4,0.6,0.4s0.1,0.2,0.5,0.5c0.4,0.3,1,0.3,1,0.3s0.1,0.3,0.3,0.4c0.3,0.1,3.3,0.5,3.3,0.5L754.7,229.9z"/>
			<path class="st7" d="M770.6,271L770.6,271c-6.7,0-12.2-5.4-12.2-12.2v-14.1h11.5h12.8v14.1C782.8,265.6,777.3,271,770.6,271z"/>
			<path class="st35" d="M764.2,247.2c0,0-0.5-12.2,5.3-14.5"/>
			<path class="st19" d="M765.3,247c0,0.6-0.5,1.1-1.1,1.1s-1.1-0.5-1.1-1.1c0-0.6,0.5-1.1,1.1-1.1S765.3,246.4,765.3,247z"/>
			<path class="st40" d="M807.3,266.4c-1.1,1.3-2.8,2.3-5.3,2.7c-8,1.3-11.8-4.3-11.8-4.3c4.8-0.1,13.1-2.8,17.2-4.2
				c0,0.3,0,0.5,0,0.8C807.4,263.2,807.4,264.9,807.3,266.4z"/>
			<path class="st40" d="M800.2,242.4c0.5,0.4-12.1,0-12.1,0S794.2,237.4,800.2,242.4z"/>
		</g>
		<g>
			<g>
				<path class="st30" d="M907,206.7l0.7,7.7c0,0,5,4.1,6.6,1.5l-0.7-5.9L907,206.7z"/>
				<path class="st31" d="M904.6,202.4c1.3,6.5,7.2,10.3,11.2,8.8c4-1.5,4.3-8.9,3.4-13.1c-0.8-4.2-4.8-6.6-9.1-5.8
					C905.9,193.2,903.7,198.2,904.6,202.4z"/>
				<polygon class="st28" points="922.9,342.6 925.6,348 932.3,346.2 929.9,340.7 				"/>
				<path class="st25" d="M940.5,348.1c0,0-0.6-1.3-3.7-1.9c-3.1-0.6-4.9-0.3-4.9-0.3l-6.6,1.7c0,0,0.3,3.6,1.1,5.1l14.4-3.8
					C940.7,349,940.8,348.5,940.5,348.1z"/>
				<polygon class="st28" points="892.6,336.2 890.3,341.8 896.1,345.5 898.8,339.7 				"/>
				<path class="st14" d="M900.2,352.9c0,0,0.5-1.3-1.1-4c-1.6-2.7-3.1-3.8-3.1-3.8l-5.7-3.7c0,0-2.4,2.6-3.1,4.2l12.5,8.2
					C899.7,353.6,900.2,353.4,900.2,352.9z"/>
				<path class="st42" d="M918.9,225l7.7,34.8l6.1,14.3l-6.1,3.8c0,0-4-4.9-6-10.2C918.6,262.4,918.9,225,918.9,225z"/>
				<path class="st41" d="M922,268.4c0,0,1.9,20.7,1.7,30.8c-0.2,10.1-23.1,41.2-23.1,41.2l-9.4-4.7c0,0,8.6-19.9,16.3-24.8
					l5.8-19.2l-3.9-25.1l10.9-3.2L922,268.4z"/>
				<path class="st14" d="M897,269.2c0,0,5.6,26.6,13.8,37.7c0,0,3.6,27.6,9.6,36.8l10.9-3.2c0,0-9.6-39.2-11.6-44.4
					c-1.9-5.2-7.6-27.7-7.6-27.7L897,269.2z"/>
				<path class="st7" d="M904.4,195.7c0,0-1.8,0.5-2.4,3.1c-0.6,2.6,0.6,5.6,2.2,7.5c1.5,1.9,3,2.7,3,2.7l0.6-2.4c0,0-2.9-1.2-2.7-4
					c0.2-2.7,2-1.9,2.5-1s0.4,1.7,0.4,1.7l1.1-0.3c0,0,1.8-3.1,0.7-6.1c0,0,1.3,0.9,3.4,0.7c2.1-0.1,1.7-1,1.7-1s0.9,0.6,2.5,0.5
					c1.6-0.1,2.5-1.3,2.6-2.7c0.1-1.5-1.9-4.4-7.2-3.8C907.4,191.2,904.9,193.1,904.4,195.7z"/>
				<path class="st14" d="M913.6,195.6c8.7-4.5,10.2-5.1,10.1-6.2c-0.1-1.1-7.4,1.1-7.4,1.1s-4.1-5.1-7.2-5.9
					c-3.1-0.8-7.4,2.6-8.3,3.5c-0.9,0.9,1,8.3,1,8.3s-6.2,4.2-5.5,5.5C897.2,203.2,903.6,200.8,913.6,195.6z"/>
				<path class="st43" d="M906.2,213.5c0,0-8.8,6.2-9.8,8.1l2.7,48.7h15l2-5.6l1.4,5.6l7.4-1.1c0,0-4.1-43.9-5.3-47.5
					c-1.2-3.6-5.5-5.3-5.5-5.3L906.2,213.5z"/>
				<path class="st21" d="M899.5,286c0,0-1.6,0.9-1.1,4.9c0.4,4-1.9,11.6-0.1,16c1.8,4.4,12.8,4.4,15.9,1.3c3.1-3.1,1-10.6-1.7-14.8
					c-2.7-4.2-4.9-9.1-6.3-9.2c-1.5-0.2-1.6,0.4-1.6,0.4l0.4,0.9c0,0,0.9,0.1,2,2.4s-3.3,4.5-5.6,4.1c-2.4-0.4-1.6-4-1.6-4
					L899.5,286z"/>
				<path class="st31" d="M904.5,284.6l1.6-0.4c0,0-0.6-0.5-1.5-1.5c-0.5-0.5-1-0.8-1.4-0.9c-0.3-0.6-0.4-0.9-0.4-0.9l-0.3-1.1
					l-4.5,1.9c0,0,0.5,4.6,1.8,6.3c1.2,1.7,2,1.1,2,1.1c0.9,0.2,1.1-0.2,1.1-0.2c0.9,0.2,1.2-0.5,1.2-0.5c0.7,0.2,1-0.2,1-0.2
					s0.5-1.6,0-2.6C904.9,285.3,904.7,284.9,904.5,284.6z"/>
				<polygon class="st42" points="906.2,213.5 907.5,211.8 914,216.3 912,217.8 				"/>
				<path class="st42" d="M896.4,221.6l-9,33.2l9,27.4l8-2.4l-6.2-24.9l7.2-25.5C905.3,229.3,901.9,222.1,896.4,221.6z"/>
				<path class="st44" d="M933.3,279.1l0.1,1.2c0,0-0.6,1.4-0.2,2c0.3,0.6,1-1.1,1.1-1.6C934.3,280.2,933.3,279.1,933.3,279.1z"/>
				<path class="st45" d="M933.6,279.9l0.1,1.2c0,0-0.6,1.4-0.2,2c0.3,0.6,1-1.1,1.1-1.6C934.6,281,933.6,279.9,933.6,279.9z"/>
				<path class="st31" d="M927.9,277.1l0.4,0.5c0,0,0.7,2.1,1.1,2.7c0.4,0.6,2,2,2,2s0.6-0.3,0.5-0.8c-0.2-0.5-1-1.5-1-1.5
					s-0.3-1.2,0.3-1.5c0.7-0.3,1.6,0.4,2,1c0.4,0.6,0.9,1.4,1,1.8c0.1,0.3-0.2,1.5,0,2c0.2,0.6,0.6,0.6,0.6,0.6s0.7-2.1,0.6-2.4
					c-0.2-0.3,0.1-0.9,0-1.4c0-0.5-0.3-0.7-0.3-1.1c0-0.4-0.6-1.3-0.8-1.6c-0.2-0.3-2.2-2.3-2.2-2.3l-0.3-0.4L927.9,277.1z"/>
			</g>
			<polygon class="st42" points="914.1,214 914,216.3 916.1,217.4 915.4,215.2 			"/>
		</g>
		<g>
			<path class="st40" d="M491,226.9c-1.2,2.4-2.9,3.9-4.6,4.9c-2.6,1.6-5.2,1.8-5.2,1.8l-0.9-1.6l-5.8-10.2l16.9-8.2
				C491.4,213.5,494,220.8,491,226.9z"/>
			<polygon class="st36" points="474.5,221.7 468.9,224.4 468.6,233.5 479.5,230.4 			"/>
			<path class="st46" d="M486.4,231.8c-2.6,1.6-5.2,1.8-5.2,1.8l-0.9-1.6c0,0,0,0,0,0s5.5-2.1,7-6
				C488.7,222.2,486.7,230.7,486.4,231.8z"/>
			<path class="st36" d="M462.7,223.5c1.6-6.1,9.3-23.4,9.3-23.4l4.4,1.1c0,0-2.1,21.8-4.5,28c-2.4,6.2-6.9,4.6-6.9,4.6
				S460.5,231.8,462.7,223.5z"/>
			<path class="st36" d="M476.4,201.6c0,0,2.3-1.5,3-3.1c0.7-1.6-1.1-2.9-1.7-3c-0.6-0.1-2.6-1-3.1-0.2c-0.5,0.8,2.1,1.9,2.1,1.9
				s-1.9,0.3-2.6,1.4c-0.7,1.1-0.5,3.5-0.5,3.5L476.4,201.6z"/>
			<path class="st36" d="M472.1,200.9c0,0-2.7-2.9-2.5-4.1c0.2-1.2,1-1.1,1-1.1s-0.5-1,0.1-1.6c0.6-0.6,1-0.4,1-0.4s-0.4-1,0.4-1.3
				c0.8-0.3,1.4,0,1.4,0s0-0.5,0.9-0.5c0.9,0,2.2,0.9,2.5,1.8c0.3,0.9,0,1.9,0,1.9v1.9l-3.6,3.8L472.1,200.9z"/>
			<path class="st12" d="M501.6,212.3c0,0-8.8,0.8-10.2,1.2c0,0-5.6,7.6-5,20.3c0.6,12.7-1,25.8-1,25.8l30.1,0.8
				c0,0,7.2-38.7,6-44.1c-1.1-5.4-13.6-4-13.6-4H501.6z"/>
			<path class="st39" d="M508.7,205.8l-0.8,8.1c0,0-5.2,4.3-6.9,1.5l0.7-6.2L508.7,205.8z"/>
			<path class="st36" d="M511.2,201.2c-1.4,6.9-7.6,10.8-11.7,9.3c-4.2-1.6-4.5-9.4-3.6-13.8c0.9-4.4,5.1-7,9.5-6.1
				C509.8,191.5,512.1,196.8,511.2,201.2z"/>
			<path class="st32" d="M500.5,192c0,0-0.2,1.3,1.5,3.2s4.2,1.9,4.2,1.9s-0.1,2.9,1.5,3.6c0,0,0.4-1.8,1.7-1.8
				c1.2,0,1.4,2.9,0.3,4.6c-1,1.8-1.9,1.4-1.9,1.4l0.7,3.4c0,0,6.1-4.7,5.2-12.2L500.5,192z"/>
			<path class="st32" d="M500.3,192.4c0,0-0.6,1.4-2.1,2.6c-1.5,1.2-2.2,1.3-2.2,1.3s-0.4-1.7,0.8-3.2c1.2-1.5,3.7-1.2,3.7-1.2
				L500.3,192.4z"/>
			<path class="st12" d="M498.2,190.1c0,0,1.5-3.1,4.8-3.7c3.3-0.5,5.3,1.5,6.6,2.3c1.3,0.8,2.8,1.1,3.5,3.1
				c0.8,1.9,0.5,4.3,0.5,4.3l-3.5-0.4C510.2,195.6,501.6,190,498.2,190.1z"/>
			<path class="st28" d="M510.5,195.2c0,0-2.3-3.3-6.7-4.9c-4.4-1.5-9.8-0.5-10.3,0.4c-1,1.5,3.1,2,6.2,2.6
				C502.8,194.1,511.7,196.6,510.5,195.2z"/>
			<polygon class="st36" points="528.2,222 539.2,219.7 536.5,210.7 526.7,212.5 			"/>
			<path class="st36" d="M545.3,212c1.8-6,4.1-24.8,4.1-24.8l-4.3-1.4c0,0-9.5,19.8-10.7,26.3c-1.2,6.5,3.5,7.5,3.5,7.5
				S542.9,220.3,545.3,212z"/>
			<path class="st36" d="M544.4,186.7c0,0-1-2.6-0.6-4.3c0.3-1.7,2.6-1.7,3.1-1.5c0.5,0.2,2.7,0.7,2.6,1.6c-0.1,0.9-2.8,0.3-2.8,0.3
				s1.4,1.3,1.4,2.6c0,1.3-1.6,3.1-1.6,3.1L544.4,186.7z"/>
			<path class="st36" d="M548.3,188.6c0,0,3.9-0.8,4.4-1.9s-0.2-1.4-0.2-1.4s1-0.6,0.9-1.4c-0.1-0.8-0.6-0.9-0.6-0.9
				s0.9-0.6,0.4-1.3c-0.5-0.7-1.1-0.8-1.1-0.8s0.3-0.4-0.5-0.9c-0.8-0.5-2.3-0.5-3.1,0c-0.8,0.5-1.1,1.5-1.1,1.5l-1.1,1.5l0.8,5.2
				L548.3,188.6z"/>
			<path class="st40" d="M516.4,212.6c0,0,8.7-1.2,13.6-1.2l0.9,13.3l-10,3.3C516.2,225.3,516.4,212.6,516.4,212.6z"/>
			<path class="st28" d="M532.7,339.7h-12.2L509,302.4l-8.4-28.7l-4.7,30.8c0.8,5.1,0.4,14.4-0.2,22.2l0,0.1
				c-0.5,6.5-1.1,12.1-1.2,13.4l0,0.3h-11.6c0,0-0.2-27.4,0-39.2c0.2-11.8,2.6-33.8,2.6-33.8v-7.9l30.1,0.8c0.4,0.8,0.7,1.6,1,2.5
				c4,11.3,5,33.4,5,33.4s0,0,3.8,9C529.3,314.5,532.7,339.7,532.7,339.7z"/>
			<polygon class="st7" points="484.7,340.5 484.7,346.1 491.4,346.1 491.8,340.5 			"/>
			<polygon class="st7" points="522.7,339.7 524.9,345.6 531.9,345.6 530.9,339.7 			"/>
			<path class="st25" d="M476.9,348.3c0,0,0.3-1.4,3.1-2.8s4.7-1.5,4.7-1.5h6.9c0,0,0.6,3.5,0.3,5.2h-14.9
				C476.9,349.2,476.7,348.8,476.9,348.3z"/>
			<path class="st25" d="M539.3,349.5c0,0-0.3-1.4-3.1-2.8s-4.7-1.5-4.7-1.5h-6.9c0,0-0.6,3.5-0.3,5.2h14.9
				C539.3,350.4,539.5,350,539.3,349.5z"/>
			<path class="st7" d="M480.2,190l-12.8-14.9l-7.7,12.2l20.7,9.7c0.8,0.4,1.7,0,2.1-0.7l1-1.9c0.4-0.7,0.2-1.5-0.4-2L480.2,190z"/>
			<path class="st46" d="M517,220.4c0,0,0.2,5.5,3.7,7.5l10-3.3c0,0-5.2,0.3-9.7,1C519.5,225.9,517.5,223.2,517,220.4z"/>
			<path class="st47" d="M499.2,215.2c0,0-1.4,1.9,2.4,3.2c3.8,1.4,8.4-4.1,8.4-4.1s-4.1,3.3-7.8,2.7
				C498.4,216.5,499.2,215.2,499.2,215.2z"/>
			<path class="st29" d="M495.9,304.6c0.8,5.1,0.4,14.4-0.2,22.2l0,0.1l-1.2,13.4l0,0.3h-2.6c0,0,2.8-24.7,1.6-33.5
				c-1.1-8.9,0-8.6,1.4-21.1c1.4-12.6,0-15.7,0-15.7l5.7,3.6L495.9,304.6z"/>
			<path class="st29" d="M516.6,263l-31.1-1.3v-2l30.1,0.8C515.9,261.2,516.2,262.1,516.6,263z"/>
		</g>
	</g>
</g>
</svg>
