<svg width="27" height="27" viewBox="0 0 27 27" fill="none" xmlns="http://www.w3.org/2000/svg">
<g clip-path="url(#clip0_55_20)">
<path d="M13.503 0C6.04221 0 0 6.04221 0 13.503C0 20.9578 6.04221 27.0059 13.503 27.0059C20.9578 27.0059 27.0059 20.9637 27.0059 13.503C27 6.04221 20.9578 0 13.503 0ZM20.7738 14.601L14.7375 20.6373C14.0609 21.3139 12.9628 21.3139 12.2862 20.6373L6.24401 14.601C4.61772 12.9688 4.61772 10.3275 6.24401 8.70125C7.05716 7.88811 8.12552 7.47857 9.19389 7.47857C10.2623 7.47857 11.3306 7.88811 12.1438 8.70125L13.5089 10.0664L14.7969 8.77841C16.4291 7.14619 19.1119 7.06309 20.756 8.68938C21.581 9.50846 21.9965 10.5768 21.9965 11.6571C21.9965 12.7195 21.5869 13.7819 20.7738 14.601Z" fill="#010101"/>
</g>
<defs>
<clipPath id="clip0_55_20">
<rect width="27" height="27" fill="white"/>
</clipPath>
</defs>
</svg>
