<svg width="269" height="285" viewBox="0 0 269 285" fill="none" xmlns="http://www.w3.org/2000/svg">
<path d="M50.8741 140.366C63.2711 127.969 67.1326 111.731 59.499 104.097C51.8654 96.4639 35.6274 100.325 23.2304 112.722C10.8334 125.119 6.97195 141.357 14.6056 148.991C22.2392 156.625 38.4771 152.763 50.8741 140.366Z" fill="#F8E7CD"/>
<path d="M43.5759 69.5361C46.4428 73.5498 45.0354 79.4922 40.4484 82.7761C35.8091 86.0601 29.7625 85.4867 26.8956 81.473C24.0287 77.4593 25.4361 71.5169 30.0231 68.233C34.6624 64.949 40.709 65.5224 43.5759 69.5361Z" fill="#F8E7CD"/>
<path d="M268.343 83.8186H202.873V89.2919H268.343V83.8186Z" fill="#EB9964"/>
<path d="M268.343 89.2919H202.873V92.9407H268.343V89.2919Z" fill="#222D54"/>
<path d="M265.268 65.2618H251.976V83.8186H265.268V65.2618Z" fill="#1DAD91"/>
<path d="M265.267 65.2618H263.287V83.8186H265.267V65.2618Z" fill="#148C73"/>
<path d="M260.368 65.2618H256.875V69.6404H260.368V65.2618Z" fill="#222D54"/>
<path d="M223.619 67.9723H205.844V83.7665H223.619V67.9723Z" fill="#1DAD91"/>
<path d="M223.619 67.9723H217.625V83.7665H223.619V67.9723Z" fill="#148C73"/>
<path d="M249.838 72.5594H225.704V83.8186H249.838V72.5594Z" fill="#FCAF17"/>
<path d="M249.89 72.5594H242.488V83.8186H249.89V72.5594Z" fill="#F7911E"/>
<path d="M164.925 127.031H45.4526V130.68H164.925V127.031Z" fill="#222D54"/>
<path d="M164.925 121.506H45.4526V126.979H164.925V121.506Z" fill="#EB9964"/>
<path d="M153.197 97.7884H101.801V121.714H153.197V97.7884Z" fill="#FCAF17"/>
<path d="M153.197 97.7884H145.065V121.714H153.197V97.7884Z" fill="#F7911E"/>
<path d="M134.536 97.7884H117.699V103.991H134.536V97.7884Z" fill="#222D54"/>
<path d="M78.0834 107.119H54.8352V121.558H78.0834V107.119Z" fill="#1DAD91"/>
<path d="M78.0835 107.119H72.3496V121.558H78.0835V107.119Z" fill="#148C73"/>
<path d="M91.2712 99.6649H87.466L84.0778 104.825C83.6086 105.503 83.4001 106.337 83.4001 107.171V121.558H95.337V107.171C95.337 106.337 95.0764 105.555 94.6594 104.825L91.2712 99.6649Z" fill="#222D54"/>
<path d="M91.7926 97.7884H86.997C86.7363 97.7884 86.5278 97.9969 86.5278 98.2575V99.3001C86.5278 99.5607 86.7363 99.7692 86.997 99.7692H91.7926C92.0532 99.7692 92.2617 99.5607 92.2617 99.3001V98.2575C92.2096 97.9969 92.0532 97.7884 91.7926 97.7884Z" fill="#FCAF17"/>
<path d="M93.0436 108.318H85.6938V115.928H93.0436V108.318Z" fill="#1DAD91"/>
<path d="M91.7405 110.455H87.1013V111.393H91.7405V110.455Z" fill="#F8E7CD"/>
<path d="M91.7405 112.905H87.1013V113.843H91.7405V112.905Z" fill="#F8E7CD"/>
<path d="M164.925 83.8186H45.4526V89.2919H164.925V83.8186Z" fill="#EB9964"/>
<path d="M164.925 89.2919H45.4526V92.9407H164.925V89.2919Z" fill="#222D54"/>
<path d="M80.4811 56.9216H57.2329V83.7665H80.4811V56.9216Z" fill="#FCAF17"/>
<path d="M80.4293 56.9216H77.0933V83.7665H80.4293V56.9216Z" fill="#F7911E"/>
<path d="M71.8805 56.9216H65.7817V63.2289H71.8805V56.9216Z" fill="#222D54"/>
<path d="M102.009 66.8777H84.0781V83.7665H102.009V66.8777Z" fill="#222D54"/>
<path d="M124.267 62.2385H106.492V83.8186H124.267V62.2385Z" fill="#1DAD91"/>
<path d="M124.319 62.2385H119.628V83.8186H124.319V62.2385Z" fill="#148C73"/>
<path d="M142.302 74.3838H128.176V83.8186H142.302V74.3838Z" fill="#FCAF17"/>
<path d="M142.354 74.3838H138.08V83.8186H142.354V74.3838Z" fill="#F7911E"/>
<path d="M153.823 58.5896H149.392L145.483 64.5841C144.961 65.366 144.701 66.3043 144.701 67.2947V83.9229H158.514V67.2426C158.514 66.3043 158.253 65.366 157.732 64.532L153.823 58.5896Z" fill="#4D609E"/>
<path opacity="0.21" d="M158.514 67.2426V83.8708H156.533V67.2426C156.533 66.3043 156.273 65.366 155.751 64.532L151.842 58.5375H153.823L157.732 64.532C158.253 65.3139 158.514 66.3043 158.514 67.2426Z" fill="#222D54"/>
<path d="M154.448 56.4003H148.923C148.662 56.4003 148.401 56.6088 148.401 56.9216V58.1205C148.401 58.4333 148.662 58.6418 148.923 58.6418H154.448C154.709 58.6418 154.969 58.4333 154.969 58.1205V56.9216C154.969 56.6088 154.709 56.4003 154.448 56.4003Z" fill="#222D54"/>
<path d="M155.856 68.5457H147.411V77.355H155.856V68.5457Z" fill="#222D54"/>
<path d="M154.396 70.9435H149.027V71.986H154.396V70.9435Z" fill="#F8E7CD"/>
<path d="M154.396 73.8626H149.027V74.9051H154.396V73.8626Z" fill="#F8E7CD"/>
<path d="M183.43 0H183.117V108.266H183.43V0Z" fill="#212120"/>
<path d="M247.441 0H247.128V108.266H247.441V0Z" fill="#212120"/>
<path d="M255.833 103.679H175.768C174.048 103.679 172.692 105.034 172.692 106.754V129.95C172.692 131.67 174.048 133.026 175.768 133.026H255.833C257.554 133.026 258.909 131.67 258.909 129.95V106.754C258.909 105.086 257.501 103.679 255.833 103.679Z" fill="#4D609E"/>
<path opacity="0.21" d="M254.53 103.679H177.071C174.673 103.679 172.692 105.659 172.692 108.057V111.654C172.692 109.256 174.673 107.275 177.071 107.275H254.53C256.928 107.275 258.909 109.256 258.909 111.654V108.057C258.909 105.659 256.928 103.679 254.53 103.679Z" fill="#222D54"/>
<path d="M183.43 112.279C185.567 112.279 186.714 113.583 186.714 115.824V116.293H184.629V115.72C184.629 114.729 184.212 114.312 183.534 114.312C182.857 114.312 182.44 114.677 182.44 115.72C182.44 118.639 186.766 119.16 186.766 123.174C186.766 125.415 185.619 126.718 183.482 126.718C181.293 126.718 180.198 125.415 180.198 123.174V122.288H182.283V123.278C182.283 124.268 182.7 124.633 183.43 124.633C184.16 124.633 184.577 124.268 184.577 123.278C184.577 120.359 180.25 119.838 180.25 115.824C180.146 113.583 181.293 112.279 183.43 112.279Z" fill="#F8E7CD"/>
<path d="M190.206 126.51H188.017V112.436H190.206V118.482H192.708V112.436H194.949V126.51H192.708V120.463H190.206V126.51Z" fill="#F8E7CD"/>
<path d="M196.41 115.824C196.41 113.583 197.609 112.279 199.798 112.279C201.987 112.279 203.186 113.583 203.186 115.824V123.174C203.186 125.415 201.987 126.718 199.798 126.718C197.609 126.718 196.41 125.415 196.41 123.174V115.824ZM198.599 123.278C198.599 124.268 199.016 124.685 199.746 124.685C200.423 124.685 200.893 124.321 200.893 123.278V115.668C200.893 114.677 200.475 114.26 199.746 114.26C199.068 114.26 198.599 114.625 198.599 115.668V123.278Z" fill="#F8E7CD"/>
<path d="M211.109 115.928V117.753C211.109 119.994 210.014 121.245 207.825 121.245H206.783V126.562H204.593V112.488H207.877C210.014 112.436 211.109 113.687 211.109 115.928ZM206.783 114.469V119.264H207.825C208.503 119.264 208.92 118.952 208.92 117.909V115.772C208.92 114.781 208.555 114.417 207.825 114.417H206.783V114.469Z" fill="#F8E7CD"/>
<path d="M215.383 112.436H217.573V124.529H221.221V126.562H215.383V112.436Z" fill="#F8E7CD"/>
<path d="M222.004 115.824C222.004 113.583 223.203 112.279 225.34 112.279C227.529 112.279 228.676 113.583 228.676 115.824V123.174C228.676 125.415 227.477 126.718 225.34 126.718C223.151 126.718 222.004 125.415 222.004 123.174V115.824ZM224.245 123.278C224.245 124.268 224.662 124.685 225.392 124.685C226.122 124.685 226.539 124.321 226.539 123.278V115.668C226.539 114.677 226.122 114.26 225.392 114.26C224.662 114.26 224.245 114.625 224.245 115.668V123.278Z" fill="#F8E7CD"/>
<path d="M236.599 121.297V123.174C236.599 125.415 235.452 126.718 233.315 126.718C231.125 126.718 230.031 125.415 230.031 123.174V115.824C230.031 113.583 231.178 112.279 233.315 112.279C235.504 112.279 236.599 113.583 236.599 115.824V117.179H234.514V115.668C234.514 114.677 234.097 114.26 233.367 114.26C232.637 114.26 232.22 114.625 232.22 115.668V123.278C232.22 124.268 232.637 124.633 233.367 124.633C234.097 124.633 234.514 124.268 234.514 123.278V121.245L236.599 121.297Z" fill="#F8E7CD"/>
<path d="M245.147 126.51H242.906L242.541 123.956H239.83L239.466 126.51H237.433L239.674 112.436H242.906L245.147 126.51ZM240.039 122.079H242.176L241.081 114.938L240.039 122.079Z" fill="#F8E7CD"/>
<path d="M246.138 112.436H248.327V124.529H251.976V126.562H246.138V112.436Z" fill="#F8E7CD"/>
<path d="M260.941 207.983H57.7021V217.835H260.941V207.983Z" fill="#222D54"/>
<path d="M249.578 217.782H68.9094V284.087H249.578V217.782Z" fill="#EB9964"/>
<path d="M249.578 217.834V225.497L68.9094 221.952V217.834H249.578Z" fill="#D37A48"/>
<path d="M215.54 161.33C216.165 160.131 216.947 158.202 216.999 156.847C217.104 154.345 216.895 150.905 217.416 149.654C218.198 147.829 220.335 151.53 220.7 153.303C221.065 155.127 230.656 148.663 232.064 149.08C233.471 149.497 226.382 153.98 226.382 153.98C226.382 153.98 235.035 148.663 235.817 149.393C236.599 150.123 227.946 155.961 227.946 155.961C227.946 155.961 234.618 151.687 235.452 152.781C236.338 153.824 229.301 157.525 229.301 157.525C229.301 157.525 233.628 155.388 234.149 156.17C234.67 156.951 226.747 159.818 225.183 161.851C223.619 163.884 223.411 164.51 223.411 164.51L215.019 162.32L215.54 161.33Z" fill="#EB9964"/>
<path d="M215.123 160.913L198.443 181.659L184.525 172.641C171.806 162.477 167.323 160.652 162.893 160.444C161.902 167.585 155.804 173.058 148.402 173.058C141.104 173.058 135.11 167.742 133.963 160.757C118.794 163.415 107.639 176.655 107.639 192.241V207.722L116.292 207.931H173.526V190.468L202.665 199.747C205.375 200.477 208.242 199.121 209.441 196.515L224.297 163.467L215.123 160.913Z" fill="#FCAF17"/>
<path d="M107.795 189.634C107.743 190.521 107.691 191.407 107.691 192.293V207.774H107.795V189.634Z" fill="#9CCEEF"/>
<path d="M148.454 173.111C155.856 173.111 161.954 167.637 162.945 160.496C161.225 160.392 160.286 160.548 160.286 160.548C159.609 160.444 159.244 160.444 159.244 160.444C155.699 159.141 154.344 154.971 153.875 152.781H142.146C141.677 154.971 140.322 159.089 136.777 160.444C136.777 160.444 136.413 160.444 135.735 160.548C135.162 160.6 134.64 160.705 134.067 160.809C135.109 167.794 141.156 173.111 148.454 173.111Z" fill="#EB9964"/>
<path d="M147.828 154.241C145.69 154.241 143.762 153.928 142.042 153.25C141.885 153.98 141.625 154.866 141.208 155.753C144.022 157.212 149.183 159.036 156.272 158.255C154.865 156.534 154.187 154.345 153.874 152.886C152.05 153.772 149.965 154.241 147.828 154.241Z" fill="#D37A48"/>
<path d="M173.578 207.983V164.614C171.806 163.467 170.347 162.685 168.991 162.06V184.005C168.991 186.09 167.323 187.758 165.238 187.758H132.972C130.887 187.758 129.219 186.09 129.219 184.005V162.06C127.655 162.581 126.196 163.207 124.789 163.988L122.86 207.983H173.578Z" fill="#1DAD91"/>
<path d="M160.391 138.499C160.495 139.333 160.391 141.105 160.391 141.939C160.391 149.497 154.969 154.814 148.297 154.814C141.625 154.814 136.934 151.478 136.204 138.812C136.204 138.812 142.98 135.267 143.293 127.917L160.391 138.499Z" fill="#EB9964"/>
<path d="M179 162.164C178.895 165.656 177.332 175.821 166.333 176.603C161.277 176.968 156.69 173.945 154.709 169.357C154.5 168.888 154.344 168.419 154.188 167.898C153.354 164.979 152.103 159.089 153.145 153.824C153.145 153.824 153.145 153.824 153.145 153.772C153.249 153.72 153.302 153.667 153.406 153.667C157.419 151.791 160.182 147.673 160.339 142.408C160.339 142.252 160.339 142.096 160.339 141.939C160.339 141.105 160.443 139.333 160.339 138.499L143.241 127.917C142.928 135.267 136.152 138.812 136.152 138.812C136.152 138.968 136.152 139.072 136.204 139.229C136.83 148.194 139.436 152.364 143.345 153.928C142.876 155.857 141.677 158.984 138.863 160.079C138.863 160.079 138.55 160.079 137.976 160.183C137.976 160.183 137.924 160.183 137.872 160.183C136.725 158.202 135.057 154.971 133.285 150.488C130.001 142.2 127.395 123.07 141.208 119.838C141.208 119.838 149.757 110.142 159.14 116.085C168.522 121.975 171.181 134.329 169.513 143.034C169.513 143.034 179.26 152.677 179 162.164Z" fill="#222D54"/>
<path d="M139.749 143.242C139.749 141.47 138.289 140.01 136.517 140.01C134.744 140.01 133.285 141.47 133.285 143.242C133.285 145.015 134.744 146.474 136.517 146.474C138.289 146.474 139.749 145.015 139.749 143.242Z" fill="#EB9964"/>
<path d="M164.404 143.242C164.404 141.47 162.945 140.01 161.172 140.01C159.4 140.01 157.94 141.47 157.94 143.242C157.94 145.015 159.4 146.474 161.172 146.474C162.945 146.474 164.404 145.015 164.404 143.242Z" fill="#EB9964"/>
<path d="M153.145 140.845C153.145 141.209 152.832 141.522 152.467 141.522C152.102 141.522 151.79 141.209 151.79 140.845C151.79 140.48 152.102 140.167 152.467 140.167C152.832 140.167 153.145 140.48 153.145 140.845Z" fill="#222D54"/>
<path d="M142.563 140.845C142.563 141.209 142.876 141.522 143.241 141.522C143.606 141.522 143.918 141.209 143.918 140.845C143.918 140.48 143.606 140.167 143.241 140.167C142.876 140.167 142.563 140.48 142.563 140.845Z" fill="#222D54"/>
<path d="M144.544 137.978C143.345 137.144 141.729 137.144 140.53 137.978C140.27 138.186 140.166 138.499 140.374 138.655C140.53 138.812 140.843 138.759 141 138.655C141.938 138.03 143.189 138.03 144.075 138.655C144.284 138.812 144.544 138.812 144.701 138.655C144.857 138.499 144.805 138.186 144.544 137.978Z" fill="#222D54"/>
<path d="M154.709 137.978C153.51 137.144 151.894 137.144 150.695 137.978C150.434 138.186 150.33 138.499 150.539 138.655C150.695 138.812 151.008 138.759 151.164 138.655C152.102 138.03 153.353 138.03 154.24 138.655C154.448 138.812 154.709 138.812 154.865 138.655C155.021 138.499 154.969 138.186 154.709 137.978Z" fill="#222D54"/>
<path d="M148.401 150.905C147.724 150.905 147.098 150.748 146.525 150.384C146.421 150.331 146.421 150.227 146.473 150.123C146.525 150.019 146.629 150.019 146.733 150.071C147.724 150.644 149.079 150.644 150.069 150.071C150.174 150.019 150.278 150.071 150.33 150.123C150.382 150.227 150.33 150.331 150.278 150.384C149.652 150.748 149.027 150.905 148.401 150.905Z" fill="#222D54"/>
<path d="M149.183 146.787H147.359C147.255 146.787 147.15 146.683 147.15 146.578V141.157C147.15 141.053 147.255 140.949 147.359 140.949C147.463 140.949 147.567 141.053 147.567 141.157V146.422H149.183C149.288 146.422 149.392 146.526 149.392 146.63C149.392 146.735 149.288 146.787 149.183 146.787Z" fill="#222D54"/>
<path d="M163.726 195.837H132.086V207.983H163.726V195.837Z" fill="#148C73"/>
<path d="M125.258 164.666V193.231C125.258 195.212 123.694 196.776 121.713 196.776H74.3305C72.3497 196.776 70.7859 195.212 70.7859 193.231V164.666C70.7859 162.737 72.3497 161.122 74.3305 161.122H121.713C123.642 161.122 125.258 162.685 125.258 164.666Z" fill="#4D609E"/>
<path d="M125.257 164.666V193.231C125.257 195.212 123.694 196.776 121.713 196.776H118.168C120.149 196.776 121.713 195.212 121.713 193.231V164.666C121.713 162.685 120.149 161.122 118.168 161.122H121.713C123.641 161.122 125.257 162.685 125.257 164.666Z" fill="#222D54"/>
<path d="M102.739 153.25H93.2V161.174H102.739V153.25Z" fill="#4D609E"/>
<path d="M102.739 153.25H93.2V156.43H102.739V153.25Z" fill="#222D54"/>
<path d="M113.321 142.304H82.6184C81.4195 142.304 80.377 143.294 80.377 144.545V151.322C80.377 152.573 81.3673 153.563 82.6184 153.563H113.321C114.519 153.563 115.562 152.573 115.562 151.322V144.545C115.562 143.294 114.572 142.304 113.321 142.304Z" fill="#4D609E"/>
<path d="M82.8792 150.592V145.223C82.8792 144.962 83.0877 144.702 83.4004 144.702H112.643C112.904 144.702 113.164 144.91 113.164 145.223V150.592C113.164 150.853 112.956 151.113 112.643 151.113H83.4004C83.0877 151.113 82.8792 150.905 82.8792 150.592Z" fill="#222D54"/>
<path d="M119.889 200.581H76.1028V208.035H119.889V200.581Z" fill="#4D609E"/>
<path d="M119.888 200.581H113.373V208.035H119.888V200.581Z" fill="#222D54"/>
<path d="M119.889 200.581H76.1028V202.457H119.889V200.581Z" fill="#222D54"/>
<path d="M108.473 172.485H86.684C85.433 172.485 84.4426 173.475 84.4426 174.726V187.445C84.4426 188.696 85.433 189.687 86.684 189.687H108.473C109.724 189.687 110.714 188.696 110.714 187.445V174.726C110.714 173.475 109.724 172.485 108.473 172.485Z" fill="#C8C7C6"/>
<path d="M108.473 172.485H86.684C85.433 172.485 84.4426 173.475 84.4426 174.726V187.445C84.4426 188.696 85.433 189.687 86.684 189.687H108.473C109.724 189.687 110.714 188.696 110.714 187.445V174.726C110.714 173.475 109.724 172.485 108.473 172.485Z" fill="#222D54"/>
<path d="M102.948 179.626H92.262V200.581H102.948V179.626Z" fill="#4D609E"/>
<path d="M95.0768 179.626H92.262V200.581H95.0768V179.626Z" fill="#6A83C2"/>
<path d="M240.351 196.463H226.538V208.035H240.351V196.463Z" fill="#FCAF17"/>
<path d="M240.352 196.463H235.921V208.035H240.352V196.463Z" fill="#F6851F"/>
<path d="M235.087 186.298H232.063V196.619H235.087V186.298Z" fill="#E24545"/>
<path d="M233.576 192.345C238.959 192.345 243.323 187.981 243.323 182.597C243.323 177.214 238.959 172.85 233.576 172.85C228.192 172.85 223.828 177.214 223.828 182.597C223.828 187.981 228.192 192.345 233.576 192.345Z" fill="#1DAD91"/>
<path d="M234.305 182.597C234.305 180.148 232.324 178.167 229.875 178.167C227.425 178.167 225.444 180.148 225.444 182.597C225.444 185.047 227.425 187.028 229.875 187.028C232.324 187.028 234.305 185.047 234.305 182.597Z" fill="#43BDA4"/>
<path d="M233.576 172.798C231.803 172.798 230.135 173.267 228.676 174.101C233.315 174.153 237.016 177.906 237.016 182.545C237.016 187.185 233.263 190.938 228.676 190.99C230.135 191.824 231.751 192.293 233.576 192.293C238.945 192.293 243.323 187.914 243.323 182.545C243.323 177.176 238.997 172.798 233.576 172.798Z" fill="#148C73"/>
</svg>
