<?xml version="1.0" encoding="utf-8"?>
<!-- Generator: Adobe Illustrator 26.5.0, SVG Export Plug-In . SVG Version: 6.00 Build 0)  -->
<svg version="1.1" id="Layer_1" xmlns="http://www.w3.org/2000/svg" xmlns:xlink="http://www.w3.org/1999/xlink" x="0px" y="0px"
	 viewBox="0 0 100 100" style="enable-background:new 0 0 100 100;" xml:space="preserve">
<style type="text/css">
	.st0{fill:#FFFFFF;}
</style>
<g>
	<path d="M50,0C33.6,0,19,7.9,9.9,20.1h80.2C81,7.9,66.4,0,50,0z"/>
	<path d="M100,50c0-3.6-0.4-7.1-1.1-10.5H1.1C0.4,42.9,0,46.4,0,50c0,3.3,0.3,6.4,0.9,9.5h98.2C99.7,56.4,100,53.3,100,50z"/>
	<path d="M50,100c16.8,0,31.7-8.3,40.8-21.1H9.2C18.3,91.7,33.2,100,50,100z"/>
	<path class="st0" d="M90.1,20.1H9.9c-4.2,5.7-7.3,12.2-8.8,19.4h97.8C97.4,32.4,94.3,25.8,90.1,20.1z"/>
	<path class="st0" d="M0.9,59.5c1.4,7.1,4.3,13.7,8.3,19.4h81.6c4-5.7,6.9-12.3,8.3-19.4H0.9z"/>
</g>
</svg>
