<?xml version="1.0" encoding="utf-8"?>
<!-- Generator: Adobe Illustrator 26.5.0, SVG Export Plug-In . SVG Version: 6.00 Build 0)  -->
<svg version="1.1" id="Layer_1" xmlns="http://www.w3.org/2000/svg" xmlns:xlink="http://www.w3.org/1999/xlink" x="0px" y="0px"
	 viewBox="0 0 45.49 45.49" style="enable-background:new 0 0 45.49 45.49;" xml:space="preserve">
<style type="text/css">
	.st0{fill:#010101;}
</style>
<path class="st0" d="M22.75,0C10.18,0,0,10.18,0,22.75c0,12.56,10.18,22.75,22.75,22.75c12.56,0,22.75-10.18,22.75-22.75
	C45.49,10.18,35.31,0,22.75,0z M35,24.6L24.83,34.77c-1.14,1.14-2.99,1.14-4.13,0L10.52,24.6c-2.74-2.75-2.74-7.2,0-9.94
	c1.37-1.37,3.17-2.06,4.97-2.06s3.6,0.69,4.97,2.06l2.3,2.3l2.17-2.17c2.75-2.75,7.27-2.89,10.04-0.15c1.39,1.38,2.09,3.18,2.09,5
	C37.06,21.43,36.37,23.22,35,24.6z"/>
</svg>
