<?xml version="1.0" encoding="utf-8"?>
<!-- Generator: Adobe Illustrator 26.5.0, SVG Export Plug-In . SVG Version: 6.00 Build 0)  -->
<svg version="1.1" id="Layer_1" xmlns="http://www.w3.org/2000/svg" xmlns:xlink="http://www.w3.org/1999/xlink" x="0px" y="0px"
	 viewBox="0 0 67.4 21.7" style="enable-background:new 0 0 67.4 21.7;" xml:space="preserve">
<style type="text/css">
	.st0{fill:#010101;}
</style>
<path class="st0" d="M61.4,7c-2.1,0-3.8,1.7-3.8,3.8s1.7,3.8,3.8,3.8c2.1,0,3.8-1.7,3.8-3.8S63.6,7,61.4,7z M63.6,10.4L63.6,10.4
	c0,0-0.1,0-0.1,0c-0.5,0-0.9-0.2-1.1-0.6v2.1c0,0.8-0.7,1.5-1.5,1.5c-0.8,0-1.5-0.7-1.5-1.5s0.7-1.5,1.5-1.5c0,0,0.1,0,0.1,0v0.8
	c0,0-0.1,0-0.1,0c-0.4,0-0.8,0.3-0.8,0.8c0,0.4,0.3,0.8,0.8,0.8c0.4,0,0.8-0.3,0.8-0.8l0-3.5h0.7C62.5,9,63,9.5,63.6,9.5V10.4z"/>
<path class="st0" d="M33.7,7c-2.1,0-3.8,1.7-3.8,3.8s1.7,3.8,3.8,3.8c2.1,0,3.8-1.7,3.8-3.8S35.8,7,33.7,7z M36.2,9.3
	C36.2,9.3,36.2,9.3,36.2,9.3c-0.1,0.2-0.3,0.4-0.4,0.5c0,0-0.1,0-0.1,0.1c0,0.8-0.2,1.7-0.8,2.3c-0.8,0.8-1.9,1-2.9,0.7
	c-0.2-0.1-0.4-0.1-0.6-0.2c-0.1,0-0.1-0.1-0.2-0.1c0,0,0,0,0,0c0,0,0,0,0.1,0c0.3,0,0.6,0,0.9-0.1c0.1-0.1,0.5-0.2,0.6-0.3
	c0,0,0,0,0,0c0,0-0.1,0-0.1,0c-0.3-0.1-0.6-0.2-0.8-0.7c0,0,0,0,0,0c0.2,0,0.3,0,0.4,0c0,0-0.1,0-0.1,0c-0.3-0.1-0.6-0.5-0.7-0.8
	c0,0,0-0.1,0-0.1c0,0,0,0,0,0c0.2,0.1,0.4,0.1,0.4,0.1c0,0-0.1-0.1-0.1-0.1c-0.3-0.3-0.4-0.9-0.2-1.2c0,0,0,0,0.1,0
	c0.6,0.6,1.2,0.9,2.1,1.1c0,0,0,0,0,0c0-0.1,0-0.3,0-0.4c0-0.1,0.1-0.3,0.2-0.4C34,9.1,34.1,9,34.2,8.9c0.1-0.1,0.3-0.1,0.4-0.1
	c0.2,0,0.3,0,0.4,0.1c0.1,0,0.2,0.1,0.3,0.2c0,0,0,0,0.1,0.1c0,0,0,0,0,0C35.7,9,35.9,9,36.1,8.9c0,0,0,0,0,0c0,0,0,0,0,0
	C36.1,9,36,9.1,36,9.2c0,0.1-0.2,0.2-0.2,0.2C35.9,9.4,36.1,9.3,36.2,9.3C36.2,9.3,36.2,9.3,36.2,9.3C36.2,9.3,36.2,9.3,36.2,9.3z"
	/>
<g>
	<path class="st0" d="M19.9,10.1c-0.4,0-0.7,0.3-0.7,0.7c0,0.4,0.3,0.7,0.7,0.7c0.4,0,0.7-0.3,0.7-0.7
		C20.6,10.4,20.3,10.1,19.9,10.1z"/>
	<path class="st0" d="M20.8,9h-1.9c-0.5,0-1,0.4-1,1v1.9c0,0.5,0.4,1,1,1h1.9c0.5,0,1-0.4,1-1V9.9C21.7,9.4,21.3,9,20.8,9z M19.9,12
		c-0.6,0-1.1-0.5-1.1-1.1c0-0.6,0.5-1.1,1.1-1.1c0.6,0,1.1,0.5,1.1,1.1C21,11.5,20.5,12,19.9,12z M21.1,9.9c-0.2,0-0.3-0.1-0.3-0.3
		c0-0.2,0.1-0.3,0.3-0.3c0.2,0,0.3,0.1,0.3,0.3C21.4,9.8,21.2,9.9,21.1,9.9z"/>
	<path class="st0" d="M19.9,7C17.7,7,16,8.7,16,10.8s1.7,3.8,3.8,3.8c2.1,0,3.8-1.7,3.8-3.8S22,7,19.9,7z M22.2,11.8
		c0,0.8-0.6,1.4-1.4,1.4h-1.9c-0.8,0-1.4-0.6-1.4-1.4V9.9c0-0.8,0.6-1.4,1.4-1.4h1.9c0.8,0,1.4,0.6,1.4,1.4V11.8z"/>
</g>
<path class="st0" d="M6,7c-2.1,0-3.8,1.7-3.8,3.8s1.7,3.8,3.8,3.8c2.1,0,3.8-1.7,3.8-3.8S8.1,7,6,7z M7.5,8.9H7.1
	c-0.4,0-0.6,0.3-0.6,0.6v0.7h1l-0.2,1H6.5v2.5H5.4v-2.5H4.5v-1h0.9V9.4C5.4,8.5,5.9,8,6.7,8c0.4,0,0.8,0.1,0.8,0.1V8.9z"/>
<path class="st0" d="M47.6,7c-2.1,0-3.8,1.7-3.8,3.8s1.7,3.8,3.8,3.8c2.1,0,3.8-1.7,3.8-3.8S49.7,7,47.6,7z M49,11.4
	c-0.5,0.6-1.3,0.7-1.7,0.3c0,0-0.1-0.1-0.1-0.1c0,0,0,0,0,0c-0.2,0.7-0.2,0.8-0.4,1.2c-0.1,0.2-0.2,0.3-0.3,0.4c0,0,0,0,0,0
	c0,0,0,0,0-0.1c0-0.2,0-0.4,0-0.6c0-0.3,0-0.4,0.4-1.9c0,0,0,0,0-0.1c-0.1-0.2-0.1-0.5,0-0.7c0.2-0.5,0.7-0.6,0.8-0.1
	c0.1,0.3-0.1,0.6-0.2,1.1c-0.1,0.4,0.4,0.7,0.8,0.4c0.4-0.3,0.5-1,0.5-1.4C48.7,8.9,47.7,8.7,47,9c-0.8,0.3-0.9,1.3-0.6,1.7
	c0,0.1,0.1,0.1,0.1,0.1c0,0.1,0,0.2-0.1,0.3c0,0.1-0.1,0.1-0.1,0.1c-0.1-0.1-0.2-0.1-0.3-0.2c-0.3-0.4-0.4-1.1,0-1.7
	c0.4-0.7,1.2-0.9,1.9-0.9c0.9,0.1,1.4,0.7,1.5,1.4C49.5,10.1,49.5,10.9,49,11.4z"/>
</svg>
