<svg width="872" height="545" viewBox="0 0 872 545" fill="none" xmlns="http://www.w3.org/2000/svg">
<path d="M872 0H0V545H872V0Z" fill="#EFD1A3"/>
<path d="M872 0V545H163.2C162.7 494.6 184.9 404.4 342.8 376.4C499.2 348.7 469.1 136.8 563.2 0H872Z" fill="#F8E7CD"/>
<path d="M412.198 269.285C435.981 245.502 443.389 214.351 428.745 199.706C414.1 185.062 382.949 192.469 359.166 216.252C335.383 240.035 327.975 271.186 342.62 285.831C357.264 300.475 388.416 293.067 412.198 269.285Z" fill="#F8E7CD"/>
<path d="M398.2 133.4C403.7 141.1 401 152.5 392.2 158.8C383.3 165.1 371.7 164 366.2 156.3C360.7 148.6 363.4 137.2 372.2 130.9C381.1 124.6 392.7 125.7 398.2 133.4Z" fill="#F8E7CD"/>
<path d="M161.8 0C134.9 71.4 74.6 126.6 0 146.4V0H161.8Z" fill="#F8E7CD"/>
<path d="M829.4 160.8H703.8V171.3H829.4V160.8Z" fill="#EB9964"/>
<path d="M829.4 171.3H703.8V178.3H829.4V171.3Z" fill="#222D54"/>
<path d="M823.5 125.2H798V160.8H823.5V125.2Z" fill="#1DAD91"/>
<path d="M823.5 125.2H819.7V160.8H823.5V125.2Z" fill="#148C73"/>
<path d="M814.1 125.2H807.4V133.6H814.1V125.2Z" fill="#222D54"/>
<path d="M743.6 130.4H709.5V160.7H743.6V130.4Z" fill="#1DAD91"/>
<path d="M743.6 130.4H732.1V160.7H743.6V130.4Z" fill="#148C73"/>
<path d="M793.9 139.2H747.6V160.8H793.9V139.2Z" fill="#FCAF17"/>
<path d="M794 139.2H779.8V160.8H794V139.2Z" fill="#F7911E"/>
<path d="M631 243.7H401.8V250.7H631V243.7Z" fill="#222D54"/>
<path d="M631 233.1H401.8V243.6H631V233.1Z" fill="#EB9964"/>
<path d="M608.5 187.6H509.9V233.5H608.5V187.6Z" fill="#FCAF17"/>
<path d="M608.5 187.6H592.9V233.5H608.5V187.6Z" fill="#F7911E"/>
<path d="M572.7 187.6H540.4V199.5H572.7V187.6Z" fill="#222D54"/>
<path d="M464.4 205.5H419.8V233.2H464.4V205.5Z" fill="#1DAD91"/>
<path d="M464.4 205.5H453.4V233.2H464.4V205.5Z" fill="#148C73"/>
<path d="M489.7 191.2H482.4L475.9 201.1C475 202.4 474.6 204 474.6 205.6V233.2H497.5V205.6C497.5 204 497 202.5 496.2 201.1L489.7 191.2Z" fill="#222D54"/>
<path d="M490.7 187.6H481.5C481 187.6 480.6 188 480.6 188.5V190.5C480.6 191 481 191.4 481.5 191.4H490.7C491.2 191.4 491.6 191 491.6 190.5V188.5C491.5 188 491.2 187.6 490.7 187.6Z" fill="#FCAF17"/>
<path d="M493.099 207.8H479V222.4H493.099V207.8Z" fill="#1DAD91"/>
<path d="M490.6 211.9H481.7V213.7H490.6V211.9Z" fill="#F8E7CD"/>
<path d="M490.6 216.6H481.7V218.4H490.6V216.6Z" fill="#F8E7CD"/>
<path d="M631 160.8H401.8V171.3H631V160.8Z" fill="#EB9964"/>
<path d="M631 171.3H401.8V178.3H631V171.3Z" fill="#222D54"/>
<path d="M469 109.2H424.4V160.7H469V109.2Z" fill="#FCAF17"/>
<path d="M468.9 109.2H462.5V160.7H468.9V109.2Z" fill="#F7911E"/>
<path d="M452.5 109.2H440.8V121.3H452.5V109.2Z" fill="#222D54"/>
<path d="M510.3 128.3H475.9V160.7H510.3V128.3Z" fill="#222D54"/>
<path d="M553 119.4H518.9V160.8H553V119.4Z" fill="#1DAD91"/>
<path d="M553.1 119.4H544.1V160.8H553.1V119.4Z" fill="#148C73"/>
<path d="M587.6 142.7H560.5V160.8H587.6V142.7Z" fill="#FCAF17"/>
<path d="M587.7 142.7H579.5V160.8H587.7V142.7Z" fill="#F7911E"/>
<path d="M609.7 112.4H601.2L593.7 123.9C592.7 125.4 592.2 127.2 592.2 129.1V161H618.7V129C618.7 127.2 618.2 125.4 617.2 123.8L609.7 112.4Z" fill="#4D609E"/>
<path opacity="0.21" d="M618.7 129V160.9H614.9V129C614.9 127.2 614.4 125.4 613.4 123.8L605.9 112.3H609.7L617.2 123.8C618.2 125.3 618.7 127.2 618.7 129Z" fill="#222D54"/>
<path d="M610.9 108.2H600.3C599.8 108.2 599.3 108.6 599.3 109.2V111.5C599.3 112.1 599.8 112.5 600.3 112.5H610.9C611.4 112.5 611.9 112.1 611.9 111.5V109.2C611.9 108.6 611.4 108.2 610.9 108.2Z" fill="#222D54"/>
<path d="M613.6 131.5H597.4V148.4H613.6V131.5Z" fill="#222D54"/>
<path d="M610.8 136.1H600.5V138.1H610.8V136.1Z" fill="#F8E7CD"/>
<path d="M610.8 141.7H600.5V143.7H610.8V141.7Z" fill="#F8E7CD"/>
<path d="M666.5 0H665.9V207.7H666.5V0Z" fill="#212120"/>
<path d="M789.3 0H788.7V207.7H789.3V0Z" fill="#212120"/>
<path d="M805.4 198.9H651.8C648.5 198.9 645.9 201.5 645.9 204.8V249.3C645.9 252.6 648.5 255.2 651.8 255.2H805.4C808.7 255.2 811.3 252.6 811.3 249.3V204.8C811.3 201.6 808.6 198.9 805.4 198.9Z" fill="#4D609E"/>
<path opacity="0.21" d="M802.9 198.9H654.3C649.7 198.9 645.9 202.7 645.9 207.3V214.2C645.9 209.6 649.7 205.8 654.3 205.8H802.9C807.5 205.8 811.3 209.6 811.3 214.2V207.3C811.3 202.7 807.5 198.9 802.9 198.9Z" fill="#222D54"/>
<path d="M666.5 215.4C670.6 215.4 672.8 217.9 672.8 222.2V223.1H668.8V222C668.8 220.1 668 219.3 666.7 219.3C665.4 219.3 664.6 220 664.6 222C664.6 227.6 672.9 228.6 672.9 236.3C672.9 240.6 670.7 243.1 666.6 243.1C662.4 243.1 660.3 240.6 660.3 236.3V234.6H664.3V236.5C664.3 238.4 665.1 239.1 666.5 239.1C667.9 239.1 668.7 238.4 668.7 236.5C668.7 230.9 660.4 229.9 660.4 222.2C660.2 217.9 662.4 215.4 666.5 215.4Z" fill="#F8E7CD"/>
<path d="M679.5 242.7H675.3V215.7H679.5V227.3H684.3V215.7H688.6V242.7H684.3V231.1H679.5V242.7Z" fill="#F8E7CD"/>
<path d="M691.4 222.2C691.4 217.9 693.7 215.4 697.9 215.4C702.1 215.4 704.4 217.9 704.4 222.2V236.3C704.4 240.6 702.1 243.1 697.9 243.1C693.7 243.1 691.4 240.6 691.4 236.3V222.2ZM695.6 236.5C695.6 238.4 696.4 239.2 697.8 239.2C699.1 239.2 700 238.5 700 236.5V221.9C700 220 699.2 219.2 697.8 219.2C696.5 219.2 695.6 219.9 695.6 221.9V236.5Z" fill="#F8E7CD"/>
<path d="M719.6 222.4V225.9C719.6 230.2 717.5 232.6 713.3 232.6H711.3V242.8H707.1V215.8H713.4C717.5 215.7 719.6 218.1 719.6 222.4ZM711.3 219.6V228.8H713.3C714.6 228.8 715.4 228.2 715.4 226.2V222.1C715.4 220.2 714.7 219.5 713.3 219.5H711.3V219.6Z" fill="#F8E7CD"/>
<path d="M727.8 215.7H732V238.9H739V242.8H727.8V215.7Z" fill="#F8E7CD"/>
<path d="M740.5 222.2C740.5 217.9 742.8 215.4 746.9 215.4C751.1 215.4 753.3 217.9 753.3 222.2V236.3C753.3 240.6 751 243.1 746.9 243.1C742.7 243.1 740.5 240.6 740.5 236.3V222.2ZM744.8 236.5C744.8 238.4 745.6 239.2 747 239.2C748.4 239.2 749.2 238.5 749.2 236.5V221.9C749.2 220 748.4 219.2 747 219.2C745.6 219.2 744.8 219.9 744.8 221.9V236.5Z" fill="#F8E7CD"/>
<path d="M768.5 232.7V236.3C768.5 240.6 766.3 243.1 762.2 243.1C758 243.1 755.9 240.6 755.9 236.3V222.2C755.9 217.9 758.1 215.4 762.2 215.4C766.4 215.4 768.5 217.9 768.5 222.2V224.8H764.5V221.9C764.5 220 763.7 219.2 762.3 219.2C760.9 219.2 760.1 219.9 760.1 221.9V236.5C760.1 238.4 760.9 239.1 762.3 239.1C763.7 239.1 764.5 238.4 764.5 236.5V232.6L768.5 232.7Z" fill="#F8E7CD"/>
<path d="M784.9 242.7H780.6L779.9 237.8H774.7L774 242.7H770.1L774.4 215.7H780.6L784.9 242.7ZM775.1 234.2H779.2L777.1 220.5L775.1 234.2Z" fill="#F8E7CD"/>
<path d="M786.8 215.7H791V238.9H798V242.8H786.8V215.7Z" fill="#F8E7CD"/>
<path d="M815.2 399H425.3V417.9H815.2V399Z" fill="#222D54"/>
<path d="M793.4 417.8H446.8V545H793.4V417.8Z" fill="#EB9964"/>
<path d="M793.4 417.9V432.6L446.8 425.8V417.9H793.4Z" fill="#D37A48"/>
<path d="M728.1 309.5C729.3 307.2 730.8 303.5 730.9 300.9C731.1 296.1 730.7 289.5 731.7 287.1C733.2 283.6 737.3 290.7 738 294.1C738.7 297.6 757.1 285.2 759.8 286C762.5 286.8 748.9 295.4 748.9 295.4C748.9 295.4 765.5 285.2 767 286.6C768.5 288 751.9 299.2 751.9 299.2C751.9 299.2 764.7 291 766.3 293.1C768 295.1 754.5 302.2 754.5 302.2C754.5 302.2 762.8 298.1 763.8 299.6C764.8 301.1 749.6 306.6 746.6 310.5C743.6 314.4 743.2 315.6 743.2 315.6L727.1 311.4L728.1 309.5Z" fill="#EB9964"/>
<path d="M727.3 308.7L695.3 348.5L668.6 331.2C644.2 311.7 635.6 308.2 627.1 307.8C625.2 321.5 613.5 332 599.3 332C585.3 332 573.8 321.8 571.6 308.4C542.5 313.5 521.1 338.9 521.1 368.8V398.5L537.7 398.9H647.5V365.4L703.4 383.2C708.6 384.6 714.1 382 716.4 377L744.9 313.6L727.3 308.7Z" fill="#FCAF17"/>
<path d="M521.4 363.8C521.3 365.5 521.2 367.2 521.2 368.9V398.6H521.4V363.8Z" fill="#9CCEEF"/>
<path d="M599.4 332.1C613.6 332.1 625.3 321.6 627.2 307.9C623.9 307.7 622.1 308 622.1 308C620.8 307.8 620.1 307.8 620.1 307.8C613.3 305.3 610.7 297.3 609.8 293.1H587.3C586.4 297.3 583.8 305.2 577 307.8C577 307.8 576.3 307.8 575 308C573.9 308.1 572.9 308.3 571.8 308.5C573.8 321.9 585.4 332.1 599.4 332.1Z" fill="#EB9964"/>
<path d="M598.199 295.9C594.099 295.9 590.399 295.3 587.099 294C586.799 295.4 586.3 297.1 585.5 298.8C590.9 301.6 600.799 305.1 614.399 303.6C611.699 300.3 610.399 296.1 609.799 293.3C606.299 295 602.299 295.9 598.199 295.9Z" fill="#D37A48"/>
<path d="M647.6 399V315.8C644.2 313.6 641.4 312.1 638.8 310.9V353C638.8 357 635.6 360.2 631.6 360.2H569.7C565.7 360.2 562.5 357 562.5 353V310.9C559.5 311.9 556.7 313.1 554 314.6L550.3 399H647.6Z" fill="#1DAD91"/>
<path d="M622.299 265.7C622.499 267.3 622.299 270.7 622.299 272.3C622.299 286.8 611.899 297 599.099 297C586.299 297 577.299 290.6 575.899 266.3C575.899 266.3 588.899 259.5 589.499 245.4L622.299 265.7Z" fill="#EB9964"/>
<path d="M657.999 311.1C657.799 317.8 654.799 337.3 633.699 338.8C623.999 339.5 615.199 333.7 611.399 324.9C610.999 324 610.699 323.1 610.399 322.1C608.799 316.5 606.399 305.2 608.399 295.1C608.399 295.1 608.399 295.1 608.399 295C608.599 294.9 608.699 294.8 608.899 294.8C616.599 291.2 621.899 283.3 622.199 273.2C622.199 272.9 622.199 272.6 622.199 272.3C622.199 270.7 622.399 267.3 622.199 265.7L589.399 245.4C588.799 259.5 575.799 266.3 575.799 266.3C575.799 266.6 575.799 266.8 575.899 267.1C577.099 284.3 582.099 292.3 589.599 295.3C588.699 299 586.399 305 580.999 307.1C580.999 307.1 580.399 307.1 579.299 307.3C579.299 307.3 579.199 307.3 579.099 307.3C576.899 303.5 573.699 297.3 570.299 288.7C563.999 272.8 558.999 236.1 585.499 229.9C585.499 229.9 601.899 211.3 619.899 222.7C637.899 234 642.999 257.7 639.799 274.4C639.799 274.4 658.499 292.9 657.999 311.1Z" fill="#222D54"/>
<path d="M582.699 274.8C582.699 271.4 579.899 268.6 576.499 268.6C573.099 268.6 570.299 271.4 570.299 274.8C570.299 278.2 573.099 281 576.499 281C579.899 281 582.699 278.2 582.699 274.8Z" fill="#EB9964"/>
<path d="M629.999 274.8C629.999 271.4 627.199 268.6 623.799 268.6C620.399 268.6 617.599 271.4 617.599 274.8C617.599 278.2 620.399 281 623.799 281C627.199 281 629.999 278.2 629.999 274.8Z" fill="#EB9964"/>
<path d="M608.399 270.2C608.399 270.9 607.799 271.5 607.099 271.5C606.399 271.5 605.799 270.9 605.799 270.2C605.799 269.5 606.399 268.9 607.099 268.9C607.799 268.9 608.399 269.5 608.399 270.2Z" fill="#222D54"/>
<path d="M588.099 270.2C588.099 270.9 588.699 271.5 589.399 271.5C590.099 271.5 590.699 270.9 590.699 270.2C590.699 269.5 590.099 268.9 589.399 268.9C588.699 268.9 588.099 269.5 588.099 270.2Z" fill="#222D54"/>
<path d="M591.899 264.7C589.599 263.1 586.499 263.1 584.199 264.7C583.699 265.1 583.499 265.7 583.899 266C584.199 266.3 584.799 266.2 585.099 266C586.899 264.8 589.299 264.8 590.999 266C591.399 266.3 591.899 266.3 592.199 266C592.499 265.7 592.399 265.1 591.899 264.7Z" fill="#222D54"/>
<path d="M611.399 264.7C609.099 263.1 605.999 263.1 603.699 264.7C603.199 265.1 602.999 265.7 603.399 266C603.699 266.3 604.299 266.2 604.599 266C606.399 264.8 608.799 264.8 610.499 266C610.899 266.3 611.399 266.3 611.699 266C611.999 265.7 611.899 265.1 611.399 264.7Z" fill="#222D54"/>
<path d="M599.299 289.5C597.999 289.5 596.799 289.2 595.699 288.5C595.499 288.4 595.499 288.2 595.599 288C595.699 287.8 595.899 287.8 596.099 287.9C597.999 289 600.599 289 602.499 287.9C602.699 287.8 602.899 287.9 602.999 288C603.099 288.2 602.999 288.4 602.899 288.5C601.699 289.2 600.499 289.5 599.299 289.5Z" fill="#222D54"/>
<path d="M600.799 281.6H597.299C597.099 281.6 596.899 281.4 596.899 281.2V270.8C596.899 270.6 597.099 270.4 597.299 270.4C597.499 270.4 597.699 270.6 597.699 270.8V280.9H600.799C600.999 280.9 601.199 281.1 601.199 281.3C601.199 281.5 600.999 281.6 600.799 281.6Z" fill="#222D54"/>
<path d="M628.699 375.7H568V399H628.699V375.7Z" fill="#148C73"/>
<path d="M554.9 315.9V370.7C554.9 374.5 551.9 377.5 548.1 377.5H457.2C453.4 377.5 450.4 374.5 450.4 370.7V315.9C450.4 312.2 453.4 309.1 457.2 309.1H548.1C551.8 309.1 554.9 312.1 554.9 315.9Z" fill="#4D609E"/>
<path d="M554.9 315.9V370.7C554.9 374.5 551.9 377.5 548.1 377.5H541.3C545.1 377.5 548.1 374.5 548.1 370.7V315.9C548.1 312.1 545.1 309.1 541.3 309.1H548.1C551.8 309.1 554.9 312.1 554.9 315.9Z" fill="#222D54"/>
<path d="M511.7 294H493.4V309.2H511.7V294Z" fill="#4D609E"/>
<path d="M511.7 294H493.4V300.1H511.7V294Z" fill="#222D54"/>
<path d="M532 273H473.1C470.8 273 468.8 274.9 468.8 277.3V290.3C468.8 292.7 470.7 294.6 473.1 294.6H532C534.3 294.6 536.3 292.7 536.3 290.3V277.3C536.3 274.9 534.4 273 532 273Z" fill="#4D609E"/>
<path d="M473.6 288.9V278.6C473.6 278.1 474 277.6 474.6 277.6H530.7C531.2 277.6 531.7 278 531.7 278.6V288.9C531.7 289.4 531.3 289.9 530.7 289.9H474.6C474 289.9 473.6 289.5 473.6 288.9Z" fill="#222D54"/>
<path d="M544.6 384.8H460.6V399.1H544.6V384.8Z" fill="#4D609E"/>
<path d="M544.6 384.8H532.1V399.1H544.6V384.8Z" fill="#222D54"/>
<path d="M544.6 384.8H460.6V388.4H544.6V384.8Z" fill="#222D54"/>
<path d="M522.7 330.9H480.9C478.5 330.9 476.6 332.8 476.6 335.2V359.6C476.6 362 478.5 363.9 480.9 363.9H522.7C525.1 363.9 527 362 527 359.6V335.2C527 332.8 525.1 330.9 522.7 330.9Z" fill="#C8C7C6"/>
<path d="M522.7 330.9H480.9C478.5 330.9 476.6 332.8 476.6 335.2V359.6C476.6 362 478.5 363.9 480.9 363.9H522.7C525.1 363.9 527 362 527 359.6V335.2C527 332.8 525.1 330.9 522.7 330.9Z" fill="#222D54"/>
<path d="M512.1 344.6H491.6V384.8H512.1V344.6Z" fill="#4D609E"/>
<path d="M497 344.6H491.6V384.8H497V344.6Z" fill="#6A83C2"/>
<path d="M775.7 376.9H749.2V399.1H775.7V376.9Z" fill="#FCAF17"/>
<path d="M775.7 376.9H767.2V399.1H775.7V376.9Z" fill="#F6851F"/>
<path d="M765.6 357.4H759.8V377.2H765.6V357.4Z" fill="#E24545"/>
<path d="M762.7 369C773.028 369 781.4 360.628 781.4 350.3C781.4 339.972 773.028 331.6 762.7 331.6C752.372 331.6 744 339.972 744 350.3C744 360.628 752.372 369 762.7 369Z" fill="#1DAD91"/>
<path d="M764.1 350.3C764.1 345.6 760.3 341.8 755.6 341.8C750.9 341.8 747.1 345.6 747.1 350.3C747.1 355 750.9 358.8 755.6 358.8C760.3 358.8 764.1 355 764.1 350.3Z" fill="#43BDA4"/>
<path d="M762.7 331.5C759.3 331.5 756.1 332.4 753.3 334C762.2 334.1 769.3 341.3 769.3 350.2C769.3 359.1 762.1 366.3 753.3 366.4C756.1 368 759.2 368.9 762.7 368.9C773 368.9 781.4 360.5 781.4 350.2C781.4 339.9 773.1 331.5 762.7 331.5Z" fill="#148C73"/>
<path d="M71.9 200.5L67.1 202.1C66.5 200.2 65.1 199.3 63 199.3C60.8 199.3 59.7 200 59.7 201.5C59.7 202.1 59.9 202.6 60.3 203C60.7 203.4 61.7 203.7 63.1 204C65.5 204.5 67.3 205 68.5 205.5C69.6 206 70.6 206.8 71.4 207.9C72.2 209 72.6 210.3 72.6 211.7C72.6 213.9 71.8 215.7 70.1 217.3C68.4 218.9 66 219.7 62.7 219.7C60.2 219.7 58.1 219.1 56.4 218C54.7 216.9 53.5 215.2 53 213L58.2 211.8C58.8 214 60.4 215.2 63.1 215.2C64.4 215.2 65.3 215 66 214.5C66.6 214 66.9 213.4 66.9 212.7C66.9 212 66.6 211.5 66 211.1C65.4 210.7 64.3 210.3 62.7 210C59.6 209.4 57.5 208.5 56.2 207.4C54.9 206.3 54.3 204.7 54.3 202.6C54.3 200.5 55.1 198.7 56.6 197.2C58.2 195.7 60.3 195 62.9 195C67.5 194.9 70.6 196.8 71.9 200.5Z" fill="#222D54"/>
<path d="M81.2 194.8V200H76V194.8H81.2ZM81.2 201.5V219.3H76V201.5H81.2Z" fill="#222D54"/>
<path d="M100.4 205.6V213.1C100.4 214 100.5 214.7 100.8 215C101.1 215.3 101.7 215.5 102.8 215.5C103.3 215.5 103.8 215.5 104.5 215.4V219.3C103 219.6 101.9 219.7 101.2 219.7C98.9999 219.7 97.4999 219.3 96.5999 218.4C95.6999 217.5 95.1999 216 95.1999 213.9V205.6H92.3999V201.5H95.4999L95.8999 196.3L100.4 195.9V201.5H104.2V205.6H100.4Z" fill="#222D54"/>
<path d="M112.4 194.8V200H107.2V194.8H112.4ZM112.4 201.5V219.3H107.2V201.5H112.4Z" fill="#222D54"/>
<path d="M132.7 211.3H121.3C121.3 211.6 121.3 211.9 121.3 212.1C121.3 213.4 121.6 214.3 122.3 215C123 215.7 123.8 216 124.7 216C126.4 216 127.5 215.1 127.8 213.2L132.5 213.6C131.2 217.7 128.5 219.8 124.4 219.8C122.6 219.8 121.1 219.4 119.9 218.7C118.7 218 117.6 217 116.8 215.6C116 214.2 115.6 212.6 115.6 210.7C115.6 207.9 116.4 205.6 118 203.9C119.6 202.2 121.7 201.3 124.2 201.3C126.5 201.3 128.4 202.1 130.1 203.7C131.8 205.3 132.7 207.7 132.7 211.3ZM121.2 208.2H127.5C127.3 205.8 126.3 204.5 124.5 204.5C122.6 204.6 121.5 205.8 121.2 208.2Z" fill="#222D54"/>
<path d="M151.4 219.3H146.2V209.3C146.2 208.1 146.2 207.3 146.1 206.8C146 206.3 145.8 206 145.4 205.7C145 205.4 144.6 205.2 144 205.2C142.2 205.2 141.2 206.6 141.2 209.3V219.3H136V201.5H140.9V204.5C141.7 203.1 142.5 202.2 143.3 201.7C144.1 201.2 144.9 201.1 145.8 201.1C147.5 201.1 148.8 201.6 149.9 202.5C151 203.4 151.4 205.2 151.4 207.9V219.3Z" fill="#222D54"/>
<path d="M171.7 211.3H160.3C160.3 211.6 160.3 211.9 160.3 212.1C160.3 213.4 160.6 214.3 161.3 215C162 215.7 162.8 216 163.7 216C165.4 216 166.5 215.1 166.8 213.2L171.5 213.6C170.2 217.7 167.5 219.8 163.4 219.8C161.6 219.8 160.1 219.4 158.9 218.7C157.7 218 156.6 217 155.8 215.6C155 214.2 154.6 212.6 154.6 210.7C154.6 207.9 155.4 205.6 157 203.9C158.6 202.2 160.7 201.3 163.2 201.3C165.5 201.3 167.4 202.1 169.1 203.7C170.8 205.3 171.7 207.7 171.7 211.3ZM160.2 208.2H166.5C166.3 205.8 165.3 204.5 163.5 204.5C161.6 204.6 160.5 205.8 160.2 208.2Z" fill="#222D54"/>
<path d="M188.3 205.8L184.5 206.8C184.1 205.2 182.9 204.4 181 204.4C179.2 204.4 178.4 204.9 178.4 206C178.4 206.4 178.6 206.8 178.9 207C179.2 207.3 180.1 207.5 181.4 207.6C183.4 207.9 184.9 208.2 185.9 208.5C186.9 208.8 187.6 209.4 188.2 210.3C188.8 211.2 189.1 212.2 189.1 213.4C189.1 215.2 188.4 216.7 187 217.9C185.6 219.1 183.7 219.6 181.2 219.6C176.7 219.6 174 217.8 173.1 214.3L177.5 213.6C177.9 215.2 179.2 216 181.4 216C182.3 216 183 215.8 183.6 215.5C184.2 215.2 184.5 214.8 184.5 214.2C184.5 213.4 183.8 212.9 182.5 212.7C178.9 212.3 176.6 211.6 175.4 210.6C174.2 209.6 173.7 208.4 173.7 206.7C173.7 205 174.4 203.6 175.7 202.5C177 201.4 178.9 200.8 181.2 200.8C183.1 200.8 184.6 201.2 185.7 201.9C186.8 202.6 187.7 204.2 188.3 205.8Z" fill="#222D54"/>
<path d="M216.2 201.5V219.3H211.3V216.3C210.4 218.6 208.6 219.7 206.1 219.7C204.8 219.7 203.7 219.5 203 219C202.3 218.5 201.8 217.8 201.5 217C201.2 216.2 201 214.9 201 213.3V201.7H206.1V213.3C206.1 214.9 206.8 215.7 208.1 215.7C208.8 215.7 209.3 215.5 209.8 215.1C210.3 214.7 210.6 214.3 210.7 213.9C210.8 213.5 210.9 212.7 210.9 211.7V201.7H216.2V201.5Z" fill="#222D54"/>
<path d="M236 219.3H230.7V209.3C230.7 208.1 230.7 207.3 230.6 206.8C230.5 206.3 230.3 206 229.9 205.7C229.5 205.4 229.1 205.2 228.5 205.2C226.7 205.2 225.7 206.6 225.7 209.3V219.3H220.5V201.5H225.4V204.5C226.2 203.1 227 202.2 227.8 201.7C228.6 201.2 229.4 201.1 230.3 201.1C232 201.1 233.3 201.6 234.4 202.5C235.5 203.4 235.9 205.2 235.9 207.9V219.3H236Z" fill="#222D54"/>
<path d="M70.7 255.8C70.5 257.9 69.7 259.6 68.2 260.9C66.7 262.2 64.9 262.8 62.5 262.8C60 262.8 58 262 56.4 260.3C54.8 258.6 54 256.4 54 253.6C54 250.8 54.8 248.6 56.4 246.8C58 245 60.2 244.2 62.9 244.2C65.1 244.2 66.9 244.9 68.3 246.2C69.7 247.5 70.5 249.1 70.7 251.1L65.8 251.4C65.6 249.3 64.7 248.2 63 248.2C60.9 248.2 59.9 249.9 59.9 253.3C59.9 255.6 60.2 257 60.8 257.6C61.4 258.2 62.1 258.5 62.9 258.5C64.5 258.5 65.5 257.5 65.8 255.4L70.7 255.8Z" fill="#222D54"/>
<path d="M80.8999 244.3C83.5999 244.3 85.6999 245.2 87.1999 247C88.6999 248.8 89.4999 251 89.4999 253.6C89.4999 256.2 88.6999 258.4 87.0999 260.2C85.4999 262 83.3999 262.8 80.7999 262.8C78.2999 262.8 76.1999 261.9 74.6999 260.2C73.1999 258.5 72.3999 256.2 72.3999 253.5C72.3999 251.6 72.6999 250 73.3999 248.7C74.0999 247.4 74.9999 246.3 76.1999 245.5C77.4999 244.8 78.9999 244.3 80.8999 244.3ZM80.9999 247.8C79.9999 247.8 79.2999 248.2 78.7999 249C78.2999 249.8 77.9999 251.3 77.9999 253.6C77.9999 255.7 78.1999 257.2 78.6999 258.1C79.1999 259 79.8999 259.5 80.8999 259.5C81.7999 259.5 82.4999 259.1 83.0999 258.3C83.6999 257.5 83.8999 256 83.8999 253.8C83.8999 251.5 83.6999 249.9 83.1999 249.1C82.6999 248.3 81.9999 247.8 80.9999 247.8Z" fill="#222D54"/>
<path d="M118.1 262.5H112.9V252.7C112.9 251.3 112.9 250.4 112.8 250C112.7 249.6 112.5 249.2 112.2 249C111.9 248.8 111.4 248.6 110.8 248.6C110.2 248.6 109.6 248.8 109 249.2C108.4 249.6 108.1 250.8 108.1 252.7V262.5H102.9V252.7C102.9 251.3 102.8 250.4 102.7 249.9C102.6 249.4 102.3 249.1 102 248.9C101.7 248.7 101.2 248.5 100.6 248.5C99.6998 248.5 98.9998 248.8 98.5998 249.4C98.1998 250 97.8998 251.1 97.8998 252.7V262.5H92.7998V244.7H97.6998V247.4C98.4998 245.3 100.2 244.3 102.7 244.3C105 244.3 106.6 245.3 107.6 247.4C108.6 245.3 110.3 244.3 112.8 244.3C114 244.3 115 244.5 115.8 245C116.6 245.5 117.2 246.1 117.6 246.9C118 247.7 118.1 249 118.1 250.9V262.5Z" fill="#222D54"/>
<path d="M138.4 254.5H127C127 254.8 127 255.1 127 255.3C127 256.6 127.3 257.5 128 258.2C128.7 258.9 129.5 259.2 130.4 259.2C132.1 259.2 133.2 258.3 133.5 256.4L138.2 256.8C136.9 260.9 134.2 263 130.1 263C128.3 263 126.8 262.6 125.6 261.9C124.4 261.2 123.3 260.2 122.5 258.8C121.7 257.4 121.3 255.8 121.3 253.9C121.3 251.1 122.1 248.8 123.7 247.1C125.3 245.4 127.4 244.5 129.9 244.5C132.2 244.5 134.1 245.3 135.8 246.9C137.5 248.5 138.4 250.9 138.4 254.5ZM126.9 251.4H133.2C133 249 132 247.7 130.2 247.7C128.3 247.8 127.2 249 126.9 251.4Z" fill="#222D54"/>
<path d="M146.8 262.5H141.7V244.7H146.5V248C147.2 245.5 148.5 244.3 150.3 244.3C150.6 244.3 150.9 244.3 151.2 244.4V249.6C150.1 249.6 149.3 249.8 148.7 250.1C148.1 250.4 147.6 251 147.2 251.9C146.8 252.8 146.6 253.9 146.6 255.3V262.5H146.8Z" fill="#222D54"/>
<path d="M169.8 255.8C169.6 257.9 168.8 259.6 167.3 260.9C165.8 262.2 164 262.8 161.6 262.8C159.1 262.8 157.1 262 155.5 260.3C153.9 258.6 153.1 256.4 153.1 253.6C153.1 250.8 153.9 248.6 155.5 246.8C157.1 245 159.3 244.2 162 244.2C164.2 244.2 166 244.9 167.4 246.2C168.8 247.5 169.6 249.1 169.8 251.1L164.9 251.4C164.7 249.3 163.8 248.2 162.1 248.2C160 248.2 159 249.9 159 253.3C159 255.6 159.3 257 159.9 257.6C160.5 258.2 161.2 258.5 162 258.5C163.6 258.5 164.6 257.5 164.9 255.4L169.8 255.8Z" fill="#222D54"/>
<path d="M177.9 238V243.2H172.7V238H177.9ZM177.9 244.7V262.5H172.7V244.7H177.9Z" fill="#222D54"/>
<path d="M189.5 244.3C192.2 244.3 194.3 245.2 195.8 247C197.3 248.8 198.1 251 198.1 253.6C198.1 256.2 197.3 258.4 195.7 260.2C194.1 262 192 262.8 189.4 262.8C186.9 262.8 184.8 261.9 183.3 260.2C181.8 258.5 181 256.2 181 253.5C181 251.6 181.3 250 182 248.7C182.7 247.4 183.6 246.3 184.8 245.5C186.2 244.8 187.7 244.3 189.5 244.3ZM189.7 247.8C188.7 247.8 188 248.2 187.5 249C187 249.8 186.7 251.3 186.7 253.6C186.7 255.7 186.9 257.2 187.4 258.1C187.9 259 188.6 259.5 189.6 259.5C190.5 259.5 191.2 259.1 191.8 258.3C192.4 257.5 192.6 256 192.6 253.8C192.6 251.5 192.4 249.9 191.9 249.1C191.4 248.3 190.7 247.8 189.7 247.8Z" fill="#222D54"/>
<path d="M210.4 262.5V238.5H215.6V262.5H210.4Z" fill="#222D54"/>
<path d="M227.3 244.3C230 244.3 232.1 245.2 233.6 247C235.1 248.8 235.9 251 235.9 253.6C235.9 256.2 235.1 258.4 233.5 260.2C231.9 262 229.8 262.8 227.2 262.8C224.7 262.8 222.6 261.9 221.1 260.2C219.6 258.5 218.8 256.2 218.8 253.5C218.8 251.6 219.1 250 219.8 248.7C220.5 247.4 221.4 246.3 222.6 245.5C224 244.8 225.5 244.3 227.3 244.3ZM227.5 247.8C226.5 247.8 225.8 248.2 225.3 249C224.8 249.8 224.5 251.3 224.5 253.6C224.5 255.7 224.7 257.2 225.2 258.1C225.7 259 226.4 259.5 227.4 259.5C228.3 259.5 229 259.1 229.6 258.3C230.2 257.5 230.4 256 230.4 253.8C230.4 251.5 230.2 249.9 229.7 249.1C229.2 248.3 228.5 247.8 227.5 247.8Z" fill="#222D54"/>
<path d="M254.8 255.8C254.6 257.9 253.8 259.6 252.3 260.9C250.8 262.2 249 262.8 246.6 262.8C244.1 262.8 242.1 262 240.5 260.3C238.9 258.6 238.1 256.4 238.1 253.6C238.1 250.8 238.9 248.6 240.5 246.8C242.1 245 244.3 244.2 247 244.2C249.2 244.2 251 244.9 252.4 246.2C253.8 247.5 254.6 249.1 254.8 251.1L249.9 251.4C249.7 249.3 248.8 248.2 247.1 248.2C245 248.2 244 249.9 244 253.3C244 255.6 244.3 257 244.9 257.6C245.5 258.2 246.2 258.5 247 258.5C248.6 258.5 249.6 257.5 249.9 255.4L254.8 255.8Z" fill="#222D54"/>
<path d="M273.1 262.5H268C267.8 261.8 267.8 260.9 267.8 259.7C266.9 261 266 261.8 265.1 262.2C264.2 262.6 263.2 262.8 262.1 262.8C260.4 262.8 259.1 262.3 258.1 261.4C257.1 260.5 256.6 259.3 256.6 257.8C256.6 256.7 256.9 255.7 257.5 254.7C258.1 253.7 259.1 253 260.4 252.5C261.7 252 264.1 251.6 267.6 251.3V250.3C267.6 248.6 266.7 247.7 265 247.7C263.2 247.7 262.1 248.6 261.9 250.3L257.1 249.8C257.4 247.8 258.4 246.4 260 245.5C261.6 244.6 263.4 244.2 265.4 244.2C266.6 244.2 267.7 244.3 268.8 244.6C269.9 244.9 270.7 245.3 271.3 245.9C271.9 246.5 272.3 247.1 272.5 247.7C272.7 248.3 272.8 249.4 272.8 251V259.1C272.8 260.7 272.9 261.8 273.1 262.5ZM267.6 254C263.9 254.4 262.1 255.5 262.1 257.3C262.1 257.9 262.3 258.5 262.7 258.9C263.1 259.3 263.6 259.6 264.3 259.6C265.2 259.6 266 259.2 266.6 258.4C267.2 257.6 267.5 256.7 267.5 255.6V254H267.6Z" fill="#222D54"/>
<path d="M277.2 262.5V238.5H282.4V262.5H277.2Z" fill="#222D54"/>
<path d="M67.0998 304.1V314.1C67.0998 315.7 66.8998 316.9 66.4998 317.7C66.0998 318.5 65.4998 319.1 64.4998 319.6C63.4998 320.1 62.1998 320.4 60.6998 320.4C59.1998 320.4 57.8998 320.2 56.9998 319.7C56.0998 319.2 55.3998 318.6 54.9998 317.8C54.5998 317 54.2998 315.7 54.2998 314.1V304.1H58.3998V314.1C58.3998 315 58.4998 315.6 58.5998 316C58.6998 316.4 58.9998 316.7 59.4998 317C59.9998 317.3 60.4998 317.4 61.0998 317.4C61.7998 317.4 62.3998 317.3 62.7998 317C63.1998 316.7 63.4998 316.5 63.6998 316.1C63.8998 315.7 63.8998 315.1 63.8998 314.2V304.2L67.0998 304.1ZM63.8998 298.6L64.7998 300.6L59.5998 302.8L58.9998 301.5L63.8998 298.6Z" fill="#222D54"/>
<path d="M80.1999 320.1H76.6999V313.5C76.6999 312.7 76.6999 312.1 76.5999 311.8C76.4999 311.5 76.3999 311.3 76.0999 311C75.7999 310.7 75.5999 310.7 75.1999 310.7C73.9999 310.7 73.3999 311.6 73.3999 313.4V320H69.8999V308.2H73.0999V310.2C73.5999 309.2 74.1999 308.6 74.6999 308.4C75.1999 308.2 75.7999 308 76.3999 308C77.4999 308 78.3999 308.3 79.0999 308.9C79.7999 309.5 80.0999 310.7 80.0999 312.5L80.1999 320.1Z" fill="#222D54"/>
<path d="M93.8001 314.7H86.2001C86.2001 314.9 86.2001 315.1 86.2001 315.3C86.2001 316.1 86.4001 316.8 86.9001 317.2C87.4001 317.6 87.9001 317.8 88.5001 317.8C89.7001 317.8 90.4001 317.2 90.6001 315.9L93.8001 316.1C92.9001 318.8 91.1001 320.2 88.4001 320.2C87.2001 320.2 86.2001 320 85.4001 319.5C84.6001 319 83.9001 318.3 83.4001 317.4C82.9001 316.5 82.6001 315.4 82.6001 314.1C82.6001 312.2 83.1001 310.7 84.2001 309.5C85.3001 308.3 86.7001 307.8 88.3001 307.8C89.8001 307.8 91.1001 308.3 92.2001 309.4C93.3001 310.5 93.8001 312.4 93.8001 314.7ZM86.1001 312.7H90.3001C90.2001 311.1 89.5001 310.3 88.3001 310.3C87.0001 310.3 86.3001 311.1 86.1001 312.7Z" fill="#222D54"/>
<path d="M99.9 311V316C99.9 316.6 100 317 100.2 317.3C100.4 317.5 100.8 317.6 101.5 317.6C101.8 317.6 102.2 317.6 102.6 317.6V320.2C101.6 320.4 100.9 320.5 100.4 320.5C98.9 320.5 97.9 320.2 97.3 319.7C96.7 319.2 96.4 318.1 96.4 316.7V311H94.5V308.3H96.6L96.9 304.8L99.9 304.6V308.3H102.4V311H99.9Z" fill="#222D54"/>
<path d="M114.9 314.7H107.3C107.3 314.9 107.3 315.1 107.3 315.3C107.3 316.1 107.5 316.8 108 317.2C108.5 317.6 109 317.8 109.6 317.8C110.8 317.8 111.5 317.2 111.7 315.9L114.9 316.1C114 318.8 112.2 320.2 109.5 320.2C108.3 320.2 107.3 320 106.5 319.5C105.7 319 105 318.3 104.5 317.4C104 316.5 103.7 315.4 103.7 314.1C103.7 312.2 104.2 310.7 105.3 309.5C106.4 308.3 107.8 307.8 109.4 307.8C110.9 307.8 112.2 308.3 113.3 309.4C114.4 310.5 114.9 312.4 114.9 314.7ZM107.3 312.7H111.5C111.4 311.1 110.7 310.3 109.5 310.3C108.2 310.3 107.4 311.1 107.3 312.7Z" fill="#222D54"/>
<path d="M133.4 320.1H130C129.9 319.6 129.8 319 129.8 318.2C129.2 319 128.6 319.6 128 319.9C127.4 320.2 126.7 320.3 126 320.3C124.9 320.3 124 320 123.3 319.4C122.6 318.8 122.3 318 122.3 317C122.3 316.3 122.5 315.6 122.9 314.9C123.3 314.2 123.9 313.8 124.8 313.4C125.7 313 127.3 312.8 129.6 312.6V312C129.6 310.9 129 310.3 127.9 310.3C126.7 310.3 126 310.9 125.9 312L122.7 311.7C122.9 310.4 123.5 309.4 124.6 308.8C125.7 308.2 126.9 308 128.2 308C129 308 129.8 308.1 130.5 308.3C131.2 308.5 131.8 308.8 132.2 309.1C132.6 309.4 132.9 309.9 133 310.3C133.1 310.7 133.2 311.4 133.2 312.5V317.9C133.2 318.9 133.3 319.6 133.4 320.1ZM129.7 314.4C127.3 314.6 126 315.4 126 316.6C126 317 126.1 317.4 126.4 317.7C126.7 318 127 318.2 127.5 318.2C128.1 318.2 128.6 317.9 129 317.4C129.4 316.9 129.6 316.3 129.6 315.5V314.4H129.7Z" fill="#222D54"/>
<path d="M152.4 320.1H148.9V313.5C148.9 312.7 148.9 312.1 148.8 311.8C148.7 311.5 148.6 311.3 148.3 311C148 310.7 147.8 310.7 147.4 310.7C146.2 310.7 145.6 311.6 145.6 313.4V320H142.1V308.2H145.3V310.2C145.8 309.2 146.4 308.6 146.9 308.4C147.4 308.2 148 308 148.6 308C149.7 308 150.6 308.3 151.3 308.9C152 309.5 152.3 310.7 152.3 312.5L152.4 320.1Z" fill="#222D54"/>
<path d="M165.4 308.2V320H162.2V318C161.6 319.5 160.4 320.3 158.7 320.3C157.8 320.3 157.1 320.1 156.6 319.8C156.1 319.5 155.8 319 155.6 318.4C155.4 317.8 155.3 317 155.3 315.9V308.2H158.7V315.9C158.7 317 159.1 317.5 160 317.5C160.4 317.5 160.8 317.4 161.2 317.1C161.6 316.8 161.7 316.6 161.8 316.3C161.9 316 161.9 315.5 161.9 314.8V308.2H165.4Z" fill="#222D54"/>
<path d="M178.9 314.7H171.3C171.3 314.9 171.3 315.1 171.3 315.3C171.3 316.1 171.5 316.8 172 317.2C172.5 317.6 173 317.8 173.6 317.8C174.8 317.8 175.5 317.2 175.7 315.9L178.9 316.1C178 318.8 176.2 320.2 173.5 320.2C172.3 320.2 171.3 320 170.5 319.5C169.7 319 169 318.3 168.5 317.4C168 316.5 167.7 315.4 167.7 314.1C167.7 312.2 168.2 310.7 169.3 309.5C170.4 308.3 171.8 307.8 173.4 307.8C174.9 307.8 176.2 308.3 177.3 309.4C178.4 310.5 178.9 312.4 178.9 314.7ZM171.3 312.7H175.5C175.4 311.1 174.7 310.3 173.5 310.3C172.2 310.3 171.4 311.1 171.3 312.7Z" fill="#222D54"/>
<path d="M190 311.1L187.5 311.8C187.2 310.7 186.4 310.2 185.2 310.2C184 310.2 183.4 310.6 183.4 311.3C183.4 311.6 183.5 311.8 183.7 312C183.9 312.2 184.5 312.3 185.4 312.4C186.8 312.6 187.8 312.8 188.4 313C189 313.2 189.6 313.6 189.9 314.2C190.2 314.8 190.5 315.4 190.5 316.3C190.5 317.5 190 318.5 189.1 319.3C188.2 320.1 186.9 320.4 185.2 320.4C182.2 320.4 180.4 319.2 179.8 316.9L182.7 316.5C182.9 317.6 183.8 318.1 185.3 318.1C185.9 318.1 186.4 318 186.8 317.8C187.2 317.6 187.4 317.3 187.4 317C187.4 316.5 187 316.1 186.1 316C183.7 315.7 182.1 315.2 181.4 314.6C180.7 314 180.3 313.1 180.3 312C180.3 310.9 180.7 309.9 181.6 309.2C182.5 308.5 183.7 308.1 185.3 308.1C186.5 308.1 187.5 308.3 188.3 308.8C189.1 309.3 189.6 310 190 311.1Z" fill="#222D54"/>
<path d="M196.6 311V316C196.6 316.6 196.7 317 196.9 317.3C197.1 317.5 197.5 317.6 198.2 317.6C198.5 317.6 198.9 317.6 199.3 317.6V320.2C198.3 320.4 197.6 320.5 197.1 320.5C195.6 320.5 194.6 320.2 194 319.7C193.4 319.2 193.1 318.1 193.1 316.7V311H191.2V308.3H193.3L193.6 304.8L196.6 304.6V308.3H199.1V311H196.6Z" fill="#222D54"/>
<path d="M204.5 320.1H201.1V308.3H204.3V310.5C204.8 308.9 205.6 308 206.9 308C207.1 308 207.3 308 207.5 308V311.4C206.8 311.4 206.2 311.5 205.8 311.7C205.4 311.9 205.1 312.3 204.8 312.9C204.5 313.5 204.4 314.2 204.4 315.2L204.5 320.1Z" fill="#222D54"/>
<path d="M219.7 320.1H216.3C216.2 319.6 216.1 319 216.1 318.2C215.5 319 214.9 319.6 214.3 319.9C213.7 320.2 213 320.3 212.3 320.3C211.2 320.3 210.3 320 209.6 319.4C208.9 318.8 208.6 318 208.6 317C208.6 316.3 208.8 315.6 209.2 314.9C209.6 314.2 210.2 313.8 211.1 313.4C212 313 213.6 312.8 215.9 312.6V312C215.9 310.9 215.3 310.3 214.2 310.3C213 310.3 212.3 310.9 212.2 312L209 311.7C209.2 310.4 209.8 309.4 210.9 308.8C212 308.2 213.2 308 214.5 308C215.3 308 216.1 308.1 216.8 308.3C217.5 308.5 218.1 308.8 218.5 309.1C218.9 309.4 219.2 309.9 219.3 310.3C219.4 310.7 219.5 311.4 219.5 312.5V317.9C219.5 318.9 219.6 319.6 219.7 320.1ZM216 314.4C213.6 314.6 212.3 315.4 212.3 316.6C212.3 317 212.4 317.4 212.7 317.7C213 318 213.3 318.2 213.8 318.2C214.4 318.2 214.9 317.9 215.3 317.4C215.7 316.9 215.9 316.3 215.9 315.5V314.4H216Z" fill="#222D54"/>
<path d="M228.4 324.1V308.3H231.6V310C232.2 308.7 233.2 308 234.7 308C236 308 237 308.5 237.8 309.5C238.6 310.5 239 312 239 314C239 316.1 238.6 317.7 237.8 318.7C237 319.7 235.9 320.3 234.6 320.3C233.3 320.3 232.3 319.8 231.7 318.7V324L228.4 324.1ZM231.8 314.9C231.8 315.7 231.9 316.3 232 316.6C232.1 316.9 232.3 317.2 232.6 317.5C232.9 317.8 233.3 317.9 233.7 317.9C234.2 317.9 234.6 317.7 235 317.2C235.4 316.7 235.6 315.6 235.6 314C235.6 311.7 235 310.5 233.7 310.5C233.2 310.5 232.8 310.7 232.4 311.1C232 311.5 231.8 312.2 231.8 313.2V314.9Z" fill="#222D54"/>
<path d="M241.4 320.1V304.1H244.9V320.1H241.4Z" fill="#222D54"/>
<path d="M258.1 320.1H254.7C254.6 319.6 254.5 319 254.5 318.2C253.9 319 253.3 319.6 252.7 319.9C252.1 320.2 251.4 320.3 250.7 320.3C249.6 320.3 248.7 320 248 319.4C247.3 318.8 247 318 247 317C247 316.3 247.2 315.6 247.6 314.9C248 314.2 248.6 313.8 249.5 313.4C250.4 313 252 312.8 254.3 312.6V312C254.3 310.9 253.7 310.3 252.6 310.3C251.4 310.3 250.7 310.9 250.6 312L247.4 311.7C247.6 310.4 248.2 309.4 249.3 308.8C250.4 308.2 251.6 308 252.9 308C253.7 308 254.5 308.1 255.2 308.3C255.9 308.5 256.5 308.8 256.9 309.1C257.3 309.4 257.6 309.9 257.7 310.3C257.8 310.7 257.9 311.4 257.9 312.5V317.9C257.8 318.9 257.9 319.6 258.1 320.1ZM254.4 314.4C252 314.6 250.7 315.4 250.7 316.6C250.7 317 250.8 317.4 251.1 317.7C251.4 318 251.7 318.2 252.2 318.2C252.8 318.2 253.3 317.9 253.7 317.4C254.1 316.9 254.3 316.3 254.3 315.5V314.4H254.4Z" fill="#222D54"/>
<path d="M264.7 311V316C264.7 316.6 264.8 317 265 317.3C265.2 317.5 265.6 317.6 266.3 317.6C266.6 317.6 267 317.6 267.4 317.6V320.2C266.4 320.4 265.7 320.5 265.2 320.5C263.7 320.5 262.7 320.2 262.1 319.7C261.5 319.2 261.2 318.1 261.2 316.7V311H259.3V308.3H261.4L261.7 304.8L264.7 304.6V308.3H267.2V311H264.7Z" fill="#222D54"/>
<path d="M279.7 320.1H276.3C276.2 319.6 276.1 319 276.1 318.2C275.5 319 274.9 319.6 274.3 319.9C273.7 320.2 273 320.3 272.3 320.3C271.2 320.3 270.3 320 269.6 319.4C268.9 318.8 268.6 318 268.6 317C268.6 316.3 268.8 315.6 269.2 314.9C269.6 314.2 270.2 313.8 271.1 313.4C272 313 273.6 312.8 275.9 312.6V312C275.9 310.9 275.3 310.3 274.2 310.3C273 310.3 272.3 310.9 272.2 312L269 311.7C269.2 310.4 269.8 309.4 270.9 308.8C272 308.2 273.2 308 274.5 308C275.3 308 276.1 308.1 276.8 308.3C277.5 308.5 278.1 308.8 278.5 309.1C278.9 309.4 279.2 309.9 279.3 310.3C279.4 310.7 279.5 311.4 279.5 312.5V317.9C279.5 318.9 279.6 319.6 279.7 320.1ZM276 314.4C273.6 314.6 272.3 315.4 272.3 316.6C272.3 317 272.4 317.4 272.7 317.7C273 318 273.3 318.2 273.8 318.2C274.4 318.2 274.9 317.9 275.3 317.4C275.7 316.9 275.9 316.3 275.9 315.5V314.4H276Z" fill="#222D54"/>
<path d="M286 311V320.1H282.6V311H281.2V308.3H282.6C282.6 307.1 282.7 306.2 282.9 305.6C283.1 305 283.5 304.5 284.1 304.1C284.7 303.7 285.7 303.4 286.8 303.4C287.3 303.4 287.8 303.4 288.4 303.5V306.2C287.9 306.2 287.5 306.1 287.2 306.1C286.7 306.1 286.4 306.2 286.3 306.5C286.2 306.8 286.1 307.2 286.1 307.7V308.1H288.2V310.8H286V311Z" fill="#222D54"/>
<path d="M294.8 308C296.6 308 298 308.6 299 309.8C300 311 300.5 312.5 300.5 314.2C300.5 316 300 317.4 298.9 318.6C297.9 319.8 296.5 320.4 294.7 320.4C293 320.4 291.7 319.8 290.7 318.7C289.7 317.6 289.2 316.1 289.2 314.2C289.2 312.9 289.4 311.9 289.9 311C290.4 310.1 291 309.4 291.8 308.9C292.6 308.3 293.6 308 294.8 308ZM294.9 310.3C294.2 310.3 293.7 310.6 293.4 311.1C293.1 311.6 292.9 312.6 292.9 314.2C292.9 315.6 293.1 316.6 293.4 317.2C293.7 317.8 294.2 318.1 294.9 318.1C295.5 318.1 296 317.8 296.3 317.3C296.6 316.8 296.8 315.8 296.8 314.3C296.8 312.7 296.6 311.7 296.3 311.1C296 310.5 295.5 310.3 294.9 310.3Z" fill="#222D54"/>
<path d="M306.1 320.1H302.7V308.3H305.9V310.5C306.4 308.9 307.2 308 308.5 308C308.7 308 308.9 308 309.1 308V311.4C308.4 311.4 307.8 311.5 307.4 311.7C307 311.9 306.7 312.3 306.4 312.9C306.1 313.5 306 314.2 306 315.2V320.1H306.1Z" fill="#222D54"/>
<path d="M328 320.1H324.5V313.5C324.5 312.6 324.5 312 324.4 311.7C324.3 311.4 324.2 311.2 324 311C323.8 310.8 323.5 310.7 323 310.7C322.6 310.7 322.2 310.8 321.8 311.1C321.4 311.4 321.2 312.2 321.2 313.5V320.1H317.7V313.5C317.7 312.6 317.7 311.9 317.6 311.7C317.5 311.5 317.4 311.2 317.1 311C316.8 310.8 316.6 310.7 316.2 310.7C315.6 310.7 315.2 310.9 314.9 311.3C314.6 311.7 314.5 312.4 314.5 313.5V320.1H311.1V308.3H314.4V310.1C315 308.7 316.1 308 317.7 308C319.2 308 320.3 308.7 321 310.1C321.7 308.7 322.8 308 324.4 308C325.2 308 325.9 308.2 326.4 308.5C326.9 308.8 327.4 309.2 327.6 309.8C327.8 310.4 328 311.2 328 312.5V320.1Z" fill="#222D54"/>
<path d="M341.2 320.1H337.8C337.7 319.6 337.6 319 337.6 318.2C337 319 336.4 319.6 335.8 319.9C335.2 320.2 334.5 320.3 333.8 320.3C332.7 320.3 331.8 320 331.1 319.4C330.4 318.8 330.1 318 330.1 317C330.1 316.3 330.3 315.6 330.7 314.9C331.1 314.2 331.7 313.8 332.6 313.4C333.5 313 335.1 312.8 337.4 312.6V312C337.4 310.9 336.8 310.3 335.7 310.3C334.5 310.3 333.8 310.9 333.7 312L330.5 311.7C330.7 310.4 331.3 309.4 332.4 308.8C333.5 308.2 334.7 308 336 308C336.8 308 337.6 308.1 338.3 308.3C339 308.5 339.6 308.8 340 309.1C340.4 309.4 340.7 309.9 340.8 310.3C340.9 310.7 341 311.4 341 312.5V317.9C341 318.9 341 319.6 341.2 320.1ZM337.5 314.4C335.1 314.6 333.8 315.4 333.8 316.6C333.8 317 333.9 317.4 334.2 317.7C334.5 318 334.8 318.2 335.3 318.2C335.9 318.2 336.4 317.9 336.8 317.4C337.2 316.9 337.4 316.3 337.4 315.5V314.4H337.5Z" fill="#222D54"/>
<path d="M227.6 389H134.4C127.8 389 122.4 383.6 122.4 377V374.4C122.4 367.8 127.8 362.4 134.4 362.4H227.6C234.2 362.4 239.6 367.8 239.6 374.4V377C239.6 383.6 234.2 389 227.6 389Z" fill="#222D54"/>
<path d="M150.992 372.141C150.923 371.557 150.642 371.103 150.15 370.781C149.659 370.458 149.056 370.297 148.341 370.297C147.818 370.297 147.361 370.381 146.969 370.55C146.581 370.719 146.278 370.952 146.059 371.247C145.844 371.543 145.736 371.879 145.736 372.256C145.736 372.571 145.811 372.842 145.961 373.068C146.115 373.291 146.311 373.478 146.549 373.627C146.787 373.773 147.037 373.894 147.298 373.99C147.559 374.083 147.799 374.158 148.018 374.215L149.217 374.538C149.524 374.619 149.866 374.73 150.243 374.872C150.623 375.014 150.986 375.208 151.332 375.454C151.681 375.696 151.97 376.007 152.196 376.388C152.423 376.768 152.536 377.235 152.536 377.788C152.536 378.426 152.369 379.002 152.035 379.517C151.704 380.032 151.22 380.441 150.583 380.744C149.949 381.048 149.178 381.2 148.272 381.2C147.427 381.2 146.695 381.063 146.076 380.79C145.462 380.518 144.977 380.137 144.624 379.649C144.274 379.162 144.077 378.595 144.03 377.949H145.506C145.544 378.395 145.694 378.764 145.955 379.056C146.22 379.344 146.555 379.559 146.958 379.701C147.365 379.84 147.803 379.909 148.272 379.909C148.817 379.909 149.307 379.82 149.741 379.644C150.175 379.463 150.519 379.213 150.773 378.895C151.026 378.572 151.153 378.195 151.153 377.765C151.153 377.373 151.044 377.054 150.825 376.808C150.606 376.563 150.318 376.363 149.96 376.209C149.603 376.055 149.217 375.921 148.802 375.806L147.35 375.391C146.428 375.126 145.698 374.747 145.16 374.256C144.622 373.764 144.353 373.12 144.353 372.325C144.353 371.664 144.532 371.088 144.889 370.596C145.25 370.101 145.734 369.716 146.341 369.444C146.952 369.167 147.634 369.029 148.387 369.029C149.148 369.029 149.824 369.165 150.416 369.438C151.007 369.707 151.476 370.076 151.822 370.544C152.171 371.013 152.356 371.545 152.375 372.141H150.992ZM156.315 369.19V380.992H154.886V369.19H156.315ZM167.248 372.878C167.122 372.49 166.955 372.143 166.747 371.835C166.543 371.524 166.299 371.259 166.015 371.04C165.735 370.821 165.416 370.654 165.059 370.539C164.701 370.423 164.309 370.366 163.883 370.366C163.184 370.366 162.548 370.546 161.976 370.907C161.403 371.269 160.948 371.801 160.61 372.504C160.272 373.207 160.103 374.069 160.103 375.091C160.103 376.113 160.274 376.976 160.616 377.679C160.957 378.382 161.42 378.914 162.004 379.275C162.588 379.636 163.245 379.817 163.975 379.817C164.651 379.817 165.247 379.673 165.762 379.384C166.28 379.092 166.684 378.681 166.972 378.151C167.264 377.617 167.41 376.989 167.41 376.267L167.848 376.359H164.298V375.091H168.793V376.359C168.793 377.331 168.585 378.176 168.17 378.895C167.759 379.613 167.191 380.17 166.465 380.566C165.742 380.958 164.913 381.154 163.975 381.154C162.93 381.154 162.012 380.908 161.221 380.416C160.433 379.924 159.818 379.225 159.377 378.318C158.939 377.412 158.72 376.336 158.72 375.091C158.72 374.158 158.844 373.318 159.094 372.573C159.348 371.824 159.705 371.186 160.166 370.66C160.627 370.133 161.173 369.73 161.803 369.449C162.433 369.169 163.126 369.029 163.883 369.029C164.505 369.029 165.085 369.123 165.623 369.311C166.165 369.496 166.647 369.759 167.07 370.101C167.496 370.439 167.852 370.844 168.136 371.317C168.42 371.785 168.616 372.306 168.724 372.878H167.248ZM180.599 369.19V380.992H179.216L172.785 371.726H172.67V380.992H171.241V369.19H172.624L179.078 378.48H179.193V369.19H180.599ZM200.332 369.19H201.761V377.004C201.761 377.811 201.571 378.532 201.191 379.165C200.814 379.795 200.282 380.293 199.595 380.658C198.907 381.019 198.1 381.2 197.174 381.2C196.248 381.2 195.442 381.019 194.754 380.658C194.066 380.293 193.532 379.795 193.152 379.165C192.775 378.532 192.587 377.811 192.587 377.004V369.19H194.016V376.889C194.016 377.465 194.143 377.978 194.397 378.428C194.65 378.873 195.011 379.225 195.48 379.482C195.952 379.736 196.517 379.863 197.174 379.863C197.831 379.863 198.396 379.736 198.868 379.482C199.341 379.225 199.702 378.873 199.952 378.428C200.205 377.978 200.332 377.465 200.332 376.889V369.19ZM204.615 380.992V369.19H208.603C209.529 369.19 210.286 369.357 210.874 369.692C211.465 370.022 211.903 370.469 212.187 371.034C212.472 371.599 212.614 372.229 212.614 372.924C212.614 373.62 212.472 374.252 212.187 374.82C211.907 375.389 211.473 375.842 210.885 376.18C210.297 376.515 209.544 376.682 208.626 376.682H205.768V375.414H208.58C209.214 375.414 209.723 375.304 210.107 375.085C210.491 374.866 210.77 374.571 210.943 374.198C211.119 373.821 211.208 373.397 211.208 372.924C211.208 372.452 211.119 372.029 210.943 371.657C210.77 371.284 210.489 370.992 210.101 370.781C209.713 370.566 209.199 370.458 208.557 370.458H206.044V380.992H204.615Z" fill="white"/>
</svg>
