<?xml version="1.0" encoding="utf-8"?>
<!-- Generator: Adobe Illustrator 26.5.0, SVG Export Plug-In . SVG Version: 6.00 Build 0)  -->
<svg version="1.1" xmlns="http://www.w3.org/2000/svg" xmlns:xlink="http://www.w3.org/1999/xlink" x="0px" y="0px"
	 viewBox="0 0 1186.5 395" style="enable-background:new 0 0 1186.5 395;" xml:space="preserve">
<style type="text/css">
	.st0{clip-path:url(#SVGID_00000008137121274065604770000009673151175913624215_);fill:#E5E5E7;}
	.st1{clip-path:url(#SVGID_00000008137121274065604770000009673151175913624215_);}
	.st2{fill:#CACACC;}
	.st3{clip-path:url(#SVGID_00000008137121274065604770000009673151175913624215_);fill:#FFFFFF;}
	.st4{clip-path:url(#SVGID_00000008137121274065604770000009673151175913624215_);fill:#C8E67F;}
	.st5{fill:#FFD25C;}
	.st6{clip-path:url(#SVGID_00000008137121274065604770000009673151175913624215_);fill:#84BFFF;}
	.st7{fill:#E1565E;}
	.st8{fill:#FFFFFF;}
	.st9{fill:#55D160;}
	.st10{fill:#E09633;}
	.st11{fill:#61A3D4;}
	.st12{fill:#876CFF;}
	.st13{fill:#A7E156;}
	.st14{font-family:'Roboto-Bold';}
	.st15{font-size:11.0106px;}
	.st16{fill:#007E92;}
	.st17{fill:#E156D8;}
	.st18{fill:#38B4E1;}
	.st19{fill:#E19499;}
	.st20{fill:#56DAE1;}
	.st21{fill:#FFA64D;}
	.st22{font-size:6.1021px;}
	.st23{clip-path:url(#SVGID_00000039125756565755531970000007243709983323582619_);fill:#E5E5E7;}
	.st24{clip-path:url(#SVGID_00000039125756565755531970000007243709983323582619_);}
	.st25{clip-path:url(#SVGID_00000039125756565755531970000007243709983323582619_);fill:#FFFFFF;}
	.st26{clip-path:url(#SVGID_00000039125756565755531970000007243709983323582619_);fill:#C8E67F;}
	.st27{clip-path:url(#SVGID_00000039125756565755531970000007243709983323582619_);fill:#84BFFF;}
	.st28{clip-path:url(#SVGID_00000145744708728686584780000013498451362948192155_);fill:#E5E5E7;}
	.st29{clip-path:url(#SVGID_00000145744708728686584780000013498451362948192155_);}
	.st30{clip-path:url(#SVGID_00000145744708728686584780000013498451362948192155_);fill:#FFFFFF;}
	.st31{clip-path:url(#SVGID_00000145744708728686584780000013498451362948192155_);fill:#C8E67F;}
	.st32{clip-path:url(#SVGID_00000145744708728686584780000013498451362948192155_);fill:#84BFFF;}
</style>
<g id="Background">
</g>
<g id="Layer_4">
</g>
<g id="Object">
	<g>
		<defs>
			<rect id="SVGID_1_" x="791.5" width="395" height="395"/>
		</defs>
		<clipPath id="SVGID_00000182501081135256960450000015127365441785333383_">
			<use xlink:href="#SVGID_1_"  style="overflow:visible;"/>
		</clipPath>
		
			<rect x="791.5" style="clip-path:url(#SVGID_00000182501081135256960450000015127365441785333383_);fill:#E5E5E7;" width="395" height="395"/>
		<g style="clip-path:url(#SVGID_00000182501081135256960450000015127365441785333383_);">
			<polygon class="st2" points="1172.7,0 1134.8,0 1128.9,20.9 1163.9,29.9 			"/>
			<polygon class="st2" points="1180.9,0 1171.5,31.9 1186.5,35.7 1186.5,0 			"/>
			<polygon class="st2" points="1151.5,99.7 1186.5,111.4 1186.5,60.5 1164.7,54.9 			"/>
			<polygon class="st2" points="1157.1,53 1122.3,44 1109.4,89.4 1143.9,97.6 			"/>
			<polygon class="st2" points="1072.2,368.9 1064.6,395 1126.6,395 1108.5,380.8 			"/>
			<path class="st2" d="M968.4,395h50.3l-47.4-15.9C970.3,384.8,969.3,390.1,968.4,395z"/>
			<polygon class="st2" points="1151.1,261.6 1186.5,271 1186.5,216.7 1160.4,209.6 			"/>
			<polygon class="st2" points="1122.2,199.2 1107.3,249.9 1144.9,259.9 1154.3,207.9 			"/>
			<path class="st2" d="M883.3,395h77.1c1-5.5,2.1-11.7,3.3-18.4l-57.6-19.3L883.3,395z"/>
			<polygon class="st2" points="811.2,293.5 791.5,329.1 791.5,392.1 831.9,331.3 			"/>
			<polygon class="st2" points="837.5,334.3 797.1,395 875.9,395 900,355.3 			"/>
			<path class="st2" d="M791.5,46.6l25.3,18.1l23.8,8.5l5.7-14.3c0.4-5.6,0.9-10.9,1.2-15.8l-56.1-5.6V46.6z"/>
			<path class="st2" d="M851,0h-59.5v31.1l56.6,5.6C849.3,21.1,850.3,9.2,851,0z"/>
			<polygon class="st2" points="791.5,165.2 839.1,178 851.3,146.3 791.5,132.8 			"/>
			<polygon class="st2" points="865.7,109.1 834.4,100.5 791.5,89.1 791.5,126.3 853.6,140.3 			"/>
			<path class="st2" d="M854.4,56.8l28.1,7.5l7.5-30.9l-33.5-3.3C855.8,39.3,855,48.5,854.4,56.8z"/>
			<path class="st2" d="M898.2,0h-39.2c-0.6,7.3-1.3,15.4-1.9,23.8l34.5,3.4L898.2,0z"/>
			<polygon class="st2" points="827.6,216.2 791.5,206.5 791.5,252.8 815.1,258.3 			"/>
			<polygon class="st2" points="791.5,312.8 807.6,283.7 813.3,264.4 791.5,259.3 			"/>
			<polygon class="st2" points="812.6,71.4 791.5,56.3 791.5,81 833.1,91.9 837.6,80.6 813.1,71.7 			"/>
		</g>
		<path style="clip-path:url(#SVGID_00000182501081135256960450000015127365441785333383_);fill:#FFFFFF;" d="M1284.2,243.2l2.1-7.6
			l-79.7-21.6l44.3-139.8c11.8-17.5,29.5-43.7,30.6-45.2l-6.3-4.7c-1.6,2.1-28.2,41.5-31.2,46l-0.3,0.5l-17.1,54l-75.1-25
			l38.7-131.5l-7.6-2.2l-38.8,131.6l-34.5-8.2l32.2-113.4l-7.6-2.2l-32.3,114l-85.8-13.2L996.5-33.6l-7.8,1.4l19.8,110.6l-1.5,19
			L890.1,66.3L914.1-32l-7.7-1.9l-23.9,98.1l-28.1-7.5c2.7-33.9,6.5-82.3,7-85.2c0,0.2-0.1,0.4-0.1,0.4l-7.5-2.5
			c-0.2,0.6-0.7,2-7.5,89.4l-5.7,14.3l-23.8-8.5l-126-90.3l-4.6,6.4l126.4,90.6l0.4,0.3l24.6,8.8l-4.6,11.4l-65.8-17.4l-79.8-50
			l-4.2,6.7l80.8,50.6l70.3,18.6l31.3,8.6L839.1,178l-47.8-12.9l-93.8-60.2l-4.3,6.6l92.1,59.1l-6,32.6l48.3,12.9l-20,67.6
			l-76.7,138.6l6.9,3.8l73.4-132.7l21.5,39.3l131,43.9c-4.9,26.8-8.3,45.7-8.5,46.8l3.9,0.8l3.9,0.8c0.2-1,3.7-20,8.4-46l81.6,27.3
			l-6.4,21.7l7.6,2.2l6.3-21.4l56.7,19l2.5-7.5l-57-19.1l9.6-32.5l36.3,11.9l48.4,38.1l4.9-6.2l-49.5-39l-37.8-12.4l30.6-103.9
			l169.7,45.3l2-7.6l-169.5-45.2l14.9-50.7L1284.2,243.2z M1224.2,132.3l-25.2,79.6l-74.5-20.2l24.8-84.3L1224.2,132.3z
			 M1141.7,105.2l-24.9,84.4l-33.3-9l23.7-83.5L1141.7,105.2z M1076,178.5l-65.9-17.9l6-77.8l83.4,12.8L1076,178.5z M987.9,333.1
			l-7.8-2.3c7.8-43.1,15.9-87.7,18.4-101.7l58.7,15.6l-28.8,101.6L987.9,333.1z M999.9,221.2l7.8-45l1.4-7.8l64.7,17.6l-14.5,51
			L999.9,221.2z M1003.8,139l-127.7-35.2l11.6-29.9l118.7,31.5L1003.8,139z M840.8,94l11.8-29.5l27.5,7.3l-11.5,29.9L840.8,94z
			 M873.3,111.2l129.9,35.9l-1.2,16l-9.8,56.1l-145.5-39.1L873.3,111.2z M921.5,208.3l-6.1,23.1l-77.9-20.8l6.8-23L921.5,208.3z
			 M788.4,197.5l4.4-23.8l43.9,11.8l-6.8,23L788.4,197.5z M920.9,241.1l8.1-30.7l61.8,16.6c-5.1,28.4-12,66.5-18.4,101.5
			l-156.3-45.9l19-64.4L920.9,241.1z M838.2,326.2l-18.9-34.5L971,336.4c-2.1,11.4-4,22.3-5.9,32.4L838.2,326.2z M1055.2,398.9
			l-82.4-27.6c1.9-10.3,3.9-21.4,5.9-32.7l6.9,2l79.2,25.9L1055.2,398.9z M1067,358.9l-31.1-10.2l28.9-102l32.6,8.7L1067,358.9z
			 M1099.7,247.9l-32.7-8.7l14.5-51l33.2,9L1099.7,247.9z"/>
		<path style="clip-path:url(#SVGID_00000182501081135256960450000015127365441785333383_);fill:#C8E67F;" d="M994.5,162.6l-6.4,37
			c-1,5.5-6.4,9-11.8,7.5l-109.3-29.4c-5.4-1.5-8.4-7.3-6.4-12.6l14.2-36.9c1.8-4.5,6.7-7,11.4-5.7l101.6,28
			c4.4,1.2,7.3,5.3,6.9,9.9l-0.1,1.2C994.5,162,994.5,162.3,994.5,162.6z"/>
		<path style="clip-path:url(#SVGID_00000182501081135256960450000015127365441785333383_);fill:#C8E67F;" d="M1212.4,144.8
			l-16,50.4c-1.3,4.2-5.8,6.6-10.1,5.5l-44.4-12c-4.5-1.2-7.1-5.9-5.8-10.3l15.7-53.2c1.3-4.5,6.1-7,10.5-5.5l44.7,14.9
			C1211.4,135.9,1213.8,140.5,1212.4,144.8z"/>
		<g style="clip-path:url(#SVGID_00000182501081135256960450000015127365441785333383_);">
			
				<rect x="1073.8" y="-185.8" transform="matrix(0.2495 -0.9684 0.9684 0.2495 781.3226 1065.0081)" class="st5" width="7.9" height="428.6"/>
		</g>
		<g style="clip-path:url(#SVGID_00000182501081135256960450000015127365441785333383_);">
			
				<rect x="1089.3" y="-198.5" transform="matrix(0.2495 -0.9684 0.9684 0.2495 805.2226 1070.558)" class="st5" width="7.9" height="428.6"/>
		</g>
		<g style="clip-path:url(#SVGID_00000182501081135256960450000015127365441785333383_);">
			<polygon class="st2" points="1099.4,124.8 1091,154.4 1124.6,163.4 1133.3,133.8 			"/>
			<polygon class="st2" points="1141.7,105.2 1107.3,97 1100.3,121.8 1134.2,130.8 			"/>
			<polygon class="st2" points="1083.6,180.5 1116.8,189.6 1123.7,166.4 1090.1,157.4 			"/>
			<polygon class="st2" points="1074.2,114.8 1080,92.6 1049.4,87.9 1044.4,106.9 			"/>
			<polygon class="st2" points="1012,136.5 1010.1,160.6 1026.1,164.9 1032.1,141.9 			"/>
			<polygon class="st2" points="1046.2,87.4 1016.1,82.8 1014.8,99 1041.4,106.1 			"/>
			<polygon class="st2" points="1040.6,109.1 1014.6,102.2 1012.2,133.3 1032.9,138.8 			"/>
			<polygon class="st2" points="1035.1,142.7 1029.1,165.8 1058.9,173.8 1064.9,150.7 			"/>
			<polygon class="st2" points="1076.4,118.7 1068.7,148.4 1083.4,152.4 1091.8,122.8 			"/>
			<polygon class="st2" points="1092.6,119.7 1099.5,95.6 1083.1,93 1077.2,115.6 			"/>
			<polygon class="st2" points="1061.9,174.7 1076,178.5 1082.5,155.4 1067.9,151.5 			"/>
			<polygon class="st2" points="1035.9,139.7 1065.7,147.6 1073.4,117.9 1043.6,110 			"/>
			<path class="st2" d="M1057.2,244.7L998.5,229c-0.8,4.4-2.1,11.8-3.8,21.2l54.8,21.5L1057.2,244.7z"/>
			<path class="st2" d="M980.1,330.8l7.8,2.3l40.4,13.2l9.7-34.1l-51.7-15.7C984.3,307.6,982.2,319.3,980.1,330.8z"/>
			<path class="st2" d="M1048.6,274.8l-54.5-21.4c-2,11.3-4.5,25.1-7.2,40l52,15.8L1048.6,274.8z"/>
			<polygon class="st2" points="1007.7,176.3 999.9,221.2 1059.3,237.1 1073.8,186.1 1009.1,168.5 			"/>
			<polygon class="st2" points="1003.8,139 1006.4,105.4 985.2,99.8 973.2,130.6 			"/>
			<polygon class="st2" points="936.7,120.5 948.6,90 918,81.9 906.3,112.1 			"/>
			<polygon class="st2" points="876.2,103.8 903.2,111.3 915,81.1 887.7,73.9 			"/>
			<polygon class="st2" points="970.2,129.7 982.2,99 951.6,90.8 939.7,121.3 			"/>
			<polygon class="st2" points="880.1,71.8 852.6,64.5 840.8,94 868.5,101.7 			"/>
			<polygon class="st2" points="915.3,231.4 921.5,208.3 875.2,195.9 869.8,219.3 			"/>
			<polygon class="st2" points="844.2,187.6 837.4,210.6 866.8,218.4 872.2,195.1 			"/>
			<polygon class="st2" points="836.6,185.5 792.7,173.7 788.4,197.5 829.8,208.6 			"/>
			<polygon class="st2" points="865,226.1 835.2,218.2 827.3,244.9 858.4,254.4 			"/>
			<polygon class="st2" points="899.7,270.3 891.7,304.8 926,314.9 933.9,280.6 			"/>
			<polygon class="st2" points="860.7,258.4 852.6,293.3 888.7,303.9 896.7,269.3 			"/>
			<polygon class="st2" points="897.4,266.2 904.3,236.6 868,227 861.4,255.3 			"/>
			<polygon class="st2" points="826.4,248 816.1,282.6 849.6,292.4 857.7,257.5 			"/>
			<polygon class="st2" points="934.6,277.5 949,215.7 929.1,210.4 920.9,241.1 907.3,237.4 900.5,267.2 			"/>
			<path class="st2" d="M979.2,291.1c4.2-23.1,8.3-45.6,11.6-64.1L952,216.6l-14.4,61.9L979.2,291.1z"/>
			<path class="st2" d="M929,315.8l43.4,12.8c2-11.3,4.1-22.8,6.2-34.3L937,281.6L929,315.8z"/>
			<polygon class="st2" points="819.3,291.8 838.2,326.2 849.3,329.9 857.2,302.9 			"/>
			<polygon class="st2" points="860.3,303.8 852.3,330.9 909.5,350.1 916.7,320.4 			"/>
			<path class="st2" d="M912.5,351.1l52.7,17.7c1.8-10.1,3.8-21,5.9-32.4l-51.3-15.1L912.5,351.1z"/>
			<path class="st2" d="M985.5,340.6l-6.9-2c-2.1,11.3-4.1,22.4-5.9,32.7l39.7,13.3l12-31.2L985.5,340.6z"/>
			<polygon class="st2" points="1015.4,385.6 1055.2,398.9 1064.7,366.5 1027.5,354.3 			"/>
			<polygon class="st2" points="1097.4,255.4 1064.8,246.7 1056.9,274.6 1088.2,286.9 			"/>
			<polygon class="st2" points="1046.4,311.5 1078.1,321.1 1087.3,289.9 1056,277.7 			"/>
			<polygon class="st2" points="1035.9,348.8 1067,358.9 1077.2,324.1 1045.6,314.5 			"/>
			<polygon class="st2" points="1114.6,197.2 1081.4,188.1 1067,239.1 1099.7,247.9 			"/>
			<line class="st2" x1="925" y1="59.8" x2="925" y2="59.8"/>
			<line class="st2" x1="927.1" y1="149.4" x2="927.1" y2="149.4"/>
			<line class="st2" x1="1085" y1="79.7" x2="1085" y2="79.7"/>
			<line class="st2" x1="1026.6" y1="169.1" x2="1026.6" y2="169.1"/>
			<line class="st2" x1="952.5" y1="207.4" x2="952.5" y2="207.4"/>
			<line class="st2" x1="817.8" y1="243.7" x2="817.8" y2="243.7"/>
			<line class="st2" x1="1124.5" y1="302.8" x2="1124.5" y2="302.8"/>
			<line class="st2" x1="859.9" y1="299.4" x2="859.9" y2="299.4"/>
			<line class="st2" x1="846.7" y1="344.2" x2="846.7" y2="344.2"/>
			<line class="st2" x1="919.2" y1="316.8" x2="919.2" y2="316.8"/>
			<line class="st2" x1="907.1" y1="366.3" x2="907.1" y2="366.3"/>
			<line class="st2" x1="1026.9" y1="351.6" x2="1026.9" y2="351.6"/>
		</g>
		<path style="clip-path:url(#SVGID_00000182501081135256960450000015127365441785333383_);fill:#84BFFF;" d="M908.3,62.8l72.8,19.4
			c6.6,1.8,13.2-2.9,13.8-9.8l0,0c0.1-0.9,0-1.9-0.1-2.8l-9.9-55.2c-0.4-2-2.1-3.5-4.2-3.5H920c-2,0-3.6,1.3-4.1,3.2l-10.6,43.6
			C904.7,60,906.1,62.2,908.3,62.8z"/>
		<path style="clip-path:url(#SVGID_00000182501081135256960450000015127365441785333383_);fill:#C8E67F;" d="M1098.8,293.2
			l-10.6,35.9c-4.8,16.5,4.3,33.8,20.6,39.1l0,0c3.5,1.2,6.8,2.9,9.8,5.2l11.7,9.2c5.6,4.4,12.5,6.8,19.6,6.8h0.5
			c17.5,0,31.7-14.2,31.7-31.7v-50c0-14.4-9.7-26.9-23.5-30.6l-21.1-5.6C1120.8,267.1,1103.7,276.7,1098.8,293.2z"/>
		<g style="clip-path:url(#SVGID_00000182501081135256960450000015127365441785333383_);">
			<path class="st7" d="M925.6,113.3l-6.6-11.4c-3.5-6,0.9-13.6,7.8-13.6h0c7,0,11.3,7.5,7.8,13.6l-6.6,11.4
				C927.5,114.3,926.1,114.3,925.6,113.3z"/>
			<path class="st8" d="M930.9,95.1h-0.2v-0.2h-7.9v1.8c0,1.6,1,3,2.4,3.6h-2.4c0,0.4,0.3,0.7,0.7,0.7h6.5c0.4,0,0.7-0.3,0.7-0.7
				h-2.4c0.9-0.4,1.7-1.1,2-2.1h0.5c0.8,0,1.5-0.7,1.5-1.5C932.5,95.8,931.8,95.1,930.9,95.1z M930.9,97.7h-0.3
				c0.1-0.3,0.1-0.6,0.1-1v-1h0.2c0.6,0,1,0.4,1,1C931.9,97.2,931.5,97.7,930.9,97.7z"/>
		</g>
		<g style="clip-path:url(#SVGID_00000182501081135256960450000015127365441785333383_);">
			<path class="st7" d="M835.4,62.5L828.8,51c-3.5-6,0.9-13.6,7.8-13.6l0,0c7,0,11.3,7.5,7.8,13.6l-6.6,11.4
				C837.3,63.4,835.9,63.4,835.4,62.5z"/>
			<path class="st8" d="M840.7,44.3h-0.2V44h-7.9v1.8c0,1.6,1,3,2.4,3.6h-2.4c0,0.4,0.3,0.7,0.7,0.7h6.5c0.4,0,0.7-0.3,0.7-0.7h-2.4
				c0.9-0.4,1.7-1.1,2-2.1h0.5c0.8,0,1.5-0.7,1.5-1.5C842.3,45,841.6,44.3,840.7,44.3z M840.7,46.8h-0.3c0.1-0.3,0.1-0.6,0.1-1v-1
				h0.2c0.6,0,1,0.4,1,1C841.7,46.4,841.3,46.8,840.7,46.8z"/>
		</g>
		<g style="clip-path:url(#SVGID_00000182501081135256960450000015127365441785333383_);">
			<path class="st7" d="M1140.5,252.4l-6.6-11.4c-3.5-6,0.9-13.6,7.8-13.6l0,0c7,0,11.3,7.5,7.8,13.6l-6.6,11.4
				C1142.4,253.4,1141,253.4,1140.5,252.4z"/>
			<path class="st8" d="M1145.8,234.2h-0.2V234h-7.9v1.8c0,1.6,1,3,2.4,3.6h-2.4c0,0.4,0.3,0.7,0.7,0.7h6.5c0.4,0,0.7-0.3,0.7-0.7
				h-2.4c0.9-0.4,1.7-1.1,2-2.1h0.5c0.8,0,1.5-0.7,1.5-1.5S1146.7,234.2,1145.8,234.2z M1145.8,236.8h-0.3c0.1-0.3,0.1-0.6,0.1-1v-1
				h0.2c0.6,0,1,0.4,1,1S1146.4,236.8,1145.8,236.8z"/>
		</g>
		<g style="clip-path:url(#SVGID_00000182501081135256960450000015127365441785333383_);">
			<path class="st9" d="M1021.9,123.5l-6.6-11.4c-3.5-6,0.9-13.6,7.8-13.6l0,0c7,0,11.3,7.5,7.8,13.6l-6.6,11.4
				C1023.9,124.5,1022.5,124.5,1021.9,123.5z"/>
			<path class="st8" d="M1028.1,107l-5-3.8l-5,3.8h1.3v4.9h2.7v-2.2c0-0.5,0.4-0.9,0.9-0.9c0.5,0,0.9,0.4,0.9,0.9v2.2h2.7V107
				H1028.1z"/>
		</g>
		<g style="clip-path:url(#SVGID_00000182501081135256960450000015127365441785333383_);">
			<path class="st10" d="M911.2,299l-6.6-11.4c-3.5-6,0.9-13.6,7.8-13.6l0,0c7,0,11.3,7.5,7.8,13.6l-6.6,11.4
				C913.2,300,911.8,300,911.2,299z"/>
			<g>
				<path class="st8" d="M912.8,280.7v-1.8c0-0.9,0.7-1.6,1.6-1.6l0,0c0.9,0,1.6,0.7,1.6,1.6v1.8c0,0.9-0.7,1.6-1.6,1.6l0,0
					C913.5,282.2,912.8,281.5,912.8,280.7z"/>
				<path class="st8" d="M913.8,289.9v-8.1h1.3v8.1c0,0.3-0.3,0.6-0.6,0.6l0,0C914.1,290.6,913.8,290.3,913.8,289.9z"/>
				<path class="st8" d="M911.2,277.9v8.1h-1.3v-8.1c0-0.3,0.3-0.6,0.6-0.6l0,0C910.9,277.3,911.2,277.5,911.2,277.9z"/>
				<path class="st8" d="M909.5,287.1h0.4v3.4h0.4v-3.4h0.4v3.4h0.4v-3.4h0.4v3.4h0.5v-3.8c0-0.6-0.5-1.2-1.2-1.2h-0.8
					c-0.6,0-1.2,0.5-1.2,1.2v3.8h0.5V287.1z"/>
			</g>
		</g>
		<g style="clip-path:url(#SVGID_00000182501081135256960450000015127365441785333383_);">
			<path class="st10" d="M842,373.7l-6.6-11.4c-3.5-6,0.9-13.6,7.8-13.6h0c7,0,11.3,7.5,7.8,13.6l-6.6,11.4
				C843.9,374.7,842.5,374.7,842,373.7z"/>
			<g>
				<path class="st8" d="M843.6,355.4v-1.8c0-0.9,0.7-1.6,1.6-1.6l0,0c0.9,0,1.6,0.7,1.6,1.6v1.8c0,0.9-0.7,1.6-1.6,1.6l0,0
					C844.3,356.9,843.6,356.2,843.6,355.4z"/>
				<path class="st8" d="M844.5,364.6v-8.1h1.3v8.1c0,0.3-0.3,0.6-0.6,0.6l0,0C844.8,365.2,844.5,365,844.5,364.6z"/>
				<path class="st8" d="M841.9,352.6v8.1h-1.3v-8.1c0-0.3,0.3-0.6,0.6-0.6l0,0C841.6,352,841.9,352.2,841.9,352.6z"/>
				<path class="st8" d="M840.2,361.8h0.4v3.4h0.4v-3.4h0.4v3.4h0.4v-3.4h0.4v3.4h0.5v-3.8c0-0.6-0.5-1.2-1.2-1.2h-0.8
					c-0.6,0-1.2,0.5-1.2,1.2v3.8h0.5V361.8z"/>
			</g>
		</g>
		<g style="clip-path:url(#SVGID_00000182501081135256960450000015127365441785333383_);">
			<path class="st11" d="M845.5,240.6l-6.6-11.4c-3.5-6,0.9-13.6,7.8-13.6l0,0c7,0,11.3,7.5,7.8,13.6l-6.6,11.4
				C847.4,241.6,846.1,241.6,845.5,240.6z"/>
			<path class="st8" d="M849.8,221.2h-1v-0.3c0-0.9-0.7-1.6-1.6-1.6h-1.1c-0.9,0-1.6,0.7-1.6,1.6v0.3h-1c-0.8,0-1.4,0.6-1.4,1.4v3.6
				c0,0.8,0.6,1.4,1.4,1.4h6.2c0.8,0,1.4-0.6,1.4-1.4v-3.6C851.2,221.8,850.6,221.2,849.8,221.2z M845.2,220.9c0-0.5,0.4-1,1-1h1.1
				c0.5,0,1,0.4,1,1v0.3h-3V220.9z"/>
		</g>
		<g style="clip-path:url(#SVGID_00000182501081135256960450000015127365441785333383_);">
			<path class="st12" d="M972.1,260.9l-6.6-11.4c-3.5-6,0.9-13.6,7.8-13.6h0c7,0,11.3,7.5,7.8,13.6l-6.6,11.4
				C974,261.8,972.6,261.8,972.1,260.9z"/>
			<g>
				<g>
					<polygon class="st8" points="977.2,247.5 969.5,247.5 970.6,241.2 976,241.2 					"/>
				</g>
				<g>
					<path class="st8" d="M974.9,242.2h-3.2v-1.3c0-0.9,0.7-1.6,1.6-1.6c0.9,0,1.6,0.7,1.6,1.6V242.2z M972.1,241.8h2.4v-0.9
						c0-0.7-0.5-1.2-1.2-1.2c-0.7,0-1.2,0.5-1.2,1.2V241.8z"/>
				</g>
			</g>
		</g>
		<g style="clip-path:url(#SVGID_00000182501081135256960450000015127365441785333383_);">
			<path class="st13" d="M1092,221.6l-6.6-11.4c-3.5-6,0.9-13.6,7.8-13.6l0,0c7,0,11.3,7.5,7.8,13.6l-6.6,11.4
				C1094,222.6,1092.6,222.6,1092,221.6z"/>
			<text transform="matrix(1 0 0 1 1089.3519 209.8453)" class="st8 st14 st15">H</text>
		</g>
		<g style="clip-path:url(#SVGID_00000182501081135256960450000015127365441785333383_);">
			<path class="st16" d="M964.4,122.4l-6.6-11.4c-3.5-6,0.9-13.6,7.8-13.6h0c7,0,11.3,7.5,7.8,13.6l-6.6,11.4
				C966.4,123.4,965,123.4,964.4,122.4z"/>
			<text transform="matrix(1 0 0 1 962.2114 110.6451)" class="st8 st14 st15">P</text>
		</g>
		<g style="clip-path:url(#SVGID_00000182501081135256960450000015127365441785333383_);">
			<path class="st17" d="M914.4,373l-6.6-11.4c-3.5-6,0.9-13.6,7.8-13.6h0c7,0,11.3,7.5,7.8,13.6l-6.6,11.4
				C916.4,373.9,915,373.9,914.4,373z"/>
			<path class="st8" d="M920,354.7c-0.4-0.5-1-0.6-1.4-0.8v-1.6h-5.7v9.6h5.7v-0.6c0.4-0.1,0.7-0.2,1.1-0.5c0.4-0.4,0.8-1.1,0.7-1.9
				c0-0.1,0-0.2-0.1-0.3c0-0.2-0.1-0.3-0.1-0.4c0-0.2,0.1-0.4,0.2-0.6c0.1-0.1,0.1-0.2,0.2-0.3C920.8,356.3,920.5,355.2,920,354.7z
				 M917.4,356.6H914v-3.4h3.4V356.6z M920,357c0,0.1-0.1,0.2-0.1,0.3c-0.1,0.2-0.2,0.5-0.3,0.8c0,0.2,0,0.4,0.1,0.6
				c0,0.1,0,0.2,0.1,0.3c0.1,0.6-0.2,1.1-0.5,1.4c-0.2,0.2-0.5,0.3-0.7,0.3v-6.3c0.4,0.1,0.8,0.3,1.1,0.6
				C920,355.5,920.3,356.4,920,357z"/>
		</g>
		<g style="clip-path:url(#SVGID_00000182501081135256960450000015127365441785333383_);">
			<path class="st17" d="M1136.5,82.9l-6.6-11.4c-3.5-6,0.9-13.6,7.8-13.6l0,0c7,0,11.3,7.5,7.8,13.6l-6.6,11.4
				C1138.4,83.9,1137.1,83.9,1136.5,82.9z"/>
			<path class="st8" d="M1142,64.6c-0.4-0.5-1-0.6-1.4-0.8v-1.6h-5.7v9.6h5.7v-0.6c0.4-0.1,0.7-0.2,1.1-0.5c0.4-0.4,0.8-1.1,0.7-1.9
				c0-0.1,0-0.2-0.1-0.3c0-0.2-0.1-0.3-0.1-0.4c0-0.2,0.1-0.4,0.2-0.6c0.1-0.1,0.1-0.2,0.2-0.3C1142.9,66.3,1142.6,65.2,1142,64.6z
				 M1139.5,66.5h-3.4v-3.4h3.4V66.5z M1142.1,67c0,0.1-0.1,0.2-0.1,0.3c-0.1,0.2-0.2,0.5-0.3,0.8c0,0.2,0,0.4,0.1,0.6
				c0,0.1,0,0.2,0.1,0.3c0.1,0.6-0.2,1.1-0.5,1.4c-0.2,0.2-0.5,0.3-0.7,0.3v-6.3c0.4,0.1,0.8,0.3,1.1,0.6
				C1142.1,65.4,1142.4,66.3,1142.1,67z"/>
		</g>
		<g style="clip-path:url(#SVGID_00000182501081135256960450000015127365441785333383_);">
			<path class="st18" d="M934.6,240.6l-6.6-11.4c-3.5-6,0.9-13.6,7.8-13.6l0,0c7,0,11.3,7.5,7.8,13.6l-6.6,11.4
				C936.5,241.5,935.2,241.5,934.6,240.6z"/>
			<path class="st8" d="M941.4,220.9h-1.7l0-0.1h-8l0.9,4.3h5.6l-0.5,2.1h-5.2c-0.1,0-0.3,0.1-0.3,0.3s0.1,0.3,0.3,0.3h0.1
				c-0.1,0.1-0.1,0.2-0.1,0.3c0,0.3,0.2,0.6,0.6,0.6s0.6-0.2,0.6-0.6c0-0.1,0-0.2-0.1-0.3h3.2c-0.1,0.1-0.1,0.2-0.1,0.3
				c0,0.3,0.2,0.6,0.6,0.6c0.3,0,0.6-0.2,0.6-0.6c0-0.1,0-0.2-0.1-0.3h0.3c0.1,0,0.2-0.1,0.2-0.2l0.6-2.4h0l0.8-3.7h1.8
				c0.1,0,0.3-0.1,0.3-0.3C941.6,221,941.5,220.9,941.4,220.9z"/>
		</g>
		<g style="clip-path:url(#SVGID_00000182501081135256960450000015127365441785333383_);">
			<path class="st19" d="M1035.6,212.3l-6.6-11.4c-3.5-6,0.9-13.6,7.8-13.6l0,0c7,0,11.3,7.5,7.8,13.6l-6.6,11.4
				C1037.5,213.2,1036.2,213.2,1035.6,212.3z"/>
			<polygon class="st8" points="1037.4,197.6 1041,192.4 1032.7,192.4 1036.3,197.6 1036.3,201.1 1034.7,201.1 1034.7,201.8 
				1039,201.8 1039,201.1 1037.4,201.1 			"/>
		</g>
		<g style="clip-path:url(#SVGID_00000182501081135256960450000015127365441785333383_);">
			<path class="st19" d="M1006.4,326.7l-6.6-11.4c-3.5-6,0.9-13.6,7.8-13.6h0c7,0,11.3,7.5,7.8,13.6l-6.6,11.4
				C1008.3,327.6,1006.9,327.6,1006.4,326.7z"/>
			<polygon class="st8" points="1008.2,312 1011.7,306.8 1003.5,306.8 1007,312 1007,315.5 1005.4,315.5 1005.4,316.1 1009.8,316.1 
				1009.8,315.5 1008.2,315.5 			"/>
		</g>
		<g style="clip-path:url(#SVGID_00000182501081135256960450000015127365441785333383_);">
			<path class="st20" d="M950.5,315.9l-6.6-11.4c-3.5-6,0.9-13.6,7.8-13.6l0,0c7,0,11.3,7.5,7.8,13.6l-6.6,11.4
				C952.4,316.9,951.1,316.9,950.5,315.9z"/>
			<g>
				<rect x="946.5" y="297.3" class="st8" width="1.7" height="5"/>
				<rect x="955.8" y="297.3" class="st8" width="1.7" height="5"/>
				<rect x="947.8" y="299.7" class="st8" width="8.8" height="1.2"/>
				<circle class="st8" cx="949.4" cy="298.8" r="0.9"/>
				<path class="st8" d="M949.8,298.6c0.8-0.4,1.8-0.8,2.7-0.6c0.3,0.1,0.6,0.2,0.9,0.3c0.5,0.1,1.1,0.1,1.6-0.1
					c0.3-0.1,0.6-0.2,0.9-0.1c0.3,0.1,0.6,0.4,0.4,0.7c0.2,0.3,0.1,0.8-0.2,1.1c-0.3,0.3-0.7,0.4-1.1,0.4c-0.4,0-0.8,0-1.2-0.1
					c-0.9-0.1-1.8-0.1-2.7,0.1c-0.2,0-0.5,0.1-0.7,0c-0.3-0.1-0.6-0.4-0.7-0.7S949.8,298.9,949.8,298.6z"/>
			</g>
		</g>
		<g style="clip-path:url(#SVGID_00000182501081135256960450000015127365441785333383_);">
			<path class="st20" d="M1035.6,256.5l-6.6-11.4c-3.5-6,0.9-13.6,7.8-13.6l0,0c7,0,11.3,7.5,7.8,13.6l-6.6,11.4
				C1037.5,257.4,1036.2,257.4,1035.6,256.5z"/>
			<g>
				<rect x="1031.6" y="237.8" class="st8" width="1.7" height="5"/>
				<rect x="1040.9" y="237.8" class="st8" width="1.7" height="5"/>
				<rect x="1032.9" y="240.3" class="st8" width="8.8" height="1.2"/>
				<path class="st8" d="M1035.5,239.4c0,0.5-0.4,0.9-0.9,0.9c-0.5,0-0.9-0.4-0.9-0.9s0.4-0.9,0.9-0.9
					C1035.1,238.5,1035.5,238.9,1035.5,239.4z"/>
				<path class="st8" d="M1034.9,239.1c0.8-0.4,1.8-0.8,2.7-0.6c0.3,0.1,0.6,0.2,0.9,0.3c0.5,0.1,1.1,0.1,1.6-0.1
					c0.3-0.1,0.6-0.2,0.9-0.1s0.6,0.4,0.4,0.7c0.2,0.3,0.1,0.8-0.2,1.1c-0.3,0.3-0.7,0.4-1.1,0.4c-0.4,0-0.8,0-1.2-0.1
					c-0.9-0.1-1.8-0.1-2.7,0.1c-0.2,0-0.5,0.1-0.7,0c-0.3-0.1-0.6-0.4-0.7-0.7C1034.8,239.9,1034.9,239.5,1034.9,239.1z"/>
			</g>
		</g>
		<g style="clip-path:url(#SVGID_00000182501081135256960450000015127365441785333383_);">
			<path class="st20" d="M835.4,286.2l-6.6-11.4c-3.5-6,0.9-13.6,7.8-13.6l0,0c7,0,11.3,7.5,7.8,13.6l-6.6,11.4
				C837.3,287.1,835.9,287.1,835.4,286.2z"/>
			<g>
				<rect x="831.4" y="267.5" class="st8" width="1.7" height="5"/>
				<rect x="840.6" y="267.5" class="st8" width="1.7" height="5"/>
				<rect x="832.7" y="270" class="st8" width="8.8" height="1.2"/>
				<circle class="st8" cx="834.3" cy="269.1" r="0.9"/>
				<path class="st8" d="M834.7,268.8c0.8-0.4,1.8-0.8,2.7-0.6c0.3,0.1,0.6,0.2,0.9,0.3c0.5,0.1,1.1,0.1,1.6-0.1
					c0.3-0.1,0.6-0.2,0.9-0.1c0.3,0.1,0.6,0.4,0.4,0.7c0.2,0.3,0.1,0.8-0.2,1.1c-0.3,0.3-0.7,0.4-1.1,0.4c-0.4,0-0.8,0-1.2-0.1
					c-0.9-0.1-1.8-0.1-2.7,0.1c-0.2,0-0.5,0.1-0.7,0c-0.3-0.1-0.6-0.4-0.7-0.7S834.7,269.2,834.7,268.8z"/>
			</g>
		</g>
		<g style="clip-path:url(#SVGID_00000182501081135256960450000015127365441785333383_);">
			<path class="st21" d="M1084.5,106.6l-6.6-11.4c-3.5-6,0.9-13.6,7.8-13.6h0c7,0,11.3,7.5,7.8,13.6l-6.6,11.4
				C1086.4,107.5,1085,107.5,1084.5,106.6z"/>
			<text transform="matrix(1 0 0 1 1079.8373 91.5777)" class="st8 st14 st22">ATM</text>
		</g>
		<g style="clip-path:url(#SVGID_00000182501081135256960450000015127365441785333383_);">
			<path class="st12" d="M894.4,97.9l-6.6-11.4c-3.5-6,0.9-13.6,7.8-13.6l0,0c7,0,11.3,7.5,7.8,13.6l-6.6,11.4
				C896.3,98.8,894.9,98.8,894.4,97.9z"/>
			<g>
				<g>
					<polygon class="st8" points="899.5,84.5 891.8,84.5 893,78.2 898.3,78.2 					"/>
				</g>
				<g>
					<path class="st8" d="M897.3,79.2H894v-1.3c0-0.9,0.7-1.6,1.6-1.6c0.9,0,1.6,0.7,1.6,1.6V79.2z M894.4,78.7h2.4v-0.9
						c0-0.7-0.5-1.2-1.2-1.2c-0.7,0-1.2,0.5-1.2,1.2V78.7z"/>
				</g>
			</g>
		</g>
	</g>
	<g>
		<defs>
			
				<rect id="SVGID_00000097486606762081880310000017627110598744083610_" x="396.4" y="0" transform="matrix(-1 -4.489576e-11 4.489576e-11 -1 1187.9178 395.0316)" width="395" height="395"/>
		</defs>
		<clipPath id="SVGID_00000065783978694057224370000011106931586680789677_">
			<use xlink:href="#SVGID_00000097486606762081880310000017627110598744083610_"  style="overflow:visible;"/>
		</clipPath>
		
			<rect x="396.4" y="0" transform="matrix(-1 -4.489576e-11 4.489576e-11 -1 1187.9178 395.0316)" style="clip-path:url(#SVGID_00000065783978694057224370000011106931586680789677_);fill:#E5E5E7;" width="395" height="395"/>
		<g style="clip-path:url(#SVGID_00000065783978694057224370000011106931586680789677_);">
			<polygon class="st2" points="410.3,0 448.2,0 454.1,20.9 419.1,29.9 			"/>
			<polygon class="st2" points="402,0 411.4,31.9 396.4,35.7 396.4,0 			"/>
			<polygon class="st2" points="431.4,99.7 396.4,111.4 396.4,60.5 418.2,54.9 			"/>
			<polygon class="st2" points="425.9,53 460.6,44 473.5,89.4 439,97.6 			"/>
			<polygon class="st2" points="510.7,368.9 518.4,395 456.4,395 474.4,380.8 			"/>
			<path class="st2" d="M614.5,395h-50.3l47.4-15.9C612.7,384.8,613.6,390.1,614.5,395z"/>
			<polygon class="st2" points="431.9,261.6 396.4,271 396.4,216.7 422.5,209.6 			"/>
			<polygon class="st2" points="460.7,199.2 475.6,249.9 438,259.9 428.6,207.9 			"/>
			<path class="st2" d="M699.7,395h-77.1c-1-5.5-2.1-11.7-3.3-18.4l57.6-19.3L699.7,395z"/>
			<polygon class="st2" points="771.7,293.5 791.5,329.1 791.5,392.1 751,331.3 			"/>
			<polygon class="st2" points="745.5,334.3 785.9,395 707.1,395 682.9,355.3 			"/>
			<path class="st2" d="M791.5,46.6l-25.3,18.1l-23.8,8.5l-5.7-14.3c-0.4-5.6-0.9-10.9-1.2-15.8l56.1-5.6V46.6z"/>
			<path class="st2" d="M731.9,0l59.5,0v31.1l-56.6,5.6C733.7,21.1,732.7,9.2,731.9,0z"/>
			<polygon class="st2" points="791.5,165.2 743.9,178 731.6,146.3 791.5,132.8 			"/>
			<polygon class="st2" points="717.3,109.1 748.5,100.5 791.5,89.1 791.5,126.3 729.3,140.3 			"/>
			<path class="st2" d="M728.6,56.8l-28.1,7.5l-7.5-30.9l33.5-3.3C727.2,39.3,727.9,48.5,728.6,56.8z"/>
			<path class="st2" d="M684.8,0L724,0c0.6,7.3,1.3,15.4,1.9,23.8l-34.5,3.4L684.8,0z"/>
			<polygon class="st2" points="755.4,216.2 791.5,206.5 791.5,252.8 767.9,258.3 			"/>
			<polygon class="st2" points="791.5,312.8 775.4,283.7 769.7,264.4 791.5,259.3 			"/>
			<polygon class="st2" points="770.3,71.4 791.5,56.3 791.5,81 749.9,91.9 745.3,80.6 769.9,71.7 			"/>
		</g>
		<path style="clip-path:url(#SVGID_00000065783978694057224370000011106931586680789677_);fill:#FFFFFF;" d="M460.7,199.2
			l14.9,50.7l-169.5,45.2l2,7.6l169.7-45.3l30.6,103.9l-37.8,12.4l-49.5,39l4.9,6.2l48.4-38.1l36.3-11.9l9.6,32.5l-57,19.1l2.5,7.5
			l56.7-19l6.3,21.4l7.6-2.2l-6.4-21.7l81.6-27.3c4.7,26,8.2,45,8.4,46l3.9-0.8l3.9-0.8c-0.2-1.1-3.7-20-8.5-46.8l131-43.9
			l21.5-39.3l73.4,132.7l6.9-3.8l-76.7-138.6l-20-67.6l48.3-12.9l-6-32.6l92.1-59.1l-4.3-6.6l-93.8,60.2L743.9,178l-26.6-68.9
			l31.3-8.6l70.3-18.6l80.8-50.6l-4.2-6.7l-79.8,50l-65.8,17.4l-4.6-11.4l24.6-8.8l0.4-0.3l126.4-90.6l-4.6-6.4l-126,90.3l-23.8,8.5
			l-5.7-14.3c-6.8-87.3-7.3-88.8-7.5-89.4l-7.5,2.5c0-0.1-0.1-0.2-0.1-0.4c0.5,3,4.4,51.4,7,85.2l-28.1,7.5l-23.9-98.1l-7.7,1.9
			l23.9,98.3L575.9,97.4l-1.5-19l19.8-110.6l-7.8-1.4L567.1,74.7l-85.8,13.2L449-26.1l-7.6,2.2l32.2,113.4L439,97.6L400.2-34
			l-7.6,2.2l38.7,131.5l-75.1,25l-17.1-54l-0.3-0.5c-3-4.5-29.6-43.9-31.2-46l-6.3,4.7c1.1,1.5,18.8,27.6,30.6,45.2L376.3,214
			l-79.7,21.6l2.1,7.6L460.7,199.2z M433.6,107.3l24.8,84.3l-74.5,20.2l-25.2-79.6L433.6,107.3z M475.7,97l23.7,83.5l-33.3,9
			l-24.9-84.4L475.7,97z M483.5,95.6l83.4-12.8l6,77.8L507,178.5L483.5,95.6z M554.6,346.3l-28.8-101.6l58.7-15.6
			c2.5,14,10.6,58.6,18.4,101.7l-7.8,2.3L554.6,346.3z M523.6,237.1l-14.5-51l64.7-17.6l1.4,7.8l7.8,45L523.6,237.1z M576.5,105.4
			l118.7-31.5l11.6,29.9L579.1,139L576.5,105.4z M714.4,101.7l-11.5-29.9l27.5-7.3L742.2,94L714.4,101.7z M736.2,180.1l-145.5,39.1
			l-9.8-56.1l-1.2-16l129.9-35.9L736.2,180.1z M738.7,187.6l6.8,23l-77.9,20.8l-6.1-23.1L738.7,187.6z M753.2,208.6l-6.8-23
			l43.9-11.8l4.4,23.8L753.2,208.6z M747.8,218.2l19,64.4l-156.3,45.9c-6.3-35-13.2-73.1-18.4-101.5l61.8-16.6l8.1,30.7L747.8,218.2
			z M617.8,368.8c-1.8-10.1-3.8-21-5.9-32.4l151.8-44.6l-18.9,34.5L617.8,368.8z M518.2,366.5l79.2-25.9l6.9-2
			c2.1,11.3,4.1,22.4,5.9,32.7l-82.4,27.6L518.2,366.5z M485.5,255.4l32.6-8.7l28.9,102L516,358.9L485.5,255.4z M468.3,197.2l33.2-9
			l14.5,51l-32.7,8.7L468.3,197.2z"/>
		<path style="clip-path:url(#SVGID_00000065783978694057224370000011106931586680789677_);fill:#C8E67F;" d="M588.5,162.6l6.4,37
			c1,5.5,6.4,9,11.8,7.5L716,177.7c5.4-1.5,8.4-7.3,6.4-12.6l-14.2-36.9c-1.8-4.5-6.7-7-11.4-5.7l-101.6,28
			c-4.4,1.2-7.3,5.3-6.9,9.9l0.1,1.2C588.4,162,588.4,162.3,588.5,162.6z"/>
		<path style="clip-path:url(#SVGID_00000065783978694057224370000011106931586680789677_);fill:#C8E67F;" d="M370.6,144.8l16,50.4
			c1.3,4.2,5.8,6.6,10.1,5.5l44.4-12c4.5-1.2,7.1-5.9,5.8-10.3l-15.7-53.2c-1.3-4.5-6.1-7-10.5-5.5l-44.7,14.9
			C371.5,135.9,369.2,140.5,370.6,144.8z"/>
		<g style="clip-path:url(#SVGID_00000065783978694057224370000011106931586680789677_);">
			
				<rect x="290.9" y="24.5" transform="matrix(0.9684 -0.2495 0.2495 0.9684 8.8774 126.9366)" class="st5" width="428.6" height="7.9"/>
		</g>
		<g style="clip-path:url(#SVGID_00000065783978694057224370000011106931586680789677_);">
			
				<rect x="275.4" y="11.9" transform="matrix(0.9684 -0.2495 0.2495 0.9684 11.5406 122.6625)" class="st5" width="428.6" height="7.9"/>
		</g>
		<g style="clip-path:url(#SVGID_00000065783978694057224370000011106931586680789677_);">
			<polygon class="st2" points="483.6,124.8 492,154.4 458.4,163.4 449.7,133.8 			"/>
			<polygon class="st2" points="441.2,105.2 475.7,97 482.7,121.8 448.8,130.8 			"/>
			<polygon class="st2" points="499.4,180.5 466.1,189.6 459.3,166.4 492.8,157.4 			"/>
			<polygon class="st2" points="508.8,114.8 503,92.6 533.6,87.9 538.5,106.9 			"/>
			<polygon class="st2" points="571,136.5 572.8,160.6 556.9,164.9 550.9,141.9 			"/>
			<polygon class="st2" points="536.7,87.4 566.9,82.8 568.1,99 541.6,106.1 			"/>
			<polygon class="st2" points="542.4,109.1 568.4,102.2 570.7,133.3 550.1,138.8 			"/>
			<polygon class="st2" points="547.8,142.7 553.8,165.8 524.1,173.8 518.1,150.7 			"/>
			<polygon class="st2" points="506.5,118.7 514.2,148.4 499.6,152.4 491.2,122.8 			"/>
			<polygon class="st2" points="490.3,119.7 483.5,95.6 499.8,93 505.7,115.6 			"/>
			<polygon class="st2" points="521,174.7 507,178.5 500.4,155.4 515,151.5 			"/>
			<polygon class="st2" points="547,139.7 517.3,147.6 509.6,117.9 539.3,110 			"/>
			<path class="st2" d="M525.8,244.7l58.7-15.6c0.8,4.4,2.1,11.8,3.8,21.2l-54.8,21.5L525.8,244.7z"/>
			<path class="st2" d="M602.9,330.8l-7.8,2.3l-40.4,13.2l-9.7-34.1l51.7-15.7C598.7,307.6,600.8,319.3,602.9,330.8z"/>
			<path class="st2" d="M534.3,274.8l54.5-21.4c2,11.3,4.5,25.1,7.2,40l-52,15.8L534.3,274.8z"/>
			<polygon class="st2" points="575.2,176.3 583.1,221.2 523.6,237.1 509.2,186.1 573.9,168.5 			"/>
			<polygon class="st2" points="579.1,139 576.5,105.4 597.7,99.8 609.7,130.6 			"/>
			<polygon class="st2" points="646.3,120.5 634.4,90 664.9,81.9 676.7,112.1 			"/>
			<polygon class="st2" points="706.8,103.8 679.8,111.3 668,81.1 695.2,73.9 			"/>
			<polygon class="st2" points="612.8,129.7 600.8,99 631.3,90.8 643.2,121.3 			"/>
			<polygon class="st2" points="702.9,71.8 730.4,64.5 742.2,94 714.4,101.7 			"/>
			<polygon class="st2" points="667.6,231.4 661.5,208.3 707.7,195.9 713.1,219.3 			"/>
			<polygon class="st2" points="738.7,187.6 745.5,210.6 716.2,218.4 710.8,195.1 			"/>
			<polygon class="st2" points="746.3,185.5 790.2,173.7 794.6,197.5 753.2,208.6 			"/>
			<polygon class="st2" points="718,226.1 747.8,218.2 755.7,244.9 724.5,254.4 			"/>
			<polygon class="st2" points="683.2,270.3 691.2,304.8 657,314.9 649,280.6 			"/>
			<polygon class="st2" points="722.2,258.4 730.3,293.3 694.3,303.9 686.2,269.3 			"/>
			<polygon class="st2" points="685.5,266.2 678.7,236.6 714.9,227 721.5,255.3 			"/>
			<polygon class="st2" points="756.6,248 766.8,282.6 733.4,292.4 725.2,257.5 			"/>
			<polygon class="st2" points="648.3,277.5 634,215.7 653.9,210.4 662,241.1 675.6,237.4 682.5,267.2 			"/>
			<path class="st2" d="M603.7,291.1c-4.2-23.1-8.3-45.6-11.6-64.1l38.8-10.4l14.4,61.9L603.7,291.1z"/>
			<path class="st2" d="M653.9,315.8l-43.4,12.8c-2-11.3-4.1-22.8-6.2-34.3l41.7-12.7L653.9,315.8z"/>
			<polygon class="st2" points="763.7,291.8 744.8,326.2 733.7,329.9 725.7,302.9 			"/>
			<polygon class="st2" points="722.7,303.8 730.7,330.9 673.5,350.1 666.2,320.4 			"/>
			<path class="st2" d="M670.5,351.1l-52.7,17.7c-1.8-10.1-3.8-21-5.9-32.4l51.3-15.1L670.5,351.1z"/>
			<path class="st2" d="M597.4,340.6l6.9-2c2.1,11.3,4.1,22.4,5.9,32.7l-39.7,13.3l-12-31.2L597.4,340.6z"/>
			<polygon class="st2" points="567.5,385.6 527.8,398.9 518.2,366.5 555.5,354.3 			"/>
			<polygon class="st2" points="485.5,255.4 518.1,246.7 526.1,274.6 494.8,286.9 			"/>
			<polygon class="st2" points="536.5,311.5 504.9,321.1 495.7,289.9 526.9,277.7 			"/>
			<polygon class="st2" points="547.1,348.8 516,358.9 505.7,324.1 537.4,314.5 			"/>
			<polygon class="st2" points="468.3,197.2 501.5,188.1 516,239.1 483.3,247.9 			"/>
			<line class="st2" x1="658" y1="59.8" x2="658" y2="59.8"/>
			<line class="st2" x1="655.9" y1="149.4" x2="655.9" y2="149.4"/>
			<line class="st2" x1="498" y1="79.7" x2="498" y2="79.7"/>
			<line class="st2" x1="556.3" y1="169.1" x2="556.3" y2="169.1"/>
			<line class="st2" x1="630.4" y1="207.4" x2="630.4" y2="207.4"/>
			<line class="st2" x1="765.2" y1="243.7" x2="765.2" y2="243.7"/>
			<line class="st2" x1="458.5" y1="302.8" x2="458.5" y2="302.8"/>
			<line class="st2" x1="723" y1="299.4" x2="723" y2="299.4"/>
			<line class="st2" x1="736.2" y1="344.2" x2="736.2" y2="344.2"/>
			<line class="st2" x1="663.8" y1="316.8" x2="663.8" y2="316.8"/>
			<line class="st2" x1="675.8" y1="366.3" x2="675.8" y2="366.3"/>
			<line class="st2" x1="556.1" y1="351.6" x2="556.1" y2="351.6"/>
		</g>
		<path style="clip-path:url(#SVGID_00000065783978694057224370000011106931586680789677_);fill:#84BFFF;" d="M674.6,62.8
			l-72.8,19.4c-6.6,1.8-13.2-2.9-13.8-9.8l0,0c-0.1-0.9,0-1.9,0.1-2.8l9.9-55.2c0.4-2,2.1-3.5,4.2-3.5h60.7c2,0,3.6,1.3,4.1,3.2
			l10.6,43.6C678.2,60,676.9,62.2,674.6,62.8z"/>
		<path style="clip-path:url(#SVGID_00000065783978694057224370000011106931586680789677_);fill:#C8E67F;" d="M484.1,293.2
			l10.6,35.9c4.8,16.5-4.3,33.8-20.6,39.1l0,0c-3.5,1.2-6.8,2.9-9.8,5.2l-11.7,9.2c-5.6,4.4-12.5,6.8-19.6,6.8h-0.5
			c-17.5,0-31.7-14.2-31.7-31.7v-50c0-14.4,9.7-26.9,23.5-30.6l21.1-5.6C462.1,267.1,479.3,276.7,484.1,293.2z"/>
		<g style="clip-path:url(#SVGID_00000065783978694057224370000011106931586680789677_);">
			<path class="st7" d="M657.4,113.3l6.6-11.4c3.5-6-0.9-13.6-7.8-13.6h0c-7,0-11.3,7.5-7.8,13.6l6.6,11.4
				C655.5,114.3,656.8,114.3,657.4,113.3z"/>
			<path class="st8" d="M650.5,96.7c0,0.8,0.7,1.5,1.5,1.5h0.5c0.4,0.9,1.1,1.7,2,2.1h-2.4c0,0.4,0.3,0.7,0.7,0.7h6.5
				c0.4,0,0.7-0.3,0.7-0.7h-2.4c1.4-0.6,2.4-2,2.4-3.6v-1.8h-7.9v0.2H652C651.2,95.1,650.5,95.8,650.5,96.7z M651,96.7
				c0-0.6,0.4-1,1-1h0.2v1c0,0.3,0,0.7,0.1,1H652C651.5,97.7,651,97.2,651,96.7z"/>
		</g>
		<g style="clip-path:url(#SVGID_00000065783978694057224370000011106931586680789677_);">
			<path class="st7" d="M747.6,62.5l6.6-11.4c3.5-6-0.9-13.6-7.8-13.6l0,0c-7,0-11.3,7.5-7.8,13.6l6.6,11.4
				C745.6,63.4,747,63.4,747.6,62.5z"/>
			<path class="st8" d="M740.7,45.8c0,0.8,0.7,1.5,1.5,1.5h0.5c0.4,0.9,1.1,1.7,2,2.1h-2.4c0,0.4,0.3,0.7,0.7,0.7h6.5
				c0.4,0,0.7-0.3,0.7-0.7h-2.4c1.4-0.6,2.4-2,2.4-3.6V44h-7.9v0.2h-0.2C741.4,44.3,740.7,45,740.7,45.8z M741.2,45.8
				c0-0.6,0.4-1,1-1h0.2v1c0,0.3,0,0.7,0.1,1h-0.3C741.7,46.8,741.2,46.4,741.2,45.8z"/>
		</g>
		<g style="clip-path:url(#SVGID_00000065783978694057224370000011106931586680789677_);">
			<path class="st7" d="M442.5,252.4l6.6-11.4c3.5-6-0.9-13.6-7.8-13.6h0c-7,0-11.3,7.5-7.8,13.6l6.6,11.4
				C440.6,253.4,441.9,253.4,442.5,252.4z"/>
			<path class="st8" d="M435.6,235.8c0,0.8,0.7,1.5,1.5,1.5h0.5c0.4,0.9,1.1,1.7,2,2.1h-2.4c0,0.4,0.3,0.7,0.7,0.7h6.5
				c0.4,0,0.7-0.3,0.7-0.7h-2.4c1.4-0.6,2.4-2,2.4-3.6V234h-7.9v0.2h-0.2C436.3,234.2,435.6,234.9,435.6,235.8z M436.1,235.8
				c0-0.6,0.4-1,1-1h0.2v1c0,0.3,0,0.7,0.1,1h-0.3C436.6,236.8,436.1,236.3,436.1,235.8z"/>
		</g>
		<g style="clip-path:url(#SVGID_00000065783978694057224370000011106931586680789677_);">
			<path class="st9" d="M561,123.5l6.6-11.4c3.5-6-0.9-13.6-7.8-13.6h0c-7,0-11.3,7.5-7.8,13.6l6.6,11.4
				C559.1,124.5,560.5,124.5,561,123.5z"/>
			<path class="st8" d="M554.8,107l5-3.8l5,3.8h-1.3v4.9h-2.7v-2.2c0-0.5-0.4-0.9-0.9-0.9c-0.5,0-0.9,0.4-0.9,0.9v2.2h-2.7V107
				H554.8z"/>
		</g>
		<g style="clip-path:url(#SVGID_00000065783978694057224370000011106931586680789677_);">
			<path class="st10" d="M671.7,299l6.6-11.4c3.5-6-0.9-13.6-7.8-13.6l0,0c-7,0-11.3,7.5-7.8,13.6l6.6,11.4
				C669.8,300,671.2,300,671.7,299z"/>
			<g>
				<path class="st8" d="M670.1,280.7v-1.8c0-0.9-0.7-1.6-1.6-1.6l0,0c-0.9,0-1.6,0.7-1.6,1.6v1.8c0,0.9,0.7,1.6,1.6,1.6l0,0
					C669.4,282.2,670.1,281.5,670.1,280.7z"/>
				<path class="st8" d="M669.2,289.9v-8.1h-1.3v8.1c0,0.3,0.3,0.6,0.6,0.6l0,0C668.9,290.6,669.2,290.3,669.2,289.9z"/>
				<path class="st8" d="M671.8,277.9v8.1h1.3v-8.1c0-0.3-0.3-0.6-0.6-0.6l0,0C672.1,277.3,671.8,277.5,671.8,277.9z"/>
				<path class="st8" d="M673.5,287.1H673v3.4h-0.4v-3.4h-0.4v3.4h-0.4v-3.4h-0.4v3.4h-0.5v-3.8c0-0.6,0.5-1.2,1.2-1.2h0.8
					c0.6,0,1.2,0.5,1.2,1.2v3.8h-0.5V287.1z"/>
			</g>
		</g>
		<g style="clip-path:url(#SVGID_00000065783978694057224370000011106931586680789677_);">
			<path class="st10" d="M741,373.7l6.6-11.4c3.5-6-0.9-13.6-7.8-13.6h0c-7,0-11.3,7.5-7.8,13.6l6.6,11.4
				C739.1,374.7,740.4,374.7,741,373.7z"/>
			<g>
				<path class="st8" d="M739.4,355.4v-1.8c0-0.9-0.7-1.6-1.6-1.6l0,0c-0.9,0-1.6,0.7-1.6,1.6v1.8c0,0.9,0.7,1.6,1.6,1.6l0,0
					C738.7,356.9,739.4,356.2,739.4,355.4z"/>
				<path class="st8" d="M738.4,364.6v-8.1h-1.3v8.1c0,0.3,0.3,0.6,0.6,0.6l0,0C738.2,365.2,738.4,365,738.4,364.6z"/>
				<path class="st8" d="M741,352.6v8.1h1.3v-8.1c0-0.3-0.3-0.6-0.6-0.6l0,0C741.3,352,741,352.2,741,352.6z"/>
				<path class="st8" d="M742.7,361.8h-0.4v3.4h-0.4v-3.4h-0.4v3.4h-0.4v-3.4h-0.4v3.4h-0.5v-3.8c0-0.6,0.5-1.2,1.2-1.2h0.8
					c0.6,0,1.2,0.5,1.2,1.2v3.8h-0.5V361.8z"/>
			</g>
		</g>
		<g style="clip-path:url(#SVGID_00000065783978694057224370000011106931586680789677_);">
			<path class="st11" d="M737.4,240.6l6.6-11.4c3.5-6-0.9-13.6-7.8-13.6l0,0c-7,0-11.3,7.5-7.8,13.6l6.6,11.4
				C735.5,241.6,736.9,241.6,737.4,240.6z"/>
			<path class="st8" d="M731.7,222.6v3.6c0,0.8,0.6,1.4,1.4,1.4h6.2c0.8,0,1.4-0.6,1.4-1.4v-3.6c0-0.8-0.6-1.4-1.4-1.4h-1v-0.3
				c0-0.9-0.7-1.6-1.6-1.6h-1.1c-0.9,0-1.6,0.7-1.6,1.6v0.3h-1C732.4,221.2,731.7,221.8,731.7,222.6z M737.7,221.2h-3v-0.3
				c0-0.5,0.4-1,1-1h1.1c0.5,0,1,0.4,1,1V221.2z"/>
		</g>
		<g style="clip-path:url(#SVGID_00000065783978694057224370000011106931586680789677_);">
			<path class="st12" d="M610.9,260.9l6.6-11.4c3.5-6-0.9-13.6-7.8-13.6l0,0c-7,0-11.3,7.5-7.8,13.6l6.6,11.4
				C609,261.8,610.3,261.8,610.9,260.9z"/>
			<g>
				<g>
					<polygon class="st8" points="605.8,247.5 613.5,247.5 612.3,241.2 607,241.2 					"/>
				</g>
				<g>
					<path class="st8" d="M608,240.9c0-0.9,0.7-1.6,1.6-1.6c0.9,0,1.6,0.7,1.6,1.6v1.3H608V240.9z M610.8,240.9
						c0-0.7-0.5-1.2-1.2-1.2c-0.7,0-1.2,0.5-1.2,1.2v0.9h2.4V240.9z"/>
				</g>
			</g>
		</g>
		<g style="clip-path:url(#SVGID_00000065783978694057224370000011106931586680789677_);">
			<path class="st13" d="M490.9,221.6l6.6-11.4c3.5-6-0.9-13.6-7.8-13.6l0,0c-7,0-11.3,7.5-7.8,13.6l6.6,11.4
				C489,222.6,490.4,222.6,490.9,221.6z"/>
			<text transform="matrix(-1 0 0 1 493.5987 209.8453)" class="st8 st14 st15">H</text>
		</g>
		<g style="clip-path:url(#SVGID_00000065783978694057224370000011106931586680789677_);">
			<path class="st16" d="M618.5,122.4l6.6-11.4c3.5-6-0.9-13.6-7.8-13.6l0,0c-7,0-11.3,7.5-7.8,13.6l6.6,11.4
				C616.6,123.4,618,123.4,618.5,122.4z"/>
			<text transform="matrix(-1 0 0 1 620.7394 110.6451)" class="st8 st14 st15">P</text>
		</g>
		<g style="clip-path:url(#SVGID_00000065783978694057224370000011106931586680789677_);">
			<path class="st17" d="M668.5,373l6.6-11.4c3.5-6-0.9-13.6-7.8-13.6l0,0c-7,0-11.3,7.5-7.8,13.6L666,373
				C666.6,373.9,668,373.9,668.5,373z"/>
			<path class="st8" d="M662.4,357.2c0,0.1,0.1,0.2,0.2,0.3c0.1,0.2,0.2,0.4,0.2,0.6c0,0.1,0,0.3-0.1,0.4c0,0.1-0.1,0.2-0.1,0.3
				c-0.1,0.8,0.3,1.5,0.7,1.9c0.3,0.3,0.7,0.4,1.1,0.5v0.6h5.7v-9.6h-5.7v1.6c-0.5,0.1-1,0.3-1.4,0.8
				C662.4,355.2,662.1,356.3,662.4,357.2z M665.6,353.2h3.4v3.4h-3.4V353.2z M663.3,355c0.3-0.3,0.7-0.5,1.1-0.6v6.3
				c-0.3-0.1-0.5-0.2-0.7-0.3c-0.3-0.3-0.6-0.8-0.5-1.4c0-0.1,0-0.2,0.1-0.3c0-0.2,0.1-0.4,0.1-0.6c0-0.3-0.1-0.6-0.3-0.8
				c0-0.1-0.1-0.2-0.1-0.3C662.7,356.4,662.9,355.5,663.3,355z"/>
		</g>
		<g style="clip-path:url(#SVGID_00000065783978694057224370000011106931586680789677_);">
			<path class="st17" d="M446.4,82.9l6.6-11.4c3.5-6-0.9-13.6-7.8-13.6l0,0c-7,0-11.3,7.5-7.8,13.6l6.6,11.4
				C444.5,83.9,445.9,83.9,446.4,82.9z"/>
			<path class="st8" d="M440.4,67.1c0,0.1,0.1,0.2,0.2,0.3c0.1,0.2,0.2,0.4,0.2,0.6c0,0.1,0,0.3-0.1,0.4c0,0.1-0.1,0.2-0.1,0.3
				c-0.1,0.8,0.3,1.5,0.7,1.9c0.3,0.3,0.7,0.4,1.1,0.5v0.6h5.7v-9.6h-5.7v1.6c-0.5,0.1-1,0.3-1.4,0.8
				C440.4,65.2,440,66.3,440.4,67.1z M443.5,63.1h3.4v3.4h-3.4V63.1z M441.3,65c0.3-0.3,0.7-0.5,1.1-0.6v6.3
				c-0.3-0.1-0.5-0.2-0.7-0.3c-0.3-0.3-0.6-0.8-0.5-1.4c0-0.1,0-0.2,0.1-0.3c0-0.2,0.1-0.4,0.1-0.6c0-0.3-0.1-0.6-0.3-0.8
				c0-0.1-0.1-0.2-0.1-0.3C440.6,66.3,440.9,65.4,441.3,65z"/>
		</g>
		<g style="clip-path:url(#SVGID_00000065783978694057224370000011106931586680789677_);">
			<path class="st18" d="M648.3,240.6l6.6-11.4c3.5-6-0.9-13.6-7.8-13.6l0,0c-7,0-11.3,7.5-7.8,13.6l6.6,11.4
				C646.4,241.5,647.8,241.5,648.3,240.6z"/>
			<path class="st8" d="M641.6,220.9h1.7l0-0.1h8l-0.9,4.3h-5.6l0.5,2.1h5.2c0.1,0,0.3,0.1,0.3,0.3s-0.1,0.3-0.3,0.3h-0.1
				c0.1,0.1,0.1,0.2,0.1,0.3c0,0.3-0.2,0.6-0.6,0.6c-0.3,0-0.6-0.2-0.6-0.6c0-0.1,0-0.2,0.1-0.3h-3.2c0.1,0.1,0.1,0.2,0.1,0.3
				c0,0.3-0.2,0.6-0.6,0.6c-0.3,0-0.6-0.2-0.6-0.6c0-0.1,0-0.2,0.1-0.3h-0.3c-0.1,0-0.2-0.1-0.2-0.2l-0.6-2.4h0l-0.8-3.7h-1.8
				c-0.1,0-0.3-0.1-0.3-0.3C641.3,221,641.5,220.9,641.6,220.9z"/>
		</g>
		<g style="clip-path:url(#SVGID_00000065783978694057224370000011106931586680789677_);">
			<path class="st19" d="M547.3,212.3l6.6-11.4c3.5-6-0.9-13.6-7.8-13.6l0,0c-7,0-11.3,7.5-7.8,13.6l6.6,11.4
				C545.4,213.2,546.8,213.2,547.3,212.3z"/>
			<polygon class="st8" points="545.5,197.6 542,192.4 550.2,192.4 546.7,197.6 546.7,201.1 548.3,201.1 548.3,201.8 543.9,201.8 
				543.9,201.1 545.5,201.1 			"/>
		</g>
		<g style="clip-path:url(#SVGID_00000065783978694057224370000011106931586680789677_);">
			<path class="st19" d="M576.6,326.7l6.6-11.4c3.5-6-0.9-13.6-7.8-13.6l0,0c-7,0-11.3,7.5-7.8,13.6l6.6,11.4
				C574.7,327.6,576,327.6,576.6,326.7z"/>
			<polygon class="st8" points="574.8,312 571.2,306.8 579.5,306.8 575.9,312 575.9,315.5 577.5,315.5 577.5,316.1 573.2,316.1 
				573.2,315.5 574.8,315.5 			"/>
		</g>
		<g style="clip-path:url(#SVGID_00000065783978694057224370000011106931586680789677_);">
			<path class="st20" d="M632.4,315.9l6.6-11.4c3.5-6-0.9-13.6-7.8-13.6l0,0c-7,0-11.3,7.5-7.8,13.6l6.6,11.4
				C630.5,316.9,631.9,316.9,632.4,315.9z"/>
			<g>
				
					<rect x="634.7" y="297.3" transform="matrix(-1 -4.411239e-11 4.411239e-11 -1 1271.1599 599.4862)" class="st8" width="1.7" height="5"/>
				
					<rect x="625.5" y="297.3" transform="matrix(-1 -4.516266e-11 4.516266e-11 -1 1252.6532 599.4862)" class="st8" width="1.7" height="5"/>
				
					<rect x="626.3" y="299.7" transform="matrix(-1 -4.486157e-11 4.486157e-11 -1 1261.4924 600.691)" class="st8" width="8.8" height="1.2"/>
				<circle class="st8" cx="633.5" cy="298.8" r="0.9"/>
				<path class="st8" d="M633.1,298.6c-0.8-0.4-1.8-0.8-2.7-0.6c-0.3,0.1-0.6,0.2-0.9,0.3c-0.5,0.1-1.1,0.1-1.6-0.1
					c-0.3-0.1-0.6-0.2-0.9-0.1c-0.3,0.1-0.6,0.4-0.4,0.7c-0.2,0.3-0.1,0.8,0.2,1.1c0.3,0.3,0.7,0.4,1.1,0.4c0.4,0,0.8,0,1.2-0.1
					c0.9-0.1,1.8-0.1,2.7,0.1c0.2,0,0.5,0.1,0.7,0c0.3-0.1,0.6-0.4,0.7-0.7S633.2,298.9,633.1,298.6z"/>
			</g>
		</g>
		<g style="clip-path:url(#SVGID_00000065783978694057224370000011106931586680789677_);">
			<path class="st20" d="M547.3,256.5l6.6-11.4c3.5-6-0.9-13.6-7.8-13.6l0,0c-7,0-11.3,7.5-7.8,13.6l6.6,11.4
				C545.4,257.4,546.8,257.4,547.3,256.5z"/>
			<g>
				
					<rect x="549.6" y="237.8" transform="matrix(-1 -4.516044e-11 4.516044e-11 -1 1100.955 480.5848)" class="st8" width="1.7" height="5"/>
				
					<rect x="540.4" y="237.8" transform="matrix(-1 -4.516044e-11 4.516044e-11 -1 1082.4482 480.5848)" class="st8" width="1.7" height="5"/>
				
					<rect x="541.2" y="240.3" transform="matrix(-1 -4.486157e-11 4.486157e-11 -1 1091.2874 481.7897)" class="st8" width="8.8" height="1.2"/>
				<path class="st8" d="M547.5,239.4c0,0.5,0.4,0.9,0.9,0.9c0.5,0,0.9-0.4,0.9-0.9s-0.4-0.9-0.9-0.9
					C547.9,238.5,547.5,238.9,547.5,239.4z"/>
				<path class="st8" d="M548,239.1c-0.8-0.4-1.8-0.8-2.7-0.6c-0.3,0.1-0.6,0.2-0.9,0.3c-0.5,0.1-1.1,0.1-1.6-0.1
					c-0.3-0.1-0.6-0.2-0.9-0.1c-0.3,0.1-0.6,0.4-0.4,0.7c-0.2,0.3-0.1,0.8,0.2,1.1c0.3,0.3,0.7,0.4,1.1,0.4c0.4,0,0.8,0,1.2-0.1
					c0.9-0.1,1.8-0.1,2.7,0.1c0.2,0,0.5,0.1,0.7,0c0.3-0.1,0.6-0.4,0.7-0.7C548.2,239.9,548.1,239.5,548,239.1z"/>
			</g>
		</g>
		<g style="clip-path:url(#SVGID_00000065783978694057224370000011106931586680789677_);">
			<path class="st20" d="M747.6,286.2l6.6-11.4c3.5-6-0.9-13.6-7.8-13.6l0,0c-7,0-11.3,7.5-7.8,13.6l6.6,11.4
				C745.6,287.1,747,287.1,747.6,286.2z"/>
			<g>
				
					<rect x="749.8" y="267.5" transform="matrix(-1 -4.516266e-11 4.516266e-11 -1 1501.4121 539.9894)" class="st8" width="1.7" height="5"/>
				
					<rect x="740.6" y="267.5" transform="matrix(-1 -4.516266e-11 4.516266e-11 -1 1482.9054 539.9894)" class="st8" width="1.7" height="5"/>
				
					<rect x="741.5" y="270" transform="matrix(-1 -4.486157e-11 4.486157e-11 -1 1491.7446 541.1942)" class="st8" width="8.8" height="1.2"/>
				<circle class="st8" cx="748.6" cy="269.1" r="0.9"/>
				<path class="st8" d="M748.3,268.8c-0.8-0.4-1.8-0.8-2.7-0.6c-0.3,0.1-0.6,0.2-0.9,0.3c-0.5,0.1-1.1,0.1-1.6-0.1
					c-0.3-0.1-0.6-0.2-0.9-0.1c-0.3,0.1-0.6,0.4-0.4,0.7c-0.2,0.3-0.1,0.8,0.2,1.1c0.3,0.3,0.7,0.4,1.1,0.4c0.4,0,0.8,0,1.2-0.1
					c0.9-0.1,1.8-0.1,2.7,0.1c0.2,0,0.5,0.1,0.7,0c0.3-0.1,0.6-0.4,0.7-0.7S748.3,269.2,748.3,268.8z"/>
			</g>
		</g>
		<g style="clip-path:url(#SVGID_00000065783978694057224370000011106931586680789677_);">
			<path class="st21" d="M498.5,106.6l6.6-11.4c3.5-6-0.9-13.6-7.8-13.6h0c-7,0-11.3,7.5-7.8,13.6l6.6,11.4
				C496.6,107.5,497.9,107.5,498.5,106.6z"/>
			<text transform="matrix(-1 0 0 1 503.1134 91.5777)" class="st8 st14 st22">ATM</text>
		</g>
		<g style="clip-path:url(#SVGID_00000065783978694057224370000011106931586680789677_);">
			<path class="st12" d="M688.5,97.9l6.6-11.4c3.5-6-0.9-13.6-7.8-13.6l0,0c-7,0-11.3,7.5-7.8,13.6l6.6,11.4
				C686.6,98.8,688,98.8,688.5,97.9z"/>
			<g>
				<g>
					<polygon class="st8" points="683.5,84.5 691.2,84.5 690,78.2 684.6,78.2 					"/>
				</g>
				<g>
					<path class="st8" d="M685.7,77.8c0-0.9,0.7-1.6,1.6-1.6c0.9,0,1.6,0.7,1.6,1.6v1.3h-3.2V77.8z M688.5,77.8
						c0-0.7-0.5-1.2-1.2-1.2s-1.2,0.5-1.2,1.2v0.9h2.4V77.8z"/>
				</g>
			</g>
		</g>
	</g>
	<g id="Layer_5">
		<g>
			<defs>
				<rect id="SVGID_00000121279658492505949290000007398009042215403934_" x="1.9" y="0" width="395" height="395"/>
			</defs>
			<clipPath id="SVGID_00000103961143398435219320000014776290165912339360_">
				<use xlink:href="#SVGID_00000121279658492505949290000007398009042215403934_"  style="overflow:visible;"/>
			</clipPath>
			
				<rect x="1.9" y="0" style="clip-path:url(#SVGID_00000103961143398435219320000014776290165912339360_);fill:#E5E5E7;" width="395" height="395"/>
			<g style="clip-path:url(#SVGID_00000103961143398435219320000014776290165912339360_);">
				<polygon class="st2" points="383.1,0 345.2,0 339.3,20.9 374.3,29.9 				"/>
				<polygon class="st2" points="391.3,0 381.9,31.9 396.9,35.7 396.9,0 				"/>
				<polygon class="st2" points="361.9,99.7 396.9,111.4 396.9,60.5 375.1,54.9 				"/>
				<polygon class="st2" points="367.5,53 332.7,44 319.8,89.4 354.3,97.6 				"/>
				<polygon class="st2" points="282.6,368.9 274.9,395 337,395 318.9,380.8 				"/>
				<path class="st2" d="M178.8,395h50.3l-47.4-15.9C180.7,384.8,179.7,390.1,178.8,395z"/>
				<polygon class="st2" points="361.5,261.6 396.9,271 396.9,216.7 370.8,209.6 				"/>
				<polygon class="st2" points="332.6,199.2 317.7,249.9 355.3,259.9 364.7,207.9 				"/>
				<path class="st2" d="M93.7,395h77.1c1-5.5,2.1-11.7,3.3-18.4l-57.6-19.3L93.7,395z"/>
				<polygon class="st2" points="21.6,293.5 1.9,329.1 1.9,392.1 42.3,331.3 				"/>
				<polygon class="st2" points="47.9,334.3 7.5,395 86.3,395 110.4,355.3 				"/>
				<path class="st2" d="M1.9,46.6l25.3,18.1L51,73.2l5.7-14.3c0.4-5.6,0.9-10.9,1.2-15.8L1.9,37.5V46.6z"/>
				<path class="st2" d="M61.4,0H1.9v31.1l56.6,5.6C59.7,21.1,60.6,9.2,61.4,0z"/>
				<polygon class="st2" points="1.9,165.2 49.5,178 61.7,146.3 1.9,132.8 				"/>
				<polygon class="st2" points="76.1,109.1 44.8,100.5 1.9,89.1 1.9,126.3 64,140.3 				"/>
				<path class="st2" d="M64.8,56.8l28.1,7.5l7.5-30.9l-33.5-3.3C66.2,39.3,65.4,48.5,64.8,56.8z"/>
				<path class="st2" d="M108.6,0H69.3c-0.6,7.3-1.3,15.4-1.9,23.8l34.5,3.4L108.6,0z"/>
				<polygon class="st2" points="37.9,216.2 1.9,206.5 1.9,252.8 25.5,258.3 				"/>
				<polygon class="st2" points="1.9,312.8 17.9,283.7 23.7,264.4 1.9,259.3 				"/>
				<polygon class="st2" points="23,71.4 1.9,56.3 1.9,81 43.5,91.9 48,80.6 23.4,71.7 				"/>
			</g>
			<path style="clip-path:url(#SVGID_00000103961143398435219320000014776290165912339360_);fill:#FFFFFF;" d="M494.6,243.2l2.1-7.6
				L417,214l44.3-139.8C473.2,56.6,490.9,30.4,492,29l-6.3-4.7c-1.6,2.1-28.2,41.5-31.2,46l-0.3,0.5l-17.1,54l-75.1-25l38.7-131.5
				l-7.6-2.2L354.3,97.6l-34.5-8.2L352-23.9l-7.6-2.2L312,87.9l-85.8-13.2L206.9-33.6l-7.8,1.4l19.8,110.6l-1.5,19L100.5,66.3
				L124.5-32l-7.7-1.9L92.9,64.3l-28.1-7.5c2.7-33.9,6.5-82.3,7-85.2c0,0.2-0.1,0.4-0.1,0.4l-7.5-2.5c-0.2,0.6-0.7,2-7.5,89.4
				L51,73.2l-23.8-8.5l-126-90.3l-4.6,6.4L23,71.4l0.4,0.3L48,80.6l-4.6,11.4l-65.8-17.4l-79.8-50l-4.2,6.7l80.8,50.6l70.3,18.6
				l31.3,8.6L49.5,178L1.6,165.2l-93.8-60.2l-4.3,6.6l92.1,59.1l-6,32.6l48.3,12.9l-20,67.6l-76.7,138.6l6.9,3.8l73.4-132.7
				l21.5,39.3l131,43.9c-4.9,26.8-8.3,45.7-8.5,46.8l3.9,0.8l3.9,0.8c0.2-1,3.7-20,8.4-46l81.6,27.3l-6.4,21.7l7.6,2.2l6.3-21.4
				l56.7,19l2.5-7.5l-57-19.1l9.6-32.5l36.3,11.9l48.4,38.1l4.9-6.2l-49.5-39l-37.8-12.4l30.6-103.9l169.7,45.3l2-7.6l-169.5-45.2
				l14.9-50.7L494.6,243.2z M434.6,132.3l-25.2,79.6l-74.5-20.2l24.8-84.3L434.6,132.3z M352.1,105.2l-24.9,84.4l-33.3-9L317.7,97
				L352.1,105.2z M286.3,178.5l-65.9-17.9l6-77.8l83.4,12.8L286.3,178.5z M198.3,333.1l-7.8-2.3c7.8-43.1,15.9-87.7,18.4-101.7
				l58.7,15.6l-28.8,101.6L198.3,333.1z M210.3,221.2l7.8-45l1.4-7.8l64.7,17.6l-14.5,51L210.3,221.2z M214.2,139L86.6,103.8
				l11.6-29.9l118.7,31.5L214.2,139z M51.1,94L63,64.5l27.5,7.3l-11.5,29.9L51.1,94z M83.7,111.2l129.9,35.9l-1.2,16l-9.8,56.1
				L57.1,180.1L83.7,111.2z M131.8,208.3l-6.1,23.1l-77.9-20.8l6.8-23L131.8,208.3z M-1.2,197.5l4.4-23.8L47,185.5l-6.8,23
				L-1.2,197.5z M131.3,241.1l8.1-30.7l61.8,16.6c-5.1,28.4-12,66.5-18.4,101.5L26.5,282.6l19-64.4L131.3,241.1z M48.6,326.2
				l-18.9-34.5l151.8,44.6c-2.1,11.4-4,22.3-5.9,32.4L48.6,326.2z M265.6,398.9l-82.4-27.6c1.9-10.3,3.9-21.4,5.9-32.7l6.9,2
				l79.2,25.9L265.6,398.9z M277.3,358.9l-31.1-10.2l28.9-102l32.6,8.7L277.3,358.9z M310.1,247.9l-32.7-8.7l14.5-51l33.2,9
				L310.1,247.9z"/>
			<path style="clip-path:url(#SVGID_00000103961143398435219320000014776290165912339360_);fill:#C8E67F;" d="M204.8,162.6l-6.4,37
				c-1,5.5-6.4,9-11.8,7.5L77.3,177.7c-5.4-1.5-8.4-7.3-6.4-12.6l14.2-36.9c1.8-4.5,6.7-7,11.4-5.7l101.6,28
				c4.4,1.2,7.3,5.3,6.9,9.9l-0.1,1.2C204.9,162,204.9,162.3,204.8,162.6z"/>
			<path style="clip-path:url(#SVGID_00000103961143398435219320000014776290165912339360_);fill:#C8E67F;" d="M422.8,144.8
				l-16,50.4c-1.3,4.2-5.8,6.6-10.1,5.5l-44.4-12c-4.5-1.2-7.1-5.9-5.8-10.3l15.7-53.2c1.3-4.5,6.1-7,10.5-5.5l44.7,14.9
				C421.8,135.9,424.1,140.5,422.8,144.8z"/>
			<g style="clip-path:url(#SVGID_00000103961143398435219320000014776290165912339360_);">
				
					<rect x="284.2" y="-185.8" transform="matrix(0.2495 -0.9684 0.9684 0.2495 188.6971 300.3621)" class="st5" width="7.9" height="428.6"/>
			</g>
			<g style="clip-path:url(#SVGID_00000103961143398435219320000014776290165912339360_);">
				
					<rect x="299.7" y="-198.5" transform="matrix(0.2495 -0.9684 0.9684 0.2495 212.5971 305.9121)" class="st5" width="7.9" height="428.6"/>
			</g>
			<g style="clip-path:url(#SVGID_00000103961143398435219320000014776290165912339360_);">
				<polygon class="st2" points="309.8,124.8 301.4,154.4 335,163.4 343.7,133.8 				"/>
				<polygon class="st2" points="352.1,105.2 317.7,97 310.6,121.8 344.5,130.8 				"/>
				<polygon class="st2" points="294,180.5 327.2,189.6 334.1,166.4 300.5,157.4 				"/>
				<polygon class="st2" points="284.6,114.8 290.4,92.6 259.8,87.9 254.8,106.9 				"/>
				<polygon class="st2" points="222.3,136.5 220.5,160.6 236.5,164.9 242.5,141.9 				"/>
				<polygon class="st2" points="256.6,87.4 226.5,82.8 225.2,99 251.8,106.1 				"/>
				<polygon class="st2" points="251,109.1 225,102.2 222.6,133.3 243.2,138.8 				"/>
				<polygon class="st2" points="245.5,142.7 239.5,165.8 269.2,173.8 275.3,150.7 				"/>
				<polygon class="st2" points="286.8,118.7 279.1,148.4 293.8,152.4 302.1,122.8 				"/>
				<polygon class="st2" points="303,119.7 309.9,95.6 293.5,93 287.6,115.6 				"/>
				<polygon class="st2" points="272.3,174.7 286.3,178.5 292.9,155.4 278.3,151.5 				"/>
				<polygon class="st2" points="246.3,139.7 276.1,147.6 283.8,117.9 254,110 				"/>
				<path class="st2" d="M267.6,244.7L208.9,229c-0.8,4.4-2.1,11.8-3.8,21.2l54.8,21.5L267.6,244.7z"/>
				<path class="st2" d="M190.5,330.8l7.8,2.3l40.4,13.2l9.7-34.1l-51.7-15.7C194.7,307.6,192.6,319.3,190.5,330.8z"/>
				<path class="st2" d="M259,274.8l-54.5-21.4c-2,11.3-4.5,25.1-7.2,40l52,15.8L259,274.8z"/>
				<polygon class="st2" points="218.1,176.3 210.3,221.2 269.7,237.1 284.2,186.1 219.5,168.5 				"/>
				<polygon class="st2" points="214.2,139 216.8,105.4 195.6,99.8 183.6,130.6 				"/>
				<polygon class="st2" points="147.1,120.5 159,90 128.4,81.9 116.6,112.1 				"/>
				<polygon class="st2" points="86.6,103.8 113.6,111.3 125.4,81.1 98.1,73.9 				"/>
				<polygon class="st2" points="180.5,129.7 192.6,99 162,90.8 150.1,121.3 				"/>
				<polygon class="st2" points="90.5,71.8 63,64.5 51.1,94 78.9,101.7 				"/>
				<polygon class="st2" points="125.7,231.4 131.8,208.3 85.6,195.9 80.2,219.3 				"/>
				<polygon class="st2" points="54.6,187.6 47.8,210.6 77.1,218.4 82.6,195.1 				"/>
				<polygon class="st2" points="47,185.5 3.1,173.7 -1.2,197.5 40.2,208.6 				"/>
				<polygon class="st2" points="75.4,226.1 45.6,218.2 37.7,244.9 68.8,254.4 				"/>
				<polygon class="st2" points="110.1,270.3 102.1,304.8 136.4,314.9 144.3,280.6 				"/>
				<polygon class="st2" points="71.1,258.4 63,293.3 99.1,303.9 107.1,269.3 				"/>
				<polygon class="st2" points="107.8,266.2 114.7,236.6 78.4,227 71.8,255.3 				"/>
				<polygon class="st2" points="36.8,248 26.5,282.6 60,292.4 68.1,257.5 				"/>
				<polygon class="st2" points="145,277.5 159.4,215.7 139.5,210.4 131.3,241.1 117.7,237.4 110.8,267.2 				"/>
				<path class="st2" d="M189.6,291.1c4.2-23.1,8.3-45.6,11.6-64.1l-38.8-10.4l-14.4,61.9L189.6,291.1z"/>
				<path class="st2" d="M139.4,315.8l43.4,12.8c2-11.3,4.1-22.8,6.2-34.3l-41.7-12.7L139.4,315.8z"/>
				<polygon class="st2" points="29.7,291.8 48.6,326.2 59.7,329.9 67.6,302.9 				"/>
				<polygon class="st2" points="70.7,303.8 62.7,330.9 119.8,350.1 127.1,320.4 				"/>
				<path class="st2" d="M122.9,351.1l52.7,17.7c1.8-10.1,3.8-21,5.9-32.4l-51.3-15.1L122.9,351.1z"/>
				<path class="st2" d="M195.9,340.6l-6.9-2c-2.1,11.3-4.1,22.4-5.9,32.7l39.7,13.3l12-31.2L195.9,340.6z"/>
				<polygon class="st2" points="225.8,385.6 265.6,398.9 275.1,366.5 237.9,354.3 				"/>
				<polygon class="st2" points="307.8,255.4 275.2,246.7 267.3,274.6 298.6,286.9 				"/>
				<polygon class="st2" points="256.8,311.5 288.5,321.1 297.7,289.9 266.4,277.7 				"/>
				<polygon class="st2" points="246.3,348.8 277.3,358.9 287.6,324.1 256,314.5 				"/>
				<polygon class="st2" points="325,197.2 291.8,188.1 277.4,239.1 310.1,247.9 				"/>
				<line class="st2" x1="135.4" y1="59.8" x2="135.4" y2="59.8"/>
				<line class="st2" x1="137.5" y1="149.4" x2="137.5" y2="149.4"/>
				<line class="st2" x1="295.3" y1="79.7" x2="295.3" y2="79.7"/>
				<line class="st2" x1="237" y1="169.1" x2="237" y2="169.1"/>
				<line class="st2" x1="162.9" y1="207.4" x2="162.9" y2="207.4"/>
				<line class="st2" x1="28.1" y1="243.7" x2="28.1" y2="243.7"/>
				<line class="st2" x1="334.9" y1="302.8" x2="334.9" y2="302.8"/>
				<line class="st2" x1="70.3" y1="299.4" x2="70.3" y2="299.4"/>
				<line class="st2" x1="57.1" y1="344.2" x2="57.1" y2="344.2"/>
				<line class="st2" x1="129.6" y1="316.8" x2="129.6" y2="316.8"/>
				<line class="st2" x1="117.5" y1="366.3" x2="117.5" y2="366.3"/>
				<line class="st2" x1="237.2" y1="351.6" x2="237.2" y2="351.6"/>
			</g>
			<path style="clip-path:url(#SVGID_00000103961143398435219320000014776290165912339360_);fill:#84BFFF;" d="M118.7,62.8
				l72.8,19.4c6.6,1.8,13.2-2.9,13.8-9.8l0,0c0.1-0.9,0-1.9-0.1-2.8l-9.9-55.2c-0.4-2-2.1-3.5-4.2-3.5h-60.7c-2,0-3.6,1.3-4.1,3.2
				l-10.6,43.6C115.1,60,116.5,62.2,118.7,62.8z"/>
			<path style="clip-path:url(#SVGID_00000103961143398435219320000014776290165912339360_);fill:#C8E67F;" d="M309.2,293.2
				l-10.6,35.9c-4.8,16.5,4.3,33.8,20.6,39.1l0,0c3.5,1.2,6.8,2.9,9.8,5.2l11.7,9.2c5.6,4.4,12.5,6.8,19.6,6.8h0.5
				c17.5,0,31.7-14.2,31.7-31.7v-50c0-14.4-9.7-26.9-23.5-30.6l-21.1-5.6C331.2,267.1,314.1,276.7,309.2,293.2z"/>
			<g style="clip-path:url(#SVGID_00000103961143398435219320000014776290165912339360_);">
				<path class="st7" d="M136,113.3l-6.6-11.4c-3.5-6,0.9-13.6,7.8-13.6h0c7,0,11.3,7.5,7.8,13.6l-6.6,11.4
					C137.9,114.3,136.5,114.3,136,113.3z"/>
				<path class="st8" d="M141.3,95.1h-0.2v-0.2h-7.9v1.8c0,1.6,1,3,2.4,3.6h-2.4c0,0.4,0.3,0.7,0.7,0.7h6.5c0.4,0,0.7-0.3,0.7-0.7
					h-2.4c0.9-0.4,1.7-1.1,2-2.1h0.5c0.8,0,1.5-0.7,1.5-1.5C142.8,95.8,142.2,95.1,141.3,95.1z M141.3,97.7H141
					c0.1-0.3,0.1-0.6,0.1-1v-1h0.2c0.6,0,1,0.4,1,1C142.3,97.2,141.9,97.7,141.3,97.7z"/>
			</g>
			<g style="clip-path:url(#SVGID_00000103961143398435219320000014776290165912339360_);">
				<path class="st7" d="M45.8,62.5L39.2,51C35.7,45,40,37.5,47,37.5l0,0c7,0,11.3,7.5,7.8,13.6l-6.6,11.4
					C47.7,63.4,46.3,63.4,45.8,62.5z"/>
				<path class="st8" d="M51.1,44.3h-0.2V44H43v1.8c0,1.6,1,3,2.4,3.6H43c0,0.4,0.3,0.7,0.7,0.7h6.5c0.4,0,0.7-0.3,0.7-0.7h-2.4
					c0.9-0.4,1.7-1.1,2-2.1h0.5c0.8,0,1.5-0.7,1.5-1.5C52.6,45,52,44.3,51.1,44.3z M51.1,46.8h-0.3c0.1-0.3,0.1-0.6,0.1-1v-1h0.2
					c0.6,0,1,0.4,1,1C52.1,46.4,51.7,46.8,51.1,46.8z"/>
			</g>
			<g style="clip-path:url(#SVGID_00000103961143398435219320000014776290165912339360_);">
				<path class="st7" d="M350.9,252.4l-6.6-11.4c-3.5-6,0.9-13.6,7.8-13.6h0c7,0,11.3,7.5,7.8,13.6l-6.6,11.4
					C352.8,253.4,351.4,253.4,350.9,252.4z"/>
				<path class="st8" d="M356.2,234.2H356V234h-7.9v1.8c0,1.6,1,3,2.4,3.6h-2.4c0,0.4,0.3,0.7,0.7,0.7h6.5c0.4,0,0.7-0.3,0.7-0.7
					h-2.4c0.9-0.4,1.7-1.1,2-2.1h0.5c0.8,0,1.5-0.7,1.5-1.5S357.1,234.2,356.2,234.2z M356.2,236.8h-0.3c0.1-0.3,0.1-0.6,0.1-1v-1
					h0.2c0.6,0,1,0.4,1,1S356.8,236.8,356.2,236.8z"/>
			</g>
			<g style="clip-path:url(#SVGID_00000103961143398435219320000014776290165912339360_);">
				<path class="st9" d="M232.3,123.5l-6.6-11.4c-3.5-6,0.9-13.6,7.8-13.6h0c7,0,11.3,7.5,7.8,13.6l-6.6,11.4
					C234.3,124.5,232.9,124.5,232.3,123.5z"/>
				<path class="st8" d="M238.5,107l-5-3.8l-5,3.8h1.3v4.9h2.7v-2.2c0-0.5,0.4-0.9,0.9-0.9c0.5,0,0.9,0.4,0.9,0.9v2.2h2.7V107H238.5
					z"/>
			</g>
			<g style="clip-path:url(#SVGID_00000103961143398435219320000014776290165912339360_);">
				<path class="st10" d="M121.6,299l-6.6-11.4c-3.5-6,0.9-13.6,7.8-13.6l0,0c7,0,11.3,7.5,7.8,13.6l-6.6,11.4
					C123.5,300,122.2,300,121.6,299z"/>
				<g>
					<path class="st8" d="M123.2,280.7v-1.8c0-0.9,0.7-1.6,1.6-1.6l0,0c0.9,0,1.6,0.7,1.6,1.6v1.8c0,0.9-0.7,1.6-1.6,1.6l0,0
						C123.9,282.2,123.2,281.5,123.2,280.7z"/>
					<path class="st8" d="M124.2,289.9v-8.1h1.3v8.1c0,0.3-0.3,0.6-0.6,0.6l0,0C124.4,290.6,124.2,290.3,124.2,289.9z"/>
					<path class="st8" d="M121.6,277.9v8.1h-1.3v-8.1c0-0.3,0.3-0.6,0.6-0.6l0,0C121.3,277.3,121.6,277.5,121.6,277.9z"/>
					<path class="st8" d="M119.9,287.1h0.4v3.4h0.4v-3.4h0.4v3.4h0.4v-3.4h0.4v3.4h0.5v-3.8c0-0.6-0.5-1.2-1.2-1.2h-0.8
						c-0.6,0-1.2,0.5-1.2,1.2v3.8h0.5V287.1z"/>
				</g>
			</g>
			<g style="clip-path:url(#SVGID_00000103961143398435219320000014776290165912339360_);">
				<path class="st10" d="M52.4,373.7l-6.6-11.4c-3.5-6,0.9-13.6,7.8-13.6h0c7,0,11.3,7.5,7.8,13.6l-6.6,11.4
					C54.3,374.7,52.9,374.7,52.4,373.7z"/>
				<g>
					<path class="st8" d="M54,355.4v-1.8c0-0.9,0.7-1.6,1.6-1.6l0,0c0.9,0,1.6,0.7,1.6,1.6v1.8c0,0.9-0.7,1.6-1.6,1.6l0,0
						C54.7,356.9,54,356.2,54,355.4z"/>
					<path class="st8" d="M54.9,364.6v-8.1h1.3v8.1c0,0.3-0.3,0.6-0.6,0.6l0,0C55.2,365.2,54.9,365,54.9,364.6z"/>
					<path class="st8" d="M52.3,352.6v8.1H51v-8.1c0-0.3,0.3-0.6,0.6-0.6l0,0C52,352,52.3,352.2,52.3,352.6z"/>
					<path class="st8" d="M50.6,361.8H51v3.4h0.4v-3.4h0.4v3.4h0.4v-3.4h0.4v3.4h0.5v-3.8c0-0.6-0.5-1.2-1.2-1.2h-0.8
						c-0.6,0-1.2,0.5-1.2,1.2v3.8h0.5V361.8z"/>
				</g>
			</g>
			<g style="clip-path:url(#SVGID_00000103961143398435219320000014776290165912339360_);">
				<path class="st11" d="M55.9,240.6l-6.6-11.4c-3.5-6,0.9-13.6,7.8-13.6l0,0c7,0,11.3,7.5,7.8,13.6l-6.6,11.4
					C57.8,241.6,56.4,241.6,55.9,240.6z"/>
				<path class="st8" d="M60.2,221.2h-1v-0.3c0-0.9-0.7-1.6-1.6-1.6h-1.1c-0.9,0-1.6,0.7-1.6,1.6v0.3h-1c-0.8,0-1.4,0.6-1.4,1.4v3.6
					c0,0.8,0.6,1.4,1.4,1.4h6.2c0.8,0,1.4-0.6,1.4-1.4v-3.6C61.6,221.8,61,221.2,60.2,221.2z M55.6,220.9c0-0.5,0.4-1,1-1h1.1
					c0.5,0,1,0.4,1,1v0.3h-3V220.9z"/>
			</g>
			<g style="clip-path:url(#SVGID_00000103961143398435219320000014776290165912339360_);">
				<path class="st12" d="M182.5,260.9l-6.6-11.4c-3.5-6,0.9-13.6,7.8-13.6h0c7,0,11.3,7.5,7.8,13.6l-6.6,11.4
					C184.4,261.8,183,261.8,182.5,260.9z"/>
				<g>
					<g>
						<polygon class="st8" points="187.5,247.5 179.8,247.5 181,241.2 186.4,241.2 						"/>
					</g>
					<g>
						<path class="st8" d="M185.3,242.2h-3.2v-1.3c0-0.9,0.7-1.6,1.6-1.6c0.9,0,1.6,0.7,1.6,1.6V242.2z M182.5,241.8h2.4v-0.9
							c0-0.7-0.5-1.2-1.2-1.2c-0.7,0-1.2,0.5-1.2,1.2V241.8z"/>
					</g>
				</g>
			</g>
			<g style="clip-path:url(#SVGID_00000103961143398435219320000014776290165912339360_);">
				<path class="st13" d="M302.4,221.6l-6.6-11.4c-3.5-6,0.9-13.6,7.8-13.6l0,0c7,0,11.3,7.5,7.8,13.6l-6.6,11.4
					C304.3,222.6,303,222.6,302.4,221.6z"/>
				<text transform="matrix(1 0 0 1 299.7387 209.8453)" class="st8 st14 st15">H</text>
			</g>
			<g style="clip-path:url(#SVGID_00000103961143398435219320000014776290165912339360_);">
				<path class="st16" d="M174.8,122.4l-6.6-11.4c-3.5-6,0.9-13.6,7.8-13.6h0c7,0,11.3,7.5,7.8,13.6l-6.6,11.4
					C176.7,123.4,175.4,123.4,174.8,122.4z"/>
				<text transform="matrix(1 0 0 1 172.5981 110.6451)" class="st8 st14 st15">P</text>
			</g>
			<g style="clip-path:url(#SVGID_00000103961143398435219320000014776290165912339360_);">
				<path class="st17" d="M124.8,373l-6.6-11.4c-3.5-6,0.9-13.6,7.8-13.6h0c7,0,11.3,7.5,7.8,13.6l-6.6,11.4
					C126.8,373.9,125.4,373.9,124.8,373z"/>
				<path class="st8" d="M130.4,354.7c-0.4-0.5-1-0.6-1.4-0.8v-1.6h-5.7v9.6h5.7v-0.6c0.4-0.1,0.7-0.2,1.1-0.5
					c0.4-0.4,0.8-1.1,0.7-1.9c0-0.1,0-0.2-0.1-0.3c0-0.2-0.1-0.3-0.1-0.4c0-0.2,0.1-0.4,0.2-0.6c0.1-0.1,0.1-0.2,0.2-0.3
					C131.2,356.3,130.9,355.2,130.4,354.7z M127.8,356.6h-3.4v-3.4h3.4V356.6z M130.4,357c0,0.1-0.1,0.2-0.1,0.3
					c-0.1,0.2-0.2,0.5-0.3,0.8c0,0.2,0,0.4,0.1,0.6c0,0.1,0,0.2,0.1,0.3c0.1,0.6-0.2,1.1-0.5,1.4c-0.2,0.2-0.5,0.3-0.7,0.3v-6.3
					c0.4,0.1,0.8,0.3,1.1,0.6C130.4,355.5,130.7,356.4,130.4,357z"/>
			</g>
			<g style="clip-path:url(#SVGID_00000103961143398435219320000014776290165912339360_);">
				<path class="st17" d="M346.9,82.9l-6.6-11.4c-3.5-6,0.9-13.6,7.8-13.6l0,0c7,0,11.3,7.5,7.8,13.6l-6.6,11.4
					C348.8,83.9,347.5,83.9,346.9,82.9z"/>
				<path class="st8" d="M352.4,64.6c-0.4-0.5-1-0.6-1.4-0.8v-1.6h-5.7v9.6h5.7v-0.6c0.4-0.1,0.7-0.2,1.1-0.5
					c0.4-0.4,0.8-1.1,0.7-1.9c0-0.1,0-0.2-0.1-0.3c0-0.2-0.1-0.3-0.1-0.4c0-0.2,0.1-0.4,0.2-0.6c0.1-0.1,0.1-0.2,0.2-0.3
					C353.3,66.3,353,65.2,352.4,64.6z M349.8,66.5h-3.4v-3.4h3.4V66.5z M352.5,67c0,0.1-0.1,0.2-0.1,0.3c-0.1,0.2-0.2,0.5-0.3,0.8
					c0,0.2,0,0.4,0.1,0.6c0,0.1,0,0.2,0.1,0.3c0.1,0.6-0.2,1.1-0.5,1.4c-0.2,0.2-0.5,0.3-0.7,0.3v-6.3c0.4,0.1,0.8,0.3,1.1,0.6
					C352.5,65.4,352.8,66.3,352.5,67z"/>
			</g>
			<g style="clip-path:url(#SVGID_00000103961143398435219320000014776290165912339360_);">
				<path class="st18" d="M145,240.6l-6.6-11.4c-3.5-6,0.9-13.6,7.8-13.6l0,0c7,0,11.3,7.5,7.8,13.6l-6.6,11.4
					C146.9,241.5,145.6,241.5,145,240.6z"/>
				<path class="st8" d="M151.7,220.9H150l0-0.1h-8l0.9,4.3h5.6l-0.5,2.1h-5.2c-0.1,0-0.3,0.1-0.3,0.3s0.1,0.3,0.3,0.3h0.1
					c-0.1,0.1-0.1,0.2-0.1,0.3c0,0.3,0.2,0.6,0.6,0.6c0.3,0,0.6-0.2,0.6-0.6c0-0.1,0-0.2-0.1-0.3h3.2c-0.1,0.1-0.1,0.2-0.1,0.3
					c0,0.3,0.2,0.6,0.6,0.6c0.3,0,0.6-0.2,0.6-0.6c0-0.1,0-0.2-0.1-0.3h0.3c0.1,0,0.2-0.1,0.2-0.2l0.6-2.4h0l0.8-3.7h1.8
					c0.1,0,0.3-0.1,0.3-0.3C152,221,151.9,220.9,151.7,220.9z"/>
			</g>
			<g style="clip-path:url(#SVGID_00000103961143398435219320000014776290165912339360_);">
				<path class="st19" d="M246,212.3l-6.6-11.4c-3.5-6,0.9-13.6,7.8-13.6h0c7,0,11.3,7.5,7.8,13.6l-6.6,11.4
					C247.9,213.2,246.5,213.2,246,212.3z"/>
				<polygon class="st8" points="247.8,197.6 251.4,192.4 243.1,192.4 246.7,197.6 246.7,201.1 245.1,201.1 245.1,201.8 
					249.4,201.8 249.4,201.1 247.8,201.1 				"/>
			</g>
			<g style="clip-path:url(#SVGID_00000103961143398435219320000014776290165912339360_);">
				<path class="st19" d="M216.8,326.7l-6.6-11.4c-3.5-6,0.9-13.6,7.8-13.6h0c7,0,11.3,7.5,7.8,13.6l-6.6,11.4
					C218.7,327.6,217.3,327.6,216.8,326.7z"/>
				<polygon class="st8" points="218.6,312 222.1,306.8 213.9,306.8 217.4,312 217.4,315.5 215.8,315.5 215.8,316.1 220.2,316.1 
					220.2,315.5 218.6,315.5 				"/>
			</g>
			<g style="clip-path:url(#SVGID_00000103961143398435219320000014776290165912339360_);">
				<path class="st20" d="M160.9,315.9l-6.6-11.4c-3.5-6,0.9-13.6,7.8-13.6l0,0c7,0,11.3,7.5,7.8,13.6l-6.6,11.4
					C162.8,316.9,161.4,316.9,160.9,315.9z"/>
				<g>
					<rect x="156.9" y="297.3" class="st8" width="1.7" height="5"/>
					<rect x="166.1" y="297.3" class="st8" width="1.7" height="5"/>
					<rect x="158.2" y="299.7" class="st8" width="8.8" height="1.2"/>
					<path class="st8" d="M160.8,298.8c0,0.5-0.4,0.9-0.9,0.9c-0.5,0-0.9-0.4-0.9-0.9s0.4-0.9,0.9-0.9
						C160.3,297.9,160.8,298.3,160.8,298.8z"/>
					<path class="st8" d="M160.2,298.6c0.8-0.4,1.8-0.8,2.7-0.6c0.3,0.1,0.6,0.2,0.9,0.3c0.5,0.1,1.1,0.1,1.6-0.1
						c0.3-0.1,0.6-0.2,0.9-0.1c0.3,0.1,0.6,0.4,0.4,0.7c0.2,0.3,0.1,0.8-0.2,1.1c-0.3,0.3-0.7,0.4-1.1,0.4c-0.4,0-0.8,0-1.2-0.1
						c-0.9-0.1-1.8-0.1-2.7,0.1c-0.2,0-0.5,0.1-0.7,0c-0.3-0.1-0.6-0.4-0.7-0.7C160,299.3,160.2,298.9,160.2,298.6z"/>
				</g>
			</g>
			<g style="clip-path:url(#SVGID_00000103961143398435219320000014776290165912339360_);">
				<path class="st20" d="M246,256.5l-6.6-11.4c-3.5-6,0.9-13.6,7.8-13.6l0,0c7,0,11.3,7.5,7.8,13.6l-6.6,11.4
					C247.9,257.4,246.5,257.4,246,256.5z"/>
				<g>
					<rect x="242" y="237.8" class="st8" width="1.7" height="5"/>
					<rect x="251.2" y="237.8" class="st8" width="1.7" height="5"/>
					<rect x="243.3" y="240.3" class="st8" width="8.8" height="1.2"/>
					<path class="st8" d="M245.9,239.4c0,0.5-0.4,0.9-0.9,0.9c-0.5,0-0.9-0.4-0.9-0.9s0.4-0.9,0.9-0.9
						C245.4,238.5,245.9,238.9,245.9,239.4z"/>
					<path class="st8" d="M245.3,239.1c0.8-0.4,1.8-0.8,2.7-0.6c0.3,0.1,0.6,0.2,0.9,0.3c0.5,0.1,1.1,0.1,1.6-0.1
						c0.3-0.1,0.6-0.2,0.9-0.1c0.3,0.1,0.6,0.4,0.4,0.7c0.2,0.3,0.1,0.8-0.2,1.1c-0.3,0.3-0.7,0.4-1.1,0.4c-0.4,0-0.8,0-1.2-0.1
						c-0.9-0.1-1.8-0.1-2.7,0.1c-0.2,0-0.5,0.1-0.7,0c-0.3-0.1-0.6-0.4-0.7-0.7C245.1,239.9,245.3,239.5,245.3,239.1z"/>
				</g>
			</g>
			<g style="clip-path:url(#SVGID_00000103961143398435219320000014776290165912339360_);">
				<path class="st20" d="M45.8,286.2l-6.6-11.4c-3.5-6,0.9-13.6,7.8-13.6l0,0c7,0,11.3,7.5,7.8,13.6l-6.6,11.4
					C47.7,287.1,46.3,287.1,45.8,286.2z"/>
				<g>
					<rect x="41.8" y="267.5" class="st8" width="1.7" height="5"/>
					<rect x="51" y="267.5" class="st8" width="1.7" height="5"/>
					<rect x="43" y="270" class="st8" width="8.8" height="1.2"/>
					<path class="st8" d="M45.6,269.1c0,0.5-0.4,0.9-0.9,0.9c-0.5,0-0.9-0.4-0.9-0.9c0-0.5,0.4-0.9,0.9-0.9
						C45.2,268.2,45.6,268.6,45.6,269.1z"/>
					<path class="st8" d="M45.1,268.8c0.8-0.4,1.8-0.8,2.7-0.6c0.3,0.1,0.6,0.2,0.9,0.3c0.5,0.1,1.1,0.1,1.6-0.1
						c0.3-0.1,0.6-0.2,0.9-0.1c0.3,0.1,0.6,0.4,0.4,0.7c0.2,0.3,0.1,0.8-0.2,1.1c-0.3,0.3-0.7,0.4-1.1,0.4c-0.4,0-0.8,0-1.2-0.1
						c-0.9-0.1-1.8-0.1-2.7,0.1c-0.2,0-0.5,0.1-0.7,0c-0.3-0.1-0.6-0.4-0.7-0.7S45,269.2,45.1,268.8z"/>
				</g>
			</g>
			<g style="clip-path:url(#SVGID_00000103961143398435219320000014776290165912339360_);">
				<path class="st21" d="M294.9,106.6l-6.6-11.4c-3.5-6,0.9-13.6,7.8-13.6h0c7,0,11.3,7.5,7.8,13.6l-6.6,11.4
					C296.8,107.5,295.4,107.5,294.9,106.6z"/>
				<text transform="matrix(1 0 0 1 290.2241 91.5777)" class="st8 st14 st22">ATM</text>
			</g>
			<g style="clip-path:url(#SVGID_00000103961143398435219320000014776290165912339360_);">
				<path class="st12" d="M104.8,97.9l-6.6-11.4c-3.5-6,0.9-13.6,7.8-13.6l0,0c7,0,11.3,7.5,7.8,13.6l-6.6,11.4
					C106.7,98.8,105.3,98.8,104.8,97.9z"/>
				<g>
					<g>
						<polygon class="st8" points="109.9,84.5 102.2,84.5 103.3,78.2 108.7,78.2 						"/>
					</g>
					<g>
						<path class="st8" d="M107.6,79.2h-3.2v-1.3c0-0.9,0.7-1.6,1.6-1.6c0.9,0,1.6,0.7,1.6,1.6V79.2z M104.8,78.7h2.4v-0.9
							c0-0.7-0.5-1.2-1.2-1.2c-0.7,0-1.2,0.5-1.2,1.2V78.7z"/>
					</g>
				</g>
			</g>
		</g>
	</g>
</g>
<g id="Designed_by_Freepik">
</g>
</svg>
