<svg width="1440" height="545" viewBox="0 0 1440 545" fill="none" xmlns="http://www.w3.org/2000/svg">
<g clip-path="url(#clip0_94_7307)">
<g clip-path="url(#clip1_94_7307)">
<path d="M1440 0H0V545H1440V0Z" fill="#F2C58F"/>
<path d="M369.9 0C368.3 100.3 224.6 181.3 47.6 181.3C31.4 181.3 15.5 180.6 0 179.3V0H369.9Z" fill="#E29939"/>
<path d="M1440 0V545H374.6L357 508C357 508 292 382.1 594 351.8C856.1 325.4 730.7 81.7 1018.2 0H1440Z" fill="#E5B06A"/>
<path d="M1158.3 0H286.3V545H1158.3V0Z" fill="#EFD1A3"/>
<path d="M1158.3 0V545H449.5C449 494.6 471.2 404.4 629.1 376.4C785.5 348.7 755.4 136.8 849.5 0H1158.3Z" fill="#F8E7CD"/>
<path d="M698.47 269.316C722.253 245.533 729.661 214.382 715.016 199.737C700.372 185.093 669.22 192.501 645.438 216.283C621.655 240.066 614.247 271.217 628.891 285.862C643.536 300.506 674.687 293.098 698.47 269.316Z" fill="#F8E7CD"/>
<path d="M684.5 133.4C690 141.1 687.3 152.5 678.5 158.8C669.6 165.1 658 164 652.5 156.3C647 148.6 649.7 137.2 658.5 130.9C667.4 124.6 679 125.7 684.5 133.4Z" fill="#F8E7CD"/>
<path d="M448.1 0C421.2 71.4 360.9 126.6 286.3 146.4V0H448.1Z" fill="#F8E7CD"/>
<path d="M1115.7 160.8H990.1V171.3H1115.7V160.8Z" fill="#EB9964"/>
<path d="M1115.7 171.3H990.1V178.3H1115.7V171.3Z" fill="#222D54"/>
<path d="M1109.8 125.2H1084.3V160.8H1109.8V125.2Z" fill="#1DAD91"/>
<path d="M1109.8 125.2H1106V160.8H1109.8V125.2Z" fill="#148C73"/>
<path d="M1100.4 125.2H1093.7V133.6H1100.4V125.2Z" fill="#222D54"/>
<path d="M1029.9 130.4H995.8V160.7H1029.9V130.4Z" fill="#1DAD91"/>
<path d="M1029.9 130.4H1018.4V160.7H1029.9V130.4Z" fill="#148C73"/>
<path d="M1080.2 139.2H1033.9V160.8H1080.2V139.2Z" fill="#FCAF17"/>
<path d="M1080.3 139.2H1066.1V160.8H1080.3V139.2Z" fill="#F7911E"/>
<path d="M917.3 243.7H688.1V250.7H917.3V243.7Z" fill="#222D54"/>
<path d="M917.3 233.1H688.1V243.6H917.3V233.1Z" fill="#EB9964"/>
<path d="M894.8 187.6H796.2V233.5H894.8V187.6Z" fill="#FCAF17"/>
<path d="M894.8 187.6H879.2V233.5H894.8V187.6Z" fill="#F7911E"/>
<path d="M859 187.6H826.7V199.5H859V187.6Z" fill="#222D54"/>
<path d="M750.7 205.5H706.1V233.2H750.7V205.5Z" fill="#1DAD91"/>
<path d="M750.7 205.5H739.7V233.2H750.7V205.5Z" fill="#148C73"/>
<path d="M776 191.2H768.7L762.2 201.1C761.3 202.4 760.9 204 760.9 205.6V233.2H783.8V205.6C783.8 204 783.3 202.5 782.5 201.1L776 191.2Z" fill="#222D54"/>
<path d="M777 187.6H767.8C767.3 187.6 766.9 188 766.9 188.5V190.5C766.9 191 767.3 191.4 767.8 191.4H777C777.5 191.4 777.9 191 777.9 190.5V188.5C777.8 188 777.5 187.6 777 187.6Z" fill="#FCAF17"/>
<path d="M779.4 207.8H765.3V222.4H779.4V207.8Z" fill="#1DAD91"/>
<path d="M776.9 211.9H768V213.7H776.9V211.9Z" fill="#F8E7CD"/>
<path d="M776.9 216.6H768V218.4H776.9V216.6Z" fill="#F8E7CD"/>
<path d="M917.3 160.8H688.1V171.3H917.3V160.8Z" fill="#EB9964"/>
<path d="M917.3 171.3H688.1V178.3H917.3V171.3Z" fill="#222D54"/>
<path d="M755.3 109.2H710.7V160.7H755.3V109.2Z" fill="#FCAF17"/>
<path d="M755.2 109.2H748.8V160.7H755.2V109.2Z" fill="#F7911E"/>
<path d="M738.8 109.2H727.1V121.3H738.8V109.2Z" fill="#222D54"/>
<path d="M796.6 128.3H762.2V160.7H796.6V128.3Z" fill="#222D54"/>
<path d="M839.3 119.4H805.2V160.8H839.3V119.4Z" fill="#1DAD91"/>
<path d="M839.4 119.4H830.4V160.8H839.4V119.4Z" fill="#148C73"/>
<path d="M873.9 142.7H846.8V160.8H873.9V142.7Z" fill="#FCAF17"/>
<path d="M874 142.7H865.8V160.8H874V142.7Z" fill="#F7911E"/>
<path d="M896 112.4H887.5L880 123.9C879 125.4 878.5 127.2 878.5 129.1V161H905V129C905 127.2 904.5 125.4 903.5 123.8L896 112.4Z" fill="#4D609E"/>
<path opacity="0.21" d="M905 129V160.9H901.2V129C901.2 127.2 900.7 125.4 899.7 123.8L892.2 112.3H896L903.5 123.8C904.5 125.3 905 127.2 905 129Z" fill="#222D54"/>
<path d="M897.2 108.2H886.6C886.1 108.2 885.6 108.6 885.6 109.2V111.5C885.6 112.1 886.1 112.5 886.6 112.5H897.2C897.7 112.5 898.2 112.1 898.2 111.5V109.2C898.2 108.6 897.7 108.2 897.2 108.2Z" fill="#222D54"/>
<path d="M899.9 131.5H883.7V148.4H899.9V131.5Z" fill="#222D54"/>
<path d="M897.1 136.1H886.8V138.1H897.1V136.1Z" fill="#F8E7CD"/>
<path d="M897.1 141.7H886.8V143.7H897.1V141.7Z" fill="#F8E7CD"/>
<path d="M952.8 0H952.2V207.7H952.8V0Z" fill="#212120"/>
<path d="M1075.6 0H1075V207.7H1075.6V0Z" fill="#212120"/>
<path d="M1091.7 198.9H938.1C934.8 198.9 932.2 201.5 932.2 204.8V249.3C932.2 252.6 934.8 255.2 938.1 255.2H1091.7C1095 255.2 1097.6 252.6 1097.6 249.3V204.8C1097.6 201.6 1094.9 198.9 1091.7 198.9Z" fill="#4D609E"/>
<path opacity="0.21" d="M1089.2 198.9H940.6C936 198.9 932.2 202.7 932.2 207.3V214.2C932.2 209.6 936 205.8 940.6 205.8H1089.2C1093.8 205.8 1097.6 209.6 1097.6 214.2V207.3C1097.6 202.7 1093.8 198.9 1089.2 198.9Z" fill="#222D54"/>
<path d="M952.8 215.4C956.9 215.4 959.1 217.9 959.1 222.2V223.1H955.1V222C955.1 220.1 954.3 219.3 953 219.3C951.7 219.3 950.9 220 950.9 222C950.9 227.6 959.2 228.6 959.2 236.3C959.2 240.6 957 243.1 952.9 243.1C948.7 243.1 946.6 240.6 946.6 236.3V234.6H950.6V236.5C950.6 238.4 951.4 239.1 952.8 239.1C954.2 239.1 955 238.4 955 236.5C955 230.9 946.7 229.9 946.7 222.2C946.5 217.9 948.7 215.4 952.8 215.4Z" fill="#F8E7CD"/>
<path d="M965.8 242.7H961.6V215.7H965.8V227.3H970.6V215.7H974.9V242.7H970.6V231.1H965.8V242.7Z" fill="#F8E7CD"/>
<path d="M977.7 222.2C977.7 217.9 980 215.4 984.2 215.4C988.4 215.4 990.7 217.9 990.7 222.2V236.3C990.7 240.6 988.4 243.1 984.2 243.1C980 243.1 977.7 240.6 977.7 236.3V222.2ZM981.9 236.5C981.9 238.4 982.7 239.2 984.1 239.2C985.4 239.2 986.3 238.5 986.3 236.5V221.9C986.3 220 985.5 219.2 984.1 219.2C982.8 219.2 981.9 219.9 981.9 221.9V236.5Z" fill="#F8E7CD"/>
<path d="M1005.9 222.4V225.9C1005.9 230.2 1003.8 232.6 999.6 232.6H997.6V242.8H993.4V215.8H999.7C1003.8 215.7 1005.9 218.1 1005.9 222.4ZM997.6 219.6V228.8H999.6C1000.9 228.8 1001.7 228.2 1001.7 226.2V222.1C1001.7 220.2 1001 219.5 999.6 219.5H997.6V219.6Z" fill="#F8E7CD"/>
<path d="M1014.1 215.7H1018.3V238.9H1025.3V242.8H1014.1V215.7Z" fill="#F8E7CD"/>
<path d="M1026.8 222.2C1026.8 217.9 1029.1 215.4 1033.2 215.4C1037.4 215.4 1039.6 217.9 1039.6 222.2V236.3C1039.6 240.6 1037.3 243.1 1033.2 243.1C1029 243.1 1026.8 240.6 1026.8 236.3V222.2ZM1031.1 236.5C1031.1 238.4 1031.9 239.2 1033.3 239.2C1034.7 239.2 1035.5 238.5 1035.5 236.5V221.9C1035.5 220 1034.7 219.2 1033.3 219.2C1031.9 219.2 1031.1 219.9 1031.1 221.9V236.5Z" fill="#F8E7CD"/>
<path d="M1054.8 232.7V236.3C1054.8 240.6 1052.6 243.1 1048.5 243.1C1044.3 243.1 1042.2 240.6 1042.2 236.3V222.2C1042.2 217.9 1044.4 215.4 1048.5 215.4C1052.7 215.4 1054.8 217.9 1054.8 222.2V224.8H1050.8V221.9C1050.8 220 1050 219.2 1048.6 219.2C1047.2 219.2 1046.4 219.9 1046.4 221.9V236.5C1046.4 238.4 1047.2 239.1 1048.6 239.1C1050 239.1 1050.8 238.4 1050.8 236.5V232.6L1054.8 232.7Z" fill="#F8E7CD"/>
<path d="M1071.2 242.7H1066.9L1066.2 237.8H1061L1060.3 242.7H1056.4L1060.7 215.7H1066.9L1071.2 242.7ZM1061.4 234.2H1065.5L1063.4 220.5L1061.4 234.2Z" fill="#F8E7CD"/>
<path d="M1073.1 215.7H1077.3V238.9H1084.3V242.8H1073.1V215.7Z" fill="#F8E7CD"/>
<path d="M1101.5 399H711.6V417.9H1101.5V399Z" fill="#222D54"/>
<path d="M1079.7 417.8H733.1V545H1079.7V417.8Z" fill="#EB9964"/>
<path d="M1079.7 417.9V432.6L733.1 425.8V417.9H1079.7Z" fill="#D37A48"/>
<path d="M1014.4 309.5C1015.6 307.2 1017.1 303.5 1017.2 300.9C1017.4 296.1 1017 289.5 1018 287.1C1019.5 283.6 1023.6 290.7 1024.3 294.1C1025 297.6 1043.4 285.2 1046.1 286C1048.8 286.8 1035.2 295.4 1035.2 295.4C1035.2 295.4 1051.8 285.2 1053.3 286.6C1054.8 288 1038.2 299.2 1038.2 299.2C1038.2 299.2 1051 291 1052.6 293.1C1054.3 295.1 1040.8 302.2 1040.8 302.2C1040.8 302.2 1049.1 298.1 1050.1 299.6C1051.1 301.1 1035.9 306.6 1032.9 310.5C1029.9 314.4 1029.5 315.6 1029.5 315.6L1013.4 311.4L1014.4 309.5Z" fill="#EB9964"/>
<path d="M1013.6 308.7L981.6 348.5L954.9 331.2C930.5 311.7 921.9 308.2 913.4 307.8C911.5 321.5 899.8 332 885.6 332C871.6 332 860.1 321.8 857.9 308.4C828.8 313.5 807.4 338.9 807.4 368.8V398.5L824 398.9H933.8V365.4L989.7 383.2C994.9 384.6 1000.4 382 1002.7 377L1031.2 313.6L1013.6 308.7Z" fill="#FCAF17"/>
<path d="M807.7 363.8C807.6 365.5 807.5 367.2 807.5 368.9V398.6H807.7V363.8Z" fill="#9CCEEF"/>
<path d="M885.7 332.1C899.9 332.1 911.6 321.6 913.5 307.9C910.2 307.7 908.4 308 908.4 308C907.1 307.8 906.4 307.8 906.4 307.8C899.6 305.3 897 297.3 896.1 293.1H873.6C872.7 297.3 870.1 305.2 863.3 307.8C863.3 307.8 862.6 307.8 861.3 308C860.2 308.1 859.2 308.3 858.1 308.5C860.1 321.9 871.7 332.1 885.7 332.1Z" fill="#EB9964"/>
<path d="M884.5 295.9C880.4 295.9 876.7 295.3 873.4 294C873.1 295.4 872.6 297.1 871.8 298.8C877.2 301.6 887.1 305.1 900.7 303.6C898 300.3 896.7 296.1 896.1 293.3C892.6 295 888.6 295.9 884.5 295.9Z" fill="#D37A48"/>
<path d="M933.9 399V315.8C930.5 313.6 927.7 312.1 925.1 310.9V353C925.1 357 921.9 360.2 917.9 360.2H856C852 360.2 848.8 357 848.8 353V310.9C845.8 311.9 843 313.1 840.3 314.6L836.6 399H933.9Z" fill="#1DAD91"/>
<path d="M908.6 265.7C908.8 267.3 908.6 270.7 908.6 272.3C908.6 286.8 898.2 297 885.4 297C872.6 297 863.6 290.6 862.2 266.3C862.2 266.3 875.2 259.5 875.8 245.4L908.6 265.7Z" fill="#EB9964"/>
<path d="M944.3 311.1C944.1 317.8 941.1 337.3 920 338.8C910.3 339.5 901.5 333.7 897.7 324.9C897.3 324 897 323.1 896.7 322.1C895.1 316.5 892.7 305.2 894.7 295.1C894.7 295.1 894.7 295.1 894.7 295C894.9 294.9 895 294.8 895.2 294.8C902.9 291.2 908.2 283.3 908.5 273.2C908.5 272.9 908.5 272.6 908.5 272.3C908.5 270.7 908.7 267.3 908.5 265.7L875.7 245.4C875.1 259.5 862.1 266.3 862.1 266.3C862.1 266.6 862.1 266.8 862.2 267.1C863.4 284.3 868.4 292.3 875.9 295.3C875 299 872.7 305 867.3 307.1C867.3 307.1 866.7 307.1 865.6 307.3C865.6 307.3 865.5 307.3 865.4 307.3C863.2 303.5 860 297.3 856.6 288.7C850.3 272.8 845.3 236.1 871.8 229.9C871.8 229.9 888.2 211.3 906.2 222.7C924.2 234 929.3 257.7 926.1 274.4C926.1 274.4 944.8 292.9 944.3 311.1Z" fill="#222D54"/>
<path d="M869 274.8C869 271.4 866.2 268.6 862.8 268.6C859.4 268.6 856.6 271.4 856.6 274.8C856.6 278.2 859.4 281 862.8 281C866.2 281 869 278.2 869 274.8Z" fill="#EB9964"/>
<path d="M916.3 274.8C916.3 271.4 913.5 268.6 910.1 268.6C906.7 268.6 903.9 271.4 903.9 274.8C903.9 278.2 906.7 281 910.1 281C913.5 281 916.3 278.2 916.3 274.8Z" fill="#EB9964"/>
<path d="M894.7 270.2C894.7 270.9 894.1 271.5 893.4 271.5C892.7 271.5 892.1 270.9 892.1 270.2C892.1 269.5 892.7 268.9 893.4 268.9C894.1 268.9 894.7 269.5 894.7 270.2Z" fill="#222D54"/>
<path d="M874.4 270.2C874.4 270.9 875 271.5 875.7 271.5C876.4 271.5 877 270.9 877 270.2C877 269.5 876.4 268.9 875.7 268.9C875 268.9 874.4 269.5 874.4 270.2Z" fill="#222D54"/>
<path d="M878.2 264.7C875.9 263.1 872.8 263.1 870.5 264.7C870 265.1 869.8 265.7 870.2 266C870.5 266.3 871.1 266.2 871.4 266C873.2 264.8 875.6 264.8 877.3 266C877.7 266.3 878.2 266.3 878.5 266C878.8 265.7 878.7 265.1 878.2 264.7Z" fill="#222D54"/>
<path d="M897.7 264.7C895.4 263.1 892.3 263.1 890 264.7C889.5 265.1 889.3 265.7 889.7 266C890 266.3 890.6 266.2 890.9 266C892.7 264.8 895.1 264.8 896.8 266C897.2 266.3 897.7 266.3 898 266C898.3 265.7 898.2 265.1 897.7 264.7Z" fill="#222D54"/>
<path d="M885.6 289.5C884.3 289.5 883.1 289.2 882 288.5C881.8 288.4 881.8 288.2 881.9 288C882 287.8 882.2 287.8 882.4 287.9C884.3 289 886.9 289 888.8 287.9C889 287.8 889.2 287.9 889.3 288C889.4 288.2 889.3 288.4 889.2 288.5C888 289.2 886.8 289.5 885.6 289.5Z" fill="#222D54"/>
<path d="M887.1 281.6H883.6C883.4 281.6 883.2 281.4 883.2 281.2V270.8C883.2 270.6 883.4 270.4 883.6 270.4C883.8 270.4 884 270.6 884 270.8V280.9H887.1C887.3 280.9 887.5 281.1 887.5 281.3C887.5 281.5 887.3 281.6 887.1 281.6Z" fill="#222D54"/>
<path d="M915 375.7H854.3V399H915V375.7Z" fill="#148C73"/>
<path d="M841.2 315.9V370.7C841.2 374.5 838.2 377.5 834.4 377.5H743.5C739.7 377.5 736.7 374.5 736.7 370.7V315.9C736.7 312.2 739.7 309.1 743.5 309.1H834.4C838.1 309.1 841.2 312.1 841.2 315.9Z" fill="#4D609E"/>
<path d="M841.2 315.9V370.7C841.2 374.5 838.2 377.5 834.4 377.5H827.6C831.4 377.5 834.4 374.5 834.4 370.7V315.9C834.4 312.1 831.4 309.1 827.6 309.1H834.4C838.1 309.1 841.2 312.1 841.2 315.9Z" fill="#222D54"/>
<path d="M798 294H779.7V309.2H798V294Z" fill="#4D609E"/>
<path d="M798 294H779.7V300.1H798V294Z" fill="#222D54"/>
<path d="M818.3 273H759.4C757.1 273 755.1 274.9 755.1 277.3V290.3C755.1 292.7 757 294.6 759.4 294.6H818.3C820.6 294.6 822.6 292.7 822.6 290.3V277.3C822.6 274.9 820.7 273 818.3 273Z" fill="#4D609E"/>
<path d="M759.9 288.9V278.6C759.9 278.1 760.3 277.6 760.9 277.6H817C817.5 277.6 818 278 818 278.6V288.9C818 289.4 817.6 289.9 817 289.9H760.9C760.3 289.9 759.9 289.5 759.9 288.9Z" fill="#222D54"/>
<path d="M830.9 384.8H746.9V399.1H830.9V384.8Z" fill="#4D609E"/>
<path d="M830.9 384.8H818.4V399.1H830.9V384.8Z" fill="#222D54"/>
<path d="M830.9 384.8H746.9V388.4H830.9V384.8Z" fill="#222D54"/>
<path d="M809 330.9H767.2C764.8 330.9 762.9 332.8 762.9 335.2V359.6C762.9 362 764.8 363.9 767.2 363.9H809C811.4 363.9 813.3 362 813.3 359.6V335.2C813.3 332.8 811.4 330.9 809 330.9Z" fill="#C8C7C6"/>
<path d="M809 330.9H767.2C764.8 330.9 762.9 332.8 762.9 335.2V359.6C762.9 362 764.8 363.9 767.2 363.9H809C811.4 363.9 813.3 362 813.3 359.6V335.2C813.3 332.8 811.4 330.9 809 330.9Z" fill="#222D54"/>
<path d="M798.4 344.6H777.9V384.8H798.4V344.6Z" fill="#4D609E"/>
<path d="M783.3 344.6H777.9V384.8H783.3V344.6Z" fill="#6A83C2"/>
<path d="M1062 376.9H1035.5V399.1H1062V376.9Z" fill="#FCAF17"/>
<path d="M1062 376.9H1053.5V399.1H1062V376.9Z" fill="#F6851F"/>
<path d="M1051.9 357.4H1046.1V377.2H1051.9V357.4Z" fill="#E24545"/>
<path d="M1049 369C1059.33 369 1067.7 360.628 1067.7 350.3C1067.7 339.972 1059.33 331.6 1049 331.6C1038.67 331.6 1030.3 339.972 1030.3 350.3C1030.3 360.628 1038.67 369 1049 369Z" fill="#1DAD91"/>
<path d="M1050.4 350.3C1050.4 345.6 1046.6 341.8 1041.9 341.8C1037.2 341.8 1033.4 345.6 1033.4 350.3C1033.4 355 1037.2 358.8 1041.9 358.8C1046.6 358.8 1050.4 355 1050.4 350.3Z" fill="#43BDA4"/>
<path d="M1049 331.5C1045.6 331.5 1042.4 332.4 1039.6 334C1048.5 334.1 1055.6 341.3 1055.6 350.2C1055.6 359.1 1048.4 366.3 1039.6 366.4C1042.4 368 1045.5 368.9 1049 368.9C1059.3 368.9 1067.7 360.5 1067.7 350.2C1067.7 339.9 1059.4 331.5 1049 331.5Z" fill="#148C73"/>
<path d="M358.2 200.5L353.4 202.1C352.8 200.2 351.4 199.3 349.3 199.3C347.1 199.3 346 200 346 201.5C346 202.1 346.2 202.6 346.6 203C347 203.4 348 203.7 349.4 204C351.8 204.5 353.6 205 354.8 205.5C355.9 206 356.9 206.8 357.7 207.9C358.5 209 358.9 210.3 358.9 211.7C358.9 213.9 358.1 215.7 356.4 217.3C354.7 218.9 352.3 219.7 349 219.7C346.5 219.7 344.4 219.1 342.7 218C341 216.9 339.8 215.2 339.3 213L344.5 211.8C345.1 214 346.7 215.2 349.4 215.2C350.7 215.2 351.6 215 352.3 214.5C352.9 214 353.2 213.4 353.2 212.7C353.2 212 352.9 211.5 352.3 211.1C351.7 210.7 350.6 210.3 349 210C345.9 209.4 343.8 208.5 342.5 207.4C341.2 206.3 340.6 204.7 340.6 202.6C340.6 200.5 341.4 198.7 342.9 197.2C344.5 195.7 346.6 195 349.2 195C353.8 194.9 356.9 196.8 358.2 200.5Z" fill="#222D54"/>
<path d="M367.5 194.8V200H362.3V194.8H367.5ZM367.5 201.5V219.3H362.3V201.5H367.5Z" fill="#222D54"/>
<path d="M386.7 205.6V213.1C386.7 214 386.8 214.7 387.1 215C387.4 215.3 388 215.5 389.1 215.5C389.6 215.5 390.1 215.5 390.8 215.4V219.3C389.3 219.6 388.2 219.7 387.5 219.7C385.3 219.7 383.8 219.3 382.9 218.4C382 217.5 381.5 216 381.5 213.9V205.6H378.7V201.5H381.8L382.2 196.3L386.7 195.9V201.5H390.5V205.6H386.7Z" fill="#222D54"/>
<path d="M398.7 194.8V200H393.5V194.8H398.7ZM398.7 201.5V219.3H393.5V201.5H398.7Z" fill="#222D54"/>
<path d="M419 211.3H407.6C407.6 211.6 407.6 211.9 407.6 212.1C407.6 213.4 407.9 214.3 408.6 215C409.3 215.7 410.1 216 411 216C412.7 216 413.8 215.1 414.1 213.2L418.8 213.6C417.5 217.7 414.8 219.8 410.7 219.8C408.9 219.8 407.4 219.4 406.2 218.7C405 218 403.9 217 403.1 215.6C402.3 214.2 401.9 212.6 401.9 210.7C401.9 207.9 402.7 205.6 404.3 203.9C405.9 202.2 408 201.3 410.5 201.3C412.8 201.3 414.7 202.1 416.4 203.7C418.1 205.3 419 207.7 419 211.3ZM407.5 208.2H413.8C413.6 205.8 412.6 204.5 410.8 204.5C408.9 204.6 407.8 205.8 407.5 208.2Z" fill="#222D54"/>
<path d="M437.7 219.3H432.5V209.3C432.5 208.1 432.5 207.3 432.4 206.8C432.3 206.3 432.1 206 431.7 205.7C431.3 205.4 430.9 205.2 430.3 205.2C428.5 205.2 427.5 206.6 427.5 209.3V219.3H422.3V201.5H427.2V204.5C428 203.1 428.8 202.2 429.6 201.7C430.4 201.2 431.2 201.1 432.1 201.1C433.8 201.1 435.1 201.6 436.2 202.5C437.3 203.4 437.7 205.2 437.7 207.9V219.3Z" fill="#222D54"/>
<path d="M458 211.3H446.6C446.6 211.6 446.6 211.9 446.6 212.1C446.6 213.4 446.9 214.3 447.6 215C448.3 215.7 449.1 216 450 216C451.7 216 452.8 215.1 453.1 213.2L457.8 213.6C456.5 217.7 453.8 219.8 449.7 219.8C447.9 219.8 446.4 219.4 445.2 218.7C444 218 442.9 217 442.1 215.6C441.3 214.2 440.9 212.6 440.9 210.7C440.9 207.9 441.7 205.6 443.3 203.9C444.9 202.2 447 201.3 449.5 201.3C451.8 201.3 453.7 202.1 455.4 203.7C457.1 205.3 458 207.7 458 211.3ZM446.5 208.2H452.8C452.6 205.8 451.6 204.5 449.8 204.5C447.9 204.6 446.8 205.8 446.5 208.2Z" fill="#222D54"/>
<path d="M474.6 205.8L470.8 206.8C470.4 205.2 469.2 204.4 467.3 204.4C465.5 204.4 464.7 204.9 464.7 206C464.7 206.4 464.9 206.8 465.2 207C465.5 207.3 466.4 207.5 467.7 207.6C469.7 207.9 471.2 208.2 472.2 208.5C473.2 208.8 473.9 209.4 474.5 210.3C475.1 211.2 475.4 212.2 475.4 213.4C475.4 215.2 474.7 216.7 473.3 217.9C471.9 219.1 470 219.6 467.5 219.6C463 219.6 460.3 217.8 459.4 214.3L463.8 213.6C464.2 215.2 465.5 216 467.7 216C468.6 216 469.3 215.8 469.9 215.5C470.5 215.2 470.8 214.8 470.8 214.2C470.8 213.4 470.1 212.9 468.8 212.7C465.2 212.3 462.9 211.6 461.7 210.6C460.5 209.6 460 208.4 460 206.7C460 205 460.7 203.6 462 202.5C463.3 201.4 465.2 200.8 467.5 200.8C469.4 200.8 470.9 201.2 472 201.9C473.1 202.6 474 204.2 474.6 205.8Z" fill="#222D54"/>
<path d="M502.5 201.5V219.3H497.6V216.3C496.7 218.6 494.9 219.7 492.4 219.7C491.1 219.7 490 219.5 489.3 219C488.6 218.5 488.1 217.8 487.8 217C487.5 216.2 487.3 214.9 487.3 213.3V201.7H492.4V213.3C492.4 214.9 493.1 215.7 494.4 215.7C495.1 215.7 495.6 215.5 496.1 215.1C496.6 214.7 496.9 214.3 497 213.9C497.1 213.5 497.2 212.7 497.2 211.7V201.7H502.5V201.5Z" fill="#222D54"/>
<path d="M522.3 219.3H517V209.3C517 208.1 517 207.3 516.9 206.8C516.8 206.3 516.6 206 516.2 205.7C515.8 205.4 515.4 205.2 514.8 205.2C513 205.2 512 206.6 512 209.3V219.3H506.8V201.5H511.7V204.5C512.5 203.1 513.3 202.2 514.1 201.7C514.9 201.2 515.7 201.1 516.6 201.1C518.3 201.1 519.6 201.6 520.7 202.5C521.8 203.4 522.2 205.2 522.2 207.9V219.3H522.3Z" fill="#222D54"/>
<path d="M357 255.8C356.8 257.9 356 259.6 354.5 260.9C353 262.2 351.2 262.8 348.8 262.8C346.3 262.8 344.3 262 342.7 260.3C341.1 258.6 340.3 256.4 340.3 253.6C340.3 250.8 341.1 248.6 342.7 246.8C344.3 245 346.5 244.2 349.2 244.2C351.4 244.2 353.2 244.9 354.6 246.2C356 247.5 356.8 249.1 357 251.1L352.1 251.4C351.9 249.3 351 248.2 349.3 248.2C347.2 248.2 346.2 249.9 346.2 253.3C346.2 255.6 346.5 257 347.1 257.6C347.7 258.2 348.4 258.5 349.2 258.5C350.8 258.5 351.8 257.5 352.1 255.4L357 255.8Z" fill="#222D54"/>
<path d="M367.2 244.3C369.9 244.3 372 245.2 373.5 247C375 248.8 375.8 251 375.8 253.6C375.8 256.2 375 258.4 373.4 260.2C371.8 262 369.7 262.8 367.1 262.8C364.6 262.8 362.5 261.9 361 260.2C359.5 258.5 358.7 256.2 358.7 253.5C358.7 251.6 359 250 359.7 248.7C360.4 247.4 361.3 246.3 362.5 245.5C363.8 244.8 365.3 244.3 367.2 244.3ZM367.3 247.8C366.3 247.8 365.6 248.2 365.1 249C364.6 249.8 364.3 251.3 364.3 253.6C364.3 255.7 364.5 257.2 365 258.1C365.5 259 366.2 259.5 367.2 259.5C368.1 259.5 368.8 259.1 369.4 258.3C370 257.5 370.2 256 370.2 253.8C370.2 251.5 370 249.9 369.5 249.1C369 248.3 368.3 247.8 367.3 247.8Z" fill="#222D54"/>
<path d="M404.4 262.5H399.2V252.7C399.2 251.3 399.2 250.4 399.1 250C399 249.6 398.8 249.2 398.5 249C398.2 248.8 397.7 248.6 397.1 248.6C396.5 248.6 395.9 248.8 395.3 249.2C394.7 249.6 394.4 250.8 394.4 252.7V262.5H389.2V252.7C389.2 251.3 389.1 250.4 389 249.9C388.9 249.4 388.6 249.1 388.3 248.9C388 248.7 387.5 248.5 386.9 248.5C386 248.5 385.3 248.8 384.9 249.4C384.5 250 384.2 251.1 384.2 252.7V262.5H379.1V244.7H384V247.4C384.8 245.3 386.5 244.3 389 244.3C391.3 244.3 392.9 245.3 393.9 247.4C394.9 245.3 396.6 244.3 399.1 244.3C400.3 244.3 401.3 244.5 402.1 245C402.9 245.5 403.5 246.1 403.9 246.9C404.3 247.7 404.4 249 404.4 250.9V262.5Z" fill="#222D54"/>
<path d="M424.7 254.5H413.3C413.3 254.8 413.3 255.1 413.3 255.3C413.3 256.6 413.6 257.5 414.3 258.2C415 258.9 415.8 259.2 416.7 259.2C418.4 259.2 419.5 258.3 419.8 256.4L424.5 256.8C423.2 260.9 420.5 263 416.4 263C414.6 263 413.1 262.6 411.9 261.9C410.7 261.2 409.6 260.2 408.8 258.8C408 257.4 407.6 255.8 407.6 253.9C407.6 251.1 408.4 248.8 410 247.1C411.6 245.4 413.7 244.5 416.2 244.5C418.5 244.5 420.4 245.3 422.1 246.9C423.8 248.5 424.7 250.9 424.7 254.5ZM413.2 251.4H419.5C419.3 249 418.3 247.7 416.5 247.7C414.6 247.8 413.5 249 413.2 251.4Z" fill="#222D54"/>
<path d="M433.1 262.5H428V244.7H432.8V248C433.5 245.5 434.8 244.3 436.6 244.3C436.9 244.3 437.2 244.3 437.5 244.4V249.6C436.4 249.6 435.6 249.8 435 250.1C434.4 250.4 433.9 251 433.5 251.9C433.1 252.8 432.9 253.9 432.9 255.3V262.5H433.1Z" fill="#222D54"/>
<path d="M456.1 255.8C455.9 257.9 455.1 259.6 453.6 260.9C452.1 262.2 450.3 262.8 447.9 262.8C445.4 262.8 443.4 262 441.8 260.3C440.2 258.6 439.4 256.4 439.4 253.6C439.4 250.8 440.2 248.6 441.8 246.8C443.4 245 445.6 244.2 448.3 244.2C450.5 244.2 452.3 244.9 453.7 246.2C455.1 247.5 455.9 249.1 456.1 251.1L451.2 251.4C451 249.3 450.1 248.2 448.4 248.2C446.3 248.2 445.3 249.9 445.3 253.3C445.3 255.6 445.6 257 446.2 257.6C446.8 258.2 447.5 258.5 448.3 258.5C449.9 258.5 450.9 257.5 451.2 255.4L456.1 255.8Z" fill="#222D54"/>
<path d="M464.2 238V243.2H459V238H464.2ZM464.2 244.7V262.5H459V244.7H464.2Z" fill="#222D54"/>
<path d="M475.8 244.3C478.5 244.3 480.6 245.2 482.1 247C483.6 248.8 484.4 251 484.4 253.6C484.4 256.2 483.6 258.4 482 260.2C480.4 262 478.3 262.8 475.7 262.8C473.2 262.8 471.1 261.9 469.6 260.2C468.1 258.5 467.3 256.2 467.3 253.5C467.3 251.6 467.6 250 468.3 248.7C469 247.4 469.9 246.3 471.1 245.5C472.5 244.8 474 244.3 475.8 244.3ZM476 247.8C475 247.8 474.3 248.2 473.8 249C473.3 249.8 473 251.3 473 253.6C473 255.7 473.2 257.2 473.7 258.1C474.2 259 474.9 259.5 475.9 259.5C476.8 259.5 477.5 259.1 478.1 258.3C478.7 257.5 478.9 256 478.9 253.8C478.9 251.5 478.7 249.9 478.2 249.1C477.7 248.3 477 247.8 476 247.8Z" fill="#222D54"/>
<path d="M496.7 262.5V238.5H501.9V262.5H496.7Z" fill="#222D54"/>
<path d="M513.6 244.3C516.3 244.3 518.4 245.2 519.9 247C521.4 248.8 522.2 251 522.2 253.6C522.2 256.2 521.4 258.4 519.8 260.2C518.2 262 516.1 262.8 513.5 262.8C511 262.8 508.9 261.9 507.4 260.2C505.9 258.5 505.1 256.2 505.1 253.5C505.1 251.6 505.4 250 506.1 248.7C506.8 247.4 507.7 246.3 508.9 245.5C510.3 244.8 511.8 244.3 513.6 244.3ZM513.8 247.8C512.8 247.8 512.1 248.2 511.6 249C511.1 249.8 510.8 251.3 510.8 253.6C510.8 255.7 511 257.2 511.5 258.1C512 259 512.7 259.5 513.7 259.5C514.6 259.5 515.3 259.1 515.9 258.3C516.5 257.5 516.7 256 516.7 253.8C516.7 251.5 516.5 249.9 516 249.1C515.5 248.3 514.8 247.8 513.8 247.8Z" fill="#222D54"/>
<path d="M541.1 255.8C540.9 257.9 540.1 259.6 538.6 260.9C537.1 262.2 535.3 262.8 532.9 262.8C530.4 262.8 528.4 262 526.8 260.3C525.2 258.6 524.4 256.4 524.4 253.6C524.4 250.8 525.2 248.6 526.8 246.8C528.4 245 530.6 244.2 533.3 244.2C535.5 244.2 537.3 244.9 538.7 246.2C540.1 247.5 540.9 249.1 541.1 251.1L536.2 251.4C536 249.3 535.1 248.2 533.4 248.2C531.3 248.2 530.3 249.9 530.3 253.3C530.3 255.6 530.6 257 531.2 257.6C531.8 258.2 532.5 258.5 533.3 258.5C534.9 258.5 535.9 257.5 536.2 255.4L541.1 255.8Z" fill="#222D54"/>
<path d="M559.4 262.5H554.3C554.1 261.8 554.1 260.9 554.1 259.7C553.2 261 552.3 261.8 551.4 262.2C550.5 262.6 549.5 262.8 548.4 262.8C546.7 262.8 545.4 262.3 544.4 261.4C543.4 260.5 542.9 259.3 542.9 257.8C542.9 256.7 543.2 255.7 543.8 254.7C544.4 253.7 545.4 253 546.7 252.5C548 252 550.4 251.6 553.9 251.3V250.3C553.9 248.6 553 247.7 551.3 247.7C549.5 247.7 548.4 248.6 548.2 250.3L543.4 249.8C543.7 247.8 544.7 246.4 546.3 245.5C547.9 244.6 549.7 244.2 551.7 244.2C552.9 244.2 554 244.3 555.1 244.6C556.2 244.9 557 245.3 557.6 245.9C558.2 246.5 558.6 247.1 558.8 247.7C559 248.3 559.1 249.4 559.1 251V259.1C559.1 260.7 559.2 261.8 559.4 262.5ZM553.9 254C550.2 254.4 548.4 255.5 548.4 257.3C548.4 257.9 548.6 258.5 549 258.9C549.4 259.3 549.9 259.6 550.6 259.6C551.5 259.6 552.3 259.2 552.9 258.4C553.5 257.6 553.8 256.7 553.8 255.6V254H553.9Z" fill="#222D54"/>
<path d="M563.5 262.5V238.5H568.7V262.5H563.5Z" fill="#222D54"/>
<path d="M353.4 304.1V314.1C353.4 315.7 353.2 316.9 352.8 317.7C352.4 318.5 351.8 319.1 350.8 319.6C349.8 320.1 348.5 320.4 347 320.4C345.5 320.4 344.2 320.2 343.3 319.7C342.4 319.2 341.7 318.6 341.3 317.8C340.9 317 340.6 315.7 340.6 314.1V304.1H344.7V314.1C344.7 315 344.8 315.6 344.9 316C345 316.4 345.3 316.7 345.8 317C346.3 317.3 346.8 317.4 347.4 317.4C348.1 317.4 348.7 317.3 349.1 317C349.5 316.7 349.8 316.5 350 316.1C350.2 315.7 350.2 315.1 350.2 314.2V304.2L353.4 304.1ZM350.2 298.6L351.1 300.6L345.9 302.8L345.3 301.5L350.2 298.6Z" fill="#222D54"/>
<path d="M366.5 320.1H363V313.5C363 312.7 363 312.1 362.9 311.8C362.8 311.5 362.7 311.3 362.4 311C362.1 310.7 361.9 310.7 361.5 310.7C360.3 310.7 359.7 311.6 359.7 313.4V320H356.2V308.2H359.4V310.2C359.9 309.2 360.5 308.6 361 308.4C361.5 308.2 362.1 308 362.7 308C363.8 308 364.7 308.3 365.4 308.9C366.1 309.5 366.4 310.7 366.4 312.5L366.5 320.1Z" fill="#222D54"/>
<path d="M380.1 314.7H372.5C372.5 314.9 372.5 315.1 372.5 315.3C372.5 316.1 372.7 316.8 373.2 317.2C373.7 317.6 374.2 317.8 374.8 317.8C376 317.8 376.7 317.2 376.9 315.9L380.1 316.1C379.2 318.8 377.4 320.2 374.7 320.2C373.5 320.2 372.5 320 371.7 319.5C370.9 319 370.2 318.3 369.7 317.4C369.2 316.5 368.9 315.4 368.9 314.1C368.9 312.2 369.4 310.7 370.5 309.5C371.6 308.3 373 307.8 374.6 307.8C376.1 307.8 377.4 308.3 378.5 309.4C379.6 310.5 380.1 312.4 380.1 314.7ZM372.4 312.7H376.6C376.5 311.1 375.8 310.3 374.6 310.3C373.3 310.3 372.6 311.1 372.4 312.7Z" fill="#222D54"/>
<path d="M386.2 311V316C386.2 316.6 386.3 317 386.5 317.3C386.7 317.5 387.1 317.6 387.8 317.6C388.1 317.6 388.5 317.6 388.9 317.6V320.2C387.9 320.4 387.2 320.5 386.7 320.5C385.2 320.5 384.2 320.2 383.6 319.7C383 319.2 382.7 318.1 382.7 316.7V311H380.8V308.3H382.9L383.2 304.8L386.2 304.6V308.3H388.7V311H386.2Z" fill="#222D54"/>
<path d="M401.2 314.7H393.6C393.6 314.9 393.6 315.1 393.6 315.3C393.6 316.1 393.8 316.8 394.3 317.2C394.8 317.6 395.3 317.8 395.9 317.8C397.1 317.8 397.8 317.2 398 315.9L401.2 316.1C400.3 318.8 398.5 320.2 395.8 320.2C394.6 320.2 393.6 320 392.8 319.5C392 319 391.3 318.3 390.8 317.4C390.3 316.5 390 315.4 390 314.1C390 312.2 390.5 310.7 391.6 309.5C392.7 308.3 394.1 307.8 395.7 307.8C397.2 307.8 398.5 308.3 399.6 309.4C400.7 310.5 401.2 312.4 401.2 314.7ZM393.6 312.7H397.8C397.7 311.1 397 310.3 395.8 310.3C394.5 310.3 393.7 311.1 393.6 312.7Z" fill="#222D54"/>
<path d="M419.7 320.1H416.3C416.2 319.6 416.1 319 416.1 318.2C415.5 319 414.9 319.6 414.3 319.9C413.7 320.2 413 320.3 412.3 320.3C411.2 320.3 410.3 320 409.6 319.4C408.9 318.8 408.6 318 408.6 317C408.6 316.3 408.8 315.6 409.2 314.9C409.6 314.2 410.2 313.8 411.1 313.4C412 313 413.6 312.8 415.9 312.6V312C415.9 310.9 415.3 310.3 414.2 310.3C413 310.3 412.3 310.9 412.2 312L409 311.7C409.2 310.4 409.8 309.4 410.9 308.8C412 308.2 413.2 308 414.5 308C415.3 308 416.1 308.1 416.8 308.3C417.5 308.5 418.1 308.8 418.5 309.1C418.9 309.4 419.2 309.9 419.3 310.3C419.4 310.7 419.5 311.4 419.5 312.5V317.9C419.5 318.9 419.6 319.6 419.7 320.1ZM416 314.4C413.6 314.6 412.3 315.4 412.3 316.6C412.3 317 412.4 317.4 412.7 317.7C413 318 413.3 318.2 413.8 318.2C414.4 318.2 414.9 317.9 415.3 317.4C415.7 316.9 415.9 316.3 415.9 315.5V314.4H416Z" fill="#222D54"/>
<path d="M438.7 320.1H435.2V313.5C435.2 312.7 435.2 312.1 435.1 311.8C435 311.5 434.9 311.3 434.6 311C434.3 310.7 434.1 310.7 433.7 310.7C432.5 310.7 431.9 311.6 431.9 313.4V320H428.4V308.2H431.6V310.2C432.1 309.2 432.7 308.6 433.2 308.4C433.7 308.2 434.3 308 434.9 308C436 308 436.9 308.3 437.6 308.9C438.3 309.5 438.6 310.7 438.6 312.5L438.7 320.1Z" fill="#222D54"/>
<path d="M451.7 308.2V320H448.5V318C447.9 319.5 446.7 320.3 445 320.3C444.1 320.3 443.4 320.1 442.9 319.8C442.4 319.5 442.1 319 441.9 318.4C441.7 317.8 441.6 317 441.6 315.9V308.2H445V315.9C445 317 445.4 317.5 446.3 317.5C446.7 317.5 447.1 317.4 447.5 317.1C447.9 316.8 448 316.6 448.1 316.3C448.2 316 448.2 315.5 448.2 314.8V308.2H451.7Z" fill="#222D54"/>
<path d="M465.2 314.7H457.6C457.6 314.9 457.6 315.1 457.6 315.3C457.6 316.1 457.8 316.8 458.3 317.2C458.8 317.6 459.3 317.8 459.9 317.8C461.1 317.8 461.8 317.2 462 315.9L465.2 316.1C464.3 318.8 462.5 320.2 459.8 320.2C458.6 320.2 457.6 320 456.8 319.5C456 319 455.3 318.3 454.8 317.4C454.3 316.5 454 315.4 454 314.1C454 312.2 454.5 310.7 455.6 309.5C456.7 308.3 458.1 307.8 459.7 307.8C461.2 307.8 462.5 308.3 463.6 309.4C464.7 310.5 465.2 312.4 465.2 314.7ZM457.6 312.7H461.8C461.7 311.1 461 310.3 459.8 310.3C458.5 310.3 457.7 311.1 457.6 312.7Z" fill="#222D54"/>
<path d="M476.3 311.1L473.8 311.8C473.5 310.7 472.7 310.2 471.5 310.2C470.3 310.2 469.7 310.6 469.7 311.3C469.7 311.6 469.8 311.8 470 312C470.2 312.2 470.8 312.3 471.7 312.4C473.1 312.6 474.1 312.8 474.7 313C475.3 313.2 475.9 313.6 476.2 314.2C476.5 314.8 476.8 315.4 476.8 316.3C476.8 317.5 476.3 318.5 475.4 319.3C474.5 320.1 473.2 320.4 471.5 320.4C468.5 320.4 466.7 319.2 466.1 316.9L469 316.5C469.2 317.6 470.1 318.1 471.6 318.1C472.2 318.1 472.7 318 473.1 317.8C473.5 317.6 473.7 317.3 473.7 317C473.7 316.5 473.3 316.1 472.4 316C470 315.7 468.4 315.2 467.7 314.6C467 314 466.6 313.1 466.6 312C466.6 310.9 467 309.9 467.9 309.2C468.8 308.5 470 308.1 471.6 308.1C472.8 308.1 473.8 308.3 474.6 308.8C475.4 309.3 475.9 310 476.3 311.1Z" fill="#222D54"/>
<path d="M482.9 311V316C482.9 316.6 483 317 483.2 317.3C483.4 317.5 483.8 317.6 484.5 317.6C484.8 317.6 485.2 317.6 485.6 317.6V320.2C484.6 320.4 483.9 320.5 483.4 320.5C481.9 320.5 480.9 320.2 480.3 319.7C479.7 319.2 479.4 318.1 479.4 316.7V311H477.5V308.3H479.6L479.9 304.8L482.9 304.6V308.3H485.4V311H482.9Z" fill="#222D54"/>
<path d="M490.8 320.1H487.4V308.3H490.6V310.5C491.1 308.9 491.9 308 493.2 308C493.4 308 493.6 308 493.8 308V311.4C493.1 311.4 492.5 311.5 492.1 311.7C491.7 311.9 491.4 312.3 491.1 312.9C490.8 313.5 490.7 314.2 490.7 315.2L490.8 320.1Z" fill="#222D54"/>
<path d="M506 320.1H502.6C502.5 319.6 502.4 319 502.4 318.2C501.8 319 501.2 319.6 500.6 319.9C500 320.2 499.3 320.3 498.6 320.3C497.5 320.3 496.6 320 495.9 319.4C495.2 318.8 494.9 318 494.9 317C494.9 316.3 495.1 315.6 495.5 314.9C495.9 314.2 496.5 313.8 497.4 313.4C498.3 313 499.9 312.8 502.2 312.6V312C502.2 310.9 501.6 310.3 500.5 310.3C499.3 310.3 498.6 310.9 498.5 312L495.3 311.7C495.5 310.4 496.1 309.4 497.2 308.8C498.3 308.2 499.5 308 500.8 308C501.6 308 502.4 308.1 503.1 308.3C503.8 308.5 504.4 308.8 504.8 309.1C505.2 309.4 505.5 309.9 505.6 310.3C505.7 310.7 505.8 311.4 505.8 312.5V317.9C505.8 318.9 505.9 319.6 506 320.1ZM502.3 314.4C499.9 314.6 498.6 315.4 498.6 316.6C498.6 317 498.7 317.4 499 317.7C499.3 318 499.6 318.2 500.1 318.2C500.7 318.2 501.2 317.9 501.6 317.4C502 316.9 502.2 316.3 502.2 315.5V314.4H502.3Z" fill="#222D54"/>
<path d="M514.7 324.1V308.3H517.9V310C518.5 308.7 519.5 308 521 308C522.3 308 523.3 308.5 524.1 309.5C524.9 310.5 525.3 312 525.3 314C525.3 316.1 524.9 317.7 524.1 318.7C523.3 319.7 522.2 320.3 520.9 320.3C519.6 320.3 518.6 319.8 518 318.7V324L514.7 324.1ZM518.1 314.9C518.1 315.7 518.2 316.3 518.3 316.6C518.4 316.9 518.6 317.2 518.9 317.5C519.2 317.8 519.6 317.9 520 317.9C520.5 317.9 520.9 317.7 521.3 317.2C521.7 316.7 521.9 315.6 521.9 314C521.9 311.7 521.3 310.5 520 310.5C519.5 310.5 519.1 310.7 518.7 311.1C518.3 311.5 518.1 312.2 518.1 313.2V314.9Z" fill="#222D54"/>
<path d="M527.7 320.1V304.1H531.2V320.1H527.7Z" fill="#222D54"/>
<path d="M544.4 320.1H541C540.9 319.6 540.8 319 540.8 318.2C540.2 319 539.6 319.6 539 319.9C538.4 320.2 537.7 320.3 537 320.3C535.9 320.3 535 320 534.3 319.4C533.6 318.8 533.3 318 533.3 317C533.3 316.3 533.5 315.6 533.9 314.9C534.3 314.2 534.9 313.8 535.8 313.4C536.7 313 538.3 312.8 540.6 312.6V312C540.6 310.9 540 310.3 538.9 310.3C537.7 310.3 537 310.9 536.9 312L533.7 311.7C533.9 310.4 534.5 309.4 535.6 308.8C536.7 308.2 537.9 308 539.2 308C540 308 540.8 308.1 541.5 308.3C542.2 308.5 542.8 308.8 543.2 309.1C543.6 309.4 543.9 309.9 544 310.3C544.1 310.7 544.2 311.4 544.2 312.5V317.9C544.1 318.9 544.2 319.6 544.4 320.1ZM540.7 314.4C538.3 314.6 537 315.4 537 316.6C537 317 537.1 317.4 537.4 317.7C537.7 318 538 318.2 538.5 318.2C539.1 318.2 539.6 317.9 540 317.4C540.4 316.9 540.6 316.3 540.6 315.5V314.4H540.7Z" fill="#222D54"/>
<path d="M551 311V316C551 316.6 551.1 317 551.3 317.3C551.5 317.5 551.9 317.6 552.6 317.6C552.9 317.6 553.3 317.6 553.7 317.6V320.2C552.7 320.4 552 320.5 551.5 320.5C550 320.5 549 320.2 548.4 319.7C547.8 319.2 547.5 318.1 547.5 316.7V311H545.6V308.3H547.7L548 304.8L551 304.6V308.3H553.5V311H551Z" fill="#222D54"/>
<path d="M566 320.1H562.6C562.5 319.6 562.4 319 562.4 318.2C561.8 319 561.2 319.6 560.6 319.9C560 320.2 559.3 320.3 558.6 320.3C557.5 320.3 556.6 320 555.9 319.4C555.2 318.8 554.9 318 554.9 317C554.9 316.3 555.1 315.6 555.5 314.9C555.9 314.2 556.5 313.8 557.4 313.4C558.3 313 559.9 312.8 562.2 312.6V312C562.2 310.9 561.6 310.3 560.5 310.3C559.3 310.3 558.6 310.9 558.5 312L555.3 311.7C555.5 310.4 556.1 309.4 557.2 308.8C558.3 308.2 559.5 308 560.8 308C561.6 308 562.4 308.1 563.1 308.3C563.8 308.5 564.4 308.8 564.8 309.1C565.2 309.4 565.5 309.9 565.6 310.3C565.7 310.7 565.8 311.4 565.8 312.5V317.9C565.8 318.9 565.9 319.6 566 320.1ZM562.3 314.4C559.9 314.6 558.6 315.4 558.6 316.6C558.6 317 558.7 317.4 559 317.7C559.3 318 559.6 318.2 560.1 318.2C560.7 318.2 561.2 317.9 561.6 317.4C562 316.9 562.2 316.3 562.2 315.5V314.4H562.3Z" fill="#222D54"/>
<path d="M572.3 311V320.1H568.9V311H567.5V308.3H568.9C568.9 307.1 569 306.2 569.2 305.6C569.4 305 569.8 304.5 570.4 304.1C571 303.7 572 303.4 573.1 303.4C573.6 303.4 574.1 303.4 574.7 303.5V306.2C574.2 306.2 573.8 306.1 573.5 306.1C573 306.1 572.7 306.2 572.6 306.5C572.5 306.8 572.4 307.2 572.4 307.7V308.1H574.5V310.8H572.3V311Z" fill="#222D54"/>
<path d="M581.1 308C582.9 308 584.3 308.6 585.3 309.8C586.3 311 586.8 312.5 586.8 314.2C586.8 316 586.3 317.4 585.2 318.6C584.2 319.8 582.8 320.4 581 320.4C579.3 320.4 578 319.8 577 318.7C576 317.6 575.5 316.1 575.5 314.2C575.5 312.9 575.7 311.9 576.2 311C576.7 310.1 577.3 309.4 578.1 308.9C578.9 308.3 579.9 308 581.1 308ZM581.2 310.3C580.5 310.3 580 310.6 579.7 311.1C579.4 311.6 579.2 312.6 579.2 314.2C579.2 315.6 579.4 316.6 579.7 317.2C580 317.8 580.5 318.1 581.2 318.1C581.8 318.1 582.3 317.8 582.6 317.3C582.9 316.8 583.1 315.8 583.1 314.3C583.1 312.7 582.9 311.7 582.6 311.1C582.3 310.5 581.8 310.3 581.2 310.3Z" fill="#222D54"/>
<path d="M592.4 320.1H589V308.3H592.2V310.5C592.7 308.9 593.5 308 594.8 308C595 308 595.2 308 595.4 308V311.4C594.7 311.4 594.1 311.5 593.7 311.7C593.3 311.9 593 312.3 592.7 312.9C592.4 313.5 592.3 314.2 592.3 315.2V320.1H592.4Z" fill="#222D54"/>
<path d="M614.3 320.1H610.8V313.5C610.8 312.6 610.8 312 610.7 311.7C610.6 311.4 610.5 311.2 610.3 311C610.1 310.8 609.8 310.7 609.3 310.7C608.9 310.7 608.5 310.8 608.1 311.1C607.7 311.4 607.5 312.2 607.5 313.5V320.1H604V313.5C604 312.6 604 311.9 603.9 311.7C603.8 311.5 603.7 311.2 603.4 311C603.1 310.8 602.9 310.7 602.5 310.7C601.9 310.7 601.5 310.9 601.2 311.3C600.9 311.7 600.8 312.4 600.8 313.5V320.1H597.4V308.3H600.7V310.1C601.3 308.7 602.4 308 604 308C605.5 308 606.6 308.7 607.3 310.1C608 308.7 609.1 308 610.7 308C611.5 308 612.2 308.2 612.7 308.5C613.2 308.8 613.7 309.2 613.9 309.8C614.1 310.4 614.3 311.2 614.3 312.5V320.1Z" fill="#222D54"/>
<path d="M627.5 320.1H624.1C624 319.6 623.9 319 623.9 318.2C623.3 319 622.7 319.6 622.1 319.9C621.5 320.2 620.8 320.3 620.1 320.3C619 320.3 618.1 320 617.4 319.4C616.7 318.8 616.4 318 616.4 317C616.4 316.3 616.6 315.6 617 314.9C617.4 314.2 618 313.8 618.9 313.4C619.8 313 621.4 312.8 623.7 312.6V312C623.7 310.9 623.1 310.3 622 310.3C620.8 310.3 620.1 310.9 620 312L616.8 311.7C617 310.4 617.6 309.4 618.7 308.8C619.8 308.2 621 308 622.3 308C623.1 308 623.9 308.1 624.6 308.3C625.3 308.5 625.9 308.8 626.3 309.1C626.7 309.4 627 309.9 627.1 310.3C627.2 310.7 627.3 311.4 627.3 312.5V317.9C627.3 318.9 627.3 319.6 627.5 320.1ZM623.8 314.4C621.4 314.6 620.1 315.4 620.1 316.6C620.1 317 620.2 317.4 620.5 317.7C620.8 318 621.1 318.2 621.6 318.2C622.2 318.2 622.7 317.9 623.1 317.4C623.5 316.9 623.7 316.3 623.7 315.5V314.4H623.8Z" fill="#222D54"/>
<path d="M451 389H357.8C351.2 389 345.8 383.6 345.8 377V374.4C345.8 367.8 351.2 362.4 357.8 362.4H451C457.6 362.4 463 367.8 463 374.4V377C463 383.6 457.6 389 451 389Z" fill="#222D54"/>
<path d="M374.392 372.141C374.323 371.557 374.042 371.103 373.55 370.781C373.059 370.458 372.455 370.297 371.741 370.297C371.218 370.297 370.761 370.381 370.369 370.55C369.981 370.719 369.678 370.952 369.459 371.247C369.244 371.543 369.136 371.879 369.136 372.256C369.136 372.571 369.211 372.842 369.361 373.068C369.515 373.291 369.71 373.478 369.949 373.627C370.187 373.773 370.437 373.894 370.698 373.99C370.959 374.083 371.199 374.158 371.418 374.215L372.617 374.538C372.924 374.619 373.266 374.73 373.643 374.872C374.023 375.014 374.386 375.208 374.732 375.454C375.081 375.696 375.369 376.007 375.596 376.388C375.823 376.768 375.936 377.235 375.936 377.788C375.936 378.426 375.769 379.002 375.435 379.517C375.104 380.032 374.62 380.441 373.983 380.744C373.349 381.048 372.578 381.2 371.672 381.2C370.826 381.2 370.095 381.063 369.476 380.79C368.861 380.518 368.377 380.137 368.024 379.649C367.674 379.162 367.476 378.595 367.43 377.949H368.906C368.944 378.395 369.094 378.764 369.355 379.056C369.62 379.344 369.954 379.559 370.358 379.701C370.765 379.84 371.203 379.909 371.672 379.909C372.217 379.909 372.707 379.82 373.141 379.644C373.575 379.463 373.919 379.213 374.173 378.895C374.426 378.572 374.553 378.195 374.553 377.765C374.553 377.373 374.444 377.054 374.225 376.808C374.006 376.563 373.717 376.363 373.36 376.209C373.003 376.055 372.617 375.921 372.202 375.806L370.75 375.391C369.828 375.126 369.098 374.747 368.56 374.256C368.022 373.764 367.753 373.12 367.753 372.325C367.753 371.664 367.932 371.088 368.289 370.596C368.65 370.101 369.134 369.716 369.741 369.444C370.352 369.167 371.034 369.029 371.787 369.029C372.548 369.029 373.224 369.165 373.815 369.438C374.407 369.707 374.876 370.076 375.222 370.544C375.571 371.013 375.756 371.545 375.775 372.141H374.392ZM379.715 369.19V380.992H378.286V369.19H379.715ZM390.648 372.878C390.522 372.49 390.354 372.143 390.147 371.835C389.943 371.524 389.699 371.259 389.415 371.04C389.135 370.821 388.816 370.654 388.458 370.539C388.101 370.423 387.709 370.366 387.283 370.366C386.584 370.366 385.948 370.546 385.375 370.907C384.803 371.269 384.348 371.801 384.01 372.504C383.672 373.207 383.503 374.069 383.503 375.091C383.503 376.113 383.674 376.976 384.015 377.679C384.357 378.382 384.82 378.914 385.404 379.275C385.988 379.636 386.645 379.817 387.375 379.817C388.051 379.817 388.647 379.673 389.162 379.384C389.68 379.092 390.084 378.681 390.372 378.151C390.664 377.617 390.81 376.989 390.81 376.267L391.248 376.359H387.698V375.091H392.193V376.359C392.193 377.331 391.985 378.176 391.57 378.895C391.159 379.613 390.591 380.17 389.865 380.566C389.142 380.958 388.312 381.154 387.375 381.154C386.33 381.154 385.412 380.908 384.621 380.416C383.833 379.924 383.218 379.225 382.776 378.318C382.338 377.412 382.119 376.336 382.119 375.091C382.119 374.158 382.244 373.318 382.494 372.573C382.748 371.824 383.105 371.186 383.566 370.66C384.027 370.133 384.572 369.73 385.203 369.449C385.833 369.169 386.526 369.029 387.283 369.029C387.905 369.029 388.485 369.123 389.023 369.311C389.565 369.496 390.047 369.759 390.47 370.101C390.896 370.439 391.251 370.844 391.536 371.317C391.82 371.785 392.016 372.306 392.124 372.878H390.648ZM403.999 369.19V380.992H402.616L396.185 371.726H396.07V380.992H394.64V369.19H396.023L402.478 378.48H402.593V369.19H403.999ZM423.732 369.19H425.161V377.004C425.161 377.811 424.971 378.532 424.591 379.165C424.214 379.795 423.682 380.293 422.994 380.658C422.307 381.019 421.5 381.2 420.574 381.2C419.648 381.2 418.841 381.019 418.154 380.658C417.466 380.293 416.932 379.795 416.552 379.165C416.175 378.532 415.987 377.811 415.987 377.004V369.19H417.416V376.889C417.416 377.465 417.543 377.978 417.796 378.428C418.05 378.873 418.411 379.225 418.88 379.482C419.352 379.736 419.917 379.863 420.574 379.863C421.231 379.863 421.796 379.736 422.268 379.482C422.741 379.225 423.102 378.873 423.352 378.428C423.605 377.978 423.732 377.465 423.732 376.889V369.19ZM428.015 380.992V369.19H432.003C432.929 369.19 433.686 369.357 434.273 369.692C434.865 370.022 435.303 370.469 435.587 371.034C435.872 371.599 436.014 372.229 436.014 372.924C436.014 373.62 435.872 374.252 435.587 374.82C435.307 375.389 434.873 375.842 434.285 376.18C433.697 376.515 432.944 376.682 432.026 376.682H429.168V375.414H431.98C432.614 375.414 433.123 375.304 433.507 375.085C433.891 374.866 434.17 374.571 434.343 374.198C434.519 373.821 434.608 373.397 434.608 372.924C434.608 372.452 434.519 372.029 434.343 371.657C434.17 371.284 433.889 370.992 433.501 370.781C433.113 370.566 432.598 370.458 431.957 370.458H429.444V380.992H428.015Z" fill="white"/>
<path d="M610.1 389H516.9C510.3 389 504.9 383.6 504.9 377V374.4C504.9 367.8 510.3 362.4 516.9 362.4H610.1C616.7 362.4 622.1 367.8 622.1 374.4V377C622.1 383.6 616.7 389 610.1 389Z" fill="#222D54"/>
<path d="M536.166 380.992V369.19H537.595V379.724H543.081V380.992H536.166ZM554.792 375.091C554.792 376.336 554.567 377.412 554.118 378.318C553.668 379.225 553.052 379.924 552.268 380.416C551.484 380.908 550.589 381.154 549.583 381.154C548.576 381.154 547.681 380.908 546.897 380.416C546.114 379.924 545.497 379.225 545.047 378.318C544.598 377.412 544.373 376.336 544.373 375.091C544.373 373.846 544.598 372.771 545.047 371.864C545.497 370.957 546.114 370.258 546.897 369.766C547.681 369.275 548.576 369.029 549.583 369.029C550.589 369.029 551.484 369.275 552.268 369.766C553.052 370.258 553.668 370.957 554.118 371.864C554.567 372.771 554.792 373.846 554.792 375.091ZM553.409 375.091C553.409 374.069 553.238 373.207 552.896 372.504C552.558 371.801 552.099 371.269 551.519 370.907C550.943 370.546 550.297 370.366 549.583 370.366C548.868 370.366 548.221 370.546 547.641 370.907C547.064 371.269 546.605 371.801 546.263 372.504C545.925 373.207 545.756 374.069 545.756 375.091C545.756 376.113 545.925 376.976 546.263 377.679C546.605 378.382 547.064 378.914 547.641 379.275C548.221 379.636 548.868 379.817 549.583 379.817C550.297 379.817 550.943 379.636 551.519 379.275C552.099 378.914 552.558 378.382 552.896 377.679C553.238 376.976 553.409 376.113 553.409 375.091ZM565.263 372.878C565.136 372.49 564.969 372.143 564.762 371.835C564.558 371.524 564.314 371.259 564.03 371.04C563.749 370.821 563.431 370.654 563.073 370.539C562.716 370.423 562.324 370.366 561.898 370.366C561.198 370.366 560.563 370.546 559.99 370.907C559.418 371.269 558.963 371.801 558.624 372.504C558.286 373.207 558.117 374.069 558.117 375.091C558.117 376.113 558.288 376.976 558.63 377.679C558.972 378.382 559.435 378.914 560.019 379.275C560.603 379.636 561.26 379.817 561.99 379.817C562.666 379.817 563.261 379.673 563.776 379.384C564.295 379.092 564.698 378.681 564.986 378.151C565.278 377.617 565.424 376.989 565.424 376.267L565.862 376.359H562.313V375.091H566.807V376.359C566.807 377.331 566.6 378.176 566.185 378.895C565.774 379.613 565.205 380.17 564.479 380.566C563.757 380.958 562.927 381.154 561.99 381.154C560.945 381.154 560.027 380.908 559.235 380.416C558.448 379.924 557.833 379.225 557.391 378.318C556.953 377.412 556.734 376.336 556.734 375.091C556.734 374.158 556.859 373.318 557.109 372.573C557.362 371.824 557.72 371.186 558.181 370.66C558.642 370.133 559.187 369.73 559.817 369.449C560.447 369.169 561.141 369.029 561.898 369.029C562.52 369.029 563.1 369.123 563.638 369.311C564.18 369.496 564.662 369.759 565.084 370.101C565.511 370.439 565.866 370.844 566.151 371.317C566.435 371.785 566.631 372.306 566.738 372.878H565.263ZM575.248 369.19V380.992H573.819V369.19H575.248ZM587.473 369.19V380.992H586.09L579.658 371.726H579.543V380.992H578.114V369.19H579.497L585.951 378.48H586.066V369.19H587.473Z" fill="white"/>
</g>
</g>
<defs>
<clipPath id="clip0_94_7307">
<rect width="1440" height="545" fill="white"/>
</clipPath>
<clipPath id="clip1_94_7307">
<rect width="1440" height="545" fill="white"/>
</clipPath>
</defs>
</svg>
